# v1.67 forge workshop structural mesh
v -2.40000 0.00000 -0.90000
v 2.40000 0.00000 -0.90000
v 2.40000 0.50000 -0.90000
v -2.40000 0.50000 -0.90000
v -2.40000 0.00000 0.90000
v 2.40000 0.00000 0.90000
v 2.40000 0.50000 0.90000
v -2.40000 0.50000 0.90000
v -2.10000 0.47500 -0.77500
v 2.10000 0.47500 -0.77500
v 2.10000 1.82500 -0.77500
v -2.10000 1.82500 -0.77500
v -2.10000 0.47500 0.77500
v 2.10000 0.47500 0.77500
v 2.10000 1.82500 0.77500
v -2.10000 1.82500 0.77500
v -2.50000 1.17500 -0.82500
v -1.40000 1.17500 -0.82500
v -1.40000 1.17500 0.82500
v -2.50000 1.17500 0.82500
v -2.35000 2.42500 -0.70000
v -1.55000 2.42500 -0.70000
v -1.55000 2.42500 0.70000
v -2.35000 2.42500 0.70000
v 1.40000 1.17500 -0.82500
v 2.50000 1.17500 -0.82500
v 2.50000 1.17500 0.82500
v 1.40000 1.17500 0.82500
v 1.55000 2.42500 -0.70000
v 2.35000 2.42500 -0.70000
v 2.35000 2.42500 0.70000
v 1.55000 2.42500 0.70000
v -1.40000 1.82500 -0.77500
v 1.40000 1.82500 -0.77500
v 1.40000 1.82500 0.67500
v -1.40000 1.82500 0.67500
v -0.92500 2.87500 -0.60000
v 0.92500 2.87500 -0.60000
v 0.92500 2.87500 0.50000
v -0.92500 2.87500 0.50000
v -0.77500 2.82500 -0.57500
v 0.77500 2.82500 -0.57500
v 0.77500 3.57500 -0.57500
v -0.77500 3.57500 -0.57500
v -0.77500 2.82500 0.47500
v 0.77500 2.82500 0.47500
v 0.77500 3.57500 0.47500
v -0.77500 3.57500 0.47500
v -0.62500 3.54500 -0.52500
v 0.62500 3.54500 -0.52500
v 0.62500 3.54500 0.42500
v -0.62500 3.54500 0.42500
v -0.42500 4.09500 -0.41000
v 0.42500 4.09500 -0.41000
v 0.42500 4.09500 0.31000
v -0.42500 4.09500 0.31000
v -2.32500 0.94000 0.50000
v -1.07500 0.94000 0.50000
v -1.07500 1.16000 0.50000
v -2.32500 1.16000 0.50000
v -2.32500 0.94000 1.50000
v -1.07500 0.94000 1.50000
v -1.07500 1.16000 1.50000
v -2.32500 1.16000 1.50000
v 1.07500 0.94000 0.50000
v 2.32500 0.94000 0.50000
v 2.32500 1.16000 0.50000
v 1.07500 1.16000 0.50000
v 1.07500 0.94000 1.50000
v 2.32500 0.94000 1.50000
v 2.32500 1.16000 1.50000
v 1.07500 1.16000 1.50000
v -1.52000 0.55500 0.75000
v -1.38000 0.55500 0.75000
v -1.38000 2.00500 0.75000
v -1.52000 2.00500 0.75000
v -1.52000 0.55500 0.93000
v -1.38000 0.55500 0.93000
v -1.38000 2.00500 0.93000
v -1.52000 2.00500 0.93000
v -1.02000 0.55500 0.75000
v -0.88000 0.55500 0.75000
v -0.88000 2.00500 0.75000
v -1.02000 2.00500 0.75000
v -1.02000 0.55500 0.93000
v -0.88000 0.55500 0.93000
v -0.88000 2.00500 0.93000
v -1.02000 2.00500 0.93000
v 0.88000 0.55500 0.75000
v 1.02000 0.55500 0.75000
v 1.02000 2.00500 0.75000
v 0.88000 2.00500 0.75000
v 0.88000 0.55500 0.93000
v 1.02000 0.55500 0.93000
v 1.02000 2.00500 0.93000
v 0.88000 2.00500 0.93000
v 1.38000 0.55500 0.75000
v 1.52000 0.55500 0.75000
v 1.52000 2.00500 0.75000
v 1.38000 2.00500 0.75000
v 1.38000 0.55500 0.93000
v 1.52000 0.55500 0.93000
v 1.52000 2.00500 0.93000
v 1.38000 2.00500 0.93000
v -1.99000 1.70000 0.15000
v -1.99000 3.00000 0.15000
v -2.02056 1.70000 0.24405
v -2.02056 3.00000 0.24405
v -2.10056 1.70000 0.30217
v -2.10056 3.00000 0.30217
v -2.19944 1.70000 0.30217
v -2.19944 3.00000 0.30217
v -2.27944 1.70000 0.24405
v -2.27944 3.00000 0.24405
v -2.31000 1.70000 0.15000
v -2.31000 3.00000 0.15000
v -2.27944 1.70000 0.05595
v -2.27944 3.00000 0.05595
v -2.19944 1.70000 -0.00217
v -2.19944 3.00000 -0.00217
v -2.10056 1.70000 -0.00217
v -2.10056 3.00000 -0.00217
v -2.02056 1.70000 0.05595
v -2.02056 3.00000 0.05595
v 2.31000 1.70000 0.15000
v 2.31000 3.00000 0.15000
v 2.27944 1.70000 0.24405
v 2.27944 3.00000 0.24405
v 2.19944 1.70000 0.30217
v 2.19944 3.00000 0.30217
v 2.10056 1.70000 0.30217
v 2.10056 3.00000 0.30217
v 2.02056 1.70000 0.24405
v 2.02056 3.00000 0.24405
v 1.99000 1.70000 0.15000
v 1.99000 3.00000 0.15000
v 2.02056 1.70000 0.05595
v 2.02056 3.00000 0.05595
v 2.10056 1.70000 -0.00217
v 2.10056 3.00000 -0.00217
v 2.19944 1.70000 -0.00217
v 2.19944 3.00000 -0.00217
v 2.27944 1.70000 0.05595
v 2.27944 3.00000 0.05595
v -2.23000 3.07000 0.15000
v -1.33000 3.07000 0.15000
v -2.23000 3.04708 0.22053
v -1.33000 3.04708 0.22053
v -2.23000 2.98708 0.26413
v -1.33000 2.98708 0.26413
v -2.23000 2.91292 0.26413
v -1.33000 2.91292 0.26413
v -2.23000 2.85292 0.22053
v -1.33000 2.85292 0.22053
v -2.23000 2.83000 0.15000
v -1.33000 2.83000 0.15000
v -2.23000 2.85292 0.07947
v -1.33000 2.85292 0.07947
v -2.23000 2.91292 0.03587
v -1.33000 2.91292 0.03587
v -2.23000 2.98708 0.03587
v -1.33000 2.98708 0.03587
v -2.23000 3.04708 0.07947
v -1.33000 3.04708 0.07947
v 1.33000 3.07000 0.15000
v 2.23000 3.07000 0.15000
v 1.33000 3.04708 0.22053
v 2.23000 3.04708 0.22053
v 1.33000 2.98708 0.26413
v 2.23000 2.98708 0.26413
v 1.33000 2.91292 0.26413
v 2.23000 2.91292 0.26413
v 1.33000 2.85292 0.22053
v 2.23000 2.85292 0.22053
v 1.33000 2.83000 0.15000
v 2.23000 2.83000 0.15000
v 1.33000 2.85292 0.07947
v 2.23000 2.85292 0.07947
v 1.33000 2.91292 0.03587
v 2.23000 2.91292 0.03587
v 1.33000 2.98708 0.03587
v 2.23000 2.98708 0.03587
v 1.33000 3.04708 0.07947
v 2.23000 3.04708 0.07947
v -2.10000 -0.22500 0.15000
v -1.30000 -0.22500 0.15000
v -1.30000 0.12500 0.15000
v -2.10000 0.12500 0.15000
v -2.10000 -0.22500 0.95000
v -1.30000 -0.22500 0.95000
v -1.30000 0.12500 0.95000
v -2.10000 0.12500 0.9500
v 1.30000 0.22500 0.15000
v 2.10000 0.22500 0.15000
v 2.10000 0.12500 0.15000
v 1.30000 0.12500 0.15000
v 1.30000 -0.22500 0.95000
v 2.10000 -0.22500 0.95000
v 2.10000 0.12500 0.95000
v 1.30000 0.12500 0.95000
f 1 2 3 4
f 5 8 7 6
f 1 5 6 2
f 2 6 7 3
f 3 7 8 4
f 5 1 4 8
f 9 10 11 12
f 13 16 15 14
f 9 13 14 10
f 10 14 15 11
f 11 15 16 12
f 13 9 12 16
f 17 18 19 20
f 21 24 23 22
f 17 21 22 18
f 18 22 23 19
f 19 23 24 20
f 20 24 21 17
f 25 26 27 28
f 29 32 31 30
f 25 29 30 26
f 26 30 31 27
f 27 31 32 28
f 28 32 29 25
f 33 34 35 36
f 37 40 39 38
f 33 37 38 34
f 34 38 39 35
f 35 39 40 36
f 36 40 37 33
f 41 42 43 44
f 45 48 47 46
f 41 45 46 42
f 42 46 47 43
f 43 47 48 44
f 45 41 44 48
f 49 50 51 52
f 53 56 55 54
f 49 53 54 50
f 50 54 55 51
f 51 55 56 52
f 52 56 53 49
f 57 58 59 60
f 61 64 63 62
f 57 61 62 58
f 58 62 63 59
f 59 63 64 60
f 61 57 60 64
f 65 66 67 68
f 69 72 71 70
f 65 69 70 66
f 66 70 71 67
f 67 71 72 68
f 69 65 68 72
f 73 74 75 76
f 77 80 79 78
f 73 77 78 74
f 74 78 79 75
f 75 79 80 76
f 77 73 76 80
f 81 82 83 84
f 85 88 87 86
f 81 85 86 82
f 82 86 87 83
f 83 87 88 84
f 85 81 84 88
f 89 90 91 92
f 93 96 95 94
f 89 93 94 90
f 90 94 95 91
f 91 95 96 92
f 93 89 92 96
f 97 98 99 100
f 101 104 103 102
f 97 101 102 98
f 98 102 103 99
f 99 103 104 100
f 101 97 100 104
f 123 121 119 117 115 113 111 109 107 105
f 106 108 110 112 114 116 118 120 122 124
f 105 107 108 106
f 107 109 110 108
f 109 111 112 110
f 111 113 114 112
f 113 115 116 114
f 115 117 118 116
f 117 119 120 118
f 119 121 122 120
f 121 123 124 122
f 123 105 106 124
f 143 141 139 137 135 133 131 129 127 125
f 126 128 130 132 134 136 138 140 142 144
f 125 127 128 126
f 127 129 130 128
f 129 131 132 130
f 131 133 134 132
f 133 135 136 134
f 135 137 138 136
f 137 139 140 138
f 139 141 142 140
f 141 143 144 142
f 143 125 126 144
f 163 161 159 157 155 153 151 149 147 145
f 146 148 150 152 154 156 158 160 162 164
f 145 147 148 146
f 147 149 150 148
f 149 151 152 150
f 151 153 154 152
f 153 155 156 154
f 155 157 158 156
f 157 159 160 158
f 159 161 162 160
f 161 163 164 162
f 163 145 146 164
f 183 181 179 177 175 173 171 169 167 165
f 166 168 170 172 174 176 178 180 182 184
f 165 167 168 166
f 167 169 170 168
f 169 171 172 170
f 171 173 174 172
f 173 175 176 174
f 175 177 178 176
f 177 179 180 178
f 179 181 182 180
f 181 183 184 182
f 183 165 166 184
f 185 186 187 188
f 189 192 191 190
f 185 189 190 186
f 186 190 191 187
f 187 191 192 188
f 189 185 188 192
f 193 194 195 196
f 197 200 199 198
f 193 197 198 194
f 194 198 199 195
f 195 199 200 196
f 197 193 196 200
