# v1.67 forge workshop trim mesh
v -1.00000 1.27000 0.77000
v 1.00000 1.27000 0.77000
v 1.00000 1.43000 0.77000
v -1.00000 1.43000 0.77000
v -1.00000 1.27000 0.95000
v 1.00000 1.27000 0.95000
v 1.00000 1.43000 0.95000
v -1.00000 1.43000 0.95000
v -1.00000 2.20000 0.77000
v 1.00000 2.20000 0.77000
v 1.00000 2.36000 0.77000
v -1.00000 2.36000 0.77000
v -1.00000 2.20000 0.95000
v 1.00000 2.20000 0.95000
v 1.00000 2.36000 0.95000
v -1.00000 2.36000 0.95000
v -1.00000 1.32000 0.77000
v -0.84000 1.32000 0.77000
v -0.84000 2.30000 0.77000
v -1.00000 2.30000 0.77000
v -1.00000 1.32000 0.95000
v -0.84000 1.32000 0.95000
v -0.84000 2.30000 0.95000
v -1.00000 2.30000 0.95000
v 0.84000 1.32000 0.77000
v 1.00000 1.32000 0.77000
v 1.00000 2.30000 0.77000
v 0.84000 2.30000 0.77000
v 0.84000 1.32000 0.95000
v 1.00000 1.32000 0.95000
v 1.00000 2.30000 0.95000
v 0.84000 2.30000 0.95000
v -0.84000 2.44000 0.77000
v -0.32000 2.44000 0.77000
v -0.32000 2.56000 0.77000
v -0.84000 2.56000 0.77000
v -0.84000 2.44000 0.97000
v -0.32000 2.44000 0.97000
v -0.32000 2.56000 0.97000
v -0.84000 2.56000 0.97000
v 0.32000 2.44000 0.77000
v 0.84000 2.44000 0.77000
v 0.84000 2.56000 0.77000
v 0.32000 2.56000 0.77000
v 0.32000 2.44000 0.97000
v 0.84000 2.44000 0.97000
v 0.84000 2.56000 0.97000
v 0.32000 2.56000 0.97000
v -1.24000 2.05000 0.86000
v -1.24000 2.05000 1.00000
v -1.28823 2.23000 0.86000
v -1.28823 2.23000 1.00000
v -1.42000 2.36177 0.86000
v -1.42000 2.36177 1.00000
v -1.60000 2.41000 0.86000
v -1.60000 2.41000 1.00000
v -1.78000 2.36177 0.86000
v -1.78000 2.36177 1.00000
v -1.91177 2.23000 0.86000
v -1.91177 2.23000 1.00000
v -1.96000 2.05000 0.86000
v -1.96000 2.05000 1.00000
v -1.91177 1.87000 0.86000
v -1.91177 1.87000 1.00000
v -1.78000 1.73823 0.86000
v -1.78000 1.73823 1.00000
v -1.60000 1.69000 0.86000
v -1.60000 1.69000 1.00000
v -1.42000 1.73823 0.86000
v -1.42000 1.73823 1.00000
v -1.28823 1.87000 0.86000
v -1.28823 1.87000 1.00000
v 1.96000 2.05000 0.86000
v 1.96000 2.05000 1.00000
v 1.91177 2.23000 0.86000
v 1.91177 2.23000 1.00000
v 1.78000 2.36177 0.86000
v 1.78000 2.36177 1.00000
v 1.60000 2.41000 0.86000
v 1.60000 2.41000 1.00000
v 1.42000 2.36177 0.86000
v 1.42000 2.36177 1.00000
v 1.28823 2.23000 0.86000
v 1.28823 2.23000 1.00000
v 1.24000 2.05000 0.86000
v 1.24000 2.05000 1.00000
v 1.28823 1.87000 0.86000
v 1.28823 1.87000 1.00000
v 1.42000 1.73823 0.86000
v 1.42000 1.73823 1.00000
v 1.60000 1.69000 0.86000
v 1.60000 1.69000 1.00000
v 1.78000 1.73823 0.86000
v 1.78000 1.73823 1.00000
v 1.91177 1.87000 0.86000
v 1.91177 1.87000 1.00000
v -1.01000 1.15000 0.86000
v -1.01000 1.15000 1.00000
v -1.04215 1.27000 0.86000
v -1.04215 1.27000 1.00000
v -1.13000 1.35785 0.86000
v -1.13000 1.35785 1.00000
v -1.25000 1.39000 0.86000
v -1.25000 1.39000 1.00000
v -1.37000 1.35785 0.86000
v -1.37000 1.35785 1.00000
v -1.45785 1.27000 0.86000
v -1.45785 1.27000 1.00000
v -1.49000 1.15000 0.86000
v -1.49000 1.15000 1.00000
v -1.45785 1.03000 0.86000
v -1.45785 1.03000 1.00000
v -1.37000 0.94215 0.86000
v -1.37000 0.94215 1.00000
v -1.25000 0.91000 0.86000
v -1.25000 0.91000 1.00000
v -1.13000 0.94215 0.86000
v -1.13000 0.94215 1.00000
v -1.04215 1.03000 0.86000
v -1.04215 1.03000 1.00000
v 1.49000 1.15000 0.86000
v 1.49000 1.15000 1.00000
v 1.45785 1.27000 0.86000
v 1.45785 1.27000 1.00000
v 1.37000 1.35785 0.86000
v 1.37000 1.35785 1.00000
v 1.25000 1.39000 0.86000
v 1.25000 1.39000 1.00000
v 1.13000 1.35785 0.86000
v 1.13000 1.35785 1.00000
v 1.04215 1.27000 0.86000
v 1.04215 1.27000 1.00000
v 1.01000 1.15000 0.86000
v 1.01000 1.15000 1.00000
v 1.04215 1.03000 0.86000
v 1.04215 1.03000 1.00000
v 1.13000 0.94215 0.86000
v 1.13000 0.94215 1.00000
v 1.25000 0.91000 0.86000
v 1.25000 0.91000 1.00000
v 1.37000 0.94215 0.86000
v 1.37000 0.94215 1.00000
v 1.45785 1.03000 0.86000
v 1.45785 1.03000 1.00000
v -2.12500 0.49000 0.86000
v 2.12500 0.49000 0.86000
v 2.12500 0.63000 0.86000
v -2.12500 0.63000 0.86000
v -2.12500 0.49000 1.02000
v 2.12500 0.49000 1.02000
v 2.12500 0.63000 1.02000
v -2.12500 0.63000 1.02000
v -0.81000 3.06000 -0.02000
v 0.81000 3.06000 -0.02000
v 0.81000 3.18000 -0.02000
v -0.81000 3.18000 -0.02000
v -0.81000 3.06000 1.06000
v 0.81000 3.06000 1.06000
v 0.81000 3.18000 1.06000
v -0.81000 3.18000 1.06000
v -1.79000 0.58000 1.00000
v -1.79000 0.58000 1.08000
v -1.80757 0.62243 1.00000
v -1.80757 0.62243 1.08000
v -1.85000 0.64000 1.00000
v -1.85000 0.64000 1.08000
v -1.89243 0.62243 1.00000
v -1.89243 0.62243 1.08000
v -1.91000 0.58000 1.00000
v -1.91000 0.58000 1.08000
v -1.89243 0.53757 1.00000
v -1.89243 0.53757 1.08000
v -1.85000 0.52000 1.00000
v -1.85000 0.52000 1.08000
v -1.80757 0.53757 1.00000
v -1.80757 0.53757 1.08000
v -1.19000 0.58000 1.00000
v -1.19000 0.58000 1.08000
v -1.20757 0.62243 1.00000
v -1.20757 0.62243 1.08000
v -1.25000 0.64000 1.00000
v -1.25000 0.64000 1.08000
v -1.29243 0.62243 1.00000
v -1.29243 0.62243 1.08000
v -1.31000 0.58000 1.00000
v -1.31000 0.58000 1.08000
v -1.29243 0.53757 1.00000
v -1.29243 0.53757 1.08000
v -1.25000 0.52000 1.00000
v -1.25000 0.52000 1.08000
v -1.20757 0.53757 1.00000
v -1.20757 0.53757 1.08000
v -0.59000 0.58000 1.00000
v -0.59000 0.58000 1.08000
v -0.60757 0.62243 1.00000
v -0.60757 0.62243 1.08000
v -0.65000 0.64000 1.00000
v -0.65000 0.64000 1.08000
v -0.69243 0.62243 1.00000
v -0.69243 0.62243 1.08000
v -0.71000 0.58000 1.00000
v -0.71000 0.58000 1.08000
v -0.69243 0.53757 1.00000
v -0.69243 0.53757 1.08000
v -0.65000 0.52000 1.00000
v -0.65000 0.52000 1.08000
v -0.60757 0.53757 1.00000
v -0.60757 0.53757 1.08000
v 0.71000 0.58000 1.00000
v 0.71000 0.58000 1.08000
v 0.69243 0.62243 1.00000
v 0.69243 0.62243 1.08000
v 0.65000 0.64000 1.00000
v 0.65000 0.64000 1.08000
v 0.60757 0.62243 1.00000
v 0.60757 0.62243 1.08000
v 0.59000 0.58000 1.00000
v 0.590000 0.58000 1.08000
v 0.60757 0.53757 1.00000
v 0.60757 0.53757 1.08000
v 0.65000 0.52000 1.00000
v 0.65000 0.52000 1.08000
v 0.69243 0.53757 1.00000
v 0.69243 0.53757 1.08000
v 1.31000 0.58000 1.00000
v 1.31000 0.58000 1.08000
v 1.29243 0.62243 1.00000
v 1.29243 0.62243 1.08000
v 1.25000 0.64000 1.00000
v 1.25000 0.64000 1.08000
v 1.20757 0.62243 1.00000
v 1.20757 0.62243 1.08000
v 1.19000 0.58000 1.00000
v 1.19000 0.58000 1.08000
v 1.20757 0.53757 1.00000
v 1.20757 0.53757 1.08000
v 1.25000 0.52000 1.00000
v 1.25000 0.52000 1.08000
v 1.29243 0.53757 1.00000
v 1.29243 0.53757 1.08000
v 1.91000 0.58000 1.00000
v 1.91000 0.58000 1.08000
v 1.89243 0.62243 1.00000
v 1.89243 0.62243 1.08000
v 1.85000 0.64000 1.00000
v 1.85000 0.64000 1.08000
v 1.80757 0.62243 1.00000
v 1.80757 0.62243 1.08000
v 1.79000 0.58000 1.00000
v 1.79000 0.58000 1.08000
v 1.80757 0.53757 1.00000
v 1.80757 0.53757 1.08000
v 1.85000 0.52000 1.00000
v 1.85000 0.52000 1.08000
v 1.89243 0.53757 1.00000
v 1.89243 0.53757 1.08000
f 1 2 3 4
f 5 8 7 6
f 1 5 6 2
f 2 6 7 3
f 3 7 8 4
f 5 1 4 8
f 9 10 11 12
f 13 16 15 14
f 9 13 14 10
f 10 14 15 11
f 11 15 16 12
f 13 9 12 16
f 17 18 19 20
f 21 24 23 22
f 17 21 22 18
f 18 22 23 19
f 19 23 24 20
f 21 17 20 24
f 25 26 27 28
f 29 32 31 30
f 25 29 30 26
f 26 30 31 27
f 27 31 32 28
f 29 25 28 32
f 33 34 35 36
f 37 40 39 38
f 33 37 38 34
f 34 38 39 35
f 35 39 40 36
f 37 33 36 40
f 41 42 43 44
f 45 48 47 46
f 41 45 46 42
f 42 46 47 43
f 43 47 48 44
f 45 41 44 48
f 71 69 67 65 63 61 59 57 55 53 51 49
f 50 52 54 56 58 60 62 64 66 68 70 72
f 49 51 52 50
f 51 53 54 52
f 53 55 56 54
f 55 57 58 56
f 57 59 60 58
f 59 61 62 60
f 61 63 64 62
f 63 65 66 64
f 65 67 68 66
f 67 69 70 68
f 69 71 72 70
f 71 49 50 72
f 95 93 91 89 87 85 83 81 79 77 75 73
f 74 76 78 80 82 84 86 88 90 92 94 96
f 73 75 76 74
f 75 77 78 76
f 77 79 80 78
f 79 81 82 80
f 81 83 84 82
f 83 85 86 84
f 85 87 88 86
f 87 89 90 88
f 89 91 92 90
f 91 93 94 92
f 93 95 96 94
f 95 73 74 96
f 119 117 115 113 111 109 107 105 103 101 99 97
f 98 100 102 104 106 108 110 112 114 116 118 120
f 97 99 100 98
f 99 101 102 100
f 101 103 104 102
f 103 105 106 104
f 105 107 108 106
f 107 109 110 108
f 109 111 112 110
f 111 113 114 112
f 113 115 116 114
f 115 117 118 116
f 117 119 120 118
f 119 97 98 120
f 143 141 139 137 135 133 131 129 127 125 123 121
f 122 124 126 128 130 132 134 136 138 140 142 144
f 121 123 124 122
f 123 125 126 124
f 125 127 128 126
f 127 129 130 128
f 129 131 132 130
f 131 133 134 132
f 133 135 136 134
f 135 137 138 136
f 137 139 140 138
f 139 141 142 140
f 141 143 144 142
f 143 121 122 144
f 145 146 147 148
f 149 152 151 150
f 145 149 150 146
f 146 150 151 147
f 147 151 152 148
f 149 145 148 152
f 153 154 155 156
f 157 160 159 158
f 153 157 158 154
f 154 158 159 155
f 155 159 160 156
f 157 153 156 160
f 175 173 171 169 167 165 163 161
f 162 164 166 168 170 172 174 176
f 161 163 164 162
f 163 165 166 164
f 165 167 168 166
f 167 169 170 168
f 169 171 172 170
f 171 173 174 172
f 173 175 176 174
f 175 161 162 176
f 191 189 187 185 183 181 179 177
f 178 180 182 184 186 188 190 192
f 177 179 180 178
f 179 181 182 180
f 181 183 184 182
f 183 185 186 184
f 185 187 188 186
f 187 189 190 188
f 189 191 192 190
f 191 177 178 192
f 207 205 203 201 199 197 195 193
f 194 196 198 200 202 204 206 208
f 193 195 196 194
f 195 197 198 196
f 197 199 200 198
f 199 201 202 200
f 201 203 204 202
f 203 205 206 204
f 205 207 208 206
f 207 193 194 208
f 223 221 219 217 215 213 211 209
f 210 212 214 216 218 220 222 224
f 209 211 212 210
f 211 213 214 212
f 213 215 216 214
f 215 217 218 216
f 217 219 220 218
f 219 221 222 220
f 221 223 224 222
f 223 209 210 224
f 239 237 235 233 231 229 227 225
f 226 228 230 232 234 236 238 240
f 225 227 228 226
f 227 229 230 228
f 229 231 232 230
f 231 233 234 232
f 233 235 236 234
f 235 237 238 236
f 237 239 240 238
f 239 225 226 240
f 255 253 251 249 247 245 243 241
f 242 244 246 248 250 252 254 256
f 241 243 244 242
f 243 245 246 244
f 245 247 248 246
f 247 249 250 248
f 249 251 252 250
f 251 253 254 252
f 253 255 256 254
f 255 241 242 256
