# ONE MORE FLOOR v1.60 authored environment asset: ArcaneObelisk
o ObeliskBase
s 1
v -0.60 0.00 -0.60
v 0.60 0.00 -0.60
v 0.60 0.36 -0.60
v -0.60 0.36 -0.60
v -0.60 0.00 0.60
v 0.60 0.00 0.60
v 0.60 0.36 0.60
v -0.60 0.36 0.60
f 1 2 3 4
f 5 8 7 6
f 1 5 6 2
f 2 6 7 3
f 3 7 8 4
f 5 1 4 8
o ObeliskShaft
v -0.32 0.36 -0.32
v 0.32 0.36 -0.32
v 0.32 3.10 -0.32
v -0.32 3.10 -0.32
v -0.32 0.36 0.32
v 0.32 0.36 0.32
v 0.32 3.10 0.32
v -0.32 3.10 0.32
f 9 10 11 12
f 13 16 15 14
f 9 13 14 10
f 10 14 15 11
f 11 15 16 12
f 13 9 12 16
o ObeliskCrown
v -0.48 3.10 -0.48
v 0.48 3.10 -0.48
v 0.00 3.85 0.00
v -0.48 3.10 0.48
v 0.48 3.10 0.48
f 17 18 19
f 18 21 19
f 21 20 19
f 20 17 19
f 17 20 21 18
