# ONE MORE FLOOR v1.60 authored production mesh: Iron Bastion Forge Engine
s 1
o ForgeFoundation
v -1.80000 0.00000 -1.10000
v 1.80000 0.00000 -1.10000
v 1.80000 0.36000 -1.10000
v -1.80000 0.36000 -1.10000
v -1.80000 0.00000 1.10000
v 1.80000 0.00000 1.10000
v 1.80000 0.36000 1.10000
v -1.80000 0.36000 1.10000
f 1 2 3 4
f 5 8 7 6
f 1 5 6 2
f 2 6 7 3
f 3 7 8 4
f 5 1 4 8
o ForgeBase
v -1.50000 0.29000 -0.92500
v 1.50000 0.29000 -0.92500
v 1.50000 0.81000 -0.92500
v -1.50000 0.81000 -0.92500
v -1.50000 0.29000 0.72500
v 1.50000 0.29000 0.72500
v 1.50000 0.81000 0.72500
v -1.50000 0.81000 0.72500
f 9 10 11 12
f 13 16 15 14
f 9 13 14 10
f 10 14 15 11
f 11 15 16 12
f 13 9 12 16
o Firebox
v -0.97500 0.57000 -0.80500
v 0.97500 0.57000 -0.80500
v 0.97500 1.87000 -0.80500
v -0.97500 1.87000 -0.80500
v -0.97500 0.57000 0.24500
v 0.97500 0.57000 0.24500
v 0.97500 1.87000 0.24500
v -0.97500 1.87000 0.24500
f 17 18 19 20
f 21 24 23 22
f 17 21 22 18
f 18 22 23 19
f 19 23 24 20
f 21 17 20 24
o FireboxMouth
v -0.65000 0.90000 -0.91000
v 0.65000 0.90000 -0.91000
v 0.65000 1.54000 -0.91000
v -0.65000 1.54000 -0.91000
v -0.65000 0.90000 -0.79000
v 0.65000 0.90000 -0.79000
v 0.65000 1.54000 -0.79000
v -0.65000 1.54000 -0.79000
f 25 26 27 28
f 29 32 31 30
f 25 29 30 26
f 26 30 31 27
f 27 31 32 28
f 29 25 28 32
o TopAnvil
v -1.27500 1.84000 -0.77000
v 1.27500 1.84000 -0.77000
v 1.27500 2.20000 -0.77000
v -1.27500 2.20000 -0.77000
v -1.27500 1.84000 0.53000
v 1.27500 1.84000 0.53000
v 1.27500 2.20000 0.53000
v -1.27500 2.20000 0.53000
f 33 34 35 36
f 37 40 39 38
f 33 37 38 34
f 34 38 39 35
f 35 39 40 36
f 37 33 36 40
o SideTower_-1
v -1.66000 0.37500 -0.34000
v -1.04000 0.37500 -0.34000
v -1.04000 2.72500 -0.34000
v -1.66000 2.72500 -0.34000
v -1.66000 0.37500 0.38000
v -1.04000 0.37500 0.38000
v -1.04000 2.72500 0.38000
v -1.66000 2.72500 0.38000
f 41 42 43 44
f 45 48 47 46
f 41 45 46 42
f 42 46 47 43
f 43 47 48 44
f 45 41 44 48
o Piston_-1
v -0.68000 0.67500 0.65000
v -0.71438 0.67500 0.75580
v -0.80438 0.67500 0.82119
v -0.91562 0.67500 0.82119
v -1.00562 0.67500 0.75580
v -1.04000 0.67500 0.65000
v -1.00562 0.67500 0.54420
v -0.91562 0.67500 0.47881
v -0.80438 0.67500 0.47881
v -0.71438 0.67500 0.54420
v -0.68000 2.22500 0.65000
v -0.71438 2.22500 0.75580
v -0.80438 2.22500 0.82119
v -0.91562 2.22500 0.82119
v -1.00562 2.22500 0.75580
v -1.04000 2.22500 0.65000
v -1.00562 2.22500 0.54420
v -0.91562 2.22500 0.47881
v -0.80438 2.22500 0.47881
v -0.71438 2.22500 0.54420
f 49 50 60 59
f 50 51 61 60
f 51 52 62 61
f 52 53 63 62
f 53 54 64 63
f 54 55 65 64
f 55 56 66 65
f 56 57 67 66
f 57 58 68 67
f 58 49 59 68
f 58 57 56 55 54 53 52 51 50 49
f 59 60 61 62 63 64 65 66 67 68
o Exhaust_-1
v -1.08000 2.15500 0.08000
v -1.12584 2.15500 0.22107
v -1.24584 2.15500 0.30825
v -1.39416 2.15500 0.30825
v -1.51416 2.15500 0.22107
v -1.56000 2.15500 0.08000
v -1.51416 2.15500 -0.06107
v -1.39416 2.15500 -0.14825
v -1.24584 2.15500 -0.14825
v -1.12584 2.15500 -0.06107
v -1.15000 3.40500 0.08000
v -1.18247 3.40500 0.17992
v -1.26747 3.40500 0.24168
v -1.37253 3.40500 0.24168
v -1.45753 3.40500 0.17992
v -1.49000 3.40500 0.08000
v -1.45753 3.40500 -0.01992
v -1.37253 3.40500 -0.08168
v -1.26747 3.40500 -0.08168
v -1.18247 3.40500 -0.01992
f 69 70 80 79
f 70 71 81 80
f 71 72 82 81
f 72 73 83 82
f 73 74 84 83
f 74 75 85 84
f 75 76 86 85
f 76 77 87 86
f 77 78 88 87
f 78 69 79 88
f 78 77 76 75 74 73 72 71 70 69
f 79 80 81 82 83 84 85 86 87 88
o ExhaustCap_-1
v -1.01000 3.29000 0.08000
v -1.06920 3.29000 0.26221
v -1.22420 3.29000 0.37483
v -1.41580 3.29000 0.37483
v -1.57080 3.29000 0.26221
v -1.63000 3.29000 0.08000
v -1.57080 3.29000 -0.10221
v -1.41580 3.29000 -0.21483
v -1.22420 3.29000 -0.21483
v -1.06920 3.29000 -0.10221
v -1.32000 3.81000 0.08000
f 89 90 99
f 90 91 99
f 91 92 99
f 92 93 99
f 93 94 99
f 94 95 99
f 95 96 99
f 96 97 99
f 97 98 99
f 98 89 99
f 98 97 96 95 94 93 92 91 90 89
o SideTower_1
v 1.04000 0.37500 -0.34000
v 1.66000 0.37500 -0.34000
v 1.66000 2.72500 -0.34000
v 1.04000 2.72500 -0.34000
v 1.04000 0.37500 0.38000
v 1.66000 0.37500 0.38000
v 1.66000 2.72500 0.38000
v 1.04000 2.72500 0.38000
f 100 101 102 103
f 104 107 106 105
f 100 104 105 101
f 101 105 106 102
f 102 106 107 103
f 104 100 103 107
o Piston_1
v 1.04000 0.67500 0.65000
v 1.00562 0.67500 0.75580
v 0.91562 0.67500 0.82119
v 0.80438 0.67500 0.82119
v 0.71438 0.67500 0.75580
v 0.68000 0.67500 0.65000
v 0.71438 0.67500 0.54420
v 0.80438 0.67500 0.47881
v 0.91562 0.67500 0.47881
v 1.00562 0.67500 0.54420
v 1.04000 2.22500 0.65000
v 1.00562 2.22500 0.75580
v 0.91562 2.22500 0.82119
v 0.80438 2.22500 0.82119
v 0.71438 2.22500 0.75580
v 0.68000 2.22500 0.65000
v 0.71438 2.22500 0.54420
v 0.80438 2.22500 0.47881
v 0.91562 2.22500 0.47881
v 1.00562 2.22500 0.54420
f 108 109 119 118
f 109 110 120 119
f 110 111 121 120
f 111 112 122 121
f 112 113 123 122
f 113 114 124 123
f 114 115 125 124
f 115 116 126 125
f 116 117 127 126
f 117 108 118 127
f 117 116 115 114 113 112 111 110 109 108
f 118 119 120 121 122 123 124 125 126 127
o Exhaust_1
v 1.56000 2.15500 0.08000
v 1.51416 2.15500 0.22107
v 1.39416 2.15500 0.30825
v 1.24584 2.15500 0.30825
v 1.12584 2.15500 0.22107
v 1.08000 2.15500 0.08000
v 1.12584 2.15500 -0.06107
v 1.24584 2.15500 -0.14825
v 1.39416 2.15500 -0.14825
v 1.51416 2.15500 -0.06107
v 1.49000 3.40500 0.08000
v 1.45753 3.40500 0.17992
v 1.37253 3.40500 0.24168
v 1.26747 3.40500 0.24168
v 1.18247 3.40500 0.17992
v 1.15000 3.40500 0.08000
v 1.18247 3.40500 -0.01992
v 1.26747 3.40500 -0.08168
v 1.37253 3.40500 -0.08168
v 1.45753 3.40500 -0.01992
f 128 129 139 138
f 129 130 140 139
f 130 131 141 140
f 131 132 142 141
f 132 133 143 142
f 133 134 144 143
f 134 135 145 144
f 135 136 146 145
f 136 137 147 146
f 137 128 138 147
f 137 136 135 134 133 132 131 130 129 128
f 138 139 140 141 142 143 144 145 146 147
o ExhaustCap_1
v 1.63000 3.29000 0.08000
v 1.57080 3.29000 0.26221
v 1.41580 3.29000 0.37483
v 1.22420 3.29000 0.37483
v 1.06920 3.29000 0.26221
v 1.01000 3.29000 0.08000
v 1.06920 3.29000 -0.10221
v 1.22420 3.29000 -0.21483
v 1.41580 3.29000 -0.21483
v 1.57080 3.29000 -0.10221
v 1.32000 3.81000 0.08000
f 148 149 158
f 149 150 158
f 150 151 158
f 151 152 158
f 152 153 158
f 153 154 158
f 154 155 158
f 155 156 158
f 156 157 158
f 157 148 158
f 157 156 155 154 153 152 151 150 149 148
o Rivet
v -1.47000 0.60000 -0.86000
v -1.49343 0.60000 -0.80343
v -1.55000 0.60000 -0.78000
v -1.60657 0.60000 -0.80343
v -1.63000 0.60000 -0.86000
v -1.60657 0.60000 -0.91657
v -1.55000 0.60000 -0.94000
v -1.49343 0.60000 -0.91657
v -1.47000 0.70000 -0.86000
v -1.49343 0.70000 -0.80343
v -1.55000 0.70000 -0.78000
v -1.60657 0.70000 -0.80343
v -1.63000 0.70000 -0.86000
v -1.60657 0.70000 -0.91657
v -1.55000 0.70000 -0.94000
v -1.49343 0.70000 -0.91657
f 159 160 168 167
f 160 161 169 168
f 161 162 170 169
f 162 163 171 170
f 163 164 172 171
f 164 165 173 172
f 165 166 174 173
f 166 159 167 174
f 166 165 164 163 162 161 160 159
f 167 168 169 170 171 172 173 174
o Rivet
v 1.63000 0.60000 -0.86000
v 1.60657 0.60000 -0.80343
v 1.55000 0.60000 -0.78000
v 1.49343 0.60000 -0.80343
v 1.47000 0.60000 -0.86000
v 1.49343 0.60000 -0.91657
v 1.55000 0.60000 -0.94000
v 1.60657 0.60000 -0.91657
v 1.63000 0.70000 -0.86000
v 1.60657 0.70000 -0.80343
v 1.55000 0.70000 -0.78000
v 1.49343 0.70000 -0.80343
v 1.47000 0.70000 -0.86000
v 1.49343 0.70000 -0.91657
v 1.55000 0.70000 -0.94000
v 1.60657 0.70000 -0.91657
f 175 176 184 183
f 176 177 185 184
f 177 178 186 185
f 178 179 187 186
f 179 180 188 187
f 180 181 189 188
f 181 182 190 189
f 182 175 183 190
f 182 181 180 179 178 177 176 175
f 183 184 185 186 187 188 189 190
o Rivet
v -1.47000 1.10000 -0.86000
v -1.49343 1.10000 -0.80343
v -1.55000 1.10000 -0.78000
v -1.60657 1.10000 -0.80343
v -1.63000 1.10000 -0.86000
v -1.60657 1.10000 -0.91657
v -1.55000 1.10000 -0.94000
v -1.49343 1.10000 -0.91657
v -1.47000 1.20000 -0.86000
v -1.49343 1.20000 -0.80343
v -1.55000 1.20000 -0.78000
v -1.60657 1.20000 -0.80343
v -1.63000 1.20000 -0.86000
v -1.60657 1.20000 -0.91657
v -1.55000 1.20000 -0.94000
v -1.49343 1.20000 -0.91657
f 191 192 200 199
f 192 193 201 200
f 193 194 202 201
f 194 195 203 202
f 195 196 204 203
f 196 197 205 204
f 197 198 206 205
f 198 191 199 206
f 198 197 196 195 194 193 192 191
f 199 200 201 202 203 204 205 206
o Rivet
v 1.63000 1.10000 -0.86000
v 1.60657 1.10000 -0.80343
v 1.55000 1.10000 -0.78000
v 1.49343 1.10000 -0.80343
v 1.47000 1.10000 -0.86000
v 1.49343 1.10000 -0.91657
v 1.55000 1.10000 -0.94000
v 1.60657 1.10000 -0.91657
v 1.63000 1.20000 -0.86000
v 1.60657 1.20000 -0.80343
v 1.55000 1.20000 -0.78000
v 1.49343 1.20000 -0.80343
v 1.47000 1.20000 -0.86000
v 1.49343 1.20000 -0.91657
v 1.55000 1.20000 -0.94000
v 1.60657 1.20000 -0.91657
f 207 208 216 215
f 208 209 217 216
f 209 210 218 217
f 210 211 219 218
f 211 212 220 219
f 212 213 221 220
f 213 214 222 221
f 214 207 215 222
f 214 213 212 211 210 209 208 207
f 215 216 217 218 219 220 221 222
o Rivet
v -1.47000 1.60000 -0.86000
v -1.49343 1.60000 -0.80343
v -1.55000 1.60000 -0.78000
v -1.60657 1.60000 -0.80343
v -1.63000 1.60000 -0.86000
v -1.60657 1.60000 -0.91657
v -1.55000 1.60000 -0.94000
v -1.49343 1.60000 -0.91657
v -1.47000 1.70000 -0.86000
v -1.49343 1.70000 -0.80343
v -1.55000 1.70000 -0.78000
v -1.60657 1.70000 -0.80343
v -1.63000 1.70000 -0.86000
v -1.60657 1.70000 -0.91657
v -1.55000 1.70000 -0.94000
v -1.49343 1.70000 -0.91657
f 223 224 232 231
f 224 225 233 232
f 225 226 234 233
f 226 227 235 234
f 227 228 236 235
f 228 229 237 236
f 229 230 238 237
f 230 223 231 238
f 230 229 228 227 226 225 224 223
f 231 232 233 234 235 236 237 238
o Rivet
v 1.63000 1.60000 -0.86000
v 1.60657 1.60000 -0.80343
v 1.55000 1.60000 -0.78000
v 1.49343 1.60000 -0.80343
v 1.47000 1.60000 -0.86000
v 1.49343 1.60000 -0.91657
v 1.55000 1.60000 -0.94000
v 1.60657 1.60000 -0.91657
v 1.63000 1.70000 -0.86000
v 1.60657 1.70000 -0.80343
v 1.55000 1.70000 -0.78000
v 1.49343 1.70000 -0.80343
v 1.47000 1.70000 -0.86000
v 1.49343 1.70000 -0.91657
v 1.55000 1.70000 -0.94000
v 1.60657 1.70000 -0.91657
f 239 240 248 247
f 240 241 249 248
f 241 242 250 249
f 242 243 251 250
f 243 244 252 251
f 244 245 253 250
f 245 246 254 253
f 246 239 247 254
f 246 245 244 243 242 241 240 239
f 247 248 249 250 251 252 253 254
o Brace_-1
v -1.49500 0.42500 0.41000
v -0.74500 0.42500 0.41000
v -1.49500 1.67500 0.41000
v -1.49500 0.42500 0.69000
v -0.74500 0.42500 0.69000
v -1.49500 1.67500 0.69000
f 255 256 257
f 258 260 259
f 255 258 259 256
f 256 259 260 257
f 257 260 258 255
o Brace_1
v 0.74500 0.42500 0.41000
v 1.49500 0.42500 0.41000
v 1.49500 1.67500 0.41000
v 0.74500 0.42500 0.69000
v 1.49500 0.42500 0.69000
v 1.49500 1.67500 0.69000
f 261 262 263
f 264 266 265
f 261 264 265 262
f 262 265 266 263
f 263 266 264 261
o ChimneyBridge
v -1.35000 2.58000 -0.18000
v 1.35000 2.58000 -0.18000
v 1.35000 2.82000 -0.18000
v -1.35000 2.82000 -0.18000
v -1.35000 2.58000 0.34000
v 1.35000 2.58000 0.34000
v 1.35000 2.82000 0.34000
v -1.35000 2.82000 0.34000
f 267 268 269 270
f 271 274 273 272
f 267 271 272 268
f 268 272 273 269
f 269 273 274 270
f 271 267 270 274
