# ONE MORE FLOOR v1.60 authored production mesh: Iron Bastion Heavy Buttress
s 1
o Foundation
v -0.65000 0.00000 -0.52500
v 0.65000 0.00000 -0.52500
v 0.65000 0.36000 -0.52500
v -0.65000 0.36000 -0.52500
v -0.65000 0.00000 0.52500
v 0.65000 0.00000 0.52500
v 0.65000 0.36000 0.52500
v -0.65000 0.36000 0.52500
f 1 2 3 4
f 5 8 7 6
f 1 5 6 2
f 2 6 7 3
f 3 7 8 4
f 5 1 4 8
o LowerFoot
v -0.52500 0.31000 -0.45000
v 0.52500 0.31000 -0.45000
v 0.52500 0.73000 -0.45000
v -0.52500 0.73000 -0.45000
v -0.52500 0.31000 0.45000
v 0.52500 0.31000 0.45000
v 0.52500 0.73000 0.45000
v -0.52500 0.73000 0.45000
f 9 10 11 12
f 13 16 15 14
f 9 13 14 10
f 10 14 15 11
f 11 15 16 12
f 13 9 12 16
o Web
v -0.14000 0.47500 -0.26000
v 0.14000 0.47500 -0.26000
v 0.14000 3.72500 -0.26000
v -0.14000 3.72500 -0.26000
v -0.14000 0.47500 0.26000
v 0.14000 0.47500 0.26000
v 0.14000 3.72500 0.26000
v -0.14000 3.72500 0.26000
f 17 18 19 20
f 21 24 23 22
f 17 21 22 18
f 18 22 23 19
f 19 23 24 20
f 21 17 20 24
o FrontFlange
v -0.43000 0.47500 -0.43000
v 0.43000 0.47500 -0.43000
v 0.43000 3.72500 -0.43000
v -0.43000 3.72500 -0.43000
v -0.43000 0.47500 -0.25000
v 0.43000 0.47500 -0.25000
v 0.43000 3.72500 -0.25000
v -0.43000 3.72500 -0.25000
f 25 26 27 28
f 29 32 31 30
f 25 29 30 26
f 26 30 31 27
f 27 31 32 28
f 29 25 28 32
o RearFlange
v -0.43000 0.47500 0.25000
v 0.43000 0.47500 0.25000
v 0.43000 3.72500 0.25000
v -0.43000 3.72500 0.25000
v -0.43000 0.47500 0.43000
v 0.43000 0.47500 0.43000
v 0.43000 3.72500 0.43000
v -0.43000 3.72500 0.43000
f 33 34 35 36
f 37 40 39 38
f 33 37 38 34
f 34 38 39 35
f 35 39 40 36
f 37 33 36 40
o BraceLeft
v -0.98965 0.54702 -0.20000
v -0.80055 0.48191 -0.20000
v 0.02965 2.89298 -0.20000
v -0.15945 2.95809 -0.20000
v -0.98965 0.54702 0.10000
v -0.80055 0.48191 0.10000
v 0.02965 2.89298 0.10000
v -0.15945 2.95809 0.10000
f 41 42 43 44
f 45 48 47 46
f 41 45 46 42
f 42 46 47 43
f 43 47 48 44
f 45 41 44 48
o BraceRight
v 0.80055 0.48191 -0.20000
v 0.98965 0.54702 -0.20000
v 0.15945 2.95809 -0.20000
v -0.02965 2.89298 -0.20000
v 0.80055 0.48191 0.10000
v 0.98965 0.54702 0.10000
v 0.15945 2.95809 0.10000
v -0.02965 2.89298 0.10000
f 49 50 51 52
f 53 56 55 54
f 49 53 54 50
f 50 54 55 51
f 51 55 56 52
f 53 49 52 56
o TopCap
v -0.69000 3.63000 -0.50000
v 0.69000 3.63000 -0.50000
v 0.69000 3.93000 -0.50000
v -0.69000 3.93000 -0.50000
v -0.69000 3.63000 0.50000
v 0.69000 3.63000 0.50000
v 0.69000 3.93000 0.50000
v -0.69000 3.93000 0.50000
f 57 58 59 60
f 61 64 63 62
f 57 61 62 58
f 58 62 63 59
f 59 63 64 60
f 61 57 60 64
o TopRail
v -0.52500 3.94000 -0.36000
v 0.52500 3.94000 -0.36000
v 0.52500 4.16000 -0.36000
v -0.52500 4.16000 -0.36000
v -0.52500 3.94000 0.36000
v 0.52500 3.94000 0.36000
v 0.52500 4.16000 0.36000
v -0.52500 4.16000 0.36000
f 65 66 67 68
f 69 72 71 70
f 65 69 70 66
f 66 70 71 67
f 67 71 72 68
f 69 65 68 72
o Piston_-1
v -0.34000 2.32000 -1.33000
v -0.36292 2.24947 -1.33000
v -0.42292 2.20587 -1.33000
v -0.49708 2.20587 -1.33000
v -0.55708 2.24947 -1.33000
v -0.58000 2.32000 -1.33000
v -0.55708 2.39053 -1.33000
v -0.49708 2.43413 -1.33000
v -0.42292 2.43413 -1.33000
v -0.36292 2.39053 -1.33000
v -0.34000 2.32000 0.37000
v -0.36292 2.24947 0.37000
v -0.42292 2.20587 0.37000
v -0.49708 2.20587 0.37000
v -0.55708 2.24947 0.37000
v -0.58000 2.32000 0.37000
v -0.55708 2.39053 0.37000
v -0.49708 2.43413 0.37000
v -0.42292 2.43413 0.37000
v -0.36292 2.39053 0.37000
f 73 74 84 83
f 74 75 85 84
f 75 76 86 85
f 76 77 87 86
f 77 78 88 87
f 78 79 89 88
f 79 80 90 89
f 80 81 91 90
f 81 82 92 91
f 82 73 83 92
f 82 81 80 79 78 77 76 75 74 73
f 83 84 85 86 87 88 89 90 91 92
o Piston_1
v 0.58000 2.32000 -1.33000
v 0.55708 2.24947 -1.33000
v 0.49708 2.20587 -1.33000
v 0.42292 2.20587 -1.33000
v 0.36292 2.24947 -1.33000
v 0.34000 2.32000 -1.33000
v 0.36292 2.39053 -1.33000
v 0.42292 2.43413 -1.33000
v 0.49708 2.43413 -1.33000
v 0.55708 2.39053 -1.33000
v 0.58000 2.32000 0.37000
v 0.55708 2.24947 0.37000
v 0.49708 2.20587 0.37000
v 0.42292 2.20587 0.37000
v 0.36292 2.24947 0.37000
v 0.34000 2.32000 0.37000
v 0.36292 2.39053 0.37000
v 0.42292 2.43413 0.37000
v 0.49708 2.43413 0.37000
v 0.55708 2.39053 0.37000
f 93 94 104 103
f 94 95 105 104
f 95 96 106 105
f 96 97 107 106
f 97 98 108 107
f 98 99 109 108
f 99 100 110 109
f 100 101 111 110
f 101 102 112 111
f 102 93 103 112
f 102 101 100 99 98 97 96 95 94 93
f 103 104 105 106 107 108 109 110 111 112
o Rivet_0_-1
v -0.21500 0.72000 -0.51000
v -0.23697 0.66697 -0.51000
v -0.29000 0.64500 -0.51000
v -0.34303 0.66697 -0.51000
v -0.36500 0.72000 -0.51000
v -0.34303 0.77303 -0.51000
v -0.29000 0.79500 -0.51000
v -0.23697 0.77303 -0.51000
v -0.21500 0.72000 -0.41000
v -0.23697 0.66697 -0.41000
v -0.29000 0.64500 -0.41000
v -0.34303 0.66697 -0.41000
v -0.36500 0.72000 -0.41000
v -0.34303 0.77303 -0.41000
v -0.29000 0.79500 -0.41000
v -0.23697 0.77303 -0.41000
f 113 114 122 121
f 114 115 123 122
f 115 116 124 123
f 116 117 125 124
f 117 118 126 125
f 118 119 127 126
f 119 120 128 127
f 120 113 121 128
f 120 119 118 117 116 115 114 113
f 121 122 123 124 125 126 127 128
o Rivet_0_1
v 0.36500 0.72000 -0.51000
v 0.34303 0.66697 -0.51000
v 0.29000 0.64500 -0.51000
v 0.23697 0.66697 -0.51000
v 0.21500 0.72000 -0.51000
v 0.23697 0.77303 -0.51000
v 0.29000 0.79500 -0.51000
v 0.34303 0.77303 -0.51000
v 0.36500 0.72000 -0.41000
v 0.34303 0.66697 -0.41000
v 0.29000 0.64500 -0.41000
v 0.23697 0.66697 -0.41000
v 0.21500 0.72000 -0.41000
v 0.23697 0.77303 -0.41000
v 0.29000 0.79500 -0.41000
v 0.34303 0.77303 -0.41000
f 129 130 138 137
f 130 131 139 138
f 131 132 140 139
f 132 133 141 140
f 133 134 142 141
f 134 135 143 142
f 135 136 144 143
f 136 129 137 144
f 136 135 134 133 132 131 130 129
f 137 138 139 140 141 142 143 144
o Rivet_1_-1
v -0.21500 1.28000 -0.51000
v -0.23697 1.22697 -0.51000
v -0.29000 1.20500 -0.51000
v -0.34303 1.22697 -0.51000
v -0.36500 1.28000 -0.51000
v -0.34303 1.33303 -0.51000
v -0.29000 1.35500 -0.51000
v -0.23697 1.33303 -0.51000
v -0.21500 1.28000 -0.41000
v -0.23697 1.22697 -0.41000
v -0.29000 1.20500 -0.41000
v -0.34303 1.22697 -0.41000
v -0.36500 1.28000 -0.41000
v -0.34303 1.33303 -0.41000
v -0.29000 1.35500 -0.41000
v -0.23697 1.33303 -0.41000
f 145 146 154 153
f 146 147 155 154
f 147 148 156 155
f 148 149 157 156
f 149 150 158 157
f 150 151 159 158
f 151 152 160 159
f 152 145 153 160
f 152 151 150 149 148 147 146 145
f 153 154 155 156 157 158 159 160
o Rivet_1_1
v 0.36500 1.28000 -0.51000
v 0.34303 1.22697 -0.51000
v 0.29000 1.20500 -0.51000
v 0.23697 1.22697 -0.51000
v 0.21500 1.28000 -0.51000
v 0.23697 1.33303 -0.51000
v 0.29000 1.35500 -0.51000
v 0.34303 1.33303 -0.51000
v 0.36500 1.28000 -0.41000
v 0.34303 1.22697 -0.41000
v 0.29000 1.20500 -0.41000
v 0.23697 1.22697 -0.41000
v 0.21500 1.28000 -0.41000
v 0.23697 1.33303 -0.41000
v 0.29000 1.35500 -0.41000
v 0.34303 1.33303 -0.41000
f 161 162 170 169
f 162 163 171 170
f 163 164 172 171
f 164 165 173 172
f 165 166 174 173
f 166 167 175 174
f 167 168 176 175
f 168 161 169 176
f 168 167 166 165 164 163 162 161
f 169 170 171 172 173 174 175 176
o Rivet_2_-1
v -0.21500 1.84000 -0.51000
v -0.23697 1.78697 -0.51000
v -0.29000 1.76500 -0.51000
v -0.34303 1.78697 -0.51000
v -0.36500 1.84000 -0.51000
v -0.34303 1.89303 -0.51000
v -0.29000 1.91500 -0.51000
v -0.23697 1.89303 -0.51000
v -0.21500 1.84000 -0.41000
v -0.23697 1.78697 -0.41000
v -0.29000 1.76500 -0.41000
v -0.34303 1.78697 -0.41000
v -0.36500 1.84000 -0.41000
v -0.34303 1.89303 -0.41000
v -0.29000 1.91500 -0.41000
v -0.23697 1.89303 -0.41000
f 177 178 186 185
f 178 179 187 186
f 179 180 188 187
f 180 181 189 188
f 181 182 190 189
f 182 183 191 190
f 183 184 192 191
f 184 177 185 192
f 184 183 182 181 180 179 178 177
f 185 186 187 188 189 190 191 192
o Rivet_2_1
v 0.36500 1.84000 -0.51000
v 0.34303 1.78697 -0.51000
v 0.29000 1.76500 -0.51000
v 0.23697 1.78697 -0.51000
v 0.21500 1.84000 -0.51000
v 0.23697 1.89303 -0.51000
v 0.29000 1.91500 -0.51000
v 0.34303 1.89303 -0.51000
v 0.36500 1.84000 -0.41000
v 0.34303 1.78697 -0.41000
v 0.29000 1.76500 -0.41000
v 0.23697 1.78697 -0.41000
v 0.21500 1.84000 -0.41000
v 0.23697 1.89303 -0.41000
v 0.29000 1.91500 -0.41000
v 0.34303 1.89303 -0.41000
f 193 194 202 201
f 194 195 203 202
f 195 196 204 203
f 196 197 205 204
f 197 198 206 205
f 198 199 207 206
f 199 200 208 207
f 200 193 201 208
f 200 199 198 197 196 195 194 193
f 201 202 203 204 205 206 207 208
o Rivet_3_-1
v -0.21500 2.40000 -0.51000
v -0.23697 2.34697 -0.51000
v -0.29000 2.32500 -0.51000
v -0.34303 2.34697 -0.51000
v -0.36500 2.40000 -0.51000
v -0.34303 2.45303 -0.51000
v -0.29000 2.47500 -0.51000
v -0.23697 2.45303 -0.51000
v -0.21500 2.40000 -0.41000
v -0.23697 2.34697 -0.41000
v -0.29000 2.32500 -0.41000
v -0.34303 2.34697 -0.41000
v -0.36500 2.40000 -0.41000
v -0.34303 2.45303 -0.41000
v -0.29000 2.47500 -0.41000
v -0.23697 2.45303 -0.41000
f 209 210 218 217
f 210 211 219 218
f 211 212 220 219
f 212 213 221 220
f 213 214 222 221
f 214 215 223 222
f 215 216 224 223
f 216 209 217 224
f 216 215 214 213 212 211 210 209
f 217 218 219 220 221 222 223 224
o Rivet_3_1
v 0.36500 2.40000 -0.51000
v 0.34303 2.34697 -0.51000
v 0.29000 2.32500 -0.51000
v 0.23697 2.34697 -0.51000
v 0.21500 2.40000 -0.51000
v 0.23697 2.45303 -0.51000
v 0.29000 2.47500 -0.51000
v 0.34303 2.45303 -0.51000
v 0.36500 2.40000 -0.41000
v 0.34303 2.34697 -0.41000
v 0.29000 2.32500 -0.41000
v 0.23697 2.34697 -0.41000
v 0.21500 2.40000 -0.41000
v 0.23697 2.45303 -0.41000
v 0.29000 2.47500 -0.41000
v 0.34303 2.45303 -0.41000
f 225 226 234 233
f 226 227 235 234
f 227 228 236 235
f 228 229 237 236
f 229 230 238 237
f 230 231 239 238
f 231 232 240 239
f 232 225 233 240
f 232 231 230 229 228 227 226 225
f 233 234 235 236 237 238 239 240
o Rivet_4_-1
v -0.21500 2.96000 -0.51000
v -0.23697 2.90697 -0.51000
v -0.29000 2.88500 -0.51000
v -0.34303 2.90697 -0.51000
v -0.36500 2.96000 -0.51000
v -0.34303 3.01303 -0.51000
v -0.29000 3.03500 -0.51000
v -0.23697 3.01303 -0.51000
v -0.21500 2.96000 -0.41000
v -0.23697 2.90697 -0.41000
v -0.29000 2.88500 -0.41000
v -0.34303 2.90697 -0.41000
v -0.36500 2.96000 -0.41000
v -0.34303 3.01303 -0.41000
v -0.29000 3.03500 -0.41000
v -0.23697 3.01303 -0.41000
f 241 242 250 249
f 242 243 251 250
f 243 244 252 251
f 244 245 253 252
f 245 246 254 253
f 246 247 255 254
f 247 248 256 255
f 248 241 249 256
f 248 247 246 245 244 243 242 241
f 249 250 251 252 253 254 255 256
o Rivet_4_1
v 0.36500 2.96000 -0.51000
v 0.34303 2.90697 -0.51000
v 0.29000 2.88500 -0.51000
v 0.23697 2.90697 -0.51000
v 0.21500 2.96000 -0.51000
v 0.23697 3.01303 -0.51000
v 0.29000 3.03500 -0.51000
v 0.34303 3.01303 -0.51000
v 0.36500 2.96000 -0.41000
v 0.34303 2.90697 -0.41000
v 0.29000 2.88500 -0.41000
v 0.23697 2.90697 -0.41000
v 0.21500 2.96000 -0.41000
v 0.23697 3.01303 -0.41000
v 0.29000 3.03500 -0.41000
v 0.34303 3.01303 -0.41000
f 257 258 266 265
f 258 259 267 266
f 259 260 268 267
f 260 261 269 268
f 261 262 270 269
f 262 263 271 270
f 263 264 272 271
f 264 257 265 272
f 264 263 262 261 260 259 258 257
f 265 266 267 268 269 270 271 272
o Rivet_5_-1
v -0.21500 3.52000 -0.51000
v -0.23697 3.46697 -0.51000
v -0.29000 3.44500 -0.51000
v -0.34303 3.46697 -0.51000
v -0.36500 3.52000 -0.51000
v -0.34303 3.57303 -0.51000
v -0.29000 3.59500 -0.51000
v -0.23697 3.57303 -0.51000
v -0.21500 3.52000 -0.41000
v -0.23697 3.46697 -0.41000
v -0.29000 3.44500 -0.41000
v -0.34303 3.46697 -0.41000
v -0.36500 3.52000 -0.41000
v -0.34303 3.57303 -0.41000
v -0.29000 3.59500 -0.41000
v -0.23697 3.57303 -0.41000
f 273 274 282 281
f 274 275 283 282
f 275 276 284 283
f 276 277 285 284
f 277 278 286 285
f 278 279 287 286
f 279 280 288 287
f 280 273 281 288
f 280 279 278 277 276 275 274 273
f 281 282 283 284 285 286 287 288
o Rivet_5_1
v 0.36500 3.52000 -0.51000
v 0.34303 3.46697 -0.51000
v 0.29000 3.44500 -0.51000
v 0.23697 3.46697 -0.51000
v 0.21500 3.52000 -0.51000
v 0.23697 3.57303 -0.51000
v 0.29000 3.59500 -0.51000
v 0.34303 3.57303 -0.51000
v 0.36500 3.52000 -0.41000
v 0.34303 3.46697 -0.41000
v 0.29000 3.44500 -0.41000
v 0.23697 3.46697 -0.41000
v 0.21500 3.52000 -0.41000
v 0.23697 3.57303 -0.41000
v 0.29000 3.59500 -0.41000
v 0.34303 3.57303 -0.41000
f 289 290 298 297
f 290 291 299 298
f 291 292 300 299
f 292 293 301 300
f 293 294 302 301
f 294 295 303 302
f 295 296 304 303
f 296 289 297 304
f 296 295 294 293 292 291 290 289
f 297 298 299 300 301 302 303 304
o ArmorWing_-1
v -0.94000 1.94500 -0.32000
v -0.46000 1.94500 -0.32000
v -0.94000 3.29500 -0.32000
v -0.94000 1.94500 0.36000
v -0.46000 1.94500 0.36000
v -0.94000 3.29500 0.36000
f 305 306 307
f 308 310 309
f 305 308 309 306
f 306 309 310 307
f 307 310 308 305
o ArmorWing_1
v 0.46000 1.94500 -0.32000
v 0.94000 1.94500 -0.32000
v 0.94000 3.29500 -0.32000
v 0.46000 1.94500 0.36000
v 0.94000 1.94500 0.36000
v 0.94000 3.29500 0.36000
f 311 312 313
f 314 316 315
f 311 314 315 312
f 312 315 316 313
f 313 316 314 311
