# ONE MORE FLOOR v1.60 authored tower asset: OssuaryTotem
o TotemBase
s 1
v -0.60 0.00 -0.60
v 0.60 0.00 -0.60
v 0.60 0.32 -0.60
v -0.60 0.32 -0.60
v -0.60 0.00 0.60
v 0.60 0.00 0.60
v 0.60 0.32 0.60
v -0.60 0.32 0.60
f 1 2 3 4
f 5 8 7 6
f 1 5 6 2
f 2 6 7 3
f 3 7 8 4
f 5 1 4 8
o BoneShaft
v -0.22 0.32 -0.22
v 0.22 0.32 -0.22
v 0.22 3.10 -0.22
v -0.22 3.10 -0.22
v -0.22 0.32 0.22
v 0.22 0.32 0.22
v 0.22 3.10 0.22
v -0.22 3.10 0.22
f 9 10 11 12
f 13 16 15 14
f 9 13 14 10
f 10 14 15 11
f 11 15 16 12
f 13 9 12 16
o SkullCrown
v -0.55 2.85 -0.38
v 0.55 2.85 -0.38
v 0.55 3.55 -0.38
v -0.55 3.55 -0.38
v -0.55 2.85 0.38
v 0.55 2.85 0.38
v 0.55 3.55 0.38
v -0.55 3.55 0.38
f 17 18 19 20
f 21 24 23 22
f 17 21 22 18
f 18 22 23 19
f 19 23 24 20
f 21 17 20 24
