# ONE MORE FLOOR v1.60 authored production mesh: Ossuary Reliquary Altar
s 1
o CryptPlinth
v -1.65000 0.00000 -0.95000
v 1.65000 0.00000 -0.95000
v 1.65000 0.36000 -0.95000
v -1.65000 0.36000 -0.95000
v -1.65000 0.00000 0.95000
v 1.65000 0.00000 0.95000
v 1.65000 0.36000 0.95000
v -1.65000 0.36000 0.95000
f 1 2 3 4
f 5 8 7 6
f 1 5 6 2
f 2 6 7 3
f 3 7 8 4
f 5 1 4 8
o CryptStep
v -1.40000 0.32000 -0.77500
v 1.40000 0.32000 -0.77500
v 1.40000 0.54000 -0.77500
v -1.40000 0.54000 -0.77500
v -1.40000 0.32000 0.77500
v 1.40000 0.32000 0.77500
v 1.40000 0.54000 0.77500
v -1.40000 0.54000 0.77500
f 9 10 11 12
f 13 16 15 14
f 9 13 14 10
f 10 14 15 11
f 11 15 16 12
f 13 9 12 16
o AltarSlab
v -1.22500 0.57000 -0.61000
v 1.22500 0.57000 -0.61000
v 1.22500 0.87000 -0.61000
v -1.22500 0.87000 -0.61000
v -1.22500 0.57000 0.61000
v 1.22500 0.57000 0.61000
v 1.22500 0.87000 0.61000
v -1.22500 0.87000 0.61000
f 17 18 19 20
f 21 24 23 22
f 17 21 22 18
f 18 22 23 19
f 19 23 24 20
f 21 17 20 24
o SarcophagusBody
v -0.87500 0.81000 -0.34000
v 0.87500 0.81000 -0.34000
v 0.87500 1.23000 -0.34000
v -0.87500 1.23000 -0.34000
v -0.87500 0.81000 0.44000
v 0.87500 0.81000 0.44000
v 0.87500 1.23000 0.44000
v -0.87500 1.23000 0.44000
f 25 26 27 28
f 29 32 31 30
f 25 29 30 26
f 26 30 31 27
f 27 31 32 28
f 29 25 28 32
o Wing_-1
v -1.72500 0.40500 -0.17500
v -0.97500 0.40500 -0.17500
v -1.72500 1.35500 -0.17500
v -1.72500 0.40500 0.17500
v -0.97500 0.40500 0.17500
v -1.72500 1.35500 0.17500
f 33 34 35
f 36 38 37
f 33 36 37 34
f 34 37 38 35
f 35 38 36 33
o BonePillar_-1
v -0.90000 0.47500 -0.25000
v -0.95858 0.47500 -0.10858
v -1.10000 0.47500 -0.05000
v -1.24142 0.47500 -0.10858
v -1.30000 0.47500 -0.25000
v -1.24142 0.47500 -0.39142
v -1.10000 0.47500 -0.45000
v -0.95858 0.47500 -0.39142
v -0.96000 2.02500 -0.25000
v -1.00101 2.02500 -0.15101
v -1.10000 2.02500 -0.11000
v -1.19899 2.02500 -0.15101
v -1.24000 2.02500 -0.25000
v -1.19899 2.02500 -0.34899
v -1.10000 2.02500 -0.39000
v -1.00101 2.02500 -0.34899
f 39 40 48 47
f 40 41 49 48
f 41 42 50 49
f 42 43 51 50
f 43 44 52 51
f 44 45 53 52
f 45 46 54 53
f 46 39 47 54
f 46 45 44 43 42 41 40 39
f 47 48 49 50 51 52 53 54
o Spire_-1
v -0.82000 1.73000 -0.25000
v -0.90201 1.73000 -0.05201
v -1.10000 1.73000 0.03000
v -1.29799 1.73000 -0.05201
v -1.38000 1.73000 -0.25000
v -1.29799 1.73000 -0.44799
v -1.10000 1.73000 -0.53000
v -0.90201 1.73000 -0.44799
v -1.10000 2.51000 -0.25000
f 55 56 63
f 56 57 63
f 57 58 63
f 58 59 63
f 59 60 63
f 60 61 63
f 61 62 63
f 62 55 63
f 62 61 60 59 58 57 56 55
o Wing_1
v 0.97500 0.40500 -0.17500
v 1.72500 0.40500 -0.17500
v 1.72500 1.35500 -0.17500
v 0.97500 0.40500 0.17500
v 1.72500 0.40500 0.17500
v 1.72500 1.35500 0.17500
f 64 65 66
f 67 69 68
f 64 67 68 65
f 65 68 69 66
f 66 69 67 64
o BonePillar_1
v 1.30000 0.47500 -0.25000
v 1.24142 0.47500 -0.10858
v 1.10000 0.47500 -0.05000
v 0.95858 0.47500 -0.10858
v 0.90000 0.47500 -0.25000
v 0.95858 0.47500 -0.39142
v 1.10000 0.47500 -0.45000
v 1.24142 0.47500 -0.39142
v 1.24000 2.02500 -0.25000
v 1.19899 2.02500 -0.15101
v 1.10000 2.02500 -0.11000
v 1.00101 2.02500 -0.15101
v 0.96000 2.02500 -0.25000
v 1.00101 2.02500 -0.34899
v 1.10000 2.02500 -0.39000
v 1.19899 2.02500 -0.34899
f 70 71 79 78
f 71 72 80 79
f 72 73 81 80
f 73 74 82 81
f 74 75 83 82
f 75 76 84 83
f 76 77 85 84
f 77 70 78 85
f 77 76 75 74 73 72 71 70
f 78 79 80 81 82 83 84 85
o Spire_1
v 1.38000 1.73000 -0.25000
v 1.29799 1.73000 -0.05201
v 1.10000 1.73000 0.03000
v 0.90201 1.73000 -0.05201
v 0.82000 1.73000 -0.25000
v 0.90201 1.73000 -0.44799
v 1.10000 1.73000 -0.53000
v 1.29799 1.73000 -0.44799
v 1.10000 2.51000 -0.25000
f 86 87 94
f 87 88 94
f 88 89 94
f 89 90 94
f 90 91 94
f 91 92 94
f 92 93 94
f 93 86 94
f 93 92 91 90 89 88 87 86
o SkullCrown
v 0.46000 1.53000 -0.28000
v 0.37215 1.53000 -0.00961
v 0.14215 1.53000 0.15748
v -0.14215 1.53000 0.15748
v -0.37215 1.53000 -0.00961
v -0.46000 1.53000 -0.28000
v -0.37215 1.53000 -0.55039
v -0.14215 1.53000 -0.71748
v 0.14215 1.53000 -0.71748
v 0.37215 1.53000 -0.55039
v 0.38000 2.03000 -0.28000
v 0.30745 2.03000 -0.05650
v 0.11745 2.03000 0.08140
v -0.11745 2.03000 0.08140
v -0.30745 2.03000 -0.05650
v -0.38000 2.03000 -0.28000
v -0.30745 2.03000 -0.50350
v -0.11745 2.03000 -0.64140
v 0.11745 2.03000 -0.64140
v 0.30745 2.03000 -0.50350
f 95 96 106 105
f 96 97 107 106
f 97 98 108 107
f 98 99 109 108
f 99 100 110 109
f 100 101 111 110
f 101 102 112 111
f 102 103 113 112
f 103 104 114 113
f 104 95 105 114
f 104 103 102 101 100 99 98 97 96 95
f 105 106 107 108 109 110 111 112 113 114
o SkullJaw
v -0.29000 1.33500 -0.61000
v 0.29000 1.33500 -0.61000
v 0.29000 1.60500 -0.61000
v -0.29000 1.60500 -0.61000
v -0.29000 1.33500 -0.19000
v 0.29000 1.33500 -0.19000
v 0.29000 1.60500 -0.19000
v -0.29000 1.60500 -0.19000
f 115 116 117 118
f 119 122 121 120
f 115 119 120 116
f 116 120 121 117
f 117 121 122 118
f 119 115 118 122
o EyeSocket
v -0.24000 1.75500 -0.61000
v -0.08000 1.75500 -0.61000
v -0.08000 1.90500 -0.61000
v -0.24000 1.90500 -0.61000
v -0.24000 1.75500 -0.51000
v -0.08000 1.75500 -0.51000
v -0.08000 1.90500 -0.51000
v -0.24000 1.90500 -0.51000
f 123 124 125 126
f 127 130 129 128
f 123 127 128 124
f 124 128 129 125
f 125 129 130 126
f 127 123 126 130
o EyeSocket
v 0.08000 1.75500 -0.61000
v 0.24000 1.75500 -0.61000
v 0.24000 1.90500 -0.61000
v 0.08000 1.90500 -0.61000
v 0.08000 1.75500 -0.51000
v 0.24000 1.75500 -0.51000
v 0.24000 1.90500 -0.51000
v 0.08000 1.90500 -0.51000
f 131 132 133 134
f 135 138 137 136
f 131 135 136 132
f 132 136 137 133
f 133 137 138 134
f 135 131 134 138
o CrossBone
v -0.88500 1.37000 0.15000
v 0.16500 1.37000 0.15000
v -0.88500 1.53000 0.15000
v -0.88500 1.37000 0.31000
v 0.16500 1.37000 0.31000
v -0.88500 1.53000 0.31000
f 139 140 141
f 142 144 143
f 139 142 143 140
f 140 143 144 141
f 141 144 142 139
o CrossBone
v -0.16500 1.37000 0.15000
v 0.88500 1.37000 0.15000
v 0.88500 1.53000 0.15000
v -0.16500 1.37000 0.31000
v 0.88500 1.37000 0.31000
v 0.88500 1.53000 0.31000
f 145 146 147
f 148 150 149
f 145 148 149 146
f 146 149 150 147
f 147 150 148 145
o CrownSpire
v 0.38000 1.89000 -0.15000
v 0.26870 1.89000 0.11870
v 0.00000 1.89000 0.23000
v -0.26870 1.89000 0.11870
v -0.38000 1.89000 -0.15000
v -0.26870 1.89000 -0.41870
v -0.00000 1.89000 -0.53000
v 0.26870 1.89000 -0.41870
v 0.00000 2.81000 -0.15000
f 151 152 159
f 152 153 159
f 153 154 159
f 154 155 159
f 155 156 159
f 156 157 159
f 157 158 159
f 158 151 159
f 158 157 156 155 154 153 152 151
