# ONE MORE FLOOR v1.60 authored environment asset: TowerPassShrine
o ShrineBase
s 1
v -1.40 0.00 -0.95
v 1.40 0.00 -0.95
v 1.40 0.44 -0.95
v -1.40 0.44 -0.95
v -1.40 0.00 0.95
v 1.40 0.00 0.95
v 1.40 0.44 0.95
v -1.40 0.44 0.95
f 1 2 3 4
f 5 8 7 6
f 1 5 6 2
f 2 6 7 3
f 3 7 8 4
f 5 1 4 8
o ShrineBack
v -1.10 0.44 -0.85
v 1.10 0.44 -0.85
v 1.10 3.60 -0.85
v -1.10 3.60 -0.85
v -1.10 0.44 -0.55
v 1.10 0.44 -0.55
v 1.10 3.60 -0.55
v -1.10 3.60 -0.55
f 9 10 11 12
f 13 16 15 14
f 9 13 14 10
f 10 14 15 11
f 11 15 16 12
f 13 9 12 16
o Relic
v -0.32 1.35 -0.45
v 0.32 1.35 -0.45
v 0.32 2.75 -0.45
v -0.32 2.75 -0.45
v -0.32 1.35 -0.18
v 0.32 1.35 -0.18
v 0.32 2.75 -0.18
v -0.32 2.75 -0.18
f 17 18 19 20
f 21 24 23 22
f 17 21 22 18
f 18 22 23 19
f 19 23 24 20
f 21 17 20 24
o ShrineCrown
v -1.35 3.60 -0.95
v 1.35 3.60 -0.95
v 1.35 3.88 -0.95
v -1.35 3.88 -0.95
v -1.35 3.60 -0.45
v 1.35 3.60 -0.45
v 1.35 3.88 -0.45
v -1.35 3.88 -0.45
f 25 26 27 28
f 29 32 31 30
f 25 29 30 26
f 26 30 31 27
f 27 31 32 28
f 29 25 28 32
