# ONE MORE FLOOR v1.60 authored production mesh: Rift Descent Crystal Cluster
s 1
o ShardBase_0
v 0.17450 -0.06455 0.05000
v -0.09853 -0.03163 0.52631
v -0.64457 0.03422 0.52631
v -0.91759 0.06714 0.05000
v -0.64457 0.03422 -0.42631
v -0.09853 -0.03163 -0.42631
v 0.09746 0.30735 0.05000
v -0.11549 0.33303 0.42152
v -0.54141 0.38438 0.42152
v -0.75437 0.41006 0.05000
v -0.54141 0.38438 -0.32152
v -0.11549 0.33303 -0.32152
f 1 2 8 7
f 2 3 9 8
f 3 4 10 9
f 4 5 11 10
f 5 6 12 11
f 6 1 7 12
f 6 5 4 3 2 1
f 7 8 9 10 11 12
o ShardBase_1
v 0.79240 -0.01985 0.12000
v 0.54260 -0.00985 0.55301
v 0.04300 0.01014 0.55301
v -0.20680 0.02014 0.12000
v 0.04300 0.01014 -0.31301
v 0.54260 -0.00985 -0.31301
v 0.69689 0.34426 0.12000
v 0.50204 0.35206 0.45775
v 0.11235 0.36765 0.45775
v -0.08249 0.37545 0.12000
v 0.11235 0.36765 -0.21775
v 0.50204 0.35206 -0.21775
f 13 14 20 19
f 14 15 21 20
f 15 16 22 21
f 16 17 23 22
f 17 18 24 23
f 18 13 19 24
f 18 17 16 15 14 13
f 19 20 21 22 23 24
o ShardBase_2
v 0.62670 0.02494 -0.25000
v 0.31695 0.01254 0.28694
v -0.30255 -0.01225 0.28694
v -0.61231 -0.02465 -0.25000
v -0.30255 -0.01225 -0.78694
v 0.31695 0.01254 -0.78694
v 0.47602 0.37919 -0.25000
v 0.23441 0.36953 0.16881
v -0.24880 0.35019 0.16881
v -0.49041 0.34052 -0.25000
v -0.24880 0.35019 -0.66881
v 0.23441 0.36953 -0.66881
f 25 26 32 31
f 26 27 33 32
f 27 28 34 33
f 28 29 35 34
f 29 30 36 35
f 30 25 31 36
f 30 29 28 27 26 25
f 31 32 33 34 35 36
o ShardBase_3
v 0.48853 0.05157 0.34000
v 0.28004 0.02643 0.70373
v -0.13694 -0.02385 0.70373
v -0.34543 -0.04898 0.34000
v -0.13694 -0.02385 -0.02373
v 0.28004 0.02643 -0.02373
v 0.35370 0.39792 0.34000
v 0.19107 0.37831 0.62371
v -0.13417 0.33910 0.62371
v -0.29679 0.31949 0.34000
v -0.13417 0.33910 0.05629
v 0.19107 0.37831 0.05629
f 37 38 44 43
f 38 39 45 44
f 39 40 46 45
f 40 41 47 46
f 41 42 48 47
f 42 37 43 48
f 42 41 40 39 38 37
f 43 44 45 46 47 48
o RiftCrystal_0
v 0.25647 0.00334 0.21000
v -0.10638 0.02871 0.42000
v -0.46922 0.05409 0.21000
v -0.46922 0.05409 -0.21000
v -0.10638 0.02871 -0.42000
v 0.25647 0.00334 -0.21000
v 0.34859 2.25941 0.17220
v 0.05106 2.28022 0.34440
v -0.24647 2.30102 0.17220
v -0.24647 2.30102 -0.17220
v 0.05106 2.28022 -0.34440
v 0.34859 2.25941 -0.17220
v 0.10638 3.07129 0.00000
f 49 50 56 55
f 55 56 61
f 50 51 57 56
f 56 57 61
f 51 52 58 57
f 57 58 61
f 52 53 59 58
f 58 59 61
f 53 54 60 59
f 59 60 61
f 54 49 55 60
f 60 55 61
f 54 53 52 51 50 49
o RiftCrystal_1
v -0.64060 -0.00497 0.10849
v -0.89516 0.05102 0.25703
v -1.13751 0.14695 0.10849
v -1.12531 0.18688 -0.18859
v -0.87075 0.13088 -0.33713
v -0.62840 0.03496 -0.18859
v -0.19145 1.62409 0.31863
v -0.40019 1.67000 0.44043
v -0.59892 1.74866 0.31863
v -0.58891 1.78140 0.07502
v -0.38017 1.73548 -0.04678
v -0.18144 1.65683 0.07502
v -0.21704 2.26905 0.28005
f 62 63 69 68
f 68 69 74
f 63 64 70 69
f 69 70 74
f 64 65 71 70
f 70 71 74
f 65 66 72 71
f 71 72 74
f 66 67 73 72
f 72 73 74
f 67 62 68 73
f 73 68 74
f 67 66 65 64 63 62
o RiftCrystal_2
v 1.11999 0.16296 0.28387
v 0.88629 0.09606 0.42283
v 0.66426 -0.00291 0.28387
v 0.67593 -0.03497 0.00596
v 0.90963 0.03193 -0.13300
v 1.13166 0.13090 0.00596
v 0.56504 1.56004 0.07398
v 0.37341 1.50518 0.18793
v 0.19135 1.42402 0.07398
v 0.20092 1.39773 -0.15390
v 0.39255 1.45259 -0.26785
v 0.57461 1.53374 -0.15390
v 0.20204 1.97601 -0.10492
f 75 76 82 81
f 81 82 87
f 76 77 83 82
f 82 83 87
f 77 78 84 83
f 83 84 87
f 78 79 85 84
f 84 85 87
f 79 80 86 85
f 85 86 87
f 80 75 81 86
f 86 81 87
f 80 79 78 77 76 75
o RiftCrystal_3
v -0.15918 0.09725 -0.10590
v -0.34312 0.15743 -0.00128
v -0.53652 0.15028 -0.10590
v -0.54598 0.08296 -0.31513
v -0.36204 0.02278 -0.41974
v -0.16864 0.02993 -0.31513
v -0.04217 1.17621 -0.47917
v -0.19300 1.22555 -0.39338
v -0.35159 1.21970 -0.47917
v -0.35935 1.16449 -0.65074
v -0.20852 1.11515 -0.73652
v -0.04993 1.12100 -0.65074
v -0.14742 1.54990 -0.68949
f 88 89 95 94
f 94 95 100
f 89 90 96 95
f 95 96 100
f 90 91 97 96
f 96 97 100
f 91 92 98 97
f 97 98 100
f 92 93 99 98
f 98 99 100
f 93 88 94 99
f 99 94 100
f 93 92 91 90 89 88
o RiftCrystal_4
v 0.60742 0.08743 0.32652
v 0.44221 0.02693 0.42162
v 0.26627 0.02728 0.32652
v 0.25554 0.08815 0.13631
v 0.42074 0.14865 0.04120
v 0.59668 0.14830 0.13631
v 0.41076 1.02317 0.61811
v 0.27529 0.97355 0.69609
v 0.13102 0.97384 0.61811
v 0.12222 1.02375 0.46213
v 0.25769 1.07337 0.38415
v 0.40196 1.07308 0.46213
v 0.20852 1.35221 0.64859
f 101 102 108 107
f 107 108 113
f 102 103 109 108
f 108 109 113
f 103 104 110 109
f 109 110 113
f 104 105 111 110
f 110 111 113
f 105 106 112 111
f 111 112 113
f 106 101 107 112
f 112 107 113
f 106 105 104 103 102 101
o OrbitShard_0
v 1.02392 0.87000 0.06000
v 0.89505 0.87000 0.11738
v 0.80066 0.87000 0.01254
v 0.87119 0.87000 -0.10963
v 1.00918 0.87000 -0.08030
v 1.00522 1.31640 0.04920
v 0.89954 1.31640 0.09625
v 0.82214 1.31640 0.01029
v 0.87998 1.31640 -0.08989
v 0.99313 1.31640 -0.06584
v 0.92000 1.49000 0.00000
f 114 115 120 119
f 119 120 124
f 115 116 121 120
f 120 121 124
f 116 117 122 121
f 121 122 124
f 117 118 123 122
f 122 123 124
f 118 114 119 123
f 123 119 124
f 118 117 116 115 114
o OrbitShard_1
v 0.20392 0.92443 0.66000
v 0.08286 0.88024 0.71738
v -0.00581 0.84787 0.61254
v 0.06045 0.87206 0.49037
v 0.19007 0.91937 0.51970
v 0.03328 1.33735 0.64920
v -0.06599 1.30112 0.69625
v -0.13870 1.27457 0.61029
v -0.08437 1.29441 0.51011
v 0.02192 1.33320 0.53416
v -0.10630 1.47121 0.60000
f 125 126 131 130
f 130 131 135
f 126 127 132 131
f 131 132 135
f 127 128 133 132
f 132 133 135
f 128 129 134 133
f 133 134 135
f 129 125 130 134
f 134 130 135
f 129 128 127 126 125
o OrbitShard_2
v -0.81608 0.87000 0.06000
v -0.94495 0.87000 0.11738
v -1.03934 0.87000 0.01254
v -0.96881 0.87000 -0.10963
v -0.83082 0.87000 -0.08030
v -0.83478 1.31640 0.04920
v -0.94046 1.31640 0.09625
v -1.01786 1.31640 0.01029
v -0.96002 1.31640 -0.08989
v -0.84687 1.31640 -0.06584
v -0.92000 1.49000 0.00000
f 136 137 142 141
f 141 142 146
f 137 138 143 142
f 142 143 146
f 138 139 144 143
f 143 144 146
f 139 140 145 144
f 144 145 146
f 140 136 141 145
f 145 141 146
f 140 139 138 137 136
o OrbitShard_3
v -0.00868 0.85316 -0.54000
v -0.12974 0.89735 -0.48262
v -0.21841 0.92972 -0.58746
v -0.15215 0.90553 -0.70963
v -0.02253 0.85822 -0.68030
v 0.12682 1.27891 -0.55080
v 0.02755 1.31515 -0.50375
v -0.04516 1.34169 -0.58971
v 0.00917 1.32185 -0.68989
v 0.11546 1.28306 -0.66584
v 0.10630 1.47121 -0.60000
f 147 148 153 152
f 152 153 157
f 148 149 154 153
f 153 154 157
f 149 150 155 154
f 154 155 157
f 150 151 156 155
f 155 156 157
f 151 147 152 156
f 156 152 157
f 151 150 149 148 147
