# ONE MORE FLOOR v1.60 authored production mesh: Rift Descent Anchor Gate
s 1
o AnchorPlinth
v -1.50000 0.00000 -0.82500
v 1.50000 0.00000 -0.82500
v 1.50000 0.32000 -0.82500
v -1.50000 0.32000 -0.82500
v -1.50000 0.00000 0.82500
v 1.50000 0.00000 0.82500
v 1.50000 0.32000 0.82500
v -1.50000 0.32000 0.82500
f 1 2 3 4
f 5 8 7 6
f 1 5 6 2
f 2 6 7 3
f 3 7 8 4
f 5 1 4 8
o AnchorStep
v -1.27500 0.31000 -0.64000
v 1.27500 0.31000 -0.64000
v 1.27500 0.53000 -0.64000
v -1.27500 0.53000 -0.64000
v -1.27500 0.31000 0.64000
v 1.27500 0.31000 0.64000
v 1.27500 0.53000 0.64000
v -1.27500 0.53000 0.64000
f 9 10 11 12
f 13 16 15 14
f 9 13 14 10
f 10 14 15 11
f 11 15 16 12
f 13 9 12 16
o AnchorPillar_-1
v -0.85000 0.25500 0.00000
v -0.92908 0.25500 0.19092
v -1.12000 0.25500 0.27000
v -1.31092 0.25500 0.19092
v -1.39000 0.25500 0.00000
v -1.31092 0.25500 -0.19092
v -1.12000 0.25500 -0.27000
v -0.92908 0.25500 -0.19092
v -0.92000 2.50500 0.00000
v -0.97858 2.50500 0.14142
v -1.12000 2.50500 0.20000
v -1.26142 2.50500 0.14142
v -1.32000 2.50500 0.00000
v -1.26142 2.50500 -0.14142
v -1.12000 2.50500 -0.20000
v -0.97858 2.50500 -0.14142
f 17 18 26 25
f 18 19 27 26
f 19 20 28 27
f 20 21 29 28
f 21 22 30 29
f 22 23 31 30
f 23 24 32 31
f 24 17 25 32
f 24 23 22 21 20 19 18 17
f 25 26 27 28 29 30 31 32
o AnchorCrown_-1
v -0.74000 2.29500 0.00000
v -0.85130 2.29500 0.26870
v -1.12000 2.29500 0.38000
v -1.38870 2.29500 0.26870
v -1.50000 2.29500 0.00000
v -1.38870 2.29500 -0.26870
v -1.12000 2.29500 -0.38000
v -0.85130 2.29500 -0.26870
v -1.12000 3.24500 0.00000
f 33 34 41
f 34 35 41
f 35 36 41
f 36 37 41
f 37 38 41
f 38 39 41
f 39 40 41
f 40 33 41
f 40 39 38 37 36 35 34 33
o GateCrystal_-1_0
v -1.29000 0.70000 0.30000
v -1.35777 0.70000 0.44073
v -1.51005 0.70000 0.47549
v -1.63217 0.70000 0.37810
v -1.63217 0.70000 0.22190
v -1.51005 0.70000 0.12451
v -1.35777 0.70000 0.15927
v -1.47000 1.80000 0.30000
f 42 43 49
f 43 44 49
f 44 45 49
f 45 46 49
f 46 47 49
f 47 48 49
f 48 42 49
f 48 47 46 45 44 43 42
o GateCrystal_-1_1
v -1.52000 1.39000 -0.20000
v -1.57648 1.39000 -0.08273
v -1.70338 1.39000 -0.05376
v -1.80515 1.39000 -0.13492
v -1.80515 1.39000 -0.26508
v -1.70338 1.39000 -0.34624
v -1.57648 1.39000 -0.31727
v -1.67000 2.31000 -0.20000
f 50 51 57
f 51 52 57
f 52 53 57
f 53 54 57
f 54 55 57
f 55 56 57
f 56 50 57
f 56 55 54 53 52 51 50
o AnchorPillar_1
v 1.39000 0.25500 0.00000
v 1.31092 0.25500 0.19092
v 1.12000 0.25500 0.27000
v 0.92908 0.25500 0.19092
v 0.85000 0.25500 0.00000
v 0.92908 0.25500 -0.19092
v 1.12000 0.25500 -0.27000
v 1.31092 0.25500 -0.19092
v 1.32000 2.50500 0.00000
v 1.26142 2.50500 0.14142
v 1.12000 2.50500 0.20000
v 0.97858 2.50500 0.14142
v 0.92000 2.50500 0.00000
v 0.97858 2.50500 -0.14142
v 1.12000 2.50500 -0.20000
v 1.26142 2.50500 -0.14142
f 58 59 67 66
f 59 60 68 67
f 60 61 69 68
f 61 62 70 69
f 62 63 71 70
f 63 64 72 71
f 64 65 73 72
f 65 58 66 73
f 65 64 63 62 61 60 59 58
f 66 67 68 69 70 71 72 73
o AnchorCrown_1
v 1.50000 2.29500 0.00000
v 1.38870 2.29500 0.26870
v 1.12000 2.29500 0.38000
v 0.85130 2.29500 0.26870
v 0.74000 2.29500 0.00000
v 0.85130 2.29500 -0.26870
v 1.12000 2.29500 -0.38000
v 1.38870 2.29500 -0.26870
v 1.12000 3.24500 0.00000
f 74 75 82
f 75 76 82
f 76 77 82
f 77 78 82
f 78 79 82
f 79 80 82
f 80 81 82
f 81 74 82
f 81 80 79 78 77 76 75 74
o GateCrystal_1_0
v 1.65000 0.70000 0.30000
v 1.58223 0.70000 0.44073
v 1.42995 0.70000 0.47549
v 1.30783 0.70000 0.37810
v 1.30783 0.70000 0.22190
v 1.42995 0.70000 0.12451
v 1.58223 0.70000 0.15927
v 1.47000 1.80000 0.30000
f 83 84 90
f 84 85 90
f 85 86 90
f 86 87 90
f 87 88 90
f 88 89 90
f 89 83 90
f 89 88 87 86 85 84 83
o GateCrystal_1_1
v 1.82000 1.39000 -0.20000
v 1.76352 1.39000 -0.08273
v 1.63662 1.39000 -0.05376
v 1.53485 1.39000 -0.13492
v 1.53485 1.39000 -0.26508
v 1.63662 1.39000 -0.34624
v 1.76352 1.39000 -0.31727
v 1.67000 2.31000 -0.20000
f 91 92 98
f 92 93 98
f 93 94 98
f 94 95 98
f 95 96 98
f 96 97 98
f 97 91 98
f 97 96 95 94 93 92 91
o BridgeLeft
v -1.13500 2.27500 -0.16000
v 0.01500 2.27500 -0.16000
v 0.01500 3.02500 -0.16000
v -1.13500 2.27500 0.16000
v 0.01500 2.27500 0.16000
v 0.01500 3.02500 0.16000
f 99 100 101
f 102 104 103
f 99 102 103 100
f 100 103 104 101
f 101 104 102 99
o BridgeRight
v -0.01500 2.27500 -0.16000
v 1.13500 2.27500 -0.16000
v -0.01500 3.02500 -0.16000
v -0.01500 2.27500 0.16000
v 1.13500 2.27500 0.16000
v -0.01500 3.02500 0.16000
f 105 106 107
f 108 110 109
f 105 108 109 106
f 106 109 110 107
f 107 110 108 105
o CentralNeedle
v 0.32000 2.57500 0.00000
v 0.22627 2.57500 0.22627
v 0.00000 2.57500 0.32000
v -0.22627 2.57500 0.22627
v -0.32000 2.57500 0.00000
v -0.22627 2.57500 -0.22627
v -0.00000 2.57500 -0.32000
v 0.22627 2.57500 -0.22627
v 0.00000 3.92500 0.00000
f 111 112 119
f 112 113 119
f 113 114 119
f 114 115 119
f 115 116 119
f 116 117 119
f 117 118 119
f 118 111 119
f 118 117 116 115 114 113 112 111
o CoreRod_0
v 0.69000 0.65000 0.00000
v 0.66950 0.65000 0.04950
v 0.62000 0.65000 0.07000
v 0.57050 0.65000 0.04950
v 0.55000 0.65000 0.00000
v 0.57050 0.65000 -0.04950
v 0.62000 0.65000 -0.07000
v 0.66950 0.65000 -0.04950
v 0.66500 2.45000 0.00000
v 0.65182 2.45000 0.03182
v 0.62000 2.45000 0.04500
v 0.58818 2.45000 0.03182
v 0.57500 2.45000 0.00000
v 0.58818 2.45000 -0.03182
v 0.62000 2.45000 -0.04500
v 0.65182 2.45000 -0.03182
f 120 121 129 128
f 121 122 130 129
f 122 123 131 130
f 123 124 132 131
f 124 125 133 132
f 125 126 134 133
f 126 127 135 134
f 127 120 128 135
f 127 126 125 124 123 122 121 120
f 128 129 130 131 132 133 134 135
o CoreRod_1
v 0.38000 0.65000 0.53694
v 0.35950 0.65000 0.58643
v 0.31000 0.65000 0.60694
v 0.26050 0.65000 0.58643
v 0.24000 0.65000 0.53694
v 0.26050 0.65000 0.48744
v 0.31000 0.65000 0.46694
v 0.35950 0.65000 0.48744
v 0.35500 2.45000 0.53694
v 0.34182 2.45000 0.56876
v 0.31000 2.45000 0.58194
v 0.27818 2.45000 0.56876
v 0.26500 2.45000 0.53694
v 0.27818 2.45000 0.50512
v 0.31000 2.45000 0.49194
v 0.34182 2.45000 0.50512
f 136 137 145 144
f 137 138 146 145
f 138 139 147 146
f 139 140 148 147
f 140 141 149 148
f 141 142 150 149
f 142 143 151 150
f 143 136 144 151
f 143 142 141 140 139 138 137 136
f 144 145 146 147 148 149 150 151
o CoreRod_2
v -0.24000 0.65000 0.53694
v -0.26050 0.65000 0.58643
v -0.31000 0.65000 0.60694
v -0.35950 0.65000 0.58643
v -0.38000 0.65000 0.53694
v -0.35950 0.65000 0.48744
v -0.31000 0.65000 0.46694
v -0.26050 0.65000 0.48744
v -0.26500 2.45000 0.53694
v -0.27818 2.45000 0.56876
v -0.31000 2.45000 0.58194
v -0.34182 2.45000 0.56876
v -0.35500 2.45000 0.53694
v -0.34182 2.45000 0.50512
v -0.31000 2.45000 0.49194
v -0.27818 2.45000 0.50512
f 152 153 161 160
f 153 154 162 161
f 154 155 163 162
f 155 156 164 163
f 156 157 165 164
f 157 158 166 165
f 158 159 167 166
f 159 152 160 167
f 159 158 157 156 155 154 153 152
f 160 161 162 163 164 165 166 167
o CoreRod_3
v -0.55000 0.65000 0.00000
v -0.57050 0.65000 0.04950
v -0.62000 0.65000 0.07000
v -0.66950 0.65000 0.04950
v -0.69000 0.65000 0.00000
v -0.66950 0.65000 -0.04950
v -0.62000 0.65000 -0.07000
v -0.57050 0.65000 -0.04950
v -0.57500 2.45000 0.00000
v -0.58818 2.45000 0.03182
v -0.62000 2.45000 0.04500
v -0.65182 2.45000 0.03182
v -0.66500 2.45000 0.00000
v -0.65182 2.45000 -0.03182
v -0.62000 2.45000 -0.04500
v -0.58818 2.45000 -0.03182
f 168 169 177 176
f 169 170 178 177
f 170 171 179 178
f 171 172 180 179
f 172 173 181 180
f 173 174 182 181
f 174 175 183 182
f 175 168 176 183
f 175 174 173 172 171 170 169 168
f 176 177 178 179 180 181 182 183
o CoreRod_4
v -0.24000 0.65000 -0.53694
v -0.26050 0.65000 -0.48744
v -0.31000 0.65000 -0.46694
v -0.35950 0.65000 -0.48744
v -0.38000 0.65000 -0.53694
v -0.35950 0.65000 -0.58643
v -0.31000 0.65000 -0.60694
v -0.26050 0.65000 -0.58643
v -0.26500 2.45000 -0.53694
v -0.27818 2.45000 -0.50512
v -0.31000 2.45000 -0.49194
v -0.34182 2.45000 -0.50512
v -0.35500 2.45000 -0.53694
v -0.34182 2.45000 -0.56876
v -0.31000 2.45000 -0.58194
v -0.27818 2.45000 -0.56876
f 184 185 193 192
f 185 186 194 193
f 186 187 195 194
f 187 188 196 195
f 188 189 197 196
f 189 190 198 197
f 190 191 199 198
f 191 184 192 199
f 191 190 189 188 187 186 185 184
f 192 193 194 195 196 197 198 199
o CoreRod_5
v 0.38000 0.65000 -0.53694
v 0.35950 0.65000 -0.48744
v 0.31000 0.65000 -0.46694
v 0.26050 0.65000 -0.48744
v 0.24000 0.65000 -0.53694
v 0.26050 0.65000 -0.58643
v 0.31000 0.65000 -0.60694
v 0.35950 0.65000 -0.48744
v 0.35500 2.45000 -0.53694
v 0.34182 2.45000 -0.50512
v 0.31000 2.45000 -0.49194
v 0.27818 2.45000 -0.50512
v 0.26500 2.45000 -0.53694
v 0.27818 2.45000 -0.56876
v 0.31000 2.45000 -0.58194
v 0.34182 2.45000 -0.50512
f 200 201 209 208
f 201 202 210 209
f 202 203 211 210
f 203 204 212 211
f 204 205 213 212
f 205 206 214 213
f 206 207 215 214
f 207 200 208 215
f 207 206 205 204 203 202 201 200
f 208 209 210 211 212 213 214 215
