# ONE MORE FLOOR v1.60 authored production mesh: Starless Spire Obsidian Column
s 1
o OctagonalBase
v 0.72000 0.00000 0.00000
v 0.50912 0.00000 0.50912
v 0.00000 0.00000 0.72000
v -0.50912 0.00000 0.50912
v -0.72000 0.00000 0.00000
v -0.50912 0.00000 -0.50912
v -0.00000 0.00000 -0.72000
v 0.50912 0.00000 -0.50912
v 0.62000 0.32000 0.00000
v 0.43841 0.32000 0.43841
v 0.00000 0.32000 0.62000
v -0.43841 0.32000 0.43841
v -0.62000 0.32000 0.00000
v -0.43841 0.32000 -0.43841
v -0.00000 0.32000 -0.62000
v 0.43841 0.32000 -0.43841
f 1 2 10 9
f 2 3 11 10
f 3 4 12 11
f 4 5 13 12
f 5 6 14 13
f 6 7 15 14
f 7 8 16 15
f 8 1 9 16
f 8 7 6 5 4 3 2 1
f 9 10 11 12 13 14 15 16
o BaseStep
v 0.58000 0.29000 0.00000
v 0.41012 0.29000 0.41012
v 0.00000 0.29000 0.58000
v -0.41012 0.29000 0.41012
v -0.58000 0.29000 0.00000
v -0.41012 0.29000 -0.41012
v -0.00000 0.29000 -0.58000
v 0.41012 0.29000 -0.41012
v 0.46000 0.63000 0.00000
v 0.32527 0.63000 0.32527
v 0.00000 0.63000 0.46000
v -0.32527 0.63000 0.32527
v -0.46000 0.63000 0.00000
v -0.32527 0.63000 -0.32527
v -0.00000 0.63000 -0.46000
v 0.32527 0.63000 -0.32527
f 17 18 26 25
f 18 19 27 26
f 19 20 28 27
f 20 21 29 28
f 21 22 30 29
f 22 23 31 30
f 23 24 32 31
f 24 17 25 32
f 24 23 22 21 20 19 18 17
f 25 26 27 28 29 30 31 32
o LowerShaft
v 0.38000 0.60000 0.00000
v 0.26870 0.60000 0.26870
v 0.00000 0.60000 0.38000
v -0.26870 0.60000 0.26870
v -0.38000 0.60000 0.00000
v -0.26870 0.60000 -0.26870
v -0.00000 0.60000 -0.38000
v 0.26870 0.60000 -0.26870
v 0.30000 2.70000 0.00000
v 0.21213 2.70000 0.21213
v 0.00000 2.70000 0.30000
v -0.21213 2.70000 0.21213
v -0.30000 2.70000 0.00000
v -0.21213 2.70000 -0.21213
v -0.00000 2.70000 -0.30000
v 0.21213 2.70000 -0.21213
f 33 34 42 41
f 34 35 43 42
f 35 36 44 43
f 36 37 45 44
f 37 38 46 45
f 38 39 47 46
f 39 40 48 47
f 40 33 41 48
f 40 39 38 37 36 35 34 33
f 41 42 43 44 45 46 47 48
o MidCollar
v 0.52000 2.51000 0.00000
v 0.36770 2.51000 0.36770
v 0.00000 2.51000 0.52000
v -0.36770 2.51000 0.36770
v -0.52000 2.51000 0.00000
v -0.36770 2.51000 -0.36770
v -0.00000 2.51000 -0.52000
v 0.36770 2.51000 -0.36770
v 0.46000 2.73000 0.00000
v 0.32527 2.73000 0.32527
v 0.00000 2.73000 0.46000
v -0.32527 2.73000 0.32527
v -0.46000 2.73000 0.00000
v -0.32527 2.73000 -0.32527
v -0.00000 2.73000 -0.46000
v 0.32527 2.73000 -0.32527
f 49 50 58 57
f 50 51 59 58
f 51 52 60 59
f 52 53 61 60
f 53 54 62 61
f 54 55 63 62
f 55 56 64 63
f 56 49 57 64
f 56 55 54 53 52 51 50 49
f 57 58 59 60 61 62 63 64
o UpperShaft
v 0.30000 2.70500 0.00000
v 0.21213 2.70500 0.21213
v 0.00000 2.70500 0.30000
v -0.21213 2.70500 0.21213
v -0.30000 2.70500 0.00000
v -0.21213 2.70500 -0.21213
v -0.00000 2.70500 -0.30000
v 0.21213 2.70500 -0.21213
v 0.23000 3.85500 0.00000
v 0.16263 3.85500 0.16263
v 0.00000 3.85500 0.23000
v -0.16263 3.85500 0.16263
v -0.23000 3.85500 0.00000
v -0.16263 3.85500 -0.16263
v -0.00000 3.85500 -0.23000
v 0.16263 3.85500 -0.16263
f 65 66 74 73
f 66 67 75 74
f 67 68 76 75
f 68 69 77 76
f 69 70 78 77
f 70 71 79 78
f 71 72 80 79
f 72 65 73 80
f 72 71 70 69 68 67 66 65
f 73 74 75 76 77 78 79 80
o Capital
v 0.44000 3.73000 0.00000
v 0.31113 3.73000 0.31113
v 0.00000 3.73000 0.44000
v -0.31113 3.73000 0.31113
v -0.44000 3.73000 0.00000
v -0.31113 3.73000 -0.31113
v -0.00000 3.73000 -0.44000
v 0.31113 3.73000 -0.31113
v 0.62000 4.07000 0.00000
v 0.43841 4.07000 0.43841
v 0.00000 4.07000 0.62000
v -0.43841 4.07000 0.43841
v -0.62000 4.07000 0.00000
v -0.43841 4.07000 -0.43841
v -0.00000 4.07000 -0.62000
v 0.43841 4.07000 -0.43841
f 81 82 90 89
f 82 83 91 90
f 83 84 92 91
f 84 85 93 92
f 85 86 94 93
f 86 87 95 94
f 87 88 96 95
f 88 81 89 96
f 88 87 86 85 84 83 82 81
f 89 90 91 92 93 94 95 96
o Blade_0
v 0.47003 2.38513 -0.09000
v 0.78517 2.44070 -0.09000
v 0.17483 4.05930 -0.09000
v 0.47003 2.38513 0.09000
v 0.78517 2.44070 0.09000
v 0.17483 4.05930 0.09000
f 97 98 99
f 100 102 101
f 97 100 101 98
f 98 101 102 99
f 99 102 100 97
o Blade_1
v -0.05897 2.39729 0.32000
v -0.05897 2.39729 0.64000
v 0.23623 4.07146 0.32000
v -0.23623 2.42854 0.32000
v -0.23623 2.42854 0.64000
v 0.05897 4.10271 0.32000
f 103 104 105
f 106 108 107
f 103 106 107 104
f 104 107 108 105
f 105 108 106 103
o Blade_2
v -0.17483 2.44070 0.09000
v -0.48997 2.38513 0.09000
v -0.47003 4.11487 0.09000
v -0.17483 2.44070 -0.09000
v -0.48997 2.38513 -0.09000
v -0.47003 4.11487 -0.09000
f 109 110 111
f 112 114 113
f 109 112 113 110
f 110 113 114 111
f 111 114 112 109
o Blade_3
v -0.23623 2.42854 -0.32000
v -0.23623 2.42854 -0.64000
v 0.05897 4.10271 -0.32000
v -0.05897 2.39729 -0.32000
v -0.05897 2.39729 -0.64000
v 0.23623 4.07146 -0.32000
f 115 116 117
f 118 120 119
f 115 118 119 116
f 116 119 120 117
f 117 120 118 115
o CrownNeedle
v 0.25981 3.87500 0.15000
v 0.00000 3.87500 0.30000
v -0.25981 3.87500 0.15000
v -0.25981 3.87500 -0.15000
v -0.00000 3.87500 -0.30000
v 0.25981 3.87500 -0.15000
v 0.21304 4.84700 0.12300
v 0.00000 4.84700 0.24600
v -0.21304 4.84700 0.12300
v -0.21304 4.84700 -0.12300
v -0.00000 4.84700 -0.24600
v 0.21304 4.84700 -0.12300
v 0.00000 5.22500 0.00000
f 121 122 128 127
f 127 128 133
f 122 123 129 128
f 128 129 133
f 123 124 130 129
f 129 130 133
f 124 125 131 130
f 130 131 133
f 125 126 132 131
f 131 132 133
f 126 121 127 132
f 132 127 133
f 126 125 124 123 122 121
o StarStud_0
v 0.49000 2.71000 0.00000
v 0.56794 2.66500 0.00000
v 0.52897 2.66500 0.06750
v 0.45103 2.66500 0.06750
v 0.41206 2.66500 0.00000
v 0.45103 2.66500 -0.06750
v 0.52897 2.66500 -0.06750
v 0.56794 2.57500 0.00000
v 0.52897 2.57500 0.06750
v 0.45103 2.57500 0.06750
v 0.41206 2.57500 0.00000
v 0.45103 2.57500 -0.06750
v 0.52897 2.57500 -0.06750
v 0.49000 2.53000 0.00000
f 134 135 136
f 134 136 137
f 134 137 138
f 134 138 139
f 134 139 140
f 134 140 135
f 135 141 142 136
f 136 142 143 137
f 137 143 144 138
f 138 144 145 139
f 139 145 146 140
f 140 146 141 135
f 141 147 142
f 142 147 143
f 143 147 144
f 144 147 145
f 145 147 146
f 146 147 141
o StarStud_1
v 0.34648 2.71000 0.34648
v 0.42442 2.66500 0.34648
v 0.38545 2.66500 0.41398
v 0.30751 2.66500 0.41398
v 0.26854 2.66500 0.34648
v 0.30751 2.66500 0.27898
v 0.38545 2.66500 0.27898
v 0.42442 2.57500 0.34648
v 0.38545 2.57500 0.41398
v 0.30751 2.57500 0.41398
v 0.26854 2.57500 0.34648
v 0.30751 2.57500 0.27898
v 0.38545 2.57500 0.27898
v 0.34648 2.53000 0.34648
f 148 149 150
f 148 150 151
f 148 151 152
f 148 152 153
f 148 153 154
f 148 154 149
f 149 155 156 150
f 150 156 157 151
f 151 157 158 152
f 152 158 159 153
f 153 159 160 154
f 154 160 155 149
f 155 161 156
f 156 161 157
f 157 161 158
f 158 161 159
f 159 161 160
f 160 161 155
o StarStud_2
v 0.00000 2.71000 0.49000
v 0.07794 2.66500 0.49000
v 0.03897 2.66500 0.55750
v -0.03897 2.66500 0.55750
v -0.07794 2.66500 0.49000
v -0.03897 2.66500 0.42250
v 0.03897 2.66500 0.42250
v 0.07794 2.57500 0.49000
v 0.03897 2.57500 0.55750
v -0.03897 2.57500 0.55750
v -0.07794 2.57500 0.49000
v -0.03897 2.57500 0.42250
v 0.03897 2.57500 0.42250
v 0.00000 2.53000 0.49000
f 162 163 164
f 162 164 165
f 162 165 166
f 162 166 167
f 162 167 168
f 162 168 163
f 163 169 170 164
f 164 170 171 165
f 165 171 172 166
f 166 172 173 167
f 167 173 174 168
f 168 174 169 163
f 169 175 170
f 170 175 171
f 171 175 172
f 172 175 173
f 173 175 174
f 174 175 169
o StarStud_3
v -0.34648 2.71000 0.34648
v -0.26854 2.66500 0.34648
v -0.30751 2.66500 0.41398
v -0.38545 2.66500 0.41398
v -0.42442 2.66500 0.34648
v -0.38545 2.66500 0.27898
v -0.30751 2.66500 0.27898
v -0.26854 2.57500 0.34648
v -0.30751 2.57500 0.41398
v -0.38545 2.57500 0.41398
v -0.42442 2.57500 0.34648
v -0.38545 2.57500 0.27898
v -0.30751 2.57500 0.27898
v -0.34648 2.53000 0.34648
f 176 177 178
f 176 178 179
f 176 179 180
f 176 180 181
f 176 181 182
f 176 182 177
f 177 183 184 178
f 178 184 185 179
f 179 185 186 180
f 180 186 187 181
f 181 187 188 182
f 182 188 183 177
f 183 189 184
f 184 189 185
f 185 189 186
f 186 189 187
f 187 189 188
f 188 189 183
o StarStud_4
v -0.49000 2.71000 0.00000
v -0.41206 2.66500 0.00000
v -0.45103 2.66500 0.06750
v -0.52897 2.66500 0.06750
v -0.56794 2.66500 0.00000
v -0.52897 2.66500 -0.06750
v -0.45103 2.66500 -0.06750
v -0.41206 2.57500 0.00000
v -0.45103 2.57500 0.06750
v -0.52897 2.57500 0.06750
v -0.56794 2.57500 0.00000
v -0.52897 2.57500 -0.06750
v -0.45103 2.57500 -0.06750
v -0.49000 2.53000 0.00000
f 190 191 192
f 190 192 193
f 190 193 194
f 190 194 195
f 190 195 196
f 190 196 191
f 191 197 198 192
f 192 198 199 193
f 193 199 200 194
f 194 200 201 195
f 195 201 202 196
f 196 202 197 191
f 197 203 198
f 198 203 199
f 199 203 200
f 200 203 201
f 201 203 202
f 202 203 197
o StarStud_5
v -0.34648 2.71000 -0.34648
v -0.26854 2.66500 -0.34648
v -0.30751 2.66500 -0.27898
v -0.38545 2.66500 -0.27898
v -0.42442 2.66500 -0.34648
v -0.38545 2.66500 -0.41398
v -0.30751 2.66500 -0.41398
v -0.26854 2.57500 -0.34648
v -0.30751 2.57500 -0.27898
v -0.38545 2.57500 -0.27898
v -0.42442 2.57500 -0.34648
v -0.38545 2.57500 -0.41398
v -0.30751 2.57500 -0.41398
v -0.34648 2.53000 -0.34648
f 204 205 206
f 204 206 207
f 204 207 208
f 204 208 209
f 204 209 210
f 204 210 205
f 205 211 212 206
f 206 212 213 207
f 207 213 214 208
f 208 214 215 209
f 209 215 216 210
f 210 216 211 205
f 211 217 212
f 212 217 213
f 213 217 214
f 214 217 215
f 215 217 216
f 216 217 211
o StarStud_6
v -0.00000 2.71000 -0.49000
v 0.07794 2.66500 -0.49000
v 0.03897 2.66500 -0.42250
v -0.03897 2.66500 -0.42250
v -0.07794 2.66500 -0.49000
v -0.03897 2.66500 -0.55750
v 0.03897 2.66500 -0.55750
v 0.07794 2.57500 -0.49000
v 0.03897 2.57500 -0.42250
v -0.03897 2.57500 -0.42250
v -0.07794 2.57500 -0.49000
v -0.03897 2.57500 -0.55750
v 0.03897 2.57500 -0.55750
v -0.00000 2.53000 -0.49000
f 218 219 220
f 218 220 221
f 218 221 222
f 218 222 223
f 218 223 224
f 218 224 219
f 219 225 226 220
f 220 226 227 221
f 221 227 228 222
f 222 228 229 223
f 223 229 230 224
f 224 230 225 219
f 225 231 226
f 226 231 227
f 227 231 228
f 228 231 229
f 229 231 230
f 230 231 225
o StarStud_7
v 0.34648 2.71000 -0.34648
v 0.42442 2.66500 -0.34648
v 0.38545 2.66500 -0.27898
v 0.30751 2.66500 -0.27898
v 0.26854 2.66500 -0.34648
v 0.30751 2.66500 -0.41398
v 0.38545 2.66500 -0.41398
v 0.42442 2.57500 -0.34648
v 0.38545 2.57500 -0.27898
v 0.30751 2.57500 -0.27898
v 0.26854 2.57500 -0.34648
v 0.30751 2.57500 -0.41398
v 0.38545 2.57500 -0.41398
v 0.34648 2.53000 -0.34648
f 232 233 234
f 232 234 235
f 232 235 236
f 232 236 237
f 232 237 238
f 232 238 233
f 233 239 240 234
f 234 240 241 235
f 235 241 242 236
f 236 242 243 237
f 237 243 244 238
f 238 244 239 233
f 239 245 240
f 240 245 241
f 241 245 242
f 242 245 243
f 243 245 244
f 244 245 239
