# ONE MORE FLOOR v1.60 authored production mesh: Starless Spire Starwell Dais
s 1
o DaisBase
v 1.75000 0.00000 0.00000
v 1.51554 0.00000 0.87500
v 0.87500 0.00000 1.51554
v 0.00000 0.00000 1.75000
v -0.87500 0.00000 1.51554
v -1.51554 0.00000 0.87500
v -1.75000 0.00000 0.00000
v -1.51554 0.00000 -0.87500
v -0.87500 0.00000 -1.51554
v -0.00000 0.00000 -1.75000
v 0.87500 0.00000 -1.51554
v 1.51554 0.00000 -0.87500
v 1.55000 0.40000 0.00000
v 1.34234 0.40000 0.77500
v 0.77500 0.40000 1.34234
v 0.00000 0.40000 1.55000
v -0.77500 0.40000 1.34234
v -1.34234 0.40000 0.77500
v -1.55000 0.40000 0.00000
v -1.34234 0.40000 -0.77500
v -0.77500 0.40000 -1.34234
v -0.00000 0.40000 -1.55000
v 0.77500 0.40000 -1.34234
v 1.34234 0.40000 -0.77500
f 1 2 14 13
f 2 3 15 14
f 3 4 16 15
f 4 5 17 16
f 5 6 18 17
f 6 7 19 18
f 7 8 20 19
f 8 9 21 20
f 9 10 22 21
f 10 11 23 22
f 11 12 24 23
f 12 1 13 24
f 12 11 10 9 8 7 6 5 4 3 2 1
f 13 14 15 16 17 18 19 20 21 22 23 24
o DaisStep
v 1.35000 0.38000 0.00000
v 1.16913 0.38000 0.67500
v 0.67500 0.38000 1.16913
v 0.00000 0.38000 1.35000
v -0.67500 0.38000 1.16913
v -1.16913 0.38000 0.67500
v -1.35000 0.38000 0.00000
v -1.16913 0.38000 -0.67500
v -0.67500 0.38000 -1.16913
v -0.00000 0.38000 -1.35000
v 0.67500 0.38000 -1.16913
v 1.16913 0.38000 -0.67500
v 1.18000 0.66000 0.00000
v 1.02191 0.66000 0.59000
v 0.59000 0.66000 1.02191
v 0.00000 0.66000 1.18000
v -0.59000 0.66000 1.02191
v -1.02191 0.66000 0.59000
v -1.18000 0.66000 0.00000
v -1.02191 0.66000 -0.59000
v -0.59000 0.66000 -1.02191
v -0.00000 0.66000 -1.18000
v 0.59000 0.66000 -1.02191
v 1.02191 0.66000 -0.59000
f 25 26 38 37
f 26 27 39 38
f 27 28 40 39
f 28 29 41 40
f 29 30 42 41
f 30 31 43 42
f 31 32 44 43
f 32 33 45 44
f 33 34 46 45
f 34 35 47 46
f 35 36 48 47
f 36 25 37 48
f 36 35 34 33 32 31 30 29 28 27 26 25
f 37 38 39 40 41 42 43 44 45 46 47 48
o OrreryPedestal
v 0.70000 0.52000 0.00000
v 0.56631 0.52000 0.41145
v 0.21631 0.52000 0.66574
v -0.21631 0.52000 0.66574
v -0.56631 0.52000 0.41145
v -0.70000 0.52000 0.00000
v -0.56631 0.52000 -0.41145
v -0.21631 0.52000 -0.66574
v 0.21631 0.52000 -0.66574
v 0.56631 0.52000 -0.41145
v 0.52000 1.38000 0.00000
v 0.42069 1.38000 0.30565
v 0.16069 1.38000 0.49455
v -0.16069 1.38000 0.49455
v -0.42069 1.38000 0.30565
v -0.52000 1.38000 0.00000
v -0.42069 1.38000 -0.30565
v -0.16069 1.38000 -0.49455
v 0.16069 1.38000 -0.49455
v 0.42069 1.38000 -0.30565
f 49 50 60 59
f 50 51 61 60
f 51 52 62 61
f 52 53 63 62
f 53 54 64 63
f 54 55 65 64
f 55 56 66 65
f 56 57 67 66
f 57 58 68 67
f 58 49 59 68
f 58 57 56 55 54 53 52 51 50 49
f 59 60 61 62 63 64 65 66 67 68
o ArcPillar_-1
v -0.76000 0.62000 0.00000
v -0.80686 0.62000 0.11314
v -0.92000 0.62000 0.16000
v -1.03314 0.62000 0.11314
v -1.08000 0.62000 0.00000
v -1.03314 0.62000 -0.11314
v -0.92000 0.62000 -0.16000
v -0.80686 0.62000 -0.11314
v -0.81000 2.62000 0.00000
v -0.84222 2.62000 0.07778
v -0.92000 2.62000 0.11000
v -0.99778 2.62000 0.07778
v -1.03000 2.62000 0.00000
v -0.99778 2.62000 -0.07778
v -0.92000 2.62000 -0.11000
v -0.84222 2.62000 -0.07778
f 69 70 78 77
f 70 71 79 78
f 71 72 80 79
f 72 73 81 80
f 73 74 82 81
f 74 75 83 82
f 75 76 84 83
f 76 69 77 84
f 76 75 74 73 72 71 70 69
f 77 78 79 80 81 82 83 84
o ArcFinial_-1
v -0.68000 2.55500 0.00000
v -0.75029 2.55500 0.16971
v -0.92000 2.55500 0.24000
v -1.08971 2.55500 0.16971
v -1.16000 2.55500 0.00000
v -1.08971 2.55500 -0.16971
v -0.92000 2.55500 -0.24000
v -0.75029 2.55500 -0.16971
v -0.92000 3.20500 0.00000
f 85 86 93
f 86 87 93
f 87 88 93
f 88 89 93
f 89 90 93
f 90 91 93
f 91 92 93
f 92 85 93
f 92 91 90 89 88 87 86 85
o ArcWing_-1
v -1.28000 1.88500 -0.12000
v -0.28000 1.88500 -0.12000
v -1.28000 2.83500 -0.12000
v -1.28000 1.88500 0.12000
v -0.28000 1.88500 0.12000
v -1.28000 2.83500 0.12000
f 94 95 96
f 97 99 98
f 94 97 98 95
f 95 98 99 96
f 96 99 97 94
o ArcPillar_1
v 1.08000 0.62000 0.00000
v 1.03314 0.62000 0.11314
v 0.92000 0.62000 0.16000
v 0.80686 0.62000 0.11314
v 0.76000 0.62000 0.00000
v 0.80686 0.62000 -0.11314
v 0.92000 0.62000 -0.16000
v 1.03314 0.62000 -0.11314
v 1.03000 2.62000 0.00000
v 0.99778 2.62000 0.07778
v 0.92000 2.62000 0.11000
v 0.84222 2.62000 0.07778
v 0.81000 2.62000 0.00000
v 0.84222 2.62000 -0.07778
v 0.92000 2.62000 -0.11000
v 0.99778 2.62000 -0.07778
f 100 101 109 108
f 101 102 110 109
f 102 103 111 110
f 103 104 112 111
f 104 105 113 112
f 105 106 114 113
f 106 107 115 114
f 107 100 108 115
f 107 106 105 104 103 102 101 100
f 108 109 110 111 112 113 114 115
o ArcFinial_1
v 1.16000 2.55500 0.00000
v 1.08971 2.55500 0.16971
v 0.92000 2.55500 0.24000
v 0.75029 2.55500 0.16971
v 0.68000 2.55500 0.00000
v 0.75029 2.55500 -0.16971
v 0.92000 2.55500 -0.24000
v 1.08971 2.55500 -0.16971
v 0.92000 3.20500 0.00000
f 116 117 124
f 117 118 124
f 118 119 124
f 119 120 124
f 120 121 124
f 121 122 124
f 122 123 124
f 123 116 124
f 123 122 121 120 119 118 117 116
o ArcWing_1
v 0.28000 1.88500 -0.12000
v 1.28000 1.88500 -0.12000
v 1.28000 2.83500 -0.12000
v 0.28000 1.88500 0.12000
v 1.28000 1.88500 0.12000
v 1.28000 2.83500 0.12000
f 125 126 127
f 128 130 129
f 125 128 129 126
f 126 129 130 127
f 127 130 128 125
o StarSpike_0
v 1.11459 0.79000 0.95459
v 1.05435 0.79000 1.07969
v 0.91899 0.79000 1.11058
v 0.81044 0.79000 1.02402
v 0.81044 0.79000 0.88517
v 0.91899 0.79000 0.79861
v 1.05435 0.79000 0.82950
v 0.95459 1.61000 0.95459
f 131 132 138
f 132 133 138
f 133 134 138
f 134 135 138
f 135 136 138
f 136 137 138
f 137 131 138
f 137 136 135 134 133 132 131
o StarSpike_1
v -0.79459 0.79000 0.95459
v -0.85484 0.79000 1.07969
v -0.99020 0.79000 1.11058
v -1.09875 0.79000 1.02402
v -1.09875 0.79000 0.88517
v -0.99020 0.79000 0.79861
v -0.85484 0.79000 0.82950
v -0.95459 1.61000 0.95459
f 139 140 146
f 140 141 146
f 141 142 146
f 142 143 146
f 143 144 146
f 144 145 146
f 145 139 146
f 145 144 143 142 141 140 139
o StarSpike_2
v -0.79459 0.79000 -0.95459
v -0.85484 0.79000 -0.82950
v -0.99020 0.79000 -0.79861
v -1.09875 0.79000 -0.88517
v -1.09875 0.79000 -1.02402
v -0.99020 0.79000 -1.11058
v -0.85484 0.79000 -1.07969
v -0.95459 1.61000 -0.95459
f 147 148 154
f 148 149 154
f 149 150 154
f 150 151 154
f 151 152 154
f 152 153 154
f 153 147 154
f 153 152 151 150 149 148 147
o StarSpike_3
v 1.11459 0.79000 -0.95459
v 1.05435 0.79000 -0.82950
v 0.91899 0.79000 -0.79861
v 0.81044 0.79000 -0.88517
v 0.81044 0.79000 -1.02402
v 0.91899 0.79000 -1.11058
v 1.05435 0.79000 -1.07969
v 0.95459 1.61000 -0.95459
f 155 156 162
f 156 157 162
f 157 158 162
f 158 159 162
f 159 160 162
f 160 161 162
f 161 155 162
f 161 160 159 158 157 156 155
o ZenithNeedle
v 0.25000 2.58000 0.00000
v 0.17678 2.58000 0.17678
v 0.00000 2.58000 0.25000
v -0.17678 2.58000 0.17678
v -0.25000 2.58000 0.00000
v -0.17678 2.58000 -0.17678
v -0.00000 2.58000 -0.25000
v 0.17678 2.58000 -0.17678
v 0.00000 3.78000 0.00000
f 163 164 171
f 164 165 171
f 165 166 171
f 166 167 171
f 167 168 171
f 168 169 171
f 169 170 171
f 170 163 171
f 170 169 168 167 166 165 164 163
