# ONE MORE FLOOR v1.60 authored environment asset: StoreCounter
o Counter
s 1
v -2.20 0.00 -0.65
v 2.20 0.00 -0.65
v 2.20 1.40 -0.65
v -2.20 1.40 -0.65
v -2.20 0.00 0.65
v 2.20 0.00 0.65
v 2.20 1.40 0.65
v -2.20 1.40 0.65
f 1 2 3 4
f 5 8 7 6
f 1 5 6 2
f 2 6 7 3
f 3 7 8 4
f 5 1 4 8
o CounterTop
v -2.40 1.40 -0.78
v 2.40 1.40 -0.78
v 2.40 1.58 -0.78
v -2.40 1.58 -0.78
v -2.40 1.40 0.78
v 2.40 1.40 0.78
v 2.40 1.58 0.78
v -2.40 1.58 0.78
f 9 10 11 12
f 13 16 15 14
f 9 13 14 10
f 10 14 15 11
f 11 15 16 12
f 13 9 12 16
o ShelfBack
v -2.20 1.58 -1.18
v 2.20 1.58 -1.18
v 2.20 3.90 -1.18
v -2.20 3.90 -1.18
v -2.20 1.58 -0.90
v 2.20 1.58 -0.90
v 2.20 3.90 -0.90
v -2.20 3.90 -0.90
f 17 18 19 20
f 21 24 23 22
f 17 21 22 18
f 18 22 23 19
f 19 23 24 20
f 21 17 20 24
o ShelfA
v -1.90 2.20 -0.90
v 1.90 2.20 -0.90
v 1.90 2.36 -0.90
v -1.90 2.36 -0.90
v -1.90 2.20 -0.45
v 1.90 2.20 -0.45
v 1.90 2.36 -0.45
v -1.90 2.36 -0.45
f 25 26 27 28
f 29 32 31 30
f 25 29 30 26
f 26 30 31 27
f 27 31 32 28
f 29 25 28 32
o ShelfB
v -1.90 3.05 -0.90
v 1.90 3.05 -0.90
v 1.90 3.21 -0.90
v -1.90 3.21 -0.90
v -1.90 3.05 -0.45
v 1.90 3.05 -0.45
v 1.90 3.21 -0.45
v -1.90 3.21 -0.45
f 33 34 35 36
f 37 40 39 38
f 33 37 38 34
f 34 38 39 35
f 35 39 40 36
f 37 33 36 40
