# ONE MORE FLOOR v1.60 authored production mesh: Lower Halls Gothic Arch
s 1
o Plinth_-1
v -2.81000 0.00000 -0.46000
v -1.63000 0.00000 -0.46000
v -1.63000 0.36000 -0.46000
v -2.81000 0.36000 -0.46000
v -2.81000 0.00000 0.46000
v -1.63000 0.00000 0.46000
v -1.63000 0.36000 0.46000
v -2.81000 0.36000 0.46000
f 1 2 3 4
f 5 8 7 6
f 1 5 6 2
f 2 6 7 3
f 3 7 8 4
f 5 1 4 8
o BaseStep_-1
v -2.71000 0.34000 -0.41000
v -1.73000 0.34000 -0.41000
v -1.73000 0.62000 -0.41000
v -2.71000 0.62000 -0.41000
v -2.71000 0.34000 0.41000
v -1.73000 0.34000 0.41000
v -1.73000 0.62000 0.41000
v -2.71000 0.62000 0.41000
f 9 10 11 12
f 13 16 15 14
f 9 13 14 10
f 10 14 15 11
f 11 15 16 12
f 13 9 12 16
o ShaftFoot_-1
v -1.76000 0.58000 0.00000
v -1.89473 0.58000 0.32527
v -2.22000 0.58000 0.46000
v -2.54527 0.58000 0.32527
v -2.68000 0.58000 0.00000
v -2.54527 0.58000 -0.32527
v -2.22000 0.58000 -0.46000
v -1.89473 0.58000 -0.32527
v -1.84000 0.92000 0.00000
v -1.95130 0.92000 0.26870
v -2.22000 0.92000 0.38000
v -2.48870 0.92000 0.26870
v -2.60000 0.92000 0.00000
v -2.48870 0.92000 -0.26870
v -2.22000 0.92000 -0.38000
v -1.95130 0.92000 -0.26870
f 17 18 26 25
f 18 19 27 26
f 19 20 28 27
f 20 21 29 28
f 21 22 30 29
f 22 23 31 30
f 23 24 32 31
f 24 17 25 32
f 24 23 22 21 20 19 18 17
f 25 26 27 28 29 30 31 32
o OctagonalShaft_-1
v -1.88000 0.85000 0.00000
v -1.97958 0.85000 0.24042
v -2.22000 0.85000 0.34000
v -2.46042 0.85000 0.24042
v -2.56000 0.85000 0.00000
v -2.46042 0.85000 -0.24042
v -2.22000 0.85000 -0.34000
v -1.97958 0.85000 -0.24042
v -1.92000 3.25000 0.00000
v -2.00787 3.25000 0.21213
v -2.22000 3.25000 0.30000
v -2.43213 3.25000 0.21213
v -2.52000 3.25000 0.00000
v -2.43213 3.25000 -0.21213
v -2.22000 3.25000 -0.30000
v -2.00787 3.25000 -0.21213
f 33 34 42 41
f 34 35 43 42
f 35 36 44 43
f 36 37 45 44
f 37 38 46 45
f 38 39 47 46
f 39 40 48 47
f 40 33 41 48
f 40 39 38 37 36 35 34 33
f 41 42 43 44 45 46 47 48
o Collar_-1
v -2.65000 2.54000 -0.37000
v -1.79000 2.54000 -0.37000
v -1.79000 2.70000 -0.37000
v -2.65000 2.70000 -0.37000
v -2.65000 2.54000 0.37000
v -1.79000 2.54000 0.37000
v -1.79000 2.70000 0.37000
v -2.65000 2.70000 0.37000
f 49 50 51 52
f 53 56 55 54
f 49 53 54 50
f 50 54 55 51
f 51 55 56 52
f 53 49 52 56
o Capital_-1
v -2.75000 2.85000 -0.44000
v -1.69000 2.85000 -0.44000
v -1.69000 3.19000 -0.44000
v -2.75000 3.19000 -0.44000
v -2.75000 2.85000 0.44000
v -1.69000 2.85000 0.44000
v -1.69000 3.19000 0.44000
v -2.75000 3.19000 0.44000
f 57 58 59 60
f 61 64 63 62
f 57 61 62 58
f 58 62 63 59
f 59 63 64 60
f 61 57 60 64
o InnerCorbel_-1
v -2.03000 2.89000 -0.36000
v -1.41000 2.89000 -0.36000
v -2.03000 3.67000 -0.36000
v -2.03000 2.89000 0.36000
v -1.41000 2.89000 0.36000
v -2.03000 3.67000 0.36000
f 65 66 67
f 68 70 69
f 65 68 69 66
f 66 69 70 67
f 67 70 68 65
o OuterButtress_-1
v -2.91684 0.18546 -0.33000
v -2.49748 0.20855 -0.33000
v -2.64316 2.85454 -0.33000
v -3.06252 2.83145 -0.33000
v -2.91684 0.18546 0.49000
v -2.49748 0.20855 0.49000
v -2.64316 2.85454 0.49000
v -3.06252 2.83145 0.49000
f 71 72 73 74
f 75 78 77 76
f 71 75 76 72
f 72 76 77 73
f 73 77 78 74
f 75 71 74 78
o FinialBase_-1
v -2.51000 2.96000 0.08000
v -2.64500 2.96000 0.31383
v -2.91500 2.96000 0.31383
v -3.05000 2.96000 0.08000
v -2.91500 2.96000 -0.15383
v -2.64500 2.96000 -0.15383
v -2.58000 3.28000 0.08000
v -2.68000 3.28000 0.25321
v -2.88000 3.28000 0.25321
v -2.98000 3.28000 0.08000
v -2.88000 3.28000 -0.09321
v -2.68000 3.28000 -0.09321
f 79 80 86 85
f 80 81 87 86
f 81 82 88 87
f 82 83 89 88
f 83 84 90 89
f 84 79 85 90
f 84 83 82 81 80 79
f 85 86 87 88 89 90
o Finial_-1
v -2.62412 3.16000 0.17000
v -2.81742 3.16000 0.25607
v -2.95901 3.16000 0.09882
v -2.85321 3.16000 -0.08444
v -2.64623 3.16000 -0.04044
v -2.65217 3.72160 0.15380
v -2.81069 3.72160 0.22437
v -2.92679 3.72160 0.09543
v -2.84003 3.72160 -0.05484
v -2.67031 3.72160 -0.01876
v -2.78000 3.94000 0.08000
f 91 92 97 96
f 96 97 101
f 92 93 98 97
f 97 98 101
f 93 94 99 98
f 98 99 101
f 94 95 100 99
f 99 100 101
f 95 91 96 100
f 100 96 101
f 95 94 93 92 91
o Plinth_1
v 1.63000 0.00000 -0.46000
v 2.81000 0.00000 -0.46000
v 2.81000 0.36000 -0.46000
v 1.63000 0.36000 -0.46000
v 1.63000 0.00000 0.46000
v 2.81000 0.00000 0.46000
v 2.81000 0.36000 0.46000
v 1.63000 0.36000 0.46000
f 102 103 104 105
f 106 109 108 107
f 102 106 107 103
f 103 107 108 104
f 104 108 109 105
f 106 102 105 109
o BaseStep_1
v 1.73000 0.34000 -0.41000
v 2.71000 0.34000 -0.41000
v 2.71000 0.62000 -0.41000
v 1.73000 0.62000 -0.41000
v 1.73000 0.34000 0.41000
v 2.71000 0.34000 0.41000
v 2.71000 0.62000 0.41000
v 1.73000 0.62000 0.41000
f 110 111 112 113
f 114 117 116 115
f 110 114 115 111
f 111 115 116 112
f 112 116 117 113
f 114 110 113 117
o ShaftFoot_1
v 2.68000 0.58000 0.00000
v 2.54527 0.58000 0.32527
v 2.22000 0.58000 0.46000
v 1.89473 0.58000 0.32527
v 1.76000 0.58000 0.00000
v 1.89473 0.58000 -0.32527
v 2.22000 0.58000 -0.46000
v 2.54527 0.58000 -0.32527
v 2.60000 0.92000 0.00000
v 2.48870 0.92000 0.26870
v 2.22000 0.92000 0.38000
v 1.95130 0.92000 0.26870
v 1.84000 0.92000 0.00000
v 1.95130 0.92000 -0.26870
v 2.22000 0.92000 -0.38000
v 2.48870 0.92000 -0.26870
f 118 119 127 126
f 119 120 128 127
f 120 121 129 128
f 121 122 130 129
f 122 123 131 130
f 123 124 132 131
f 124 125 133 132
f 125 118 126 133
f 125 124 123 122 121 120 119 118
f 126 127 128 129 130 131 132 133
o OctagonalShaft_1
v 2.56000 0.85000 0.00000
v 2.46042 0.85000 0.24042
v 2.22000 0.85000 0.34000
v 1.97958 0.85000 0.24042
v 1.88000 0.85000 0.00000
v 1.97958 0.85000 -0.24042
v 2.22000 0.85000 -0.34000
v 2.46042 0.85000 -0.24042
v 2.52000 3.25000 0.00000
v 2.43213 3.25000 0.21213
v 2.22000 3.25000 0.30000
v 2.00787 3.25000 0.21213
v 1.92000 3.25000 0.00000
v 2.00787 3.25000 -0.21213
v 2.22000 3.25000 -0.30000
v 2.43213 3.25000 -0.21213
f 134 135 143 142
f 135 136 144 143
f 136 137 145 144
f 137 138 146 145
f 138 139 147 146
f 139 140 148 147
f 140 141 149 148
f 141 134 142 149
f 141 140 139 138 137 136 135 134
f 142 143 144 145 146 147 148 149
o Collar_1
v 1.79000 2.54000 -0.37000
v 2.65000 2.54000 -0.37000
v 2.65000 2.70000 -0.37000
v 1.79000 2.70000 -0.37000
v 1.79000 2.54000 0.37000
v 2.65000 2.54000 0.37000
v 2.65000 2.70000 0.37000
v 1.79000 2.70000 0.37000
f 150 151 152 153
f 154 157 156 155
f 150 154 155 151
f 151 155 156 152
f 152 156 157 153
f 154 150 153 157
o Capital_1
v 1.69000 2.85000 -0.44000
v 2.75000 2.85000 -0.44000
v 2.75000 3.19000 -0.44000
v 1.69000 3.19000 -0.44000
v 1.69000 2.85000 0.44000
v 2.75000 2.85000 0.44000
v 2.75000 3.19000 0.44000
v 1.69000 3.19000 0.44000
f 158 159 160 161
f 162 165 164 163
f 158 162 163 159
f 159 163 164 160
f 160 164 165 161
f 162 158 161 165
o InnerCorbel_1
v 1.41000 2.89000 -0.36000
v 2.03000 2.89000 -0.36000
v 2.03000 3.67000 -0.36000
v 1.41000 2.89000 0.36000
v 2.03000 2.89000 0.36000
v 2.03000 3.67000 0.36000
f 166 167 168
f 169 171 170
f 166 169 170 167
f 167 170 171 168
f 168 171 169 166
o OuterButtress_1
v 2.49748 0.20855 -0.33000
v 2.91684 0.18546 -0.33000
v 3.06252 2.83145 -0.33000
v 2.64316 2.85454 -0.33000
v 2.49748 0.20855 0.49000
v 2.91684 0.18546 0.49000
v 3.06252 2.83145 0.49000
v 2.64316 2.85454 0.49000
f 172 173 174 175
f 176 179 178 177
f 172 176 177 173
f 173 177 178 174
f 174 178 179 175
f 176 172 175 179
o FinialBase_1
v 3.05000 2.96000 0.08000
v 2.91500 2.96000 0.31383
v 2.64500 2.96000 0.31383
v 2.51000 2.96000 0.08000
v 2.64500 2.96000 -0.15383
v 2.91500 2.96000 -0.15383
v 2.98000 3.28000 0.08000
v 2.88000 3.28000 0.25321
v 2.68000 3.28000 0.25321
v 2.58000 3.28000 0.08000
v 2.68000 3.28000 -0.09321
v 2.88000 3.28000 -0.09321
f 180 181 187 186
f 181 182 188 187
f 182 183 189 188
f 183 184 190 189
f 184 185 191 190
f 185 180 186 191
f 185 184 183 182 181 180
f 186 187 188 189 190 191
o Finial_1
v 2.93588 3.16000 0.17000
v 2.74258 3.16000 0.25607
v 2.60099 3.16000 0.09882
v 2.70679 3.16000 -0.08444
v 2.91377 3.16000 -0.04044
v 2.90783 3.72160 0.15380
v 2.74931 3.72160 0.22437
v 2.63321 3.72160 0.09543
v 2.71997 3.72160 -0.05484
v 2.88969 3.72160 -0.01876
v 2.78000 3.94000 0.08000
f 192 193 198 197
f 197 198 202
f 193 194 199 198
f 198 199 202
f 194 195 200 199
f 199 200 202
f 195 196 201 200
f 200 201 202
f 196 192 197 201
f 201 197 202
f 196 195 194 193 192
o PointedArchBody
v 1.42000 2.78000 -0.37000
v 1.39272 3.05703 -0.37000
v 1.31191 3.32341 -0.37000
v 1.18069 3.56891 -0.37000
v 1.00409 3.78409 -0.37000
v 0.78891 3.96069 -0.37000
v 0.54341 4.09191 -0.37000
v 0.27703 4.17272 -0.37000
v 0.00000 4.20000 -0.37000
v -0.27703 4.17272 -0.37000
v -0.54341 4.09191 -0.37000
v -0.78891 3.96069 -0.37000
v -1.00409 3.78409 -0.37000
v -1.18069 3.56891 -0.37000
v -1.31191 3.32341 -0.37000
v -1.39272 3.05703 -0.37000
v -1.42000 2.78000 -0.37000
v 2.12000 2.78000 -0.37000
v 2.07926 3.19359 -0.37000
v 1.95862 3.59129 -0.37000
v 1.76272 3.95781 -0.37000
v 1.49907 4.27907 -0.37000
v 1.17781 4.54272 -0.37000
v 0.81129 4.73862 -0.37000
v 0.41359 4.85926 -0.37000
v 0.00000 4.90000 -0.37000
v -0.41359 4.85926 -0.37000
v -0.81129 4.73862 -0.37000
v -1.17781 4.54272 -0.37000
v -1.49907 4.27907 -0.37000
v -1.76272 3.95781 -0.37000
v -1.95862 3.59129 -0.37000
v -2.07926 3.19359 -0.37000
v -2.12000 2.78000 -0.37000
v 1.42000 2.78000 0.37000
v 1.39272 3.05703 0.37000
v 1.31191 3.32341 0.37000
v 1.18069 3.56891 0.37000
v 1.00409 3.78409 0.37000
v 0.78891 3.96069 0.37000
v 0.54341 4.09191 0.37000
v 0.27703 4.17272 0.37000
v 0.00000 4.20000 0.37000
v -0.27703 4.17272 0.37000
v -0.54341 4.09191 0.37000
v -0.78891 3.96069 0.37000
v -1.00409 3.78409 0.37000
v -1.18069 3.56891 0.37000
v -1.31191 3.32341 0.37000
v -1.39272 3.05703 0.37000
v -1.42000 2.78000 0.37000
v 2.12000 2.78000 0.37000
v 2.07926 3.19359 0.37000
v 1.95862 3.59129 0.37000
v 1.76272 3.95781 0.37000
v 1.49907 4.27907 0.37000
v 1.17781 4.54272 0.37000
v 0.81129 4.73862 0.37000
v 0.41359 4.85926 0.37000
v 0.00000 4.90000 0.37000
v -0.41359 4.85926 0.37000
v -0.81129 4.73862 0.37000
v -1.17781 4.54272 0.37000
v -1.49907 4.27907 0.37000
v -1.76272 3.95781 0.37000
v -1.95862 3.59129 0.37000
v -2.07926 3.19359 0.37000
v -2.12000 2.78000 0.37000
f 203 204 221 220
f 237 254 255 238
f 203 237 238 204
f 220 221 255 254
f 204 205 222 221
f 238 255 256 239
f 204 238 239 205
f 221 222 256 255
f 205 206 223 222
f 239 256 257 240
f 205 239 240 206
f 222 223 257 256
f 206 207 224 223
f 240 257 258 241
f 206 240 241 207
f 223 224 258 257
f 207 208 225 224
f 241 258 259 242
f 207 241 242 208
f 224 225 259 258
f 208 209 226 225
f 242 259 260 243
f 208 242 243 209
f 225 226 260 259
f 209 210 227 226
f 243 260 261 244
f 209 243 244 210
f 226 227 261 260
f 210 211 228 227
f 244 261 262 245
f 210 244 245 211
f 227 228 262 261
f 211 212 229 228
f 245 262 263 246
f 211 245 246 212
f 228 229 263 262
f 212 213 230 229
f 246 263 264 247
f 212 246 247 213
f 229 230 264 263
f 213 214 231 230
f 247 264 265 248
f 213 247 248 214
f 230 231 265 264
f 214 215 232 231
f 248 265 266 249
f 214 248 249 215
f 231 232 266 265
f 215 216 233 232
f 249 266 267 250
f 215 249 250 216
f 232 233 267 266
f 216 217 234 233
f 250 267 268 251
f 216 250 251 217
f 233 234 268 267
f 217 218 235 234
f 251 268 269 252
f 217 251 252 218
f 234 235 269 268
f 218 219 236 235
f 252 269 270 253
f 218 252 253 219
f 235 236 270 269
f 203 220 254 237
f 219 236 270 253
o Keystone
v -0.28000 4.18000 -0.43000
v 0.28000 4.18000 -0.43000
v -0.28000 5.06000 -0.43000
v -0.28000 4.18000 0.43000
v 0.28000 4.18000 0.43000
v -0.28000 5.06000 0.43000
f 271 272 273
f 274 276 275
f 271 274 275 272
f 272 275 276 273
f 273 276 274 271
o TopCornice
v -2.77500 4.40000 -0.44000
v 2.77500 4.40000 -0.44000
v 2.77500 4.64000 -0.44000
v -2.77500 4.64000 -0.44000
v -2.77500 4.40000 0.44000
v 2.77500 4.40000 0.44000
v 2.77500 4.64000 0.44000
v -2.77500 4.64000 0.44000
f 277 278 279 280
f 281 284 283 282
f 277 281 282 278
f 278 282 283 279
f 279 283 284 280
f 281 277 280 284
o InnerJamb_-1
v -1.69000 0.27500 -0.38000
v -1.41000 0.27500 -0.38000
v -1.41000 2.82500 -0.38000
v -1.69000 2.82500 -0.38000
v -1.69000 0.27500 0.26000
v -1.41000 0.27500 0.26000
v -1.41000 2.82500 0.26000
v -1.69000 2.82500 0.26000
f 285 286 287 288
f 289 292 291 290
f 285 289 290 286
f 286 290 291 287
f 287 291 292 288
f 289 285 288 292
o InnerJamb_1
v 1.41000 0.27500 -0.38000
v 1.69000 0.27500 -0.38000
v 1.69000 2.82500 -0.38000
v 1.41000 2.82500 -0.38000
v 1.41000 0.27500 0.26000
v 1.69000 0.27500 0.26000
v 1.69000 2.82500 0.26000
v 1.41000 2.82500 0.26000
f 293 294 295 296
f 297 300 299 298
f 293 297 298 294
f 294 298 299 295
f 295 299 300 296
f 297 293 296 300
