# ONE MORE FLOOR v1.60 authored environment asset: TreasureChest
o ChestBody
s 1
v -0.70 0.00 -0.45
v 0.70 0.00 -0.45
v 0.70 0.78 -0.45
v -0.70 0.78 -0.45
v -0.70 0.00 0.45
v 0.70 0.00 0.45
v 0.70 0.78 0.45
v -0.70 0.78 0.45
f 1 2 3 4
f 5 8 7 6
f 1 5 6 2
f 2 6 7 3
f 3 7 8 4
f 5 1 4 8
o ChestLid
v -0.76 0.78 -0.50
v 0.76 0.78 -0.50
v 0.76 1.08 -0.50
v -0.76 1.08 -0.50
v -0.76 0.78 0.50
v 0.76 0.78 0.50
v 0.76 1.08 0.50
v -0.76 1.08 0.50
f 9 10 11 12
f 13 16 15 14
f 9 13 14 10
f 10 14 15 11
f 11 15 16 12
f 13 9 12 16
o ChestLock
v -0.11 0.35 0.45
v 0.11 0.35 0.45
v 0.11 0.75 0.45
v -0.11 0.75 0.45
v -0.11 0.35 0.57
v 0.11 0.35 0.57
v 0.11 0.75 0.57
v -0.11 0.75 0.57
f 17 18 19 20
f 21 24 23 22
f 17 21 22 18
f 18 22 23 19
f 19 23 24 20
f 21 17 20 24
