# ONE MORE FLOOR v1.60 authored environment asset: VaultDoor
o VaultDoor
s 1
v -2.20 0.00 -0.24
v 2.20 0.00 -0.24
v 2.20 4.40 -0.24
v -2.20 4.40 -0.24
v -2.20 0.00 0.24
v 2.20 0.00 0.24
v 2.20 4.40 0.24
v -2.20 4.40 0.24
f 1 2 3 4
f 5 8 7 6
f 1 5 6 2
f 2 6 7 3
f 3 7 8 4
f 5 1 4 8
o WheelHub
v -0.70 1.50 0.28
v 0.70 1.50 0.28
v 0.70 2.90 0.28
v -0.70 2.90 0.28
v -0.70 1.50 0.54
v 0.70 1.50 0.54
v 0.70 2.90 0.54
v -0.70 2.90 0.54
f 9 10 11 12
f 13 16 15 14
f 9 13 14 10
f 10 14 15 11
f 11 15 16 12
f 13 9 12 16
o LockBarH
v -1.55 2.10 0.54
v 1.55 2.10 0.54
v 1.55 2.30 0.54
v -1.55 2.30 0.54
v -1.55 2.10 0.72
v 1.55 2.10 0.72
v 1.55 2.30 0.72
v -1.55 2.30 0.72
f 17 18 19 20
f 21 24 23 22
f 17 21 22 18
f 18 22 23 19
f 19 23 24 20
f 21 17 20 24
o LockBarV
v -0.10 0.65 0.54
v 0.10 0.65 0.54
v 0.10 3.75 0.54
v -0.10 3.75 0.54
v -0.10 0.65 0.72
v 0.10 0.65 0.72
v 0.10 3.75 0.72
v -0.10 3.75 0.72
f 25 26 27 28
f 29 32 31 30
f 25 29 30 26
f 26 30 31 27
f 27 31 32 28
f 29 25 28 32
