# ONE MORE FLOOR v1.59 authored environment asset: BlacksmithAnvil
o BlacksmithAnvil
s 1
v -0.750000 0.840000 -0.310000
v 0.750000 0.840000 -0.310000
v 0.750000 1.120000 -0.310000
v -0.750000 1.120000 -0.310000
v -0.750000 0.840000 0.310000
v 0.750000 0.840000 0.310000
v 0.750000 1.120000 0.310000
v -0.750000 1.120000 0.310000
v 0.550000 0.840000 -0.310000
v 1.350000 0.840000 -0.310000
v 1.350000 1.120000 -0.310000
v 0.550000 0.840000 0.310000
v 1.350000 0.840000 0.310000
v 1.350000 1.120000 0.310000
v -0.920000 0.770000 -0.310000
v -0.520000 0.770000 -0.310000
v -0.520000 1.190000 -0.310000
v -0.920000 1.190000 -0.310000
v -0.920000 0.770000 0.310000
v -0.520000 0.770000 0.310000
v -0.520000 1.190000 0.310000
v -0.920000 1.190000 0.310000
v -0.240000 0.280000 -0.240000
v 0.240000 0.280000 -0.240000
v 0.240000 0.880000 -0.240000
v -0.240000 0.880000 -0.240000
v -0.240000 0.280000 0.240000
v 0.240000 0.280000 0.240000
v 0.240000 0.880000 0.240000
v -0.240000 0.880000 0.240000
v -0.440000 0.100000 -0.350000
v 0.440000 0.100000 -0.350000
v 0.440000 0.340000 -0.350000
v -0.440000 0.340000 -0.350000
v -0.440000 0.100000 0.350000
v 0.440000 0.100000 0.350000
v 0.440000 0.340000 0.350000
v -0.440000 0.340000 0.350000
v -0.590000 0.010000 -0.440000
v 0.590000 0.010000 -0.440000
v 0.590000 0.150000 -0.440000
v -0.590000 0.150000 -0.440000
v -0.590000 0.010000 0.44000
v 0.590000 0.010000 0.440000
v 0.590000 0.150000 0.440000
v -0.590000 0.150000 0.440000
f 1 4 3 2
f 5 6 7 8
f 1 5 8 4
f 2 3 7 6
f 4 8 7 3
f 1 2 6 5
f 9 11 10
f 12 13 14
f 9 10 13 12
f 10 11 14 13
f 11 9 12 14
f 15 18 17 16
f 19 20 21 22
f 15 19 22 18
f 16 17 21 20
f 18 22 21 17
f 15 16 20 19
f 23 26 25 24
f 27 28 29 30
f 23 27 30 26
f 24 25 29 28
f 26 30 29 25
f 23 24 28 27
f 31 34 33 32
f 35 36 37 38
f 31 35 38 34
f 32 33 37 36
f 34 38 37 33
f 31 32 36 35
f 39 42 41 40
f 43 44 45 46
f 39 43 46 42
f 40 41 45 44
f 42 46 45 41
f 39 40 44 43
