# ONE MORE FLOOR v1.59 authored environment asset: ForgeHearth
o ForgeHearth
s 1
v -1.250000 0.000000 -0.325000
v 1.250000 0.000000 -0.325000
v 1.250000 2.400000 -0.325000
v -1.250000 2.400000 -0.325000
v -1.250000 0.000000 0.325000
v 1.250000 0.000000 0.325000
v 1.250000 2.400000 0.325000
v -1.250000 2.400000 0.325000
v -1.100000 0.225000 0.240000
v -0.740000 0.225000 0.240000
v -0.740000 1.875000 0.240000
v -1.100000 1.875000 0.240000
v -1.100000 0.225000 0.560000
v -0.740000 0.225000 0.560000
v -0.740000 1.875000 0.560000
v -1.100000 1.875000 0.560000
v 0.740000 0.225000 0.240000
v 1.100000 0.225000 0.240000
v 1.100000 1.875000 0.240000
v 0.740000 1.875000 0.240000
v 0.740000 0.225000 0.560000
v 1.100000 0.225000 0.560000
v 1.100000 1.8750000 0.560000
v 0.740000 1.8750000 0.560000
v -1.100000 1.710000 0.240000
v 1.1000000 1.710000 0.240000
v 1.1000000 2.010000 0.240000
v -1.100000 2.010000 0.240000
v -1.100000 1.710000 0.560000
v 1.1000000 1.710000 0.560000
v 1.1000000 2.010000 0.560000
v -1.100000 2.010000 0.560000
v -1.325000 0.130000 0.125000
v 1.325000 0.130000 0.125000
v 1.325000 0.430000 0.125000
v -1.325000 0.430000 0.125000
v -1.325000 0.130000 0.975000
v 1.325000 0.130000 0.975000
v 1.325000 0.430000 0.975000
v -1.325000 0.430000 0.975000
v -1.075000 2.370000 -0.360000
v 1.075000 2.370000 -0.360000
v 1.075000 2.670000 -0.360000
v -1.075000 2.670000 -0.360000
v -1.075000 2.370000 0.360000
v 1.075000 2.370000 0.360000
v 1.075000 2.670000 0.360000
v -1.075000 2.670000 0.360000
v -0.825000 2.640000 -0.340000
v 0.825000 2.640000 -0.340000
v 0.825000 3.060000 -0.340000
v -0.825000 3.060000 -0.340000
v -0.825000 2.640000 0.280000
v 0.825000 2.640000 0.280000
v 0.825000 3.060000 0.280000
v -0.825000 3.060000 0.280000
v -0.550000 3.050000 -0.320000
v 0.550000 3.050000 -0.320000
v 0.550000 3.550000 -0.320000
v -0.550000 3.550000 -0.320000
v -0.550000 3.050000 0.220000
v 0.550000 3.050000 0.220000
v 0.550000 3.550000 0.220000
v -0.550000 3.550000 0.220000
f 1 4 3 2
f 5 6 7 8
f 1 5 8 4
f 2 3 7 6
f 4 8 7 3
f 1 2 6 5
f 9 12 11 10
f 13 14 15 16
f 9 13 16 12
f 10 11 15 14
f 12 16 15 11
f 9 10 14 13
f 17 20 19 18
f 21 22 23 24
f 17 21 24 20
f 18 19 23 22
f 20 24 23 19
f 17 18 22 21
f 25 28 27 26
f 29 30 31 32
f 25 29 32 28
f 26 27 31 30
f 28 32 31 27
f 25 26 30 29
f 33 36 35 34
f 37 38 39 40
f 33 37 40 36
f 34 35 39 38
f 36 40 39 35
f 33 34 38 37
f 41 44 43 42
f 45 46 47 48
f 41 45 48 44
f 42 43 47 46
f 44 48 47 43
f 41 42 46 45
f 49 52 51 50
f 53 54 55 56
f 49 53 56 52
f 50 51 55 54
f 52 56 55 51
f 49 50 54 53
f 57 60 59 58
f 61 62 63 64
f 57 61 64 60
f 58 59 63 62
f 60 64 63 59
f 57 58 62 61
