# ONE MORE FLOOR v1.59 authored environment asset: GothicPortal
o GothicPortal
s 1
v -1.510000 0.000000 -0.275000
v -0.990000 0.000000 -0.275000
v -0.990000 3.100000 -0.275000
v -1.510000 3.100000 -0.275000
v -1.510000 0.000000 0.275000
v -0.990000 0.000000 0.275000
v -0.990000 3.100000 0.275000
v -1.510000 3.100000 0.275000
v 0.990000 0.000000 -0.275000
v 1.510000 0.000000 -0.275000
v 1.510000 3.100000 -0.275000
v 0.990000 3.100000 -0.275000
v 0.990000 0.000000 0.275000
v 1.510000 0.000000 0.275000
v 1.510000 3.100000 0.275000
v 0.990000 3.100000 0.275000
v 1.000000 3.000000 -0.275000
v 1.520000 3.000000 -0.275000
v 1.000000 3.000000 0.275000
v 1.520000 3.000000 0.275000
v 0.984808 3.173648 -0.275000
v 1.496908 3.263945 -0.275000
v 0.984808 3.173648 0.275000
v 1.496908 3.263945 0.275000
v 0.939693 3.342020 -0.275000
v 1.428333 3.519871 -0.275000
v 0.939693 3.342020 0.275000
v 1.428333 3.519871 0.275000
v 0.866025 3.500000 -0.275000
v 1.316359 3.760000 -0.275000
v 0.866025 3.500000 0.275000
v 1.316359 3.760000 0.275000
v 0.766044 3.642788 -0.275000
v 1.164388 3.977037 -0.275000
v 0.766044 3.642788 0.275000
v 1.164388 3.977037 0.275000
v 0.642788 3.766044 -0.275000
v 0.977037 4.164388 -0.275000
v 0.642788 3.766044 0.275000
v 0.977037 4.164388 0.27500
v 0.500000 3.866025 -0.275000
v 0.760000 4.316359 -0.275000
v 0.500000 3.866025 0.275000
v 0.760000 4.316359 0.275000
v 0.342020 3.939693 -0.275000
v 0.519871 4.428333 -0.275000
v 0.342020 3.939693 0.275000
v 0.519871 4.428333 0.275000
v 0.173648 3.984808 -0.275000
v 0.263945 4.496908 -0.275000
v 0.173648 3.984808 0.275000
v 0.263945 4.496908 0.275000
v 0.000000 4.000000 -0.275000
v 0.000000 4.520000 -0.275000
v 0.000000 4.000000 0.275000
v 0.000000 4.520000 0.275000
v -0.173648 3.984808 -0.275000
v -0.263945 4.496908 -0.275000
v -0.173648 3.984808 0.275000
v -0.263945 4.496908 0.275000
v -0.342020 3.939693 -0.275000
v -0.519871 4.428333 -0.275000
v -0.342020 3.939693 0.275000
v -0.519871 4.428333 0.275000
v -0.500000 3.866025 -0.275000
v -0.760000 4.316359 -0.275000
v -0.500000 3.866025 0.275000
v -0.760000 4.316359 0.275000
v -0.642788 3.766044 -0.275000
v -0.977037 4.164388 -0.275000
v -0.642788 3.766044 0.275000
v -0.977037 4.164388 0.275000
v -0.766044 3.642788 -0.275000
v -1.164388 3.977037 -0.275000
v -0.766044 3.642788 0.275000
v -1.164388 3.977037 0.275000
v -0.866025 3.500000 -0.275000
v -1.316359 3.760000 -0.275000
v -0.866025 3.500000 0.275000
v -1.316359 3.760000 0.275000
v -0.939693 3.342020 -0.275000
v -1.428333 3.519871 -0.275000
v -0.939693 3.342020 0.275000
v -1.428333 3.519871 0.275000
v -0.984808 3.173648 -0.275000
v -1.496908 3.263945 -0.275000
v -0.984808 3.173648 0.275000
v -1.496908 3.263945 0.275000
v -1.000000 3.000000 -0.275000
v -1.520000 3.000000 -0.275000
v -1.000000 3.000000 0.275000
v -1.520000 3.000000 0.275000
v -1.700000 4.470000 -0.310000
v 1.700000 4.470000 -0.310000
v 1.700000 4.690000 -0.310000
v -1.700000 4.690000 -0.310000
v -1.700000 4.470000 0.310000
v 1.700000 4.470000 0.310000
v 1.700000 4.690000 0.310000
v -1.700000 4.690000 0.310000
v -1.660000 0.000000 -0.410000
v -0.840000 0.000000 -0.410000
v -0.8400000 0.240000 -0.410000
v -1.660000 0.240000 -0.410000
v -1.660000 0.000000 0.410000
v -0.840000 0.000000 0.410000
v -0.840000 0.240000 0.410000
v -1.660000 0.240000 0.410000
v -1.610000 3.080000 -0.360000
v -0.890000 3.080000 -0.360000
v -0.890000 3.280000 -0.360000
v -1.610000 3.280000 -0.360000
v -1.610000 3.080000 0.360000
v -0.890000 3.080000 0.36000
v -0.890000 3.280000 0.360000
v -1.610000 3.280000 0.360000
v 0.840000 0.000000 -0.410000
v 1.660000 0.000000 -0.410000
v 1.660000 0.240000 -0.410000
v 0.840000 0.240000 -0.410000
v 0.840000 0.000000 0.410000
v 1.660000 0.000000 0.410000
v 1.660000 0.240000 0.410000
v 0.840000 0.240000 0.410000
v 0.890000 3.080000 -0.360000
v 1.610000 3.080000 -0.360000
v 1.610000 3.280000 -0.360000
v 0.890000 3.280000 -0.360000
v 0.890000 3.080000 0.36000
v 1.610000 3.080000 0.360000
v 1.610000 3.280000 0.36000
v 0.890000 3.280000 0.360000
f 1 4 3 2
f 5 6 7 8
f 1 5 8 4
f 2 3 7 6
f 4 8 7 3
f 1 2 6 5
f 9 12 11 10
f 13 14 15 16
f 9 13 16 12
f 10 11 15 14
f 12 16 15 11
f 9 10 14 13
f 17 21 22 18
f 19 20 24 23
f 17 19 23 21
f 18 22 24 20
f 21 25 26 22
f 23 24 28 27
f 21 23 27 25
f 22 26 28 24
f 25 29 30 26
f 27 28 32 31
f 25 27 31 29
f 26 30 32 28
f 29 33 34 30
f 31 32 36 35
f 29 31 35 33
f 30 34 36 32
f 33 37 38 34
f 35 36 40 39
f 33 35 39 37
f 34 38 40 36
f 37 41 42 38
f 39 40 44 43
f 37 39 43 41
f 38 42 44 40
f 41 45 46 42
f 43 44 48 47
f 41 43 47 45
f 42 46 48 44
f 45 49 50 46
f 47 48 52 51
f 45 47 51 49
f 46 50 52 48
f 49 53 54 50
f 51 52 56 55
f 49 51 55 53
f 50 54 56 52
f 53 57 58 54
f 55 56 60 59
f 53 55 59 57
f 54 58 60 56
f 57 61 62 58
f 59 60 64 63
f 57 59 63 61
f 58 62 64 60
f 61 65 66 62
f 63 64 68 67
f 61 63 67 65
f 62 66 68 64
f 65 69 70 66
f 67 68 72 71
f 65 67 71 69
f 66 70 72 68
f 69 73 74 70
f 71 72 76 75
f 69 71 75 73
f 70 74 76 72
f 73 77 78 74
f 75 76 80 79
f 73 75 79 77
f 74 78 80 76
f 77 81 82 78
f 79 80 84 83
f 77 79 83 81
f 78 82 84 80
f 81 85 86 82
f 83 84 88 87
f 81 83 87 85
f 82 86 88 84
f 85 89 90 86
f 87 88 92 91
f 85 87 91 89
f 86 90 92 88
f 17 18 20 19
f 89 91 92 90
f 93 96 95 94
f 97 98 99 100
f 93 97 100 96
f 94 95 99 98
f 96 100 99 95
f 93 94 98 97
f 101 104 103 102
f 105 106 107 108
f 101 105 108 104
f 102 103 107 106
f 104 108 107 103
f 101 102 106 105
f 109 112 111 110
f 113 114 115 116
f 109 113 116 112
f 110 111 115 114
f 112 116 115 111
f 109 110 114 113
f 117 120 119 118
f 121 122 123 124
f 117 121 124 120
f 118 119 123 122
f 120 124 123 119
f 117 118 122 121
f 125 128 127 126
f 129 130 131 132
f 125 129 132 128
f 126 127 131 130
f 128 132 131 127
f 125 126 130 129
