# ONE MORE FLOOR v1.59 authored environment asset: HeroPedestal
o HeroPedestal
s 1
v 1.250000 0.000000 0.000000
v 1.207407 0.000000 0.323524
v 1.082532 0.000000 0.625000
v 0.883883 0.000000 0.883883
v 0.625000 0.000000 1.082532
v 0.323524 0.000000 1.207407
v 0.000000 0.000000 1.250000
v -0.323524 0.000000 1.207407
v -0.625000 0.000000 1.082532
v -0.883883 0.000000 0.883883
v -1.082532 0.000000 0.625000
v -1.207407 0.000000 0.323524
v -1.250000 0.000000 0.000000
v -1.207407 0.000000 -0.323524
v -1.082532 0.000000 -0.625000
v -0.883883 0.000000 -0.883883
v -0.625000 0.000000 -1.082532
v -0.323524 0.000000 -1.207407
v -0.000000 0.000000 -1.250000
v 0.323524 0.000000 -1.207407
v 0.625000 0.000000 -1.082532
v 0.883883 0.000000 -0.883883
v 1.082532 0.000000 -0.625000
v 1.207407 0.000000 -0.323524
v 1.250000 0.240000 0.000000
v 1.207407 0.240000 0.323524
v 1.082532 0.240000 0.625000
v 0.883883 0.240000 0.883883
v 0.625000 0.240000 1.082532
v 0.323524 0.240000 1.207407
v 0.000000 0.240000 1.250000
v -0.323524 0.240000 1.207407
v -0.625000 0.240000 1.082532
v -0.883883 0.240000 0.883883
v -1.082532 0.240000 0.625000
v -1.207407 0.240000 0.323524
v -1.250000 0.240000 0.000000
v -1.207407 0.240000 -0.323524
v -1.082532 0.240000 -0.625000
v -0.883883 0.240000 -0.883883
v -0.625000 0.240000 -1.082532
v -0.323524 0.240000 -1.207407
v -0.000000 0.240000 -1.250000
v 0.323524 0.240000 -1.207407
v 0.625000 0.240000 -1.082532
v 0.883883 0.240000 -0.883883
v 1.082532 0.240000 -0.625000
v 1.207407 0.240000 -0.323524
v 0.000000 0.000000 0.000000
v 0.000000 0.240000 0.000000
v 1.050000 0.240000 0.000000
v 1.014222 0.240000 0.271760
v 0.909327 0.240000 0.525000
v 0.742462 0.240000 0.742462
v 0.525000 0.240000 0.909327
v 0.271760 0.240000 1.014222
v 0.000000 0.240000 1.050000
v -0.271760 0.240000 1.014222
v -0.525000 0.240000 0.909327
v -0.742462 0.240000 0.742462
v -0.909327 0.240000 0.525000
v -1.014222 0.240000 0.271760
v -1.050000 0.240000 0.000000
v -1.014222 0.240000 -0.271760
v -0.909327 0.240000 -0.525000
v -0.742462 0.240000 -0.742462
v -0.525000 0.240000 -0.909327
v -0.271760 0.240000 -1.014222
v -0.000000 0.240000 -1.050000
v 0.271760 0.240000 -1.014222
v 0.525000 0.240000 -0.909327
v 0.742462 0.240000 -0.742462
v 0.909327 0.240000 -0.525000
v 1.014222 0.240000 -0.271760
v 1.050000 0.360000 0.000000
v 1.014222 0.360000 0.271760
v 0.909327 0.360000 0.525000
v 0.742462 0.360000 0.742462
v 0.525000 0.360000 0.909327
v 0.271760 0.360000 1.014222
v 0.000000 0.360000 1.050000
v -0.271760 0.360000 1.014222
v -0.525000 0.360000 0.909327
v -0.742462 0.360000 0.742462
v -0.909327 0.360000 0.525000
v -1.014222 0.360000 0.271760
v -1.050000 0.360000 0.000000
v -1.014222 0.360000 -0.271760
v -0.909327 0.360000 -0.525000
v -0.742462 0.360000 -0.742462
v -0.525000 0.360000 -0.909327
v -0.271760 0.360000 -1.014222
v -0.000000 0.360000 -1.050000
v 0.271760 0.360000 -1.014222
v 0.525000 0.360000 -0.909327
v 0.742462 0.360000 -0.742462
v 0.909327 0.360000 -0.525000
v 1.014222 0.360000 -0.271760
v 0.000000 0.240000 0.000000
v 0.000000 0.360000 0.000000
v 0.880000 0.360000 0.000000
v 0.850015 0.360000 0.227761
v 0.762102 0.360000 0.440000
v 0.622254 0.360000 0.622254
v 0.440000 0.360000 0.762102
v 0.227761 0.360000 0.850015
v 0.000000 0.360000 0.880000
v -0.227761 0.360000 0.850015
v -0.440000 0.360000 0.762102
v -0.622254 0.360000 0.622254
v -0.762102 0.360000 0.440000
v -0.850015 0.360000 0.227761
v -0.880000 0.360000 0.000000
v -0.850015 0.360000 -0.227761
v -0.762102 0.360000 -0.440000
v -0.622254 0.360000 -0.622254
v -0.440000 0.360000 -0.762102
v -0.227761 0.360000 -0.850015
v -0.000000 0.360000 -0.880000
v 0.227761 0.360000 -0.850015
v 0.440000 0.360000 -0.762102
v 0.622254 0.360000 -0.622254
v 0.762102 0.360000 -0.440000
v 0.850015 0.360000 -0.227761
v 0.880000 0.480000 0.000000
v 0.850015 0.480000 0.227761
v 0.762102 0.480000 0.440000
v 0.622254 0.480000 0.622254
v 0.440000 0.480000 0.762102
v 0.227761 0.480000 0.850015
v 0.000000 0.480000 0.880000
v -0.227761 0.480000 0.850015
v -0.440000 0.480000 0.762102
v -0.622254 0.480000 0.622254
v -0.762102 0.480000 0.440000
v -0.850015 0.480000 0.227761
v -0.880000 0.480000 0.000000
v -0.850015 0.480000 -0.227761
v -0.762102 0.480000 -0.440000
v -0.622254 0.480000 -0.622254
v -0.440000 0.480000 -0.762102
v -0.227761 0.480000 -0.850015
v -0.000000 0.480000 -0.880000
v 0.227761 0.480000 -0.850015
v 0.440000 0.480000 -0.762102
v 0.622254 0.480000 -0.622254
v 0.762102 0.480000 -0.440000
v 0.850015 0.480000 -0.227761
v 0.000000 0.360000 0.000000
v 0.000000 0.480000 0.000000
v 0.880000 0.260000 -0.070000
v 1.020000 0.260000 -0.070000
v 1.020000 0.540000 -0.070000
v 0.880000 0.540000 -0.070000
v 0.880000 0.260000 0.070000
v 1.020000 0.260000 0.070000
v 1.020000 0.540000 0.070000
v 0.880000 0.540000 0.070000
v 0.601751 0.260000 0.601751
v 0.741751 0.260000 0.601751
v 0.741751 0.540000 0.601751
v 0.601751 0.540000 0.601751
v 0.601751 0.260000 0.741751
v 0.741751 0.260000 0.741751
v 0.741751 0.540000 0.741751
v 0.601751 0.540000 0.741751
v -0.070000 0.260000 0.880000
v 0.070000 0.260000 0.880000
v 0.070000 0.540000 0.880000
v -0.070000 0.540000 0.880000
v -0.070000 0.260000 1.020000
v 0.070000 0.260000 1.020000
v 0.070000 0.540000 1.020000
v -0.070000 0.540000 1.020000
v -0.741751 0.260000 0.601751
v -0.601751 0.260000 0.601751
v -0.601751 0.540000 0.601751
v -0.741751 0.540000 0.601751
v -0.741751 0.260000 0.741751
v -0.601751 0.260000 0.741751
v -0.601751 0.540000 0.741751
v -0.741751 0.540000 0.741751
v -1.020000 0.260000 -0.070000
v -0.880000 0.260000 -0.070000
v -0.880000 0.540000 -0.070000
v -1.020000 0.540000 -0.070000
v -1.020000 0.260000 0.070000
v -0.880000 0.260000 0.070000
v -0.880000 0.540000 0.070000
v -1.020000 0.540000 0.070000
v -0.741751 0.260000 -0.741751
v -0.601751 0.260000 -0.741751
v -0.601751 0.540000 -0.741751
v -0.741751 0.540000 -0.741751
v -0.741751 0.260000 -0.601751
v -0.601751 0.260000 -0.601751
v -0.601751 0.54000 -0.601751
v -0.741751 0.54000 -0.601751
v -0.070000 0.260000 -1.020000
v 0.070000 0.26000 -1.020000
v 0.070000 0.540000 -1.020000
v -0.070000 0.54000 -1.020000
v -0.070000 0.26000 -0.880000
v 0.070000 0.260000 -0.880000
v 0.070000 0.540000 -0.880000
v -0.070000 0.54000 -0.880000
v 0.601751 0.260000 -0.741751
v 0.741751 0.260000 -0.741751
v 0.741751 0.540000 -0.741751
v 0.601751 0.540000 -0.741751
v 0.601751 0.260000 -0.601751
v 0.741751 0.260000 -0.601751
v 0.741751 0.540000 -0.601751
v 0.601751 0.540000 -0.601751
f 1 2 26 25
f 49 2 1
f 50 25 26
f 2 3 27 26
f 49 3 2
f 50 26 27
f 3 4 28 27
f 49 4 3
f 50 27 28
f 4 5 29 28
f 49 5 4
f 50 28 29
f 5 6 30 29
f 49 6 5
f 50 29 30
f 6 7 31 30
f 49 7 6
f 50 30 31
f 7 8 32 31
f 49 8 7
f 50 31 32
f 8 9 33 32
f 49 9 8
f 50 32 33
f 9 10 34 33
f 49 10 9
f 50 33 34
f 10 11 35 34
f 49 11 10
f 50 34 35
f 11 12 36 35
f 49 12 11
f 50 35 36
f 12 13 37 36
f 49 13 12
f 50 36 37
f 13 14 38 37
f 49 14 13
f 50 37 38
f 14 15 39 38
f 49 15 14
f 50 38 39
f 15 16 40 39
f 49 16 15
f 50 39 40
f 16 17 41 40
f 49 17 16
f 50 40 41
f 17 18 42 41
f 49 18 17
f 50 41 42
f 18 19 43 42
f 49 19 18
f 50 42 43
f 19 20 44 43
f 49 20 19
f 50 43 44
f 20 21 45 44
f 49 21 20
f 50 44 45
f 21 22 46 45
f 49 22 21
f 50 45 46
f 22 23 47 46
f 49 23 22
f 50 46 47
f 23 24 48 47
f 49 24 23
f 50 47 48
f 24 1 25 48
f 49 1 24
f 50 48 25
f 51 52 76 75
f 99 52 51
f 100 75 76
f 52 53 77 76
f 99 53 52
f 100 76 77
f 53 54 78 77
f 99 54 53
f 100 77 78
f 54 55 79 78
f 99 55 54
f 100 78 79
f 55 56 80 79
f 99 56 55
f 100 79 80
f 56 57 81 80
f 99 57 56
f 100 80 81
f 57 58 82 81
f 99 58 57
f 100 81 82
f 58 59 83 82
f 99 59 58
f 100 82 83
f 59 60 84 83
f 99 60 59
f 100 83 84
f 60 61 85 84
f 99 61 60
f 100 84 85
f 61 62 86 85
f 99 62 61
f 100 85 86
f 62 63 87 86
f 99 63 62
f 100 86 87
f 63 64 88 87
f 99 64 63
f 100 87 88
f 64 65 89 88
f 99 65 64
f 100 88 89
f 65 66 90 89
f 99 66 65
f 100 89 90
f 66 67 91 90
f 99 67 66
f 100 90 91
f 67 68 92 91
f 99 68 67
f 100 91 92
f 68 69 93 92
f 99 69 68
f 100 92 93
f 69 70 94 93
f 99 70 69
f 100 93 94
f 70 71 95 94
f 99 71 70
f 100 94 95
f 71 72 96 95
f 99 72 71
f 100 95 96
f 72 73 97 96
f 99 73 72
f 100 96 97
f 73 74 98 97
f 99 74 73
f 100 97 98
f 74 51 75 98
f 99 51 74
f 100 98 75
f 101 102 126 125
f 149 102 101
f 150 125 126
f 102 103 127 126
f 149 103 102
f 150 126 127
f 103 104 128 127
f 149 104 103
f 150 127 128
f 104 105 129 128
f 149 105 104
f 150 128 129
f 105 106 130 129
f 149 106 105
f 150 129 130
f 106 107 131 130
f 149 107 106
f 150 130 131
f 107 108 132 131
f 149 108 107
f 150 131 132
f 108 109 133 132
f 149 109 108
f 150 132 133
f 109 110 134 133
f 149 110 109
f 150 133 134
f 110 111 135 134
f 149 111 110
f 150 134 135
f 111 112 136 135
f 149 112 111
f 150 135 136
f 112 113 137 136
f 149 113 112
f 150 136 137
f 113 114 138 137
f 149 114 113
f 150 137 138
f 114 115 139 138
f 149 115 114
f 150 138 139
f 115 116 140 139
f 149 116 115
f 150 139 140
f 116 117 141 140
f 149 117 116
f 150 140 141
f 117 118 142 141
f 149 118 117
f 150 141 142
f 118 119 143 142
f 149 119 118
f 150 142 143
f 119 120 144 143
f 149 120 119
f 150 143 144
f 120 121 145 144
f 149 121 120
f 150 144 145
f 121 122 146 145
f 149 122 121
f 150 145 146
f 122 123 147 146
f 149 123 122
f 150 146 147
f 123 124 148 147
f 149 124 123
f 150 147 148
f 124 101 125 148
f 149 101 124
f 150 148 125
f 151 154 153 152
f 155 156 157 158
f 151 155 158 154
f 152 153 157 156
f 154 158 157 153
f 151 152 156 155
f 159 162 161 160
f 163 164 165 166
f 159 163 166 162
f 160 161 165 164
f 162 166 165 161
f 159 160 164 163
f 167 170 169 168
f 171 172 173 174
f 167 171 174 170
f 168 169 173 172
f 170 174 173 169
f 167 168 172 171
f 175 178 177 176
f 179 180 181 182
f 175 179 182 178
f 176 177 181 180
f 178 182 181 177
f 175 176 180 179
f 183 186 185 184
f 187 188 189 190
f 183 187 190 186
f 184 185 189 188
f 186 190 189 185
f 183 184 188 187
f 191 194 193 192
f 195 196 197 198
f 191 195 198 194
f 192 193 197 196
f 194 198 197 193
f 191 192 196 195
f 199 202 201 200
f 203 204 205 206
f 199 203 206 202
f 200 201 205 204
f 202 206 205 201
f 199 200 204 203
f 207 210 209 208
f 211 212 213 214
f 207 211 214 210
f 208 209 213 212
f 210 214 213 209
f 207 208 212 211
