# ONE MORE FLOOR v1.59 authored environment asset: RoyalBanner
o RoyalBanner
s 1
v -0.367500 1.500000 -0.030000
v 0.367500 1.500000 -0.030000
v 0.367500 2.000000 -0.030000
v -0.367500 2.000000 -0.030000
v -0.367500 1.500000 0.030000
v 0.367500 1.500000 0.030000
v 0.367500 2.000000 0.030000
v -0.367500 2.000000 0.030000
v -0.382500 1.000000 -0.030000
v 0.382500 1.000000 -0.030000
v 0.382500 1.500000 -0.030000
v -0.382500 1.500000 -0.030000
v -0.382500 1.000000 0.03000
v 0.382500 1.000000 0.030000
v 0.382500 1.500000 0.030000
v -0.382500 1.5000000 0.030000
v -0.385000 0.500000 -0.030000
v 0.385000 0.500000 -0.030000
v 0.385000 1.000000 -0.030000
v -0.385000 1.000000 -0.030000
v -0.385000 0.500000 0.030000
v 0.385000 0.500000 0.030000
v 0.385000 1.000000 0.030000
v -0.385000 1.000000 0.030000
v -0.355000 0.000000 -0.030000
v 0.355000 0.000000 -0.030000
v 0.355000 0.500000 -0.030000
v -0.355000 0.500000 -0.030000
v -0.355000 0.000000 0.03000
v 0.355000 0.000000 0.030000
v 0.355000 0.500000 0.030000
v -0.355000 0.5000000 0.030000
v -0.190000 -0.550000 -0.030000
v 0.190000 -0.550000 -0.030000
v 0.190000 0.000000 -0.030000
v -0.190000 0.000000 -0.030000
v -0.190000 -0.550000 0.030000
v 0.190000 -0.550000 0.03000
v 0.190000 0.000000 0.030000
v -0.190000 0.000000 0.030000
v -0.500000 2.060000 -0.050000
v 0.500000 2.060000 -0.050000
v 0.500000 2.180000 -0.050000
v -0.500000 2.180000 -0.050000
v -0.500000 2.060000 0.050000
v 0.500000 2.060000 0.050000
v 0.500000 2.180000 0.050000
v -0.500000 2.180000 0.050000
f 1 4 3 2
f 5 6 7 8
f 1 5 8 4
f 2 3 7 6
f 4 8 7 3
f 1 2 6 5
f 9 12 11 10
f 13 14 15 16
f 9 13 16 12
f 10 11 15 14
f 12 16 15 11
f 9 10 14 13
f 17 20 19 18
f 21 22 23 24
f 17 21 24 20
f 18 19 23 22
f 20 24 23 19
f 17 18 22 21
f 25 28 27 26
f 29 30 31 32
f 25 29 32 28
f 26 27 31 30
f 28 32 31 27
f 25 26 30 29
f 33 36 35 34
f 37 38 39 40
f 33 37 40 36
f 34 35 39 38
f 36 40 39 35
f 33 34 38 37
f 41 44 43 42
f 45 46 47 48
f 41 45 48 44
f 42 43 47 46
f 44 48 47 43
f 41 42 46 45
