# ONE MORE FLOOR v1.59 authored environment asset: WallBrazier
o WallBrazier
s 1
v 0.420000 -0.090000 0.000000
v 0.388029 -0.090000 0.160727
v 0.296985 -0.090000 0.296985
v 0.160727 -0.090000 0.388029
v 0.000000 -0.090000 0.420000
v -0.160727 -0.090000 0.388029
v -0.296985 -0.090000 0.296985
v -0.388029 -0.090000 0.160727
v -0.420000 -0.090000 0.000000
v -0.388029 -0.090000 -0.160727
v -0.296985 -0.090000 -0.296985
v -0.160727 -0.090000 -0.388029
v -0.000000 -0.090000 -0.420000
v 0.160727 -0.090000 -0.388029
v 0.296985 -0.090000 -0.296985
v 0.388029 -0.090000 -0.160727
v 0.300000 0.090000 0.000000
v 0.277164 0.090000 0.114805
v 0.212132 0.090000 0.212132
v 0.114805 0.090000 0.277164
v 0.000000 0.090000 0.300000
v -0.114805 0.090000 0.277164
v -0.212132 0.090000 0.212132
v -0.277164 0.090000 0.114805
v -0.300000 0.090000 0.000000
v -0.277164 0.090000 -0.114805
v -0.212132 0.090000 -0.212132
v -0.114805 0.090000 -0.277164
v -0.000000 0.090000 -0.300000
v 0.114805 0.090000 -0.277164
v 0.212132 0.090000 -0.212132
v 0.277164 0.090000 -0.114805
v 0.000000 -0.090000 0.000000
v 0.000000 0.090000 0.000000
v -0.060000 -0.540000 -0.060000
v 0.060000 -0.540000 -0.060000
v 0.060000 -0.020000 -0.060000
v -0.060000 -0.020000 -0.060000
v -0.060000 -0.540000 0.060000
v 0.060000 -0.540000 0.060000
v 0.060000 -0.020000 0.060000
v -0.060000 -0.020000 0.060000
v -0.210000 -0.620000 -0.080000
v 0.210000 -0.620000 -0.080000
v 0.210000 -0.500000 -0.080000
v -0.210000 -0.500000 -0.080000
v -0.210000 -0.620000 0.200000
v 0.210000 -0.620000 0.200000
v 0.210000 -0.500000 0.200000
v -0.210000 -0.500000 0.200000
v 0.220000 -0.110000 -0.040000
v 0.300000 -0.110000 -0.040000
v 0.300000 0.070000 -0.040000
v 0.220000 0.070000 -0.040000
v 0.220000 -0.110000 0.040000
v 0.300000 -0.110000 0.040000
v 0.300000 0.070000 0.040000
v 0.220000 0.070000 0.040000
v -0.040000 -0.110000 0.220000
v 0.040000 -0.110000 0.220000
v 0.040000 0.070000 0.220000
v -0.040000 0.070000 0.220000
v -0.040000 -0.110000 0.300000
v 0.040000 -0.110000 0.300000
v 0.040000 0.070000 0.300000
v -0.040000 0.070000 0.300000
v -0.300000 -0.110000 -0.040000
v -0.220000 -0.110000 -0.040000
v -0.220000 0.070000 -0.040000
v -0.300000 0.070000 -0.040000
v -0.300000 -0.110000 0.040000
v -0.220000 -0.110000 0.040000
v -0.220000 0.070000 0.040000
v -0.300000 0.070000 0.040000
v -0.040000 -0.110000 -0.300000
v 0.040000 -0.110000 -0.300000
v 0.040000 0.070000 -0.300000
v -0.040000 0.070000 -0.300000
v -0.040000 -0.110000 -0.220000
v 0.040000 -0.110000 -0.220000
v 0.040000 0.070000 -0.220000
v -0.040000 0.070000 -0.220000
f 1 2 18 17
f 33 2 1
f 34 17 18
f 2 3 19 18
f 33 3 2
f 34 18 19
f 3 4 20 19
f 33 4 3
f 34 19 20
f 4 5 21 20
f 33 5 4
f 34 20 21
f 5 6 22 21
f 33 6 5
f 34 21 22
f 6 7 23 22
f 33 7 6
f 34 22 23
f 7 8 24 23
f 33 8 7
f 34 23 24
f 8 9 25 24
f 33 9 8
f 34 24 25
f 9 10 26 25
f 33 10 9
f 34 25 26
f 10 11 27 26
f 33 11 10
f 34 26 27
f 11 12 28 27
f 33 12 11
f 34 27 28
f 12 13 29 28
f 33 13 12
f 34 28 29
f 13 14 30 29
f 33 14 13
f 34 29 30
f 14 15 31 30
f 33 15 14
f 34 30 31
f 15 16 32 31
f 33 16 15
f 34 31 32
f 16 1 17 32
f 33 1 16
f 34 32 17
f 35 38 37 36
f 39 40 41 42
f 35 39 42 38
f 36 37 41 40
f 38 42 41 37
f 35 36 40 39
f 43 46 45 44
f 47 48 49 50
f 43 47 50 46
f 44 45 49 48
f 46 50 49 45
f 43 44 48 47
f 51 54 53 52
f 55 56 57 58
f 51 55 58 54
f 52 53 57 56
f 54 58 57 53
f 51 52 56 55
f 59 62 61 60
f 63 64 65 66
f 59 63 66 62
f 60 61 65 64
f 62 66 65 61
f 59 60 64 63
f 67 70 69 68
f 71 72 73 74
f 67 71 74 70
f 68 69 73 72
f 70 74 73 69
f 67 68 72 71
f 75 78 77 76
f 79 80 81 82
f 75 79 82 78
f 76 77 81 80
f 78 82 81 77
f 75 76 80 79
