# ONE MORE FLOOR v1.59 authored environment asset: WeaponRack
o WeaponRack
s 1
v -1.140000 0.000000 -0.120000
v -0.960000 0.000000 -0.120000
v -0.960000 2.800000 -0.120000
v -1.140000 2.800000 -0.120000
v -1.140000 0.000000 0.120000
v -0.960000 0.000000 0.120000
v -0.960000 2.800000 0.120000
v -1.140000 2.800000 0.120000
v -1.290000 0.000000 -0.280000
v -0.810000 0.000000 -0.280000
v -0.810000 0.160000 -0.280000
v -1.290000 0.160000 -0.280000
v -1.290000 0.000000 0.280000
v -0.810000 0.000000 0.280000
v -0.810000 0.160000 0.280000
v -1.290000 0.160000 0.280000
v 0.960000 0.000000 -0.120000
v 1.140000 0.000000 -0.120000
v 1.140000 2.8000000 -0.120000
v 0.960000 2.800000 -0.120000
v 0.960000 0.000000 0.120000
v 1.140000 0.0000000 0.120000
v 1.140000 2.800000 0.120000
v 0.960000 2.800000 0.120000
v 0.810000 0.000000 -0.280000
v 1.290000 0.000000 -0.280000
v 1.290000 0.160000 -0.280000
v 0.810000 0.160000 -0.280000
v 0.810000 0.000000 0.280000
v 1.290000 0.0000000 0.280000
v 1.290000 0.1600000 0.280000
v 0.810000 0.160000 0.280000
v -1.160000 2.570000 -0.120000
v 1.160000 2.570000 -0.120000
v 1.160000 2.750000 -0.120000
v -1.160000 2.750000 -0.120000
v -1.160000 2.570000 0.120000
v 1.160000 2.570000 0.120000
v 1.160000 2.7500000 0.120000
v -1.160000 2.750000 0.120000
v -1.060000 1.890000 -0.110000
v 1.060000 1.890000 -0.110000
v 1.060000 2.010000 -0.110000
v -1.060000 2.010000 -0.110000
v -1.060000 1.890000 0.11000
v 1.060000 1.890000 0.110000
v 1.060000 2.010000 0.110000
v -1.060000 2.010000 0.110000
v -1.060000 0.650000 -0.110000
v 1.060000 0.650000 -0.110000
v 1.060000 0.790000 -0.110000
v -1.060000 0.790000 -0.110000
v -1.060000 0.650000 0.110000
v 1.060000 0.650000 0.110000
v 1.060000 0.790000 0.110000
v -1.060000 0.790000 0.110000
v -0.760000 1.720000 -0.050000
v -0.680000 1.720000 -0.050000
v -0.680000 1.960000 -0.050000
v -0.760000 1.960000 -0.050000
v -0.760000 1.720000 0.370000
v -0.680000 1.720000 0.370000
v -0.680000 1.960000 0.370000
v -0.760000 1.960000 0.370000
v -0.280000 1.720000 -0.050000
v -0.200000 1.720000 -0.050000
v -0.200000 1.960000 -0.050000
v -0.280000 1.960000 -0.050000
v -0.280000 1.720000 0.370000
v -0.200000 1.720000 0.370000
v -0.200000 1.960000 0.370000
v -0.280000 1.960000 0.370000
v 0.200000 1.720000 -0.050000
v 0.280000 1.720000 -0.050000
v 0.280000 1.960000 -0.050000
v 0.200000 1.960000 -0.050000
v 0.200000 1.720000 0.370000
v 0.280000 1.720000 0.370000
v 0.280000 1.960000 0.370000
v 0.200000 1.960000 0.370000
v 0.680000 1.720000 -0.050000
v 0.760000 1.720000 -0.050000
v 0.760000 1.960000 -0.050000
v 0.680000 1.960000 -0.050000
v 0.680000 1.720000 0.370000
v 0.760000 1.720000 0.370000
v 0.760000 1.960000 0.370000
v 0.680000 1.960000 0.37000
f 1 4 3 2
f 5 6 7 8
f 1 5 8 4
f 2 3 7 6
f 4 8 7 3
f 1 2 6 5
f 9 12 11 10
f 13 14 15 16
f 9 13 16 12
f 10 11 15 14
f 12 16 15 11
f 9 10 14 13
f 17 20 19 18
f 21 22 23 24
f 17 21 24 20
f 18 19 23 22
f 20 24 23 19
f 17 18 22 21
f 25 28 27 26
f 29 30 31 32
f 25 29 32 28
f 26 27 31 30
f 28 32 31 27
f 25 26 30 29
f 33 36 35 34
f 37 38 39 40
f 33 37 40 36
f 34 35 39 38
f 36 40 39 35
f 33 34 38 37
f 41 44 43 42
f 45 46 47 48
f 41 45 48 44
f 42 43 47 46
f 44 48 47 43
f 41 42 46 45
f 49 52 51 50
f 53 54 55 56
f 49 53 56 52
f 50 51 55 54
f 52 56 55 51
f 49 50 54 53
f 57 60 59 58
f 61 62 63 64
f 57 61 64 60
f 58 59 63 62
f 60 64 63 59
f 57 58 62 61
f 65 68 67 66
f 69 70 71 72
f 65 69 72 68
f 66 67 71 70
f 68 72 71 67
f 65 66 70 69
f 73 76 75 74
f 77 78 79 80
f 73 77 80 76
f 74 75 79 78
f 76 80 79 75
f 73 74 78 77
f 81 84 83 82
f 85 86 87 88
f 81 85 88 84
f 82 83 87 86
f 84 88 87 83
f 81 82 86 85
