<svg xmlns="http://www.w3.org/2000/svg" width="560" height="108" viewBox="0 0 560 108"><defs><linearGradient id="f" x1="0" y1="0" x2="0" y2="1"><stop stop-color="#31114f"/><stop offset=".5" stop-color="#190a2c"/><stop offset="1" stop-color="#090712"/></linearGradient><linearGradient id="g" x1="0" y1="0" x2="1" y2="0"><stop stop-color="#63209f"/><stop offset=".2" stop-color="#d474ff"/><stop offset=".5" stop-color="#f0b6ff"/><stop offset=".8" stop-color="#9f48e7"/><stop offset="1" stop-color="#4c157d"/></linearGradient><filter id="glow"><feGaussianBlur stdDeviation="4"/></filter></defs><rect x="5" y="7" width="550" height="96" rx="3" fill="#b246ff" opacity=".27" filter="url(#glow)"/><path d="M18 4h524l14 14v72l-14 14H18L4 90V18z" fill="#05070a" stroke="url(#g)" stroke-width="4"/><path d="M25 12h510l12 12v60l-12 12H25L13 84V24z" fill="url(#f)" stroke="#67309a" stroke-width="2"/><path d="M42 20h476M42 88h476" stroke="#e09aff" opacity=".45"/><g fill="#9b47e9" stroke="#f0c3ff"><path d="M19 9l9 9-9 9-9-9z"/><path d="M541 9l9 9-9 9-9-9z"/><path d="M19 81l9 9-9 9-9-9z"/><path d="M541 81l9 9-9 9-9-9z"/><path d="M280 7l8 8-8 8-8-8z"/></g></svg>