{"asset":{"version":"2.0","generator":"ONE MORE FLOOR v1.55 Wanderer Pilot"},"scene":0,"scenes":[{"nodes":[0]}],"nodes":[{"name":"WandererRoot","children":[1]},{"name":"Hips","translation":[0,0.87,0],"children":[2,3,4,5,9,14,23,26,29]},{"name":"Torso","mesh":0,"translation":[0,0.18,0],"scale":[0.58,0.72,0.46]},{"name":"Belt","mesh":2,"translation":[0,-0.13,0],"scale":[0.66,0.1,0.5]},{"name":"Cape","mesh":10,"translation":[0,0.1,0.24],"scale":[0.82,0.86,0.08]},{"name":"HeadPivot","translation":[0,0.62,-0.02],"children":[6,7,8]},{"name":"Hood","mesh":3,"scale":[0.6,0.68,0.56]},{"name":"Face","mesh":5,"translation":[0,-0.02,-0.25],"scale":[0.34,0.34,0.1]},{"name":"Brow","mesh":8,"translation":[0,0.1,-0.28],"scale":[0.52,0.07,0.08]},{"name":"LeftShoulder","translation":[-0.38,0.42,0],"children":[10,11]},{"name":"LP","mesh":4,"scale":[0.4,0.25,0.42]},{"name":"LeftArm","translation":[0,-0.28,0],"children":[12,13]},{"name":"LA","mesh":0,"scale":[0.16,0.52,0.16]},{"name":"LG","mesh":1,"translation":[0,-0.34,0],"scale":[0.18,0.2,0.18]},{"name":"RightShoulder","translation":[0.38,0.42,0],"children":[15,16]},{"name":"RP","mesh":4,"scale":[0.4,0.25,0.42]},{"name":"RightArm","translation":[0,-0.28,0],"children":[17,18,19]},{"name":"RA","mesh":0,"scale":[0.16,0.52,0.16]},{"name":"RG","mesh":1,"translation":[0,-0.34,0],"scale":[0.18,0.2,0.18]},{"name":"SwordPivot","translation":[0,-0.48,-0.02],"children":[20,21,22]},{"name":"Blade","mesh":8,"translation":[0,-0.48,0],"scale":[0.07,0.9,0.035]},{"name":"Guard","mesh":7,"translation":[0,-0.03,0],"scale":[0.34,0.06,0.08]},{"name":"Grip","mesh":9,"translation":[0,0.13,0],"scale":[0.08,0.26,0.08]},{"name":"LeftLeg","translation":[-0.15,-0.33,0],"children":[24,25]},{"name":"LL","mesh":0,"scale":[0.2,0.55,0.2]},{"name":"LB","mesh":9,"translation":[0,-0.38,-0.04],"scale":[0.22,0.2,0.32]},{"name":"RightLeg","translation":[0.15,-0.33,0],"children":[27,28]},{"name":"RL","mesh":0,"scale":[0.2,0.55,0.2]},{"name":"RB","mesh":9,"translation":[0,-0.38,-0.04],"scale":[0.22,0.2,0.32]},{"name":"ArcaneCore","mesh":6,"translation":[0,0.28,-0.3],"scale":[0.22,0.24,0.12]}],"meshes":[{"name":"ClothPrism","primitives":[{"attributes":{"POSITION":0,"NORMAL":1},"indices":2,"material":0}]},{"name":"SteelPrism","primitives":[{"attributes":{"POSITION":0,"NORMAL":1},"indices":2,"material":1}]},{"name":"LeatherPrism","primitives":[{"attributes":{"POSITION":0,"NORMAL":1},"indices":2,"material":2}]},{"name":"ClothOcta","primitives":[{"attributes":{"POSITION":3,"NORMAL":4},"indices":5,"material":0}]},{"name":"SteelOcta","primitives":[{"attributes":{"POSITION":3,"NORMAL":4},"indices":5,"material":1}]},{"name":"VoidOcta","primitives":[{"attributes":{"POSITION":3,"NORMAL":4},"indices":5,"material":5}]},{"name":"ArcaneOcta","primitives":[{"attributes":{"POSITION":3,"NORMAL":4},"indices":5,"material":3}]},{"name":"GoldCube","primitives":[{"attributes":{"POSITION":6,"NORMAL":7},"indices":8,"material":4}]},{"name":"SteelCube","primitives":[{"attributes":{"POSITION":6,"NORMAL":7},"indices":8,"material":1}]},{"name":"LeatherCube","primitives":[{"attributes":{"POSITION":6,"NORMAL":7},"indices":8,"material":2}]},{"name":"ClothCube","primitives":[{"attributes":{"POSITION":6,"NORMAL":7},"indices":8,"material":0}]}],"materials":[{"name":"NightCloth","pbrMetallicRoughness":{"baseColorFactor":[0.055,0.06,0.1,1],"metallicFactor":0.05,"roughnessFactor":0.72}},{"name":"ColdSteel","pbrMetallicRoughness":{"baseColorFactor":[0.28,0.34,0.44,1],"metallicFactor":0.78,"roughnessFactor":0.24}},{"name":"Leather","pbrMetallicRoughness":{"baseColorFactor":[0.12,0.075,0.055,1],"metallicFactor":0,"roughnessFactor":0.86}},{"name":"Arcane","pbrMetallicRoughness":{"baseColorFactor":[0.38,0.2,0.88,1],"metallicFactor":0.15,"roughnessFactor":0.28},"emissiveFactor":[0.55,0.28,1]},{"name":"Gold","pbrMetallicRoughness":{"baseColorFactor":[0.62,0.43,0.14,1],"metallicFactor":0.82,"roughnessFactor":0.28}},{"name":"Void","pbrMetallicRoughness":{"baseColorFactor":[0.008,0.01,0.02,1],"metallicFactor":0,"roughnessFactor":0.95}}],"animations":[{"name":"Idle","samplers":[{"input":9,"output":10,"interpolation":"LINEAR"},{"input":11,"output":12,"interpolation":"LINEAR"}],"channels":[{"sampler":0,"target":{"node":1,"path":"translation"}},{"sampler":1,"target":{"node":5,"path":"rotation"}}]},{"name":"Run","samplers":[{"input":13,"output":14,"interpolation":"LINEAR"},{"input":15,"output":16,"interpolation":"LINEAR"},{"input":17,"output":18,"interpolation":"LINEAR"},{"input":19,"output":20,"interpolation":"LINEAR"}],"channels":[{"sampler":0,"target":{"node":9,"path":"rotation"}},{"sampler":1,"target":{"node":14,"path":"rotation"}},{"sampler":2,"target":{"node":23,"path":"rotation"}},{"sampler":3,"target":{"node":26,"path":"rotation"}}]},{"name":"Attack","samplers":[{"input":21,"output":22,"interpolation":"LINEAR"},{"input":23,"output":24,"interpolation":"LINEAR"}],"channels":[{"sampler":0,"target":{"node":1,"path":"rotation"}},{"sampler":1,"target":{"node":14,"path":"rotation"}}]},{"name":"Hit","samplers":[{"input":25,"output":26,"interpolation":"LINEAR"},{"input":27,"output":28,"interpolation":"LINEAR"}],"channels":[{"sampler":0,"target":{"node":1,"path":"translation"}},{"sampler":1,"target":{"node":1,"path":"rotation"}}]},{"name":"Skill","samplers":[{"input":29,"output":30,"interpolation":"LINEAR"},{"input":31,"output":32,"interpolation":"LINEAR"},{"input":33,"output":34,"interpolation":"LINEAR"}],"channels":[{"sampler":0,"target":{"node":9,"path":"rotation"}},{"sampler":1,"target":{"node":14,"path":"rotation"}},{"sampler":2,"target":{"node":29,"path":"scale"}}]}],"buffers":[{"byteLength":1600,"uri":"data:application/octet-stream;base64,"}],"bufferViews":[{"buffer":0,"byteOffset":0,"byteLength":144,"target":34962},{"buffer":0,"byteOffset":144,"byteLength":144,"target":34962},{"buffer":0,"byteOffset":288,"byteLength":72,"target":34963},{"buffer":0,"byteOffset":360,"byteLength":72,"target":34962},{"buffer":0,"byteOffset":432,"byteLength":72,"target":34962},{"buffer":0,"byteOffset":504,"byteLength":48,"target":34963},{"buffer":0,"byteOffset":552,"byteLength":96,"target":34962},{"buffer":0,"byteOffset":648,"byteLength":96,"target":34962},{"buffer":0,"byteOffset":744,"byteLength":72,"target":34963},{"buffer":0,"byteOffset":816,"byteLength":12},{"buffer":0,"byteOffset":828,"byteLength":36},{"buffer":0,"byteOffset":864,"byteLength":12},{"buffer":0,"byteOffset":876,"byteLength":48},{"buffer":0,"byteOffset":924,"byteLength":12},{"buffer":0,"byteOffset":936,"byteLength":48},{"buffer":0,"byteOffset":984,"byteLength":12},{"buffer":0,"byteOffset":996,"byteLength":48},{"buffer":0,"byteOffset":1044,"byteLength":12},{"buffer":0,"byteOffset":1056,"byteLength":48},{"buffer":0,"byteOffset":1104,"byteLength":12},{"buffer":0,"byteOffset":1116,"byteLength":48},{"buffer":0,"byteOffset":1164,"byteLength":16},{"buffer":0,"byteOffset":1180,"byteLength":64},{"buffer":0,"byteOffset":1244,"byteLength":16},{"buffer":0,"byteOffset":1260,"byteLength":64},{"buffer":0,"byteOffset":1324,"byteLength":12},{"buffer":0,"byteOffset":1336,"byteLength":36},{"buffer":0,"byteOffset":1372,"byteLength":12},{"buffer":0,"byteOffset":1384,"byteLength":48},{"buffer":0,"byteOffset":1432,"byteLength":12},{"buffer":0,"byteOffset":1444,"byteLength":48},{"buffer":0,"byteOffset":1492,"byteLength":12},{"buffer":0,"byteOffset":1504,"byteLength":48},{"buffer":0,"byteOffset":1552,"byteLength":12},{"buffer":0,"byteOffset":1564,"byteLength":36}],"accessors":[{"bufferView":0,"componentType":5126,"count":12,"type":"VEC3","min":[-0.5,-0.5,-0.4330127018922193],"max":[0.5,0.5,0.43301270189221935]},{"bufferView":1,"componentType":5126,"count":12,"type":"VEC3"},{"bufferView":2,"componentType":5123,"count":36,"type":"SCALAR"},{"bufferView":3,"componentType":5126,"count":6,"type":"VEC3","min":[-0.5,-0.5,-0.5],"max":[0.5,0.5,0.5]},{"bufferView":4,"componentType":5126,"count":6,"type":"VEC3"},{"bufferView":5,"componentType":5123,"count":24,"type":"SCALAR"},{"bufferView":6,"componentType":5126,"count":8,"type":"VEC3","min":[-0.5,-0.5,-0.5],"max":[0.5,0.5,0.5]},{"bufferView":7,"componentType":5126,"count":8,"type":"VEC3"},{"bufferView":8,"componentType":5123,"count":36,"type":"SCALAR"},{"bufferView":9,"componentType":5126,"count":3,"type":"SCALAR","min":[0.0],"max":[2.0]},{"bufferView":10,"componentType":5126,"count":3,"type":"VEC3"},{"bufferView":11,"componentType":5126,"count":3,"type":"SCALAR","min":[0.0],"max":[2.0]},{"bufferView":12,"componentType":5126,"count":3,"type":"VEC4"},{"bufferView":13,"componentType":5126,"count":3,"type":"SCALAR","min":[0.0],"max":[0.72]},{"bufferView":14,"componentType":5126,"count":3,"type":"VEC4"},{"bufferView":15,"componentType":5126,"count":3,"type":"SCALAR","min":[0.0],"max":[0.72]},{"bufferView":16,"componentType":5126,"count":3,"type":"VEC4"},{"bufferView":17,"componentType":5126,"count":3,"type":"SCALAR","min":[0.0],"max":[0.72]},{"bufferView":18,"componentType":5126,"count":3,"type":"VEC4"},{"bufferView":19,"componentType":5126,"count":3,"type":"SCALAR","min":[0.0],"max":[0.72]},{"bufferView":20,"componentType":5126,"count":3,"type":"VEC4"},{"bufferView":21,"componentType":5126,"count":4,"type":"SCALAR","min":[0.0],"max":[0.7]},{"bufferView":22,"componentType":5126,"count":4,"type":"VEC4"},{"bufferView":23,"componentType":5126,"count":4,"type":"SCALAR","min":[0.0],"max":[0.7]},{"bufferView":24,"componentType":5126,"count":4,"type":"VEC4"},{"bufferView":25,"componentType":5126,"count":3,"type":"SCALAR","min":[0.0],"max":[0.5]},{"bufferView":26,"componentType":5126,"count":3,"type":"VEC3"},{"bufferView":27,"componentType":5126,"count":3,"type":"SCALAR","min":[0.0],"max":[0.5]},{"bufferView":28,"componentType":5126,"count":3,"type":"VEC4"},{"bufferView":29,"componentType":5126,"count":3,"type":"SCALAR","min":[0.0],"max":[1.1]},{"bufferView":30,"componentType":5126,"count":3,"type":"VEC4"},{"bufferView":31,"componentType":5126,"count":3,"type":"SCALAR","min":[0.0],"max":[1.1]},{"bufferView":32,"componentType":5126,"count":3,"type":"VEC4"},{"bufferView":33,"componentType":5126,"count":3,"type":"SCALAR","min":[0.0],"max":[1.1]},{"bufferView":34,"componentType":5126,"count":3,"type":"VEC3"}]}