# ONE MORE FLOOR v1.60 — enemy quality r3 — bat segmented wing anatomy
o bat_body_r3
v 0.000000 1.340000 -0.030000
v 0.141421 1.287279 -0.030000
v 0.100000 1.287279 0.050000
v 0.000000 1.287279 0.083137
v -0.100000 1.287279 0.050000
v -0.141421 1.287279 -0.030000
v -0.100000 1.287279 -0.110000
v -0.000000 1.287279 -0.143137
v 0.100000 1.287279 -0.110000
v 0.200000 1.160000 -0.030000
v 0.141421 1.160000 0.083137
v 0.000000 1.160000 0.130000
v -0.141421 1.160000 0.083137
v -0.200000 1.160000 -0.030000
v -0.141421 1.160000 -0.143137
v -0.000000 1.160000 -0.190000
v 0.141421 1.160000 -0.143137
v 0.141421 1.032721 -0.030000
v 0.100000 1.032721 0.050000
v 0.000000 1.032721 0.083137
v -0.100000 1.032721 0.050000
v -0.141421 1.032721 -0.030000
v -0.100000 1.032721 -0.110000
v -0.000000 1.032721 -0.143137
v 0.100000 1.032721 -0.110000
v 0.000000 0.980000 -0.030000
v 0.000000 1.200000 0.020000
v 0.105801 1.135066 0.020000
v 0.074813 1.135066 0.078188
v 0.000000 1.135066 0.102290
v -0.074813 1.135066 0.078188
v -0.105801 1.135066 0.020000
v -0.074813 1.135066 -0.038188
v -0.000000 1.135066 -0.062290
v 0.074813 1.135066 -0.038188
v 0.171190 0.965066 0.020000
v 0.121050 0.965066 0.114150
v 0.000000 0.965066 0.153148
v -0.121050 0.965066 0.114150
v -0.171190 0.965066 0.020000
v -0.121050 0.965066 -0.074150
v -0.000000 0.965066 -0.113148
v 0.121050 0.965066 -0.074150
v 0.171190 0.754934 0.020000
v 0.121050 0.754934 0.114150
v 0.000000 0.754934 0.153148
v -0.121050 0.754934 0.114150
v -0.171190 0.754934 0.020000
v -0.121050 0.754934 -0.074150
v -0.000000 0.754934 -0.113148
v 0.121050 0.754934 -0.074150
v 0.105801 0.584934 0.020000
v 0.074813 0.584934 0.078188
v 0.000000 0.584934 0.102290
v -0.074813 0.584934 0.078188
v -0.105801 0.584934 0.020000
v -0.074813 0.584934 -0.038188
v -0.000000 0.584934 -0.062290
v 0.074813 0.584934 -0.038188
v 0.000000 0.520000 0.020000
v -0.140000 1.260000 -0.080000
v -0.140000 1.260000 0.050000
v -0.080000 1.520000 -0.080000
v -0.080000 1.520000 0.050000
v -0.010000 1.280000 -0.080000
v -0.010000 1.280000 0.050000
v 0.010000 1.280000 -0.080000
v 0.010000 1.280000 0.050000
v 0.080000 1.520000 -0.080000
v 0.080000 1.520000 0.050000
v 0.140000 1.260000 -0.080000
v 0.140000 1.260000 0.050000
v -0.156517 1.054826 -0.020000
v -0.159757 1.037563 -0.050273
v -0.163240 1.002737 -0.050273
v -0.163483 0.985174 -0.020000
v -0.160243 1.002437 0.010273
v -0.156760 1.037263 0.010273
v -0.556517 1.094826 0.000000
v -0.559757 1.077563 -0.030273
v -0.563240 1.042737 -0.030273
v -0.563483 1.025174 -0.000000
v -0.560243 1.042437 0.030273
v -0.556760 1.077263 0.030273
v -0.160000 1.020000 -0.020000
v -0.560000 1.060000 -0.000000
v -0.570090 1.088252 0.000000
v -0.566141 1.073735 -0.025955
v -0.556051 1.045482 -0.025955
v -0.549910 1.031748 -0.000000
v -0.553859 1.046265 0.025955
v -0.563949 1.074518 0.025955
v -0.990090 0.938252 0.020000
v -0.986141 0.923735 -0.005955
v -0.976051 0.895482 -0.005955
v -0.969910 0.881748 0.020000
v -0.973859 0.896265 0.045955
v -0.983949 0.924518 0.045955
v -0.560000 1.060000 -0.000000
v -0.980000 0.910000 0.020000
v -0.987472 0.930692 0.020000
v -0.984671 0.920008 0.000973
v -0.977199 0.899316 0.000973
v -0.972528 0.889308 0.020000
v -0.975329 0.899992 0.039027
v -0.982801 0.920684 0.039027
v -1.347472 0.800692 0.040000
v -1.344671 0.790008 0.020973
v -1.337199 0.769316 0.020973
v -1.332528 0.759308 0.040000
v -1.335329 0.769992 0.059027
v -1.342801 0.790684 0.059027
v -0.980000 0.910000 0.020000
v -1.340000 0.780000 0.040000
v -0.160000 1.020000 -0.025000
v -0.160000 1.020000 0.055000
v -0.560000 1.060000 -0.025000
v -0.560000 1.060000 0.055000
v -0.620000 0.640000 -0.025000
v -0.620000 0.640000 0.055000
v -0.200000 0.710000 -0.025000
v -0.200000 0.710000 0.055000
v -0.560000 1.060000 -0.025000
v -0.560000 1.060000 0.055000
v -0.980000 0.910000 -0.025000
v -0.980000 0.910000 0.055000
v -0.980000 0.690000 -0.025000
v -0.980000 0.690000 0.055000
v -0.620000 0.640000 -0.025000
v -0.620000 0.640000 0.055000
v -0.980000 0.910000 -0.025000
v -0.980000 0.910000 0.055000
v -1.340000 0.780000 -0.025000
v -1.340000 0.780000 0.055000
v -1.180000 0.630000 -0.025000
v -1.180000 0.630000 0.055000
v -0.980000 0.690000 -0.025000
v -0.980000 0.690000 0.055000
v 0.163483 0.985174 -0.020000
v 0.163240 1.002737 -0.050273
v 0.159757 1.037563 -0.050273
v 0.156517 1.054826 -0.020000
v 0.156760 1.037263 0.010273
v 0.160243 1.002437 0.010273
v 0.563483 1.025174 0.000000
v 0.563240 1.042737 -0.030273
v 0.559757 1.077563 -0.030273
v 0.556517 1.094826 -0.000000
v 0.556760 1.077263 0.030273
v 0.560243 1.042437 0.030273
v 0.160000 1.020000 -0.020000
v 0.560000 1.060000 -0.000000
v 0.549910 1.031748 0.000000
v 0.556051 1.045482 -0.025955
v 0.566141 1.073735 -0.025955
v 0.570090 1.088252 -0.000000
v 0.563949 1.074518 0.025955
v 0.553859 1.046265 0.025955
v 0.969910 0.881748 0.020000
v 0.976051 0.895482 -0.005955
v 0.986141 0.923735 -0.005955
v 0.990090 0.938252 0.020000
v 0.983949 0.924518 0.045955
v 0.973859 0.896265 0.045955
v 0.560000 1.060000 -0.000000
v 0.980000 0.910000 0.020000
v 0.972528 0.889308 0.020000
v 0.977199 0.899316 0.000973
v 0.984671 0.920008 0.000973
v 0.987472 0.930692 0.020000
v 0.982801 0.920684 0.039027
v 0.975329 0.899992 0.039027
v 1.332528 0.759308 0.040000
v 1.337199 0.769316 0.020973
v 1.344671 0.790008 0.020973
v 1.347472 0.800692 0.040000
v 1.342801 0.790684 0.059027
v 1.335329 0.769992 0.059027
v 0.980000 0.910000 0.020000
v 1.340000 0.780000 0.040000
v 0.160000 1.020000 -0.025000
v 0.160000 1.020000 0.055000
v 0.560000 1.060000 -0.025000
v 0.560000 1.060000 0.055000
v 0.620000 0.640000 -0.025000
v 0.620000 0.640000 0.055000
v 0.200000 0.710000 -0.025000
v 0.200000 0.710000 0.055000
v 0.560000 1.060000 -0.025000
v 0.560000 1.060000 0.055000
v 0.980000 0.910000 -0.025000
v 0.980000 0.910000 0.055000
v 0.980000 0.690000 -0.025000
v 0.980000 0.690000 0.055000
v 0.620000 0.640000 -0.025000
v 0.620000 0.640000 0.055000
v 0.980000 0.910000 -0.025000
v 0.980000 0.910000 0.055000
v 1.340000 0.780000 -0.025000
v 1.340000 0.780000 0.055000
v 1.180000 0.630000 -0.025000
v 1.180000 0.630000 0.055000
v 0.980000 0.690000 -0.025000
v 0.980000 0.690000 0.055000
v -0.107456 0.565491 0.020000
v -0.092525 0.568761 -0.003460
v -0.065069 0.563270 -0.003460
v -0.052544 0.554509 0.020000
v -0.067475 0.551239 0.043460
v -0.094931 0.556730 0.043460
v -0.137456 0.415491 -0.020000
v -0.122525 0.418761 -0.043460
v -0.095069 0.413270 -0.043460
v -0.082544 0.404509 -0.020000
v -0.097475 0.401239 0.003460
v -0.124931 0.406730 0.003460
v -0.080000 0.560000 0.020000
v -0.110000 0.410000 -0.020000
v 0.052544 0.554509 0.020000
v 0.065069 0.563270 -0.003460
v 0.092525 0.568761 -0.003460
v 0.107456 0.565491 0.020000
v 0.094931 0.556730 0.043460
v 0.067475 0.551239 0.043460
v 0.082544 0.404509 -0.020000
v 0.095069 0.413270 -0.043460
v 0.122525 0.418761 -0.043460
v 0.137456 0.415491 -0.020000
v 0.124931 0.406730 0.003460
v 0.097475 0.401239 0.003460
v 0.080000 0.560000 0.020000
v 0.110000 0.410000 -0.020000
v -0.025000 0.560000 0.090000
v -0.012500 0.553938 0.069215
v 0.012500 0.553938 0.069215
v 0.025000 0.560000 0.090000
v 0.012500 0.566062 0.110785
v -0.012500 0.566062 0.110785
v -0.025000 0.320000 0.160000
v -0.012500 0.313938 0.139215
v 0.012500 0.313938 0.139215
v 0.025000 0.320000 0.160000
v 0.012500 0.326062 0.180785
v -0.012500 0.326062 0.180785
v 0.000000 0.560000 0.090000
v 0.000000 0.320000 0.160000
f 1 2 3
f 1 3 4
f 1 4 5
f 1 5 6
f 1 6 7
f 1 7 8
f 1 8 9
f 1 9 2
f 2 10 11
f 2 11 3
f 3 11 12
f 3 12 4
f 4 12 13
f 4 13 5
f 5 13 14
f 5 14 6
f 6 14 15
f 6 15 7
f 7 15 16
f 7 16 8
f 8 16 17
f 8 17 9
f 9 17 10
f 9 10 2
f 10 18 19
f 10 19 11
f 11 19 20
f 11 20 12
f 12 20 21
f 12 21 13
f 13 21 22
f 13 22 14
f 14 22 23
f 14 23 15
f 15 23 24
f 15 24 16
f 16 24 25
f 16 25 17
f 17 25 18
f 17 18 10
f 26 19 18
f 26 20 19
f 26 21 20
f 26 22 21
f 26 23 22
f 26 24 23
f 26 25 24
f 26 18 25
f 27 28 29
f 27 29 30
f 27 30 31
f 27 31 32
f 27 32 33
f 27 33 34
f 27 34 35
f 27 35 28
f 28 36 37
f 28 37 29
f 29 37 38
f 29 38 30
f 30 38 39
f 30 39 31
f 31 39 40
f 31 40 32
f 32 40 41
f 32 41 33
f 33 41 42
f 33 42 34
f 34 42 43
f 34 43 35
f 35 43 36
f 35 36 28
f 36 44 45
f 36 45 37
f 37 45 46
f 37 46 38
f 38 46 47
f 38 47 39
f 39 47 48
f 39 48 40
f 40 48 49
f 40 49 41
f 41 49 50
f 41 50 42
f 42 50 51
f 42 51 43
f 43 51 44
f 43 44 36
f 44 52 53
f 44 53 45
f 45 53 54
f 45 54 46
f 46 54 55
f 46 55 47
f 47 55 56
f 47 56 48
f 48 56 57
f 48 57 49
f 49 57 58
f 49 58 50
f 50 58 59
f 50 59 51
f 51 59 52
f 51 52 44
f 60 53 52
f 60 54 53
f 60 55 54
f 60 56 55
f 60 57 56
f 60 58 57
f 60 59 58
f 60 52 59
f 61 65 63
f 62 64 66
f 61 62 64
f 61 64 63
f 63 64 66
f 63 66 65
f 65 66 62
f 65 62 61
f 67 71 69
f 68 70 72
f 67 68 70
f 67 70 69
f 69 70 72
f 69 72 71
f 71 72 68
f 71 68 67
f 73 79 80
f 73 80 74
f 74 80 81
f 74 81 75
f 75 81 82
f 75 82 76
f 76 82 83
f 76 83 77
f 77 83 84
f 77 84 78
f 78 84 79
f 78 79 73
f 85 74 73
f 86 79 80
f 85 75 74
f 86 80 81
f 85 76 75
f 86 81 82
f 85 77 76
f 86 82 83
f 85 78 77
f 86 83 84
f 85 73 78
f 86 84 79
f 87 93 94
f 87 94 88
f 88 94 95
f 88 95 89
f 89 95 96
f 89 96 90
f 90 96 97
f 90 97 91
f 91 97 98
f 91 98 92
f 92 98 93
f 92 93 87
f 99 88 87
f 100 93 94
f 99 89 88
f 100 94 95
f 99 90 89
f 100 95 96
f 99 91 90
f 100 96 97
f 99 92 91
f 100 97 98
f 99 87 92
f 100 98 93
f 101 107 108
f 101 108 102
f 102 108 109
f 102 109 103
f 103 109 110
f 103 110 104
f 104 110 111
f 104 111 105
f 105 111 112
f 105 112 106
f 106 112 107
f 106 107 101
f 113 102 101
f 114 107 108
f 113 103 102
f 114 108 109
f 113 104 103
f 114 109 110
f 113 105 104
f 114 110 111
f 113 106 105
f 114 111 112
f 113 101 106
f 114 112 107
f 115 119 117
f 116 118 120
f 115 121 119
f 116 120 122
f 115 116 118
f 115 118 117
f 117 118 120
f 117 120 119
f 119 120 122
f 119 122 121
f 121 122 116
f 121 116 115
f 123 127 125
f 124 126 128
f 123 129 127
f 124 128 130
f 123 124 126
f 123 126 125
f 125 126 128
f 125 128 127
f 127 128 130
f 127 130 129
f 129 130 124
f 129 124 123
f 131 135 133
f 132 134 136
f 131 137 135
f 132 136 138
f 131 132 134
f 131 134 133
f 133 134 136
f 133 136 135
f 135 136 138
f 135 138 137
f 137 138 132
f 137 132 131
f 139 145 146
f 139 146 140
f 140 146 147
f 140 147 141
f 141 147 148
f 141 148 142
f 142 148 149
f 142 149 143
f 143 149 150
f 143 150 144
f 144 150 145
f 144 145 139
f 151 140 139
f 152 145 146
f 151 141 140
f 152 146 147
f 151 142 141
f 152 147 148
f 151 143 142
f 152 148 149
f 151 144 143
f 152 149 150
f 151 139 144
f 152 150 145
f 153 159 160
f 153 160 154
f 154 160 161
f 154 161 155
f 155 161 162
f 155 162 156
f 156 162 163
f 156 163 157
f 157 163 164
f 157 164 158
f 158 164 159
f 158 159 153
f 165 154 153
f 166 159 160
f 165 155 154
f 166 160 161
f 165 156 155
f 166 161 162
f 165 157 156
f 166 162 163
f 165 158 157
f 166 163 164
f 165 153 158
f 166 164 159
f 167 173 174
f 167 174 168
f 168 174 175
f 168 175 169
f 169 175 176
f 169 176 170
f 170 176 177
f 170 177 171
f 171 177 178
f 171 178 172
f 172 178 173
f 172 173 167
f 179 168 167
f 180 173 174
f 179 169 168
f 180 174 175
f 179 170 169
f 180 175 176
f 179 171 170
f 180 176 177
f 179 172 171
f 180 177 178
f 179 167 172
f 180 178 173
f 181 185 183
f 182 184 186
f 181 187 185
f 182 186 188
f 181 182 184
f 181 184 183
f 183 184 186
f 183 186 185
f 185 186 188
f 185 188 187
f 187 188 182
f 187 182 181
f 189 193 191
f 190 192 194
f 189 195 193
f 190 194 196
f 189 190 192
f 189 192 191
f 191 192 194
f 191 194 193
f 193 194 196
f 193 196 195
f 195 196 190
f 195 190 189
f 197 201 199
f 198 200 202
f 197 203 201
f 198 202 204
f 197 198 200
f 197 200 199
f 199 200 202
f 199 202 201
f 201 202 204
f 201 204 203
f 203 204 198
f 203 198 197
f 205 211 212
f 205 212 206
f 206 212 213
f 206 213 207
f 207 213 214
f 207 214 208
f 208 214 215
f 208 215 209
f 209 215 216
f 209 216 210
f 210 216 211
f 210 211 205
f 217 206 205
f 218 211 212
f 217 207 206
f 218 212 213
f 217 208 207
f 218 213 214
f 217 209 208
f 218 214 215
f 217 210 209
f 218 215 216
f 217 205 210
f 218 216 211
f 219 225 226
f 219 226 220
f 220 226 227
f 220 227 221
f 221 227 228
f 221 228 222
f 222 228 229
f 222 229 223
f 223 229 230
f 223 230 224
f 224 230 225
f 224 225 219
f 231 220 219
f 232 225 226
f 231 221 220
f 232 226 227
f 231 222 221
f 232 227 228
f 231 223 222
f 232 228 229
f 231 224 223
f 232 229 230
f 231 219 224
f 232 230 225
f 233 239 240
f 233 240 234
f 234 240 241
f 234 241 235
f 235 241 242
f 235 242 236
f 236 242 243
f 236 243 237
f 237 243 244
f 237 244 238
f 238 244 239
f 238 239 233
f 245 234 233
f 246 239 240
f 245 235 234
f 246 240 241
f 245 236 235
f 246 241 242
f 245 237 236
f 246 242 243
f 245 238 237
f 246 243 244
f 245 233 238
f 246 244 239
