# https://github.com/mikedh/trimesh
v -0.21029244 1.18233842 0.11000000
v 0.21029244 1.18233842 0.11000000
v -0.21029244 0.29766158 0.11000000
v 0.21029244 0.29766158 0.11000000
v 0.00000000 0.46661982 0.36519524
v 0.00000000 1.01338018 0.36519524
v 0.00000000 0.46661982 -0.14519524
v 0.00000000 1.01338018 -0.14519524
v 0.34026032 0.74000000 -0.04771933
v 0.34026032 0.74000000 0.26771933
v -0.34026032 0.74000000 -0.04771933
v -0.34026032 0.74000000 0.26771933
v -0.15771933 1.41266270 -0.16000000
v 0.15771933 1.41266270 -0.16000000
v -0.15771933 0.98733730 -0.16000000
v 0.15771933 0.98733730 -0.16000000
v 0.00000000 1.06856722 0.06116921
v 0.00000000 1.33143278 0.06116921
v 0.00000000 1.06856722 -0.38116921
v 0.00000000 1.33143278 -0.38116921
v 0.25519524 1.20000000 -0.29669009
v 0.25519524 1.20000000 -0.02330991
v -0.25519524 1.20000000 -0.29669009
v -0.25519524 1.20000000 -0.02330991
v -0.11566084 1.09805206 -0.29000000
v 0.11566084 1.09805206 -0.29000000
v -0.11566084 0.96194794 -0.29000000
v 0.11566084 0.96194794 -0.29000000
v 0.00000000 0.98794151 -0.16240238
v 0.00000000 1.07205849 -0.16240238
v 0.00000000 0.98794151 -0.41759762
v 0.00000000 1.07205849 -0.41759762
v 0.18714318 1.03000000 -0.36885967
v 0.18714318 1.03000000 -0.21114033
v -0.18714318 1.03000000 -0.36885967
v -0.18714318 1.03000000 -0.21114033
v -0.51119101 1.01946656 -0.10000000
v -0.42015320 1.04078246 -0.10000000
v -0.23777118 0.26184934 -0.10000000
v -0.32880899 0.24053344 -0.10000000
v -0.46567211 1.03012451 -0.02855290
v -0.28329009 0.25119139 -0.02855290
v -0.55670991 1.00880861 -0.02855290
v -0.37432789 0.22987549 -0.02855290
v -0.60222882 0.99815066 -0.10000000
v -0.41984680 0.21921754 -0.10000000
v -0.55670991 1.00880861 -0.17144710
v -0.37432789 0.22987549 -0.17144710
v -0.46567211 1.03012451 -0.17144710
v -0.28329009 0.25119139 -0.17144710
v -0.42463160 1.08311715 0.05000000
v -0.23536840 1.08311715 0.05000000
v -0.42463160 0.77688285 0.05000000
v -0.23536840 0.77688285 0.05000000
v -0.33000000 0.83536840 0.22013016
v -0.33000000 1.02463160 0.22013016
v -0.33000000 0.83536840 -0.12013016
v -0.33000000 1.02463160 -0.12013016
v -0.17688285 0.93000000 -0.05514622
v -0.17688285 0.93000000 0.15514622
v -0.48311715 0.93000000 -0.05514622
v -0.48311715 0.93000000 0.15514622
v 0.51119101 1.01946656 -0.10000000
v 0.60222882 0.99815066 -0.10000000
v 0.41984680 0.21921754 -0.10000000
v 0.32880899 0.24053344 -0.10000000
v 0.55670991 1.00880861 -0.02855290
v 0.37432789 0.22987549 -0.02855290
v 0.46567211 1.03012451 -0.02855290
v 0.28329009 0.25119139 -0.02855290
v 0.42015320 1.04078246 -0.10000000
v 0.23777118 0.26184934 -0.10000000
v 0.46567211 1.03012451 -0.17144710
v 0.28329009 0.25119139 -0.17144710
v 0.55670991 1.00880861 -0.17144710
v 0.37432789 0.22987549 -0.17144710
v 0.23536840 1.08311715 0.05000000
v 0.42463160 1.08311715 0.05000000
v 0.23536840 0.77688285 0.05000000
v 0.42463160 0.77688285 0.05000000
v 0.33000000 0.83536840 0.22013016
v 0.33000000 1.02463160 0.22013016
v 0.33000000 0.83536840 -0.12013016
v 0.33000000 1.02463160 -0.12013016
v 0.48311715 0.93000000 -0.05514622
v 0.48311715 0.93000000 0.15514622
v 0.17688285 0.93000000 -0.05514622
v 0.17688285 0.93000000 0.15514622
v 0.00000000 1.00000000 0.20000000
v 0.06000000 1.00000000 0.20000000
v 0.00000000 1.00000000 0.48000000
v 0.01854102 1.05706339 0.20000000
v -0.04854102 1.03526712 0.20000000
v -0.04854102 0.96473288 0.20000000
v 0.01854102 0.94293661 0.20000000
v 0.00000000 0.82000000 0.22000000
v 0.06000000 0.82000000 0.22000000
v 0.00000000 0.82000000 0.50000000
v 0.01854102 0.87706339 0.22000000
v -0.04854102 0.85526712 0.22000000
v -0.04854102 0.78473288 0.22000000
v 0.01854102 0.76293661 0.22000000
v 0.00000000 0.64000000 0.20000000
v 0.06000000 0.64000000 0.20000000
v 0.00000000 0.64000000 0.48000000
v 0.01854102 0.69706339 0.20000000
v -0.04854102 0.67526712 0.20000000
v -0.04854102 0.60473288 0.20000000
v 0.01854102 0.58293661 0.20000000
f 1 12 6
f 1 6 2
f 1 2 8
f 1 8 11
f 1 11 12
f 2 6 10
f 6 12 5
f 12 11 3
f 11 8 7
f 8 2 9
f 4 10 5
f 4 5 3
f 4 3 7
f 4 7 9
f 4 9 10
f 5 10 6
f 3 5 12
f 7 3 11
f 9 7 8
f 10 9 2
f 13 24 18
f 13 18 14
f 13 14 20
f 13 20 23
f 13 23 24
f 14 18 22
f 18 24 17
f 24 23 15
f 23 20 19
f 20 14 21
f 16 22 17
f 16 17 15
f 16 15 19
f 16 19 21
f 16 21 22
f 17 22 18
f 15 17 24
f 19 15 23
f 21 19 20
f 22 21 14
f 25 36 30
f 25 30 26
f 25 26 32
f 25 32 35
f 25 35 36
f 26 30 34
f 30 36 29
f 36 35 27
f 35 32 31
f 32 26 33
f 28 34 29
f 28 29 27
f 28 27 31
f 28 31 33
f 28 33 34
f 29 34 30
f 27 29 36
f 31 27 35
f 33 31 32
f 34 33 26
f 38 37 41
f 38 41 39
f 39 41 42
f 39 42 40
f 41 37 43
f 41 43 42
f 42 43 44
f 42 44 40
f 43 37 45
f 43 45 44
f 44 45 46
f 44 46 40
f 45 37 47
f 45 47 46
f 46 47 48
f 46 48 40
f 47 37 49
f 47 49 48
f 48 49 50
f 48 50 40
f 49 37 38
f 49 38 50
f 50 38 39
f 50 39 40
f 51 62 56
f 51 56 52
f 51 52 58
f 51 58 61
f 51 61 62
f 52 56 60
f 56 62 55
f 62 61 53
f 61 58 57
f 58 52 59
f 54 60 55
f 54 55 53
f 54 53 57
f 54 57 59
f 54 59 60
f 55 60 56
f 53 55 62
f 57 53 61
f 59 57 58
f 60 59 52
f 64 63 67
f 64 67 65
f 65 67 68
f 65 68 66
f 67 63 69
f 67 69 68
f 68 69 70
f 68 70 66
f 69 63 71
f 69 71 70
f 70 71 72
f 70 72 66
f 71 63 73
f 71 73 72
f 72 73 74
f 72 74 66
f 73 63 75
f 73 75 74
f 74 75 76
f 74 76 66
f 75 63 64
f 75 64 76
f 76 64 65
f 76 65 66
f 77 88 82
f 77 82 78
f 77 78 84
f 77 84 87
f 77 87 88
f 78 82 86
f 82 88 81
f 88 87 79
f 87 84 83
f 84 78 85
f 80 86 81
f 80 81 79
f 80 79 83
f 80 83 85
f 80 85 86
f 81 86 82
f 79 81 88
f 83 79 87
f 85 83 84
f 86 85 78
f 90 89 92
f 90 92 91
f 92 89 93
f 92 93 91
f 93 89 94
f 93 94 91
f 94 89 95
f 94 95 91
f 95 89 90
f 95 90 91
f 97 96 99
f 97 99 98
f 99 96 100
f 99 100 98
f 100 96 101
f 100 101 98
f 101 96 102
f 101 102 98
f 102 96 97
f 102 97 98
f 104 103 106
f 104 106 105
f 106 103 107
f 106 107 105
f 107 103 108
f 107 108 105
f 108 103 109
f 108 109 105
f 109 103 104
f 109 104 105
