# ONE MORE FLOOR v1.60 — enemy quality r2b — goblin authored anatomy
v 0.1900 0.3800 0.0200
v 0.1344 0.3800 0.1119
v 0.0000 0.3800 0.1500
v -0.1344 0.3800 0.1119
v -0.1900 0.3800 0.0200
v -0.1344 0.3800 -0.0719
v -0.0000 0.3800 -0.1100
v 0.1344 0.3800 -0.0719
v 0.2500 0.9200 0.0200
v 0.1768 0.9200 0.1473
v 0.0000 0.9200 0.2000
v -0.1768 0.9200 0.1473
v -0.2500 0.9200 0.0200
v -0.1768 0.9200 -0.1073
v -0.0000 0.9200 -0.1600
v 0.1768 0.9200 -0.1073
v 0.1700 0.2200 0.0300
v 0.1202 0.2200 0.1149
v 0.0000 0.2200 0.1500
v -0.1202 0.2200 0.1149
v -0.1700 0.2200 0.0300
v -0.1202 0.2200 -0.0549
v -0.0000 0.2200 -0.0900
v 0.1202 0.2200 -0.0549
v 0.2100 0.4300 0.0300
v 0.1485 0.4300 0.1361
v 0.0000 0.4300 0.1800
v -0.1485 0.4300 0.1361
v -0.2100 0.4300 0.0300
v -0.1485 0.4300 -0.0761
v -0.0000 0.4300 -0.1200
v 0.1485 0.4300 -0.0761
v 0.2000 1.1000 -0.0400
v -0.2000 1.1000 -0.0400
v 0.0000 1.3400 -0.0400
v 0.0000 0.8600 -0.0400
v 0.0000 1.1000 0.1200
v 0.0000 1.1000 -0.2000
v -0.1100 0.9500 -0.2400
v 0.1100 0.9500 -0.2400
v 0.1100 1.0700 -0.2400
v -0.1100 1.0700 -0.2400
v -0.1100 0.9500 -0.0800
v 0.1100 0.9500 -0.0800
v 0.1100 1.0700 -0.0800
v -0.1100 1.0700 -0.0800
v -0.1600 1.1800 -0.0350
v -0.5200 1.2500 -0.0350
v -0.3400 1.0500 -0.0350
v -0.1600 1.1800 0.0350
v -0.5200 1.2500 0.0350
v -0.3400 1.0500 0.0350
v 0.1600 1.1800 -0.0350
v 0.5200 1.2500 -0.0350
v 0.3400 1.0500 -0.0350
v 0.1600 1.1800 0.0350
v 0.5200 1.2500 0.0350
v 0.3400 1.0500 0.0350
v -0.2624 0.8816 0.0000
v -0.2284 0.8651 -0.0647
v -0.1660 0.8235 -0.0647
v -0.1376 0.7984 -0.0000
v -0.1716 0.8149 0.0647
v -0.2340 0.8565 0.0647
v -0.3941 0.6661 -0.0200
v -0.3646 0.6517 -0.0761
v -0.3105 0.6157 -0.0761
v -0.2859 0.5939 -0.0200
v -0.3154 0.6083 0.0361
v -0.3695 0.6443 0.0361
v -0.4045 0.6219 -0.0200
v -0.3734 0.6351 -0.0755
v -0.3089 0.6431 -0.0755
v -0.2755 0.6381 -0.0200
v -0.3066 0.6249 0.0355
v -0.3711 0.6169 0.0355
v -0.3646 0.3832 -0.0600
v -0.3383 0.3943 -0.1070
v -0.2837 0.4011 -0.1070
v -0.2554 0.3968 -0.0600
v -0.2817 0.3857 -0.0130
v -0.3363 0.3789 -0.0130
v -0.2400 0.3300 -0.0700
v -0.3800 0.3300 -0.0700
v -0.3100 0.4100 -0.0700
v -0.3100 0.2500 -0.0700
v -0.3100 0.3300 -0.0100
v -0.3100 0.3300 -0.1300
v -0.1747 0.3471 0.0200
v -0.1365 0.3527 -0.0443
v -0.0618 0.3455 -0.0443
v -0.0253 0.3329 0.0200
v -0.0635 0.3273 0.0843
v -0.1382 0.3345 0.0843
v -0.1748 0.1352 -0.0100
v -0.1467 0.1393 -0.0572
v -0.0920 0.1341 -0.0572
v -0.0652 0.1248 -0.0100
v -0.0933 0.1207 0.0372
v -0.1480 0.1259 0.0372
v -0.2100 0.0000 -0.2000
v -0.0500 0.0000 -0.2000
v -0.0500 0.1000 -0.2000
v -0.2100 0.1000 -0.2000
v -0.2100 0.0000 0.0400
v -0.0500 0.0000 0.0400
v -0.0500 0.1000 0.0400
v -0.2100 0.1000 0.0400
v 0.1376 0.7984 0.0000
v 0.1660 0.8235 -0.0647
v 0.2284 0.8651 -0.0647
v 0.2624 0.8816 -0.0000
v 0.2340 0.8565 0.0647
v 0.1716 0.8149 0.0647
v 0.2859 0.5939 -0.0200
v 0.3105 0.6157 -0.0761
v 0.3646 0.6517 -0.0761
v 0.3941 0.6661 -0.0200
v 0.3695 0.6443 0.0361
v 0.3154 0.6083 0.0361
v 0.2755 0.6381 -0.0200
v 0.3089 0.6431 -0.0755
v 0.3734 0.6351 -0.0755
v 0.4045 0.6219 -0.0200
v 0.3711 0.6169 0.0355
v 0.3066 0.6249 0.0355
v 0.2554 0.3968 -0.0600
v 0.2837 0.4011 -0.1070
v 0.3383 0.3943 -0.1070
v 0.3646 0.3832 -0.0600
v 0.3363 0.3789 -0.0130
v 0.2817 0.3857 -0.0130
v 0.3800 0.3300 -0.0700
v 0.2400 0.3300 -0.0700
v 0.3100 0.4100 -0.0700
v 0.3100 0.2500 -0.0700
v 0.3100 0.3300 -0.0100
v 0.3100 0.3300 -0.1300
v 0.0253 0.3329 0.0200
v 0.0618 0.3455 -0.0443
v 0.1365 0.3527 -0.0443
v 0.1747 0.3471 0.0200
v 0.1382 0.3345 0.0843
v 0.0635 0.3273 0.0843
v 0.0652 0.1248 -0.0100
v 0.0920 0.1341 -0.0572
v 0.1467 0.1393 -0.0572
v 0.1748 0.1352 -0.0100
v 0.1480 0.1259 0.0372
v 0.0933 0.1207 0.0372
v 0.0500 0.0000 -0.2000
v 0.2100 0.0000 -0.2000
v 0.2100 0.1000 -0.2000
v 0.0500 0.1000 -0.2000
v 0.0500 0.0000 0.0400
v 0.2100 0.0000 0.0400
v 0.2100 0.1000 0.0400
v 0.0500 0.1000 0.0400
f 1 2 10
f 1 10 9
f 2 3 11
f 2 11 10
f 3 4 12
f 3 12 11
f 4 5 13
f 4 13 12
f 5 6 14
f 5 14 13
f 6 7 15
f 6 15 14
f 7 8 16
f 7 16 15
f 8 1 9
f 8 9 16
f 1 2 3
f 1 3 4
f 1 4 5
f 1 5 6
f 1 6 7
f 1 7 8
f 9 10 11
f 9 11 12
f 9 12 13
f 9 13 14
f 9 14 15
f 9 15 16
f 17 18 26
f 17 26 25
f 18 19 27
f 18 27 26
f 19 20 28
f 19 28 27
f 20 21 29
f 20 29 28
f 21 22 30
f 21 30 29
f 22 23 31
f 22 31 30
f 23 24 32
f 23 32 31
f 24 17 25
f 24 25 32
f 17 18 19
f 17 19 20
f 17 20 21
f 17 21 22
f 17 22 23
f 17 23 24
f 25 26 27
f 25 27 28
f 25 28 29
f 25 29 30
f 25 30 31
f 25 31 32
f 33 35 37
f 37 35 34
f 34 35 38
f 38 35 33
f 33 37 36
f 37 34 36
f 34 38 36
f 38 33 36
f 39 40 41
f 39 41 42
f 43 46 45
f 43 45 44
f 39 43 44
f 39 44 40
f 40 44 45
f 40 45 41
f 41 45 46
f 41 46 42
f 42 46 43
f 42 43 39
f 47 48 49
f 50 52 51
f 47 50 51
f 47 51 48
f 48 51 52
f 48 52 49
f 49 52 50
f 49 50 47
f 53 54 55
f 56 58 57
f 53 56 57
f 53 57 54
f 54 57 58
f 54 58 55
f 55 58 56
f 55 56 53
f 59 60 66
f 59 66 65
f 60 61 67
f 60 67 66
f 61 62 68
f 61 68 67
f 62 63 69
f 62 69 68
f 63 64 70
f 63 70 69
f 64 59 65
f 64 65 70
f 59 60 61
f 65 67 66
f 59 61 62
f 65 68 67
f 59 62 63
f 65 69 68
f 59 63 64
f 65 70 69
f 71 72 78
f 71 78 77
f 72 73 79
f 72 79 78
f 73 74 80
f 73 80 79
f 74 75 81
f 74 81 80
f 75 76 82
f 75 82 81
f 76 71 77
f 76 77 82
f 71 72 73
f 77 79 78
f 71 73 74
f 77 80 79
f 71 74 75
f 77 81 80
f 71 75 76
f 77 82 81
f 83 85 87
f 87 85 84
f 84 85 88
f 88 85 83
f 83 87 86
f 87 84 86
f 84 88 86
f 88 83 86
f 89 90 96
f 89 96 95
f 90 91 97
f 90 97 96
f 91 92 98
f 91 98 97
f 92 93 99
f 92 99 98
f 93 94 100
f 93 100 99
f 94 89 95
f 94 95 100
f 89 90 91
f 95 97 96
f 89 91 92
f 95 98 97
f 89 92 93
f 95 99 98
f 89 93 94
f 95 100 99
f 101 102 103
f 101 103 104
f 105 108 107
f 105 107 106
f 101 105 106
f 101 106 102
f 102 106 107
f 102 107 103
f 103 107 108
f 103 108 104
f 104 108 105
f 104 105 101
f 109 110 116
f 109 116 115
f 110 111 117
f 110 117 116
f 111 112 118
f 111 118 117
f 112 113 119
f 112 119 118
f 113 114 120
f 113 120 119
f 114 109 115
f 114 115 120
f 109 110 111
f 115 117 116
f 109 111 112
f 115 118 117
f 109 112 113
f 115 119 118
f 109 113 114
f 115 120 119
f 121 122 128
f 121 128 127
f 122 123 129
f 122 129 128
f 123 124 130
f 123 130 129
f 124 125 131
f 124 131 130
f 125 126 132
f 125 132 131
f 126 121 127
f 126 127 132
f 121 122 123
f 127 129 128
f 121 123 124
f 127 130 129
f 121 124 125
f 127 131 130
f 121 125 126
f 127 132 131
f 133 135 137
f 137 135 134
f 134 135 138
f 138 135 133
f 133 137 136
f 137 134 136
f 134 138 136
f 138 133 136
f 139 140 146
f 139 146 145
f 140 141 147
f 140 147 146
f 141 142 148
f 141 148 147
f 142 143 149
f 142 149 148
f 143 144 150
f 143 150 149
f 144 139 145
f 144 145 150
f 139 140 141
f 145 147 146
f 139 141 142
f 145 148 147
f 139 142 143
f 145 149 148
f 139 143 144
f 145 150 149
f 151 152 153
f 151 153 154
f 155 158 157
f 155 157 156
f 151 155 156
f 151 156 152
f 152 156 157
f 152 157 153
f 153 157 158
f 153 158 154
f 154 158 155
f 154 155 151
