# ONE MORE FLOOR v1.60 — enemy quality r3 — necromancer layered robe anatomy
o necromancer_body_r3
v -0.327600 0.050000 -0.107500
v -0.117600 0.050000 -0.145000
v 0.117600 0.050000 -0.145000
v 0.327600 0.050000 -0.107500
v 0.420000 0.050000 0.120000
v 0.147000 0.050000 0.150000
v -0.147000 0.050000 0.150000
v -0.420000 0.050000 0.120000
v -0.265200 0.450000 -0.093000
v -0.095200 0.450000 -0.128000
v 0.095200 0.450000 -0.128000
v 0.265200 0.450000 -0.093000
v 0.340000 0.450000 0.100000
v 0.119000 0.450000 0.128000
v -0.119000 0.450000 0.128000
v -0.340000 0.450000 0.100000
v -0.195000 0.820000 -0.078500
v -0.070000 0.820000 -0.111000
v 0.070000 0.820000 -0.111000
v 0.195000 0.820000 -0.078500
v 0.250000 0.820000 0.090000
v 0.087500 0.820000 0.116000
v -0.087500 0.820000 0.116000
v -0.250000 0.820000 0.090000
v -0.280800 1.180000 -0.103000
v -0.100800 1.180000 -0.138000
v 0.100800 1.180000 -0.138000
v 0.280800 1.180000 -0.103000
v 0.360000 1.180000 0.110000
v 0.126000 1.180000 0.138000
v -0.126000 1.180000 0.138000
v -0.360000 1.180000 0.110000
v -0.000000 0.050000 0.004375
v 0.000000 1.180000 0.001750
v -0.280000 0.080000 -0.220000
v -0.280000 0.080000 -0.170000
v -0.060000 0.080000 -0.220000
v -0.060000 0.080000 -0.170000
v -0.030000 0.740000 -0.220000
v -0.030000 0.740000 -0.170000
v -0.190000 0.790000 -0.220000
v -0.190000 0.790000 -0.170000
v 0.060000 0.080000 -0.220000
v 0.060000 0.080000 -0.170000
v 0.280000 0.080000 -0.22000
v 0.280000 0.080000 -0.170000
v 0.190000 0.790000 -0.220000
v 0.190000 0.790000 -0.170000
v 0.030000 0.740000 -0.220000
v 0.030000 0.740000 -0.170000
v -0.440000 1.080000 -0.160000
v -0.440000 1.080000 0.100000
v -0.260000 1.320000 -0.160000
v -0.260000 1.320000 0.100000
v 0.000000 1.240000 -0.160000
v 0.000000 1.240000 0.100000
v 0.000000 1.080000 -0.160000
v 0.000000 1.080000 0.100000
v 0.000000 1.080000 -0.160000
v 0.000000 1.080000 0.100000
v 0.000000 1.240000 -0.160000
v 0.000000 1.240000 0.100000
v 0.260000 1.320000 -0.160000
v 0.260000 1.320000 0.100000
v 0.440000 1.080000 -0.160000
v 0.440000 1.080000 0.100000
v -0.270000 1.180000 -0.160000
v 0.000000 1.180000 -0.240000
v 0.270000 1.180000 -0.160000
v 0.300000 1.180000 0.060000
v 0.000000 1.180000 0.200000
v -0.300000 1.180000 0.060000
v -0.300000 1.420000 -0.120000
v 0.000000 1.420000 -0.220000
v 0.300000 1.420000 -0.120000
v 0.260000 1.420000 0.100000
v 0.000000 1.420000 0.220000
v -0.260000 1.420000 0.100000
v -0.170000 1.620000 -0.060000
v 0.000000 1.670000 -0.120000
v 0.170000 1.620000 -0.060000
v 0.150000 1.620000 0.110000
v 0.000000 1.620000 0.180000
v -0.150000 1.620000 0.110000
v 0.000000 1.180000 -0.040000
v 0.0000000 1.628333 0.026667
v -0.422521 1.159869 0.000000
v -0.391763 1.150068 -0.077756
v -0.318968 1.122653 -0.109963
v -0.246777 1.093684 -0.077756
v -0.217479 1.080131 -0.000000
v -0.248237 1.089932 0.077756
v -0.321032 1.117347 0.109963
v -0.393223 1.146316 0.077756
v -0.562521 0.799869 -0.010000
v -0.531763 0.790068 -0.087756
v -0.458968 0.762653 -0.119963
v -0.386777 0.733684 -0.087756
v -0.357479 0.720131 -0.010000
v -0.388237 0.729932 0.067756
v -0.461032 0.757347 0.099963
v -0.533223 0.786316 0.067756
v -0.320000 1.120000 0.000000
v -0.460000 0.760000 -0.010000
v -0.534573 0.752010 -0.010000
v -0.513330 0.759936 -0.062735
v -0.460846 0.767900 -0.084578
v -0.407867 0.771236 -0.062735
v -0.385427 0.767990 -0.010000
v -0.406670 0.760064 0.042735
v -0.459154 0.752100 0.064578
v -0.512133 0.748764 0.042735
v -0.504573 0.472010 -0.040000
v -0.483330 0.479936 -0.092735
v -0.430846 0.487900 -0.114578
v -0.377867 0.491236 -0.092735
v -0.355427 0.487990 -0.040000
v -0.376670 0.480064 0.012735
v -0.429154 0.472100 0.034578
v -0.482133 0.468764 0.012735
v -0.460000 0.760000 -0.010000
v -0.430000 0.480000 -0.040000
v 0.217479 1.080131 0.000000
v 0.246777 1.093684 -0.077756
v 0.318968 1.122653 -0.109963
v 0.391763 1.150068 -0.077756
v 0.422521 1.159869 -0.000000
v 0.393223 1.146316 0.077756
v 0.321032 1.117347 0.109963
v 0.248237 1.089932 0.077756
v 0.357479 0.720131 -0.010000
v 0.386777 0.733684 -0.087756
v 0.458968 0.762653 -0.119963
v 0.531763 0.790068 -0.087756
v 0.562521 0.799869 -0.010000
v 0.533223 0.786316 0.067756
v 0.461032 0.757347 0.099963
v 0.388237 0.729932 0.067756
v 0.320000 1.120000 0.000000
v 0.460000 0.760000 -0.010000
v 0.385427 0.767990 -0.010000
v 0.407867 0.771236 -0.062735
v 0.460846 0.767900 -0.084578
v 0.513330 0.759936 -0.062735
v 0.534573 0.752010 -0.010000
v 0.512133 0.748764 0.042735
v 0.459154 0.752100 0.064578
v 0.406670 0.760064 0.042735
v 0.355427 0.487990 -0.040000
v 0.377867 0.491236 -0.092735
v 0.430846 0.487900 -0.114578
v 0.483330 0.479936 -0.092735
v 0.504573 0.472010 -0.040000
v 0.482133 0.468764 0.012735
v 0.429154 0.472100 0.034578
v 0.376670 0.480064 0.012735
v 0.460000 0.760000 -0.010000
v 0.430000 0.480000 -0.040000
v -0.160000 1.240000 -0.250000
v -0.160000 1.240000 -0.180000
v 0.160000 1.240000 -0.250000
v 0.160000 1.240000 -0.180000
v 0.130000 1.470000 -0.250000
v 0.130000 1.470000 -0.180000
v -0.130000 1.470000 -0.250000
v -0.130000 1.470000 -0.180000
f 1 9 10
f 1 10 2
f 2 10 11
f 2 11 3
f 3 11 12
f 3 12 4
f 4 12 13
f 4 13 5
f 5 13 14
f 5 14 6
f 6 14 15
f 6 15 7
f 7 15 16
f 7 16 8
f 8 16 9
f 8 9 1
f 9 17 18
f 9 18 10
f 10 18 19
f 10 19 11
f 11 19 20
f 11 20 12
f 12 20 21
f 12 21 13
f 13 21 22
f 13 22 14
f 14 22 23
f 14 23 15
f 15 23 24
f 15 24 16
f 16 24 17
f 16 17 9
f 17 25 26
f 17 26 18
f 18 26 27
f 18 27 19
f 19 27 28
f 19 28 20
f 20 28 29
f 20 29 21
f 21 29 30
f 21 30 22
f 22 30 31
f 22 31 23
f 23 31 32
f 23 32 24
f 24 32 25
f 24 25 17
f 33 2 1
f 34 25 26
f 33 3 2
f 34 26 27
f 33 4 3
f 34 27 28
f 33 5 4
f 34 28 29
f 33 6 5
f 34 29 30
f 33 7 6
f 34 30 31
f 33 8 7
f 34 31 32
f 33 1 8
f 34 32 25
f 35 39 37
f 36 38 40
f 35 41 39
f 36 40 42
f 35 36 38
f 35 38 37
f 37 38 40
f 37 40 39
f 39 40 42
f 39 42 41
f 41 42 36
f 41 36 35
f 43 47 45
f 44 46 48
f 43 49 47
f 44 48 50
f 43 44 46
f 43 46 45
f 45 46 48
f 45 48 47
f 47 48 50
f 47 50 49
f 49 50 44
f 49 44 43
f 51 55 53
f 52 54 56
f 51 57 55
f 52 56 58
f 51 52 54
f 51 54 53
f 53 54 56
f 53 56 55
f 55 56 58
f 55 58 57
f 57 58 52
f 57 52 51
f 59 63 61
f 60 62 64
f 59 65 63
f 60 64 66
f 59 60 62
f 59 62 61
f 61 62 64
f 61 64 63
f 63 64 66
f 63 66 65
f 65 66 60
f 65 60 59
f 67 73 74
f 67 74 68
f 68 74 75
f 68 75 69
f 69 75 76
f 69 76 70
f 70 76 77
f 70 77 71
f 71 77 78
f 71 78 72
f 72 78 73
f 72 73 67
f 73 79 80
f 73 80 74
f 74 80 81
f 74 81 75
f 75 81 82
f 75 82 76
f 76 82 83
f 76 83 77
f 77 83 84
f 77 84 78
f 78 84 79
f 78 79 73
f 85 68 67
f 86 79 80
f 85 69 68
f 86 80 81
f 85 70 69
f 86 81 82
f 85 71 70
f 86 82 83
f 85 72 71
f 86 83 84
f 85 67 72
f 86 84 79
f 87 95 96
f 87 96 88
f 88 96 97
f 88 97 89
f 89 97 98
f 89 98 90
f 90 98 99
f 90 99 91
f 91 99 100
f 91 100 92
f 92 100 101
f 92 101 93
f 93 101 102
f 93 102 94
f 94 102 95
f 94 95 87
f 103 88 87
f 104 95 96
f 103 89 88
f 104 96 97
f 103 90 89
f 104 97 98
f 103 91 90
f 104 98 99
f 103 92 91
f 104 99 100
f 103 93 92
f 104 100 101
f 103 94 93
f 104 101 102
f 103 87 94
f 104 102 95
f 105 113 114
f 105 114 106
f 106 114 115
f 106 115 107
f 107 115 116
f 107 116 108
f 108 116 117
f 108 117 109
f 109 117 118
f 109 118 110
f 110 118 119
f 110 119 111
f 111 119 120
f 111 120 112
f 112 120 113
f 112 113 105
f 121 106 105
f 122 113 114
f 121 107 106
f 122 114 115
f 121 108 107
f 122 115 116
f 121 109 108
f 122 116 117
f 121 110 109
f 122 117 118
f 121 111 110
f 122 118 119
f 121 112 111
f 122 119 120
f 121 105 112
f 122 120 113
f 123 131 132
f 123 132 124
f 124 132 133
f 124 133 125
f 125 133 134
f 125 134 126
f 126 134 135
f 126 135 127
f 127 135 136
f 127 136 128
f 128 136 137
f 128 137 129
f 129 137 138
f 129 138 130
f 130 138 131
f 130 131 123
f 139 124 123
f 140 131 132
f 139 125 124
f 140 132 133
f 139 126 125
f 140 133 134
f 139 127 126
f 140 134 135
f 139 128 127
f 140 135 136
f 139 129 128
f 140 136 137
f 139 130 129
f 140 137 138
f 139 123 130
f 140 138 131
f 141 149 150
f 141 150 142
f 142 150 151
f 142 151 143
f 143 151 152
f 143 152 144
f 144 152 153
f 144 153 145
f 145 153 154
f 145 154 146
f 146 154 155
f 146 155 147
f 147 155 156
f 147 156 148
f 148 156 149
f 148 149 141
f 157 142 141
f 158 149 150
f 157 143 142
f 158 150 151
f 157 144 143
f 158 151 152
f 157 145 144
f 158 152 153
f 157 146 145
f 158 153 154
f 157 147 146
f 158 154 155
f 157 148 147
f 158 155 156
f 157 141 148
f 158 156 149
f 159 163 161
f 160 162 164
f 159 165 163
f 160 164 166
f 159 160 162
f 159 162 161
f 161 162 164
f 161 164 163
f 163 164 166
f 163 166 165
f 165 166 160
f 165 160 159
