# https://github.com/mikedh/trimesh
v -0.12091816 1.52415619 -0.05000000
v 0.12091816 1.52415619 -0.05000000
v -0.12091816 1.11584381 -0.05000000
v 0.12091816 1.11584381 -0.05000000
v 0.00000000 1.19382453 0.12013016
v 0.00000000 1.44617547 0.12013016
v 0.00000000 1.19382453 -0.22013016
v 0.00000000 1.44617547 -0.22013016
v 0.19564969 1.32000000 -0.15514622
v 0.19564969 1.32000000 0.05514622
v -0.19564969 1.32000000 -0.15514622
v -0.19564969 1.32000000 0.05514622
v -0.09463160 1.20805206 -0.10000000
v 0.09463160 1.20805206 -0.10000000
v -0.09463160 1.07194794 -0.10000000
v 0.09463160 1.07194794 -0.10000000
v 0.00000000 1.09794151 0.00207810
v 0.00000000 1.18205849 0.00207810
v 0.00000000 1.09794151 -0.20207810
v 0.00000000 1.18205849 -0.20207810
v 0.15311715 1.14000000 -0.16308773
v 0.15311715 1.14000000 -0.03691227
v -0.15311715 1.14000000 -0.16308773
v -0.15311715 1.14000000 -0.03691227
v -0.12617547 0.62207810 0.03000000
v 0.12617547 0.62207810 0.03000000
v -0.12617547 0.41792190 0.03000000
v 0.12617547 0.41792190 0.03000000
v 0.00000000 0.45691227 0.18311715
v 0.00000000 0.58308773 0.18311715
v 0.00000000 0.45691227 -0.12311715
v 0.00000000 0.58308773 -0.12311715
v 0.20415619 0.52000000 -0.06463160
v 0.20415619 0.52000000 0.12463160
v -0.20415619 0.52000000 -0.06463160
v -0.20415619 0.52000000 0.12463160
v 0.00000000 1.11500000 0.04000000
v 0.04400000 1.11500000 0.04000000
v 0.04400000 0.56500000 0.04000000
v 0.00000000 0.56500000 0.04000000
v 0.02200000 1.11500000 0.07810512
v 0.02200000 0.56500000 0.07810512
v -0.02200000 1.11500000 0.07810512
v -0.02200000 0.56500000 0.07810512
v -0.04400000 1.11500000 0.04000000
v -0.04400000 0.56500000 0.04000000
v -0.02200000 1.11500000 0.00189488
v -0.02200000 0.56500000 0.00189488
v 0.02200000 1.11500000 0.00189488
v 0.02200000 0.56500000 0.00189488
v -0.24000000 1.03000000 -0.07000000
v -0.24000000 1.06500000 -0.07000000
v 0.24000000 1.06500000 -0.07000000
v 0.24000000 1.03000000 -0.07000000
v -0.24000000 1.04750000 -0.04726683
v 0.24000000 1.04750000 -0.04726683
v -0.24000000 1.01250000 -0.04726683
v 0.24000000 1.01250000 -0.04726683
v -0.24000000 0.99500000 -0.07000000
v 0.24000000 0.99500000 -0.07000000
v -0.24000000 1.01250000 -0.09273317
v 0.24000000 1.01250000 -0.09273317
v -0.24000000 1.04750000 -0.09273317
v 0.24000000 1.04750000 -0.09273317
v -0.21000000 0.90000000 -0.07000000
v -0.21000000 0.93500000 -0.07000000
v 0.21000000 0.93500000 -0.07000000
v 0.21000000 0.90000000 -0.07000000
v -0.21000000 0.91750000 -0.04726683
v 0.21000000 0.91750000 -0.04726683
v -0.21000000 0.88250000 -0.04726683
v 0.21000000 0.88250000 -0.04726683
v -0.21000000 0.86500000 -0.07000000
v 0.21000000 0.86500000 -0.07000000
v -0.21000000 0.88250000 -0.09273317
v 0.21000000 0.88250000 -0.09273317
v -0.21000000 0.91750000 -0.09273317
v 0.21000000 0.91750000 -0.09273317
v -0.18000000 0.78000000 -0.07000000
v -0.18000000 0.81500000 -0.07000000
v 0.18000000 0.81500000 -0.07000000
v 0.18000000 0.78000000 -0.07000000
v -0.18000000 0.79750000 -0.04726683
v 0.18000000 0.79750000 -0.04726683
v -0.18000000 0.76250000 -0.04726683
v 0.18000000 0.76250000 -0.04726683
v -0.18000000 0.74500000 -0.07000000
v 0.18000000 0.74500000 -0.07000000
v -0.18000000 0.76250000 -0.09273317
v 0.18000000 0.76250000 -0.09273317
v -0.18000000 0.79750000 -0.09273317
v 0.18000000 0.79750000 -0.09273317
v -0.32895169 1.10855121 -0.00000000
v -0.28517151 1.11294388 -0.00000000
v -0.22726813 0.53584146 0.00000000
v -0.27104831 0.53144879 0.00000000
v -0.30706160 1.11074754 0.03810512
v -0.24915822 0.53364513 0.03810512
v -0.35084178 1.10635487 0.03810512
v -0.29293840 0.52925246 0.03810512
v -0.37273187 1.10415854 -0.00000000
v -0.31482849 0.52705612 0.00000000
v -0.35084178 1.10635487 -0.03810512
v -0.29293840 0.52925246 -0.03810512
v -0.30706160 1.11074754 -0.03810512
v -0.24915822 0.53364513 -0.03810512
v -0.13000000 0.51000000 0.02000000
v -0.07900000 0.51000000 0.02000000
v -0.07900000 -0.03000000 0.02000000
v -0.13000000 -0.03000000 0.02000000
v -0.10450000 0.51000000 0.06416730
v -0.10450000 -0.03000000 0.06416730
v -0.15550000 0.51000000 0.06416730
v -0.15550000 -0.03000000 0.06416730
v -0.18100000 0.51000000 0.02000000
v -0.18100000 -0.03000000 0.02000000
v -0.15550000 0.51000000 -0.02416730
v -0.15550000 -0.03000000 -0.02416730
v -0.10450000 0.51000000 -0.02416730
v -0.10450000 -0.03000000 -0.02416730
v 0.32895169 1.10855121 -0.00000000
v 0.37273187 1.10415854 -0.00000000
v 0.31482849 0.52705612 0.00000000
v 0.27104831 0.53144879 0.00000000
v 0.35084178 1.10635487 0.03810512
v 0.29293840 0.52925246 0.03810512
v 0.30706160 1.11074754 0.03810512
v 0.24915822 0.53364513 0.03810512
v 0.28517151 1.11294388 -0.00000000
v 0.22726813 0.53584146 0.00000000
v 0.30706160 1.11074754 -0.03810512
v 0.24915822 0.53364513 -0.03810512
v 0.35084178 1.10635487 -0.03810512
v 0.29293840 0.52925246 -0.03810512
v 0.13000000 0.51000000 0.02000000
v 0.18100000 0.51000000 0.02000000
v 0.18100000 -0.03000000 0.02000000
v 0.13000000 -0.03000000 0.02000000
v 0.15550000 0.51000000 0.06416730
v 0.15550000 -0.03000000 0.06416730
v 0.10450000 0.51000000 0.06416730
v 0.10450000 -0.03000000 0.06416730
v 0.07900000 0.51000000 0.02000000
v 0.07900000 -0.03000000 0.02000000
v 0.10450000 0.51000000 -0.02416730
v 0.10450000 -0.03000000 -0.02416730
v 0.15550000 0.51000000 -0.02416730
v 0.15550000 -0.03000000 -0.02416730
f 1 12 6
f 1 6 2
f 1 2 8
f 1 8 11
f 1 11 12
f 2 6 10
f 6 12 5
f 12 11 3
f 11 8 7
f 8 2 9
f 4 10 5
f 4 5 3
f 4 3 7
f 4 7 9
f 4 9 10
f 5 10 6
f 3 5 12
f 7 3 11
f 9 7 8
f 10 9 2
f 13 24 18
f 13 18 14
f 13 14 20
f 13 20 23
f 13 23 24
f 14 18 22
f 18 24 17
f 24 23 15
f 23 20 19
f 20 14 21
f 16 22 17
f 16 17 15
f 16 15 19
f 16 19 21
f 16 21 22
f 17 22 18
f 15 17 24
f 19 15 23
f 21 19 20
f 22 21 14
f 25 36 30
f 25 30 26
f 25 26 32
f 25 32 35
f 25 35 36
f 26 30 34
f 30 36 29
f 36 35 27
f 35 32 31
f 32 26 33
f 28 34 29
f 28 29 27
f 28 27 31
f 28 31 33
f 28 33 34
f 29 34 30
f 27 29 36
f 31 27 35
f 33 31 32
f 34 33 26
f 38 37 41
f 38 41 39
f 39 41 42
f 39 42 40
f 41 37 43
f 41 43 42
f 42 43 44
f 42 44 40
f 43 37 45
f 43 45 44
f 44 45 46
f 44 46 40
f 45 37 47
f 45 47 46
f 46 47 48
f 46 48 40
f 47 37 49
f 47 49 48
f 48 49 50
f 48 50 40
f 49 37 38
f 49 38 50
f 50 38 39
f 50 39 40
f 52 51 55
f 52 55 53
f 53 55 56
f 53 56 54
f 55 51 57
f 55 57 56
f 56 57 58
f 56 58 54
f 57 51 59
f 57 59 58
f 58 59 60
f 58 60 54
f 59 51 61
f 59 61 60
f 60 61 62
f 60 62 54
f 61 51 63
f 61 63 62
f 62 63 64
f 62 64 54
f 63 51 52
f 63 52 64
f 64 52 53
f 64 53 54
f 66 65 69
f 66 69 67
f 67 69 70
f 67 70 68
f 69 65 71
f 69 71 70
f 70 71 72
f 70 72 68
f 71 65 73
f 71 73 72
f 72 73 74
f 72 74 68
f 73 65 75
f 73 75 74
f 74 75 76
f 74 76 68
f 75 65 77
f 75 77 76
f 76 77 78
f 76 78 68
f 77 65 66
f 77 66 78
f 78 66 67
f 78 67 68
f 80 79 83
f 80 83 81
f 81 83 84
f 81 84 82
f 83 79 85
f 83 85 84
f 84 85 86
f 84 86 82
f 85 79 87
f 85 87 86
f 86 87 88
f 86 88 82
f 87 79 89
f 87 89 88
f 88 89 90
f 88 90 82
f 89 79 91
f 89 91 90
f 90 91 92
f 90 92 82
f 91 79 80
f 91 80 92
f 92 80 81
f 92 81 82
f 94 93 97
f 94 97 95
f 95 97 98
f 95 98 96
f 97 93 99
f 97 99 98
f 98 99 100
f 98 100 96
f 99 93 101
f 99 101 100
f 100 101 102
f 100 102 96
f 101 93 103
f 101 103 102
f 102 103 104
f 102 104 96
f 103 93 105
f 103 105 104
f 104 105 106
f 104 106 96
f 105 93 94
f 105 94 106
f 106 94 95
f 106 95 96
f 108 107 111
f 108 111 109
f 109 111 112
f 109 112 110
f 111 107 113
f 111 113 112
f 112 113 114
f 112 114 110
f 113 107 115
f 113 115 114
f 114 115 116
f 114 116 110
f 115 107 117
f 115 117 116
f 116 117 118
f 116 118 110
f 117 107 119
f 117 119 118
f 118 119 120
f 118 120 110
f 119 107 108
f 119 108 120
f 120 108 109
f 120 109 110
f 122 121 125
f 122 125 123
f 123 125 126
f 123 126 124
f 125 121 127
f 125 127 126
f 126 127 128
f 126 128 124
f 127 121 129
f 127 129 128
f 128 129 130
f 128 130 124
f 129 121 131
f 129 131 130
f 130 131 132
f 130 132 124
f 131 121 133
f 131 133 132
f 132 133 134
f 132 134 124
f 133 121 122
f 133 122 134
f 134 122 123
f 134 123 124
f 136 135 139
f 136 139 137
f 137 139 140
f 137 140 138
f 139 135 141
f 139 141 140
f 140 141 142
f 140 142 138
f 141 135 143
f 141 143 142
f 142 143 144
f 142 144 138
f 143 135 145
f 143 145 144
f 144 145 146
f 144 146 138
f 145 135 147
f 145 147 146
f 146 147 148
f 146 148 138
f 147 135 136
f 147 136 148
f 148 136 137
f 148 137 138
