# ONE MORE FLOOR v1.60 — enemy quality r2b — warden authored anatomy
v 0.2400 0.7200 0.0100
v 0.1697 0.7200 0.1373
v 0.0000 0.7200 0.1900
v -0.1697 0.7200 0.1373
v -0.2400 0.7200 0.0100
v -0.1697 0.7200 -0.1173
v -0.0000 0.7200 -0.1700
v 0.1697 0.7200 -0.1173
v 0.3600 1.4200 0.0100
v 0.2546 1.4200 0.1656
v 0.0000 1.4200 0.2300
v -0.2546 1.4200 0.1656
v -0.3600 1.4200 0.0100
v -0.2546 1.4200 -0.1456
v -0.0000 1.4200 -0.2100
v 0.2546 1.4200 -0.1456
v 0.2500 0.5600 0.0200
v 0.1768 0.5600 0.1402
v 0.0000 0.5600 0.1900
v -0.1768 0.5600 0.1402
v -0.2500 0.5600 0.0200
v -0.1768 0.5600 -0.1002
v -0.0000 0.5600 -0.1500
v 0.1768 0.5600 -0.1002
v 0.2300 0.8000 0.0200
v 0.1626 0.8000 0.1331
v 0.0000 0.8000 0.1800
v -0.1626 0.8000 0.1331
v -0.2300 0.8000 0.0200
v -0.1626 0.8000 -0.0931
v -0.0000 0.8000 -0.1400
v 0.1626 0.8000 -0.0931
v -0.2700 1.0400 -0.2300
v 0.2700 1.0400 -0.2300
v 0.2700 1.4200 -0.2300
v -0.2700 1.4200 -0.2300
v -0.2700 1.0400 -0.1100
v 0.2700 1.0400 -0.1100
v 0.2700 1.4200 -0.1100
v -0.2700 1.4200 -0.1100
v 0.1000 1.4200 -0.0100
v 0.0500 1.4200 0.0679
v -0.0500 1.4200 0.0679
v -0.1000 1.4200 -0.0100
v -0.0500 1.4200 -0.0879
v 0.0500 1.4200 -0.0879
v 0.1100 1.5500 -0.0100
v 0.0550 1.5500 0.0766
v -0.0550 1.5500 0.0766
v -0.1100 1.5500 -0.0100
v -0.0550 1.5500 -0.0966
v 0.0550 1.5500 -0.0966
v -0.2000 1.5300 -0.1800
v 0.2000 1.5300 -0.1800
v 0.2000 1.8700 -0.1800
v -0.2000 1.8700 -0.1800
v -0.2000 1.5300 0.1200
v 0.2000 1.5300 0.1200
v 0.2000 1.8700 0.1200
v -0.2000 1.8700 0.1200
v -0.2000 1.8600 -0.1000
v 0.0000 1.9800 -0.1000
v 0.2000 1.8600 -0.1000
v -0.2000 1.8600 0.1000
v 0.0000 1.9800 0.1000
v 0.2000 1.8600 0.1000
v -0.2600 1.4000 -0.1100
v -0.5500 1.3800 -0.1100
v -0.4200 1.1800 -0.1100
v -0.2600 1.4000 0.1100
v -0.5500 1.3800 0.1100
v -0.4200 1.1800 0.1100
v -0.4318 1.3198 0.0000
v -0.3838 1.3047 -0.0864
v -0.2920 1.2650 -0.0864
v -0.2482 1.2402 -0.0000
v -0.2962 1.2553 0.0864
v -0.3880 1.2950 0.0864
v -0.5434 1.0118 -0.0200
v -0.5050 0.9998 -0.0892
v -0.4316 0.9680 -0.0892
v -0.3966 0.9482 -0.0200
v -0.4350 0.9602 0.0492
v -0.5084 0.9920 0.0492
v -0.5498 0.9741 -0.0200
v -0.5105 0.9847 -0.0889
v -0.4307 0.9906 -0.0889
v -0.3902 0.9859 -0.0200
v -0.4295 0.9753 0.0489
v -0.5093 0.9694 0.0489
v -0.5198 0.7048 -0.0500
v -0.4854 0.7141 -0.1103
v -0.4156 0.7192 -0.1103
v -0.3802 0.7152 -0.0500
v -0.4146 0.7059 0.0103
v -0.4844 0.7008 0.0103
v -0.5300 0.5200 -0.1500
v -0.3700 0.5200 -0.1500
v -0.3700 0.7000 -0.1500
v -0.5300 0.7000 -0.1500
v -0.5300 0.5200 0.0300
v -0.3700 0.5200 0.0300
v -0.3700 0.7000 0.0300
v -0.5300 0.7000 0.0300
v -0.2550 0.6300 0.0100
v -0.2075 0.6388 -0.0718
v -0.1125 0.6388 -0.0718
v -0.0650 0.6300 0.0100
v -0.1125 0.6212 0.0918
v -0.2075 0.6212 0.0918
v -0.2350 0.3500 -0.0200
v -0.1975 0.3569 -0.0846
v -0.1225 0.3569 -0.0846
v -0.0850 0.3500 -0.0200
v -0.1225 0.3431 0.0446
v -0.1975 0.3431 0.0446
v -0.2350 0.3500 -0.0200
v -0.1975 0.3552 -0.0847
v -0.1225 0.3552 -0.0847
v -0.0850 0.3500 -0.0200
v -0.1225 0.3448 0.0447
v -0.1975 0.3448 0.0447
v -0.2200 0.1000 -0.0400
v -0.1900 0.1041 -0.0918
v -0.1300 0.1041 -0.0918
v -0.1000 0.1000 -0.0400
v -0.1300 0.0959 0.0118
v -0.1900 0.0959 0.0118
v -0.2600 -0.0150 -0.2700
v -0.0600 -0.0150 -0.2700
v -0.0600 0.0850 -0.2700
v -0.2600 0.0850 -0.2700
v -0.2600 -0.0150 0.0300
v -0.0600 -0.0150 0.0300
v -0.0600 0.0850 0.0300
v -0.2600 0.0850 0.0300
v 0.2600 1.4000 -0.1100
v 0.5500 1.3800 -0.1100
v 0.4200 1.1800 -0.1100
v 0.2600 1.4000 0.1100
v 0.5500 1.3800 0.1100
v 0.4200 1.1800 0.1100
v 0.2482 1.2402 0.0000
v 0.2920 1.2650 -0.0864
v 0.3838 1.3047 -0.0864
v 0.4318 1.3198 -0.0000
v 0.3880 1.2950 0.0864
v 0.2962 1.2553 0.0864
v 0.3966 0.9482 -0.0200
v 0.4316 0.9680 -0.0892
v 0.5050 0.9998 -0.0892
v 0.5434 1.0118 -0.0200
v 0.5084 0.9920 0.0492
v 0.4350 0.9602 0.0492
v 0.3902 0.9859 -0.0200
v 0.4307 0.9906 -0.0889
v 0.5105 0.9847 -0.0889
v 0.5498 0.9741 -0.0200
v 0.5093 0.9694 0.0489
v 0.4295 0.9753 0.0489
v 0.3802 0.7152 -0.0500
v 0.4156 0.7192 -0.1103
v 0.4854 0.7141 -0.1103
v 0.5198 0.7048 -0.0500
v 0.4844 0.7008 0.0103
v 0.4146 0.7059 0.0103
v 0.3700 0.5200 -0.1500
v 0.5300 0.5200 -0.1500
v 0.5300 0.7000 -0.1500
v 0.3700 0.7000 -0.1500
v 0.3700 0.5200 0.0300
v 0.5300 0.5200 0.0300
v 0.5300 0.7000 0.0300
v 0.3700 0.7000 0.0300
v 0.0650 0.6300 0.0100
v 0.1125 0.6388 -0.0718
v 0.2075 0.6388 -0.0718
v 0.2550 0.6300 0.0100
v 0.2075 0.6212 0.0918
v 0.1125 0.6212 0.0918
v 0.0850 0.3500 -0.0200
v 0.1225 0.3569 -0.0846
v 0.1975 0.3569 -0.0846
v 0.2350 0.3500 -0.0200
v 0.1975 0.3431 0.0446
v 0.1225 0.3431 0.0446
v 0.0850 0.3500 -0.0200
v 0.1225 0.3552 -0.0847
v 0.1975 0.3552 -0.0847
v 0.2350 0.3500 -0.0200
v 0.1975 0.3448 0.0447
v 0.1225 0.3448 0.0447
v 0.1000 0.1000 -0.0400
v 0.1300 0.1041 -0.0918
v 0.1900 0.1041 -0.0918
v 0.2200 0.1000 -0.0400
v 0.1900 0.0959 0.0118
v 0.1300 0.0959 0.0118
v 0.0600 -0.0150 -0.2700
v 0.2600 -0.0150 -0.2700
v 0.2600 0.0850 -0.2700
v 0.0600 0.0850 -0.2700
v 0.0600 -0.0150 0.0300
v 0.2600 -0.0150 0.0300
v 0.2600 0.0850 0.0300
v 0.0600 0.0850 0.0300
f 1 2 10
f 1 10 9
f 2 3 11
f 2 11 10
f 3 4 12
f 3 12 11
f 4 5 13
f 4 13 12
f 5 6 14
f 5 14 13
f 6 7 15
f 6 15 14
f 7 8 16
f 7 16 15
f 8 1 9
f 8 9 16
f 1 2 3
f 1 3 4
f 1 4 5
f 1 5 6
f 1 6 7
f 1 7 8
f 9 10 11
f 9 11 12
f 9 12 13
f 9 13 14
f 9 14 15
f 9 15 16
f 17 18 26
f 17 26 25
f 18 19 27
f 18 27 26
f 19 20 28
f 19 28 27
f 20 21 29
f 20 29 28
f 21 22 30
f 21 30 29
f 22 23 31
f 22 31 30
f 23 24 32
f 23 32 31
f 24 17 25
f 24 25 32
f 17 18 19
f 17 19 20
f 17 20 21
f 17 21 22
f 17 22 23
f 17 23 24
f 25 26 27
f 25 27 28
f 25 28 29
f 25 29 30
f 25 30 31
f 25 31 32
f 33 34 35
f 33 35 36
f 37 40 39
f 37 39 38
f 33 37 38
f 33 38 34
f 34 38 39
f 34 39 35
f 35 39 40
f 35 40 36
f 36 40 37
f 36 37 33
f 41 42 48
f 41 48 47
f 42 43 49
f 42 49 48
f 43 44 50
f 43 50 49
f 44 45 51
f 44 51 50
f 45 46 52
f 45 52 51
f 46 41 47
f 46 47 52
f 41 42 43
f 41 43 44
f 41 44 45
f 41 45 46
f 47 48 49
f 47 49 50
f 47 50 51
f 47 51 52
f 53 54 55
f 53 55 56
f 57 60 59
f 57 59 58
f 53 57 58
f 53 58 54
f 54 58 59
f 54 59 55
f 55 59 60
f 55 60 56
f 56 60 57
f 56 57 53
f 61 62 63
f 64 66 65
f 61 64 65
f 61 65 62
f 62 65 66
f 62 66 63
f 63 66 64
f 63 64 61
f 67 68 69
f 70 72 71
f 67 70 71
f 67 71 68
f 68 71 72
f 68 72 69
f 69 72 70
f 69 70 67
f 73 74 80
f 73 80 79
f 74 75 81
f 74 81 80
f 75 76 82
f 75 82 81
f 76 77 83
f 76 83 82
f 77 78 84
f 77 84 83
f 78 73 79
f 78 79 84
f 73 74 75
f 79 81 80
f 73 75 76
f 79 82 81
f 73 76 77
f 79 83 82
f 73 77 78
f 79 84 83
f 85 86 92
f 85 92 91
f 86 87 93
f 86 93 92
f 87 88 94
f 87 94 93
f 88 89 95
f 88 95 94
f 89 90 96
f 89 96 95
f 90 85 91
f 90 91 96
f 85 86 87
f 91 93 92
f 85 87 88
f 91 94 93
f 85 88 89
f 91 95 94
f 85 89 90
f 91 96 95
f 97 98 99
f 97 99 100
f 101 104 103
f 101 103 102
f 97 101 102
f 97 102 98
f 98 102 103
f 98 103 99
f 99 103 104
f 99 104 100
f 100 104 101
f 100 101 97
f 105 106 112
f 105 112 111
f 106 107 113
f 106 113 112
f 107 108 114
f 107 114 113
f 108 109 115
f 108 115 114
f 109 110 116
f 109 116 115
f 110 105 111
f 110 111 116
f 105 106 107
f 111 113 112
f 105 107 108
f 111 114 113
f 105 108 109
f 111 115 114
f 105 109 110
f 111 116 115
f 117 118 124
f 117 124 123
f 118 119 125
f 118 125 124
f 119 120 126
f 119 126 125
f 120 121 127
f 120 127 126
f 121 122 128
f 121 128 127
f 122 117 123
f 122 123 128
f 117 118 119
f 123 125 124
f 117 119 120
f 123 126 125
f 117 120 121
f 123 127 126
f 117 121 122
f 123 128 127
f 129 130 131
f 129 131 132
f 133 136 135
f 133 135 134
f 129 133 134
f 129 134 130
f 130 134 135
f 130 135 131
f 131 135 136
f 131 136 132
f 132 136 133
f 132 133 129
f 137 138 139
f 140 142 141
f 137 140 141
f 137 141 138
f 138 141 142
f 138 142 139
f 139 142 140
f 139 140 137
f 143 144 150
f 143 150 149
f 144 145 151
f 144 151 150
f 145 146 152
f 145 152 151
f 146 147 153
f 146 153 152
f 147 148 154
f 147 154 153
f 148 143 149
f 148 149 154
f 143 144 145
f 149 151 150
f 143 145 146
f 149 152 151
f 143 146 147
f 149 153 152
f 143 147 148
f 149 154 153
f 155 156 162
f 155 162 161
f 156 157 163
f 156 163 162
f 157 158 164
f 157 164 163
f 158 159 165
f 158 165 164
f 159 160 166
f 159 166 165
f 160 155 161
f 160 161 166
f 155 156 157
f 161 163 162
f 155 157 158
f 161 164 163
f 155 158 159
f 161 165 164
f 155 159 160
f 161 166 165
f 167 168 169
f 167 169 170
f 171 174 173
f 171 173 172
f 167 171 172
f 167 172 168
f 168 172 173
f 168 173 169
f 169 173 174
f 169 174 170
f 170 174 171
f 170 171 167
f 175 176 182
f 175 182 181
f 176 177 183
f 176 183 182
f 177 178 184
f 177 184 183
f 178 179 185
f 178 185 184
f 179 180 186
f 179 186 185
f 180 175 181
f 180 181 186
f 175 176 177
f 181 183 182
f 175 177 178
f 181 184 183
f 175 178 179
f 181 185 184
f 175 179 180
f 181 186 185
f 187 188 194
f 187 194 193
f 188 189 195
f 188 195 194
f 189 190 196
f 189 196 195
f 190 191 197
f 190 197 196
f 191 192 198
f 191 198 197
f 192 187 193
f 192 193 198
f 187 188 189
f 193 195 194
f 187 189 190
f 193 196 195
f 187 190 191
f 193 197 196
f 187 191 192
f 193 198 197
f 199 200 201
f 199 201 202
f 203 206 205
f 203 205 204
f 199 203 204
f 199 204 200
f 200 204 205
f 200 205 201
f 201 205 206
f 201 206 202
f 202 206 203
f 202 203 199
