<svg xmlns="http://www.w3.org/2000/svg" width="1920" height="384" viewBox="0 0 1920 384"><defs><linearGradient id="steel" x1="0" y1="0" x2="1" y2="1"><stop stop-color="#eef5ff"/><stop offset=".42" stop-color="#728198"/><stop offset="1" stop-color="#20283a"/></linearGradient><linearGradient id="gold"><stop stop-color="#fff1a8"/><stop offset=".45" stop-color="#d79a3d"/><stop offset="1" stop-color="#6a3d16"/></linearGradient><linearGradient id="void"><stop stop-color="#c998ff"/><stop offset=".45" stop-color="#7c47d9"/><stop offset="1" stop-color="#211334"/></linearGradient><linearGradient id="bone"><stop stop-color="#f4efe1"/><stop offset="1" stop-color="#918b7f"/></linearGradient><radialGradient id="pg"><stop stop-color="#c66cff" stop-opacity=".55"/><stop offset="1" stop-color="#7d2dcc" stop-opacity="0"/></radialGradient><radialGradient id="cg"><stop stop-color="#7df0ff" stop-opacity=".52"/><stop offset="1" stop-color="#2c80c8" stop-opacity="0"/></radialGradient></defs>
<g transform="translate(96 96)"><ellipse cy="70" rx="42" ry="10" fill="#02050a" opacity=".65"/><path d="M-30-22l-48-25 30 42M30-22l48-25-30 42" fill="#4e8d4d" stroke="#8ac56d" stroke-width="3"/><circle cy="-15" r="34" fill="#5ca35a" stroke="#2f5330" stroke-width="4"/><path d="M-24-30l9-17 13 12 14-13 12 18" fill="#324a2f"/><circle cx="-11" cy="-15" r="4" fill="#ffd462"/><circle cx="11" cy="-15" r="4" fill="#ffd462"/><path d="M-12 6q12 10 24 0" fill="none" stroke="#273426" stroke-width="4"/><path d="M-36 18l23-12L0 17 15 6l24 13 5 52-41 17-43-18Z" fill="#473829" stroke="#8a6136" stroke-width="4"/><path d="M-25 39h50" stroke="#c28c47" stroke-width="6"/><path d="M31 29l47-27" stroke="#70482d" stroke-width="7"/><path d="M48 18l28-18-14 34Z" fill="url(#steel)" stroke="#dbe5ef" stroke-width="2"/></g>
<g transform="translate(288 96)"><ellipse cy="68" rx="42" ry="9" fill="#02050a" opacity=".58"/><path d="M-8 2C-50-43-80-30-73 20l24-17 10 31 31-20M8 2C50-43 80-30 73 20L49 3 39 34 8 14" fill="#674093" stroke="#c17ee8" stroke-width="4"/><ellipse cy="8" rx="22" ry="34" fill="#30203f" stroke="#8654ae" stroke-width="4"/><path d="M-14-16l-11-22 19 11M14-16l11-22-19 11" fill="#7c4aa8"/><circle cx="-7" cy="2" r="3.5" fill="#ff7dff"/><circle cx="7" cy="2" r="3.5" fill="#ff7dff"/><path d="M-9 15l9 7 9-7" fill="none" stroke="#efd1ff" stroke-width="3"/></g>
<g transform="translate(480 96)"><ellipse cy="70" rx="40" ry="10" fill="#02050a" opacity=".65"/><circle cy="-25" r="30" fill="url(#bone)" stroke="#77746c" stroke-width="4"/><circle cx="-10" cy="-28" r="6" fill="#1a1c24"/><circle cx="10" cy="-28" r="6" fill="#1a1c24"/><path d="M0-17l7 10H-7Z" fill="#4b4a47"/><path d="M-13-2h26M-7-2v10M2-2v10" stroke="#77746c" stroke-width="2"/><path d="M0 7v64M-26 25h52M-21 45h42" stroke="url(#bone)" stroke-width="7" stroke-linecap="round"/><path d="M-24 26l-25 39M24 26l24 38M-8 69l-14 22M8 69l15 22" stroke="#c9c2b5" stroke-width="7" stroke-linecap="round"/><circle cx="-52" cy="57" r="23" fill="#2f3745" stroke="#9ca8b8" stroke-width="4"/><path d="M38 26l30 50" stroke="#715034" stroke-width="7"/><path d="M43 24l19-14 10 11-23 12Z" fill="url(#steel)"/></g>
<g transform="translate(672 96)"><ellipse cy="72" rx="45" ry="11" fill="#02050a" opacity=".65"/><path d="M-31-25l10-25 14 14 14-17 23 26" fill="#31463f"/><circle cy="-16" r="34" fill="#617962" stroke="#31463b" stroke-width="4"/><circle cx="-11" cy="-16" r="5" fill="#d9ff82"/><circle cx="11" cy="-16" r="5" fill="#d9ff82"/><path d="M-14 7l10-7 7 9 13-4" stroke="#293a31" stroke-width="4" fill="none"/><path d="M-38 17l23-12L0 18 16 5l25 14 8 54-45 18-47-18Z" fill="#303a35" stroke="#63776a" stroke-width="4"/><path d="M-28 37l-35 35M30 34l39 30" stroke="#617962" stroke-width="10" stroke-linecap="round"/><path d="M-5 69l-12 24M15 67l16 23" stroke="#4b6250" stroke-width="11"/></g>
<g transform="translate(864 96)"><ellipse cy="74" rx="44" ry="11" fill="#02050a" opacity=".65"/><circle cy="-18" r="54" fill="url(#pg)"/><path d="M-38 0l9-53L0-78 30-53 39 0 18 21h-38Z" fill="#28163d" stroke="#a967d0" stroke-width="4"/><path d="M-17-26q17-19 34 0V5Q0 22-17 5Z" fill="#aea39d"/><circle cx="-7" cy="-18" r="3.5" fill="#c86cff"/><circle cx="8" cy="-18" r="3.5" fill="#c86cff"/><path d="M-44 14l29-11L0 17 17 2l29 13-3 68L1 96l-46-14Z" fill="#241533" stroke="#68408e" stroke-width="4"/><path d="M37 25l33 68" stroke="#60422e" stroke-width="7"/><path d="M69 4v42M48 25h42" stroke="#ba6dff" stroke-width="6"/><circle cx="69" cy="25" r="22" fill="none" stroke="#e8b7ff" stroke-width="3"/></g>
<g transform="translate(1056 96)"><ellipse cy="72" rx="47" ry="11" fill="#02050a" opacity=".66"/><path d="M-18-19C-63-58-83-28-67 24l31-22M18-19C63-58 83-28 67 24L36 2" fill="#566475" stroke="#9aa8b8" stroke-width="4"/><path d="M-25-26l-11-29 24 17M25-26l11-29-24 17" fill="#778493"/><circle cy="-16" r="32" fill="#657280" stroke="#a7b0bd" stroke-width="4"/><circle cx="-10" cy="-15" r="4" fill="#ffc15a"/><circle cx="10" cy="-15" r="4" fill="#ffc15a"/><path d="M-34 15l23-11L0 17 13 4l25 12 7 57-42 18-46-18Z" fill="#495665" stroke="#83909f" stroke-width="4"/><path d="M-12 71l-17 22M18 69l19 23" stroke="#4c5867" stroke-width="11"/></g>
<g transform="translate(1248 96)"><ellipse cy="74" rx="49" ry="12" fill="#02050a" opacity=".7"/><path d="M-38-6l7-53h62l7 53-17 20h-42Z" fill="#343d4b" stroke="#d0ae65" stroke-width="4"/><path d="M-24-57l8-22L0-58l16-21 9 22" fill="url(#gold)"/><rect x="-18" y="-32" width="36" height="20" fill="#0e1118"/><circle cx="-8" cy="-22" r="3.5" fill="#ffc85d"/><circle cx="8" cy="-22" r="3.5" fill="#ffc85d"/><path d="M-48 10l31-14L0 11 18-4l31 15 4 72-51 19-54-19Z" fill="#303946" stroke="#c6a65f" stroke-width="5"/><circle cx="-57" cy="45" r="31" fill="#2d3542" stroke="#c7aa70" stroke-width="5"/><path d="M-57 20v50M-82 45h50" stroke="#7c8796" stroke-width="4"/><path d="M43 20l28 61" stroke="#8d6330" stroke-width="8"/><path d="M48 18l20-18 12 12-24 16Z" fill="url(#steel)"/></g>
<g transform="translate(1440 96)"><ellipse cy="74" rx="44" ry="11" fill="#02050a" opacity=".65"/><circle cy="-17" r="51" fill="url(#pg)" opacity=".72"/><path d="M-37-2l8-52L0-80 29-54 38-2 19 17h-38Z" fill="#321849" stroke="#c269ed" stroke-width="4"/><path d="M-15-28q15-17 30 0V4Q0 19-15 4Z" fill="#b89baf"/><circle cx="-6" cy="-18" r="3.5" fill="#ff91ff"/><circle cx="6" cy="-18" r="3.5" fill="#ff91ff"/><path d="M-43 13l28-10L0 15 16 3l29 12 4 65L1 98l-49-18Z" fill="#2b193f" stroke="#7d3fa5" stroke-width="4"/><path d="M39 23l28 59" stroke="#60402e" stroke-width="7"/><path d="M67 3l14 22-14 23-14-23Z" fill="#d57bff" stroke="#f5d1ff" stroke-width="3"/></g>
<g transform="translate(1632 96)"><ellipse cy="75" rx="50" ry="12" fill="#02050a" opacity=".72"/><circle cy="-10" r="54" fill="url(#pg)" opacity=".5"/><path d="M-40-8l6-56 18-20L0-65l17-19 18 20 6 56-18 20h-46Z" fill="#202338" stroke="#8c68e8" stroke-width="5"/><rect x="-18" y="-36" width="36" height="19" fill="#090b13"/><circle cx="-8" cy="-27" r="3" fill="#c987ff"/><circle cx="8" cy="-27" r="3" fill="#c987ff"/><path d="M-50 8l32-13L0 11 19-5l32 14 6 73-55 20-58-20Z" fill="#202637" stroke="#6f61ae" stroke-width="5"/><path d="M46 15l42 65" stroke="#5c422d" stroke-width="8"/><path d="M49 13l31-32 11 14-34 27Z" fill="url(#void)"/></g>
<g transform="translate(1824 96)"><ellipse cy="74" rx="44" ry="11" fill="#02050a" opacity=".66"/><circle cy="-16" r="56" fill="url(#pg)"/><path d="M-36 0l8-50L0-77 28-50 37 0 18 18h-36Z" fill="#19182e" stroke="#7b66d8" stroke-width="4"/><path d="M-15-25q15-18 30 0V5Q0 20-15 5Z" fill="#9a90aa"/><circle cx="-6" cy="-17" r="3.5" fill="#a892ff"/><circle cx="6" cy="-17" r="3.5" fill="#a892ff"/><path d="M-42 14l27-11L0 17 17 3l28 13 4 65L1 98l-49-17Z" fill="#18182b" stroke="#5e559f" stroke-width="4"/><circle cx="58" cy="23" r="25" fill="none" stroke="#a46dff" stroke-width="4" stroke-dasharray="8 6"/><path d="M34 25h49M58 0v49" stroke="#6d4fb5" stroke-width="3"/></g>
<g transform="translate(96 288)"><ellipse cy="74" rx="47" ry="11" fill="#02050a" opacity=".68"/><circle cy="-14" r="48" fill="url(#cg)" opacity=".34"/><path d="M-30-9l8-40L0-67 23-49 31-9 14 9h-28Z" fill="#192a31" stroke="#5bc6d9" stroke-width="4"/><path d="M-43 9l28-12L0 12 17-3l29 13 6 67L2 96l-53-19Z" fill="#18313b" stroke="#438c9a" stroke-width="4"/><path d="M36 13l48 71" stroke="#5f452f" stroke-width="8"/><path d="M42 12l31-37 13 13-35 34Z" fill="#c5fbff" stroke="#72e7ff" stroke-width="3"/><path d="M-42 31l-29 39" stroke="#64d4e5" stroke-width="5"/></g>
<g transform="translate(288 288)"><ellipse cy="73" rx="44" ry="10" fill="#02050a" opacity=".62"/><circle cy="-12" r="54" fill="url(#pg)" opacity=".5"/><path d="M-29-12l9-37L0-64l20 15 10 37-14 19h-32Z" fill="#262039" stroke="#a775e8" stroke-width="4"/><path d="M-40 9l26-11L0 12 16-2l27 12 7 62L2 97l-51-15Z" fill="#231d34" stroke="#70579b" stroke-width="4"/><path d="M-31 22l-42 27M31 22l42 27" stroke="#9d72d8" stroke-width="7"/><path d="M-8-26h16" stroke="#e1c6ff" stroke-width="4"/></g>
<g transform="translate(480 288)"><ellipse cy="74" rx="44" ry="10" fill="#02050a" opacity=".64"/><circle cy="-13" r="56" fill="url(#cg)" opacity=".4"/><path d="M-32-5l7-44L0-70 25-49 33-5 15 15h-30Z" fill="#172c36" stroke="#65d9e8" stroke-width="4"/><path d="M-40 12l25-10L0 15 16 2l26 11 5 66L1 98l-48-19Z" fill="#172932" stroke="#4d98a5" stroke-width="4"/><circle cx="-57" cy="14" r="12" fill="#74ecff" opacity=".9"/><circle cx="57" cy="14" r="12" fill="#b87aff" opacity=".9"/><circle cx="0" cy="-60" r="10" fill="#ecdd8d" opacity=".9"/><path d="M-56 14Q0-36 56 14Q0 63-56 14Z" fill="none" stroke="#8a86d8" stroke-width="2"/></g>
<g transform="translate(672 288)"><ellipse cy="76" rx="51" ry="12" fill="#02050a" opacity=".72"/><path d="M-41-7l7-55 18-20L0-62l16-20 18 20 8 55-19 21h-46Z" fill="#2c2f3d" stroke="#a7916d" stroke-width="5"/><rect x="-18" y="-35" width="36" height="18" fill="#0d1017"/><circle cx="-8" cy="-26" r="3" fill="#ff715e"/><circle cx="8" cy="-26" r="3" fill="#ff715e"/><path d="M-51 9l33-14L0 11 19-5l33 15 5 73-55 20-59-20Z" fill="#30323d" stroke="#8f7b5b" stroke-width="5"/><path d="M-48 30l-35 50" stroke="#8d6a40" stroke-width="9"/><path d="M44 17l39 61" stroke="#70492c" stroke-width="9"/><path d="M47 15l27-30 14 13-34 29Z" fill="url(#steel)"/></g>
<g transform="translate(864 288)"><ellipse cy="78" rx="58" ry="13" fill="#02050a" opacity=".75"/><circle cy="-15" r="56" fill="url(#pg)" opacity=".35"/><path d="M-44-10l7-59 20-23L0-69l18-23 20 23 7 59-20 23h-50Z" fill="#292738" stroke="#d1a04a" stroke-width="5"/><path d="M-30-69l10-29L0-74l20-24 10 29" fill="url(#gold)"/><rect x="-20" y="-39" width="40" height="21" fill="#11131c"/><circle cx="-9" cy="-29" r="4" fill="#ff5f70"/><circle cx="9" cy="-29" r="4" fill="#ff5f70"/><path d="M-58 8l38-15L0 12 22-7l38 16 5 80-63 23-67-23Z" fill="#2a2d40" stroke="#b48747" stroke-width="6"/><path d="M52 20l42 66" stroke="#8c5a2b" stroke-width="10"/><path d="M56 18l29-31 14 14-36 28Z" fill="url(#steel)"/></g>
<g transform="translate(1056 288)"><ellipse cy="78" rx="60" ry="13" fill="#02050a" opacity=".76"/><circle cy="-14" r="68" fill="url(#cg)" opacity=".48"/><path d="M-47-8l7-61 22-23L0-68l19-24 22 23 7 61-20 25h-56Z" fill="#18333e" stroke="#63dce9" stroke-width="5"/><rect x="-20" y="-38" width="40" height="21" fill="#0b1820"/><circle cx="-9" cy="-28" r="4" fill="#92f8ff"/><circle cx="9" cy="-28" r="4" fill="#92f8ff"/><path d="M-61 9l40-16L0 13 23-7l40 17 5 80-66 24-70-24Z" fill="#19323b" stroke="#5fa0a7" stroke-width="6"/><path d="M54 20l38 69" stroke="#4a716e" stroke-width="10"/><path d="M91 1l15 25-15 26-15-26Z" fill="#76f1f6" stroke="#d2ffff" stroke-width="3"/></g>
<g transform="translate(1248 288)"><ellipse cy="79" rx="62" ry="13" fill="#02050a" opacity=".78"/><circle cy="-14" r="71" fill="url(#pg)" opacity=".55"/><path d="M-48-7l6-61 21-24L0-68l21-24 21 24 7 61-22 25h-54Z" fill="#271a31" stroke="#d4a23f" stroke-width="5"/><path d="M-35-73l7-38L0-79l28-32 7 38-18-10L0-54l-17-29Z" fill="url(#gold)" stroke="#ffe99d" stroke-width="3"/><rect x="-20" y="-37" width="40" height="21" fill="#1a1020"/><circle cx="-9" cy="-27" r="4" fill="#ffd05d"/><circle cx="9" cy="-27" r="4" fill="#ffd05d"/><path d="M-63 10l41-17L0 14 24-7l41 18 5 82-68 24-72-24Z" fill="#251d32" stroke="#c99a3c" stroke-width="6"/><path d="M56 21l36 70" stroke="#97692e" stroke-width="10"/><path d="M91 3l15 24-15 26-15-26Z" fill="#c36aff" stroke="#f0ccff" stroke-width="3"/></g>
<g transform="translate(1440 288)"><ellipse cy="79" rx="63" ry="13" fill="#02050a" opacity=".78"/><circle cy="-14" r="74" fill="url(#cg)" opacity=".52"/><path d="M-49-7l7-62 21-25L0-69l21-25 22 25 7 62-22 26h-56Z" fill="#182939" stroke="#7bdfff" stroke-width="5"/><path d="M-34-71l9-34L0-79l25-26 9 34" fill="#7187ce"/><rect x="-20" y="-38" width="40" height="21" fill="#0b121d"/><circle cx="-9" cy="-28" r="4" fill="#bdf8ff"/><circle cx="9" cy="-28" r="4" fill="#bdf8ff"/><path d="M-64 10l42-17L0 14 24-7l42 18 5 83-69 24-73-24Z" fill="#17283a" stroke="#5c83b8" stroke-width="6"/><circle cx="-58" cy="41" r="29" fill="none" stroke="#8ee9ff" stroke-width="4" stroke-dasharray="8 6"/><path d="M56 20l40 71" stroke="#557195" stroke-width="10"/><path d="M60 18l28-29 14 14-35 27Z" fill="#d8fbff"/></g>
<g transform="translate(1632 288)"><ellipse cy="80" rx="66" ry="14" fill="#02050a" opacity=".8"/><circle cy="-14" r="78" fill="url(#pg)" opacity=".65"/><path d="M-51-7l7-65 23-26L0-71l23-27 23 26 7 65-23 28h-60Z" fill="#1c132b" stroke="#b26cff" stroke-width="6"/><path d="M-37-74l10-37L0-82l27-29 10 37" fill="#8b56c7"/><rect x="-22" y="-40" width="44" height="23" fill="#09070f"/><circle cx="-10" cy="-29" r="4" fill="#e3c5ff"/><circle cx="10" cy="-29" r="4" fill="#e3c5ff"/><path d="M-67 11l44-18L0 15 25-7l44 19 6 85-72 25-77-25Z" fill="#1b1428" stroke="#7548a8" stroke-width="6"/><path d="M-70 44h140" stroke="#7c55aa" stroke-width="3" opacity=".55"/><path d="M60 20l40 74" stroke="#51346c" stroke-width="10"/><path d="M64 18l31-35 14 14-38 32Z" fill="url(#void)"/></g>
<g transform="translate(1824 288)" opacity=".85"><circle r="65" fill="url(#pg)"/><circle r="46" fill="none" stroke="#8e67d9" stroke-width="4"/><path d="M0-54L16-16 54 0 16 16 0 54-16 16-54 0-16-16Z" fill="#2a1d3e" stroke="#d19cff" stroke-width="4"/><circle r="11" fill="#f2d17a"/></g></svg>