<svg xmlns="http://www.w3.org/2000/svg" width="768" height="192" viewBox="0 0 768 192"><defs><linearGradient id="s" x1="0" y1="0" x2="1" y2="1"><stop stop-color="#15182b"/><stop offset=".5" stop-color="#4c3e78"/><stop offset="1" stop-color="#0a0c17"/></linearGradient><linearGradient id="c"><stop stop-color="#e9feff"/><stop offset=".45" stop-color="#6ce7ff"/><stop offset="1" stop-color="#4a5cff"/></linearGradient><radialGradient id="g"><stop stop-color="#8d64ff" stop-opacity=".4"/><stop offset="1" stop-color="#3b1b72" stop-opacity="0"/></radialGradient></defs><g><ellipse cx="96" cy="164" rx="50" ry="10" fill="#05060d" opacity=".72"/><circle cx="96" cy="91" r="61" fill="url(#g)"/><path d="M72 67L96 42l24 25 12 57-18 35H78l-18-35z" fill="url(#s)" stroke="#8e6cff" stroke-width="2"/><path d="M80 61l16-20 16 20-7 24H87z" fill="#111426" stroke="#9e7aff" stroke-width="2"/><path d="M85 70h22l-4 12H89z" fill="#62dcff"/><path d="M65 88l-27 18 25 4 15-11zM127 88l27 18-25 4-15-11z" fill="#302552" stroke="#7156b7"/><path d="M86 123l-15 38h17l8-26 8 26h17l-15-38z" fill="#171a2c" stroke="#59458c"/><path d="M126 50l7 5-43 92-7-4z" fill="url(#c)"/></g><g transform="translate(192)"><ellipse cx="96" cy="162" rx="58" ry="11" fill="#05060d" opacity=".72"/><circle cx="96" cy="103" r="64" fill="url(#g)"/><path d="M42 114L58 80l38-18 40 13 21 32-21 28-48 10-43-12z" fill="url(#s)" stroke="#8159d6" stroke-width="2"/><path d="M64 76L48 47l31 22zM124 70l26-29-7 38z" fill="#2d244c" stroke="#7e5ccb"/><path d="M124 88l22 8-19 14z" fill="#0c1020"/><circle cx="129" cy="90" r="5" fill="#8ef2ff"/><path d="M58 128l-16 30h17l14-26zM109 138l7 22h18l-10-28z" fill="#14172a" stroke="#59458c"/><path d="M51 118L27 99l-8 8 28 24z" fill="#4b357e"/><path d="M88 69l12 21 10-20" fill="none" stroke="#72e7ff" stroke-width="3"/></g><g transform="translate(384)"><ellipse cx="96" cy="164" rx="54" ry="10" fill="#05060d" opacity=".72"/><circle cx="96" cy="96" r="66" fill="url(#g)"/><path d="M56 81h79l19 25-19 29H56l-20-27z" fill="url(#s)" stroke="#7857c3" stroke-width="2"/><circle cx="86" cy="108" r="27" fill="#0b1020" stroke="#7c62cb" stroke-width="3"/><circle cx="86" cy="108" r="17" fill="url(#c)"/><circle cx="86" cy="108" r="7" fill="#e9feff"/><path d="M123 91h45l17 12v12l-17 12h-45z" fill="#222844" stroke="#79dff7" stroke-width="2"/><rect x="155" y="100" width="33" height="18" rx="5" fill="url(#c)"/><path d="M63 136l-15 26h22l10-24zM116 137l10 25h22l-16-29z" fill="#121629" stroke="#59458c"/></g><g transform="translate(576)"><ellipse cx="96" cy="168" rx="70" ry="12" fill="#03040a" opacity=".78"/><circle cx="96" cy="92" r="82" fill="url(#g)"/><path d="M50 67L96 24l46 43-9 69-37 34-38-34z" fill="url(#s)" stroke="#9b74ff" stroke-width="3"/><path d="M72 58l24-35 24 35-10 30H82z" fill="#0c1021" stroke="#b395ff" stroke-width="2"/><path d="M82 68h28l-5 12H87z" fill="#7cf1ff"/><path d="M53 77L15 42l15 58 33 23zM139 77l38-35-15 58-33 23z" fill="#35245d" stroke="#815de0" stroke-width="2"/><path d="M69 113l27 18 27-18-11 43H80z" fill="#222745" stroke="#7f63c5"/><circle cx="96" cy="109" r="14" fill="#19122d" stroke="#72e8ff" stroke-width="3"/><path d="M96 97l8 12-8 12-8-12z" fill="#d9fbff"/></g></svg>