<svg xmlns="http://www.w3.org/2000/svg" width="256" height="256" viewBox="0 0 256 256">
<defs>
 <radialGradient id="g"><stop stop-color="#72e8ff" stop-opacity=".44"/><stop offset=".35" stop-color="#6c5cff" stop-opacity=".16"/><stop offset="1" stop-color="#02060a" stop-opacity="0"/></radialGradient>
 <linearGradient id="o"><stop stop-color="#8ff1ff"/><stop offset=".5" stop-color="#b4a2ff"/><stop offset="1" stop-color="#4d45aa"/></linearGradient>
 <filter id="b"><feGaussianBlur stdDeviation="6"/></filter>
</defs>
<circle cx="128" cy="128" r="115" fill="url(#g)" filter="url(#b)"/>
<circle cx="128" cy="128" r="91" fill="#03070c" stroke="#6eeaff" stroke-opacity=".42" stroke-width="3"/>
<ellipse cx="128" cy="128" rx="106" ry="54" fill="none" stroke="#91dcff" stroke-opacity=".42" stroke-width="4" transform="rotate(-18 128 128)"/>
<ellipse cx="128" cy="128" rx="100" ry="46" fill="none" stroke="#9e82ff" stroke-opacity=".32" stroke-width="3" transform="rotate(54 128 128)"/>
<circle cx="128" cy="128" r="48" fill="#010207" stroke="url(#o)" stroke-width="6"/>
<circle cx="128" cy="128" r="30" fill="#000"/>
<path d="M128 72l13 25 28 5-20 20 5 29-26-14-26 14 5-29-20-20 28-5z" fill="#7197ff" fill-opacity=".22" stroke="#c7edff" stroke-opacity=".68" stroke-width="2"/>
<g fill="#b8f5ff"><circle cx="30" cy="101" r="6"/><circle cx="224" cy="155" r="5"/><circle cx="84" cy="35" r="4"/><circle cx="184" cy="218" r="4"/></g>
<g stroke="#7ce9ff" stroke-linecap="round"><path d="M128 8v25" stroke-width="4"/><path d="M248 128h-25" stroke-width="3"/><path d="M128 248v-25" stroke-width="4"/><path d="M8 128h25" stroke-width="3"/></g>
</svg>