<svg xmlns="http://www.w3.org/2000/svg" width="648" height="3360" viewBox="0 0 648 3360"><defs>
<linearGradient id="d0" x1="0" y1="0" x2="0" y2="1"><stop stop-color="#151d2c"/><stop offset=".28" stop-color="#0d1421"/><stop offset="1" stop-color="#060a12"/></linearGradient><linearGradient id="c0" x1="0" y1="0" x2="0" y2="1"><stop stop-color="#102129"/><stop offset=".35" stop-color="#09161c"/><stop offset="1" stop-color="#04090d"/></linearGradient><linearGradient id="k0" x1="0" y1="0" x2="0" y2="1"><stop stop-color="#221c21"/><stop offset=".28" stop-color="#141218"/><stop offset="1" stop-color="#07070b"/></linearGradient><linearGradient id="t0" x1="0" y1="0" x2="0" y2="1"><stop stop-color="#191126"/><stop offset=".35" stop-color="#100b1b"/><stop offset="1" stop-color="#05040a"/></linearGradient>
<linearGradient id="stoneD" x1="0" y1="0" x2="1" y2="1"><stop stop-color="#29344a"/><stop offset=".5" stop-color="#182235"/><stop offset="1" stop-color="#0d1422"/></linearGradient><linearGradient id="stoneC" x1="0" y1="0" x2="1" y2="1"><stop stop-color="#294a51"/><stop offset=".5" stop-color="#173138"/><stop offset="1" stop-color="#0a171c"/></linearGradient><linearGradient id="stoneK" x1="0" y1="0" x2="1" y2="1"><stop stop-color="#504448"/><stop offset=".5" stop-color="#2d282e"/><stop offset="1" stop-color="#18161b"/></linearGradient><linearGradient id="stoneT" x1="0" y1="0" x2="1" y2="1"><stop stop-color="#392b4e"/><stop offset=".5" stop-color="#231934"/><stop offset="1" stop-color="#100b19"/></linearGradient>
<radialGradient id="fire"><stop stop-color="#ffd98d" stop-opacity=".95"/><stop offset=".2" stop-color="#ff9a34" stop-opacity=".55"/><stop offset="1" stop-color="#ff6c20" stop-opacity="0"/></radialGradient><radialGradient id="cyan"><stop stop-color="#b9ffff" stop-opacity=".7"/><stop offset=".25" stop-color="#51dfe8" stop-opacity=".35"/><stop offset="1" stop-color="#208e99" stop-opacity="0"/></radialGradient><radialGradient id="purple"><stop stop-color="#d49aff" stop-opacity=".65"/><stop offset=".25" stop-color="#8d4cd0" stop-opacity=".35"/><stop offset="1" stop-color="#4d2179" stop-opacity="0"/></radialGradient><radialGradient id="shade"><stop stop-color="#000" stop-opacity="0"/><stop offset=".68" stop-color="#000" stop-opacity=".08"/><stop offset="1" stop-color="#000" stop-opacity=".72"/></radialGradient>
<pattern id="bricksD" width="96" height="56" patternUnits="userSpaceOnUse"><rect width="96" height="56" fill="#172135"/><path d="M0 1h96M0 55h96M1 0v56M95 0v56M48 0v12M48 44v12" stroke="#45536b" stroke-opacity=".42"/><path d="M9 12h22M62 38h24M31 20l10 8-7 12" stroke="#78849a" stroke-opacity=".16" fill="none"/></pattern><pattern id="bricksC" width="92" height="54" patternUnits="userSpaceOnUse"><rect width="92" height="54" fill="#10242a"/><path d="M0 1h92M0 53h92M1 0v54M91 0v54M46 0v10M46 44v10" stroke="#3f6870" stroke-opacity=".34"/><path d="M12 14l18 5M59 35l21-7" stroke="#6f9698" stroke-opacity=".14"/></pattern><pattern id="bricksK" width="98" height="58" patternUnits="userSpaceOnUse"><rect width="98" height="58" fill="#201c22"/><path d="M0 1h98M0 57h98M1 0v58M97 0v58M49 0v12M49 46v12" stroke="#71636b" stroke-opacity=".33"/><path d="M12 43l17-16 12 9 10-23M65 11l20 13" stroke="#b08c70" stroke-opacity=".15" fill="none"/></pattern><pattern id="bricksT" width="90" height="58" patternUnits="userSpaceOnUse"><rect width="90" height="58" fill="#1a1228"/><path d="M0 1h90M0 57h90M1 0v58M89 0v58M45 0v11M45 47v11" stroke="#664283" stroke-opacity=".32"/><path d="M10 12l14 16-7 12M57 10l18 22-11 11" stroke="#9b68c0" stroke-opacity=".16" fill="none"/></pattern>
<g id="torch"><circle cy="0" r="72" fill="url(#fire)"/><path d="M-9 8C-20-9-8-30 1-43 7-26 17-16 10 1 20-8 26-23 20-36 37-15 31 10 9 21Z" fill="#ff9130"/><path d="M-3 7c-7-9-1-20 4-29 4 10 9 17 3 28Z" fill="#fff0a3"/><rect x="-14" y="19" width="28" height="8" rx="3" fill="#6d5540"/><rect x="-4" y="27" width="8" height="33" fill="#3c2d27"/></g><g id="crystal"><circle r="60" fill="url(#purple)"/><path d="M0-48 22-17 13 24 0 45-16 24-22-17Z" fill="#8440ce" stroke="#d2a2ff" stroke-width="3"/><path d="M0-48v93M-22-17 0-4l22-13" stroke="#f0d6ff" stroke-opacity=".55" fill="none"/></g><g id="pillar"><path d="M-28 0h56l-6 170h-44Z" fill="#222b3c"/><rect x="-37" y="-12" width="74" height="20" fill="#4d5a6d"/><rect x="-40" y="160" width="80" height="22" fill="#485467"/><path d="M-12 12-16 151M12 12l16 139" stroke="#728096" stroke-opacity=".24" stroke-width="4"/></g></defs>
<!-- DUNGEON --> <g><rect width="648" height="840" fill="url(#d0)"/><rect x="18" y="18" width="612" height="804" rx="14" fill="url(#bricksD)"/><path d="M98 820 198 164h252l100 656Z" fill="url(#stoneD)" opacity=".68"/><path d="M160 820 238 170M488 820 410 170M235 820l43-650M413 820l-43-650" stroke="#71809b" stroke-opacity=".12" stroke-width="3"/><path d="M208 170h232v104H208Z" fill="#080d16"/><path d="M235 274V194c0-62 178-62 178 0v80" fill="#050910" stroke="#5d6981" stroke-width="6"/><path d="M265 274V191M295 274V173M324 274V167M353 274V173M383 274V191" stroke="#3f495c" stroke-width="7"/><use href="#pillar" transform="translate(70 165) scale(.85)"/><use href="#pillar" transform="translate(578 165) scale(.85)"/><use href="#pillar" transform="translate(70 580) scale(.85)"/><use href="#pillar" transform="translate(578 580) scale(.85)"/><use href="#torch" transform="translate(86 250) scale(.72)"/><use href="#torch" transform="translate(562 250) scale(.72)"/><use href="#torch" transform="translate(86 666) scale(.72)"/><use href="#torch" transform="translate(562 666) scale(.72)"/><use href="#crystal" transform="translate(324 185) scale(.72)"/><ellipse cx="324" cy="496" rx="210" ry="260" fill="none" stroke="#8b61b3" stroke-opacity=".2" stroke-width="4"/><ellipse cx="324" cy="496" rx="137" ry="176" fill="none" stroke="#bc82e6" stroke-opacity=".1" stroke-width="3"/><path d="M324 392l23 58 62 4-48 39 16 60-53-31-53 31 16-60-48-39 62-4Z" fill="#6d4b89" opacity=".08"/><rect width="648" height="840" fill="url(#shade)"/></g>
<!-- CRYPT --> <g transform="translate(0 840)"><rect width="648" height="840" fill="url(#c0)"/><rect x="18" y="18" width="612" height="804" rx="14" fill="url(#bricksC)"/><path d="M94 820 192 170h264l98 650Z" fill="url(#stoneC)" opacity=".72"/><path d="M154 820 232 170M494 820 416 170M230 820l42-650M418 820l-42-650" stroke="#6daab0" stroke-opacity=".1" stroke-width="3"/><path d="M205 170h238v116H205Z" fill="#050b0e"/><path d="M235 286V200c0-66 178-66 178 0v86" fill="#03070a" stroke="#527a7f" stroke-width="6"/><path d="M266 286V197M296 286V181M324 286V175M352 286V181M382 286V197" stroke="#33575d" stroke-width="7"/><g fill="#18363c" stroke="#5eb6bd" stroke-width="3"><circle cx="78" cy="248" r="18"/><circle cx="570" cy="248" r="18"/><circle cx="78" cy="666" r="18"/><circle cx="570" cy="666" r="18"/></g><g fill="#a8ffff"><circle cx="78" cy="248" r="6"/><circle cx="570" cy="248" r="6"/><circle cx="78" cy="666" r="6"/><circle cx="570" cy="666" r="6"/></g><ellipse cx="78" cy="248" rx="80" ry="80" fill="url(#cyan)" opacity=".45"/><ellipse cx="570" cy="248" rx="80" ry="80" fill="url(#cyan)" opacity=".45"/><ellipse cx="324" cy="494" rx="218" ry="266" fill="none" stroke="#69c1c6" stroke-opacity=".15" stroke-width="4" stroke-dasharray="13 11"/><ellipse cx="324" cy="494" rx="143" ry="177" fill="none" stroke="#a2eef1" stroke-opacity=".08" stroke-width="3"/><path d="M324 397l19 50 54 5-41 34 13 52-45-28-45 28 13-52-41-34 54-5Z" fill="#64b5ba" opacity=".07"/><path d="M120 339q41-44 81 0M448 602q42-44 81 0" fill="none" stroke="#9cb0a6" stroke-opacity=".18" stroke-width="6"/><rect width="648" height="840" fill="url(#shade)"/></g>
<!-- CASTLE --> <g transform="translate(0 1680)"><rect width="648" height="840" fill="url(#k0)"/><rect x="18" y="18" width="612" height="804" rx="14" fill="url(#bricksK)"/><path d="M92 820 190 164h268l98 656Z" fill="url(#stoneK)" opacity=".73"/><path d="M151 820 231 164M497 820 417 164M226 820l45-656M422 820l-45-656" stroke="#b1947a" stroke-opacity=".1" stroke-width="3"/><path d="M204 160h240v118H204Z" fill="#09080b"/><path d="M232 278V193c0-68 184-68 184 0v85" fill="#050507" stroke="#75686f" stroke-width="6"/><path d="M263 278V190M294 278V174M324 278V168M354 278V174M385 278V190" stroke="#494047" stroke-width="7"/><path d="M110 126h54v153l-27 26-27-26Z" fill="#4d1828" stroke="#b27f45" stroke-width="5"/><path d="M484 126h54v153l-27 26-27-26Z" fill="#4d1828" stroke="#b27f45" stroke-width="5"/><path d="M137 160 151 188 137 217 123 188Z" fill="#c59148"/><path d="M511 160 525 188 511 217 497 188Z" fill="#c59148"/><use href="#torch" transform="translate(78 256) scale(.68)"/><use href="#torch" transform="translate(570 256) scale(.68)"/><use href="#torch" transform="translate(78 674) scale(.68)"/><use href="#torch" transform="translate(570 674) scale(.68)"/><path d="M150 344l31 27-18 47 24 35-26 71M491 322l-32 42 23 39-30 57 17 54M210 678l30-45 37 17 28-64M445 692l-30-51-39 22-21-61" fill="none" stroke="#c09a78" stroke-opacity=".2" stroke-width="4"/><ellipse cx="324" cy="498" rx="222" ry="267" fill="none" stroke="#b79776" stroke-opacity=".12" stroke-width="4"/><ellipse cx="324" cy="498" rx="144" ry="177" fill="none" stroke="#d6b08b" stroke-opacity=".07" stroke-width="3"/><rect width="648" height="840" fill="url(#shade)"/></g>
<!-- DEEP TOWER --> <g transform="translate(0 2520)"><rect width="648" height="840" fill="url(#t0)"/><rect x="18" y="18" width="612" height="804" rx="14" fill="url(#bricksT)"/><path d="M90 820 188 160h272l98 660Z" fill="url(#stoneT)" opacity=".76"/><path d="M150 820 230 160M498 820 418 160M225 820l45-660M423 820l-45-660" stroke="#a16fd0" stroke-opacity=".12" stroke-width="3"/><path d="M201 158h246v122H201Z" fill="#08050d"/><path d="M230 280V188c0-70 188-70 188 0v92" fill="#030207" stroke="#76509b" stroke-width="6"/><path d="M262 280V187M293 280V170M324 280V163M355 280V170M386 280V187" stroke="#49305f" stroke-width="7"/><use href="#crystal" transform="translate(324 179) scale(.9)"/><use href="#crystal" transform="translate(78 276) scale(.55)"/><use href="#crystal" transform="translate(570 276) scale(.55)"/><use href="#crystal" transform="translate(78 678) scale(.55)"/><use href="#crystal" transform="translate(570 678) scale(.55)"/><ellipse cx="324" cy="500" rx="228" ry="272" fill="none" stroke="#9e62d0" stroke-opacity=".2" stroke-width="4"/><ellipse cx="324" cy="500" rx="151" ry="185" fill="none" stroke="#c58cf1" stroke-opacity=".1" stroke-width="3"/><path d="M324 385 351 455 426 460 367 507 386 580 324 540 262 580 281 507 222 460 297 455Z" fill="#7a42a5" opacity=".1"/><rect width="648" height="840" fill="url(#shade)"/></g></svg>