<svg xmlns="http://www.w3.org/2000/svg" width="320" height="480" viewBox="0 0 320 480">
<defs>
 <linearGradient id="skin" x1="0" y1="0" x2="1" y2="1"><stop stop-color="#8ca47b"/><stop offset=".4" stop-color="#5f795d"/><stop offset="1" stop-color="#2d4135"/></linearGradient>
 <linearGradient id="rag" x1="0" y1="0" x2="1" y2="1"><stop stop-color="#4e5b50"/><stop offset=".5" stop-color="#303b36"/><stop offset="1" stop-color="#171f1b"/></linearGradient>
 <radialGradient id="eye"><stop stop-color="#f2ffbb"/><stop offset=".35" stop-color="#bdea61"/><stop offset="1" stop-color="#486c1f"/></radialGradient>
</defs>
<ellipse cx="160" cy="423" rx="90" ry="22" fill="#02050a" opacity=".7"/>
<path d="M113 153 126 95l27 26 22-31 34 58-12 66-40 26-42-25Z" fill="url(#skin)" stroke="#24372c" stroke-width="10"/>
<path d="M122 136 105 108 134 119M197 136l20-28-32 12" fill="#4c6751"/>
<path d="M127 157q20-22 37-4 18-20 35 2l-8 52-31 25-34-23Z" fill="#6c886a" opacity=".8"/>
<ellipse cx="143" cy="168" rx="10" ry="9" fill="url(#eye)"/><ellipse cx="181" cy="166" rx="10" ry="9" fill="url(#eye)"/>
<path d="M142 204 155 196 164 210 181 198" fill="none" stroke="#24352a" stroke-width="6" stroke-linecap="round"/>
<path d="M125 229 91 258 102 371 141 413 204 399 230 340 218 259 189 228 162 244Z" fill="url(#rag)" stroke="#243029" stroke-width="9"/>
<path d="M113 249 139 266 158 247 183 267 209 246" fill="none" stroke="#708173" stroke-width="5" opacity=".5"/>
<path d="M105 278 64 316 43 352 66 369 123 333" fill="url(#skin)" stroke="#2c4234" stroke-width="9"/>
<path d="M217 282 257 317 282 350 261 370 202 334" fill="url(#skin)" stroke="#2c4234" stroke-width="9"/>
<path d="M73 356 56 365 50 385M80 363 66 379M257 360l17 7 8 20M248 367l13 18" stroke="#b7c99b" stroke-width="5" stroke-linecap="round"/>
<path d="M129 384 116 438h39l14-48M190 385l15 53h42l-25-60" fill="#33483b" stroke="#213329" stroke-width="10"/>
<path d="M109 311 148 326 191 312" stroke="#6f806f" stroke-width="5" opacity=".45"/>
<path d="M151 286 163 302 177 286 167 330h-12Z" fill="#76985e" opacity=".55"/>
</svg>