<svg xmlns="http://www.w3.org/2000/svg" width="128" height="128" viewBox="0 0 128 128"><defs><linearGradient id="g" x1="0" y1="0" x2="1" y2="1"><stop stop-color="#b7cd77"/><stop offset="1" stop-color="#53663d"/></linearGradient></defs><ellipse cx="64" cy="112" rx="30" ry="7" fill="#050814" opacity=".45"/><path d="M39 105 43 62c2-22 15-34 27-34 17 0 28 17 27 35l-7 42-22 8Z" fill="url(#g)" stroke="#20281c" stroke-width="5"/><path d="m47 66-23 24m65-24 20 24" stroke="#83995b" stroke-width="10" stroke-linecap="round"/><path d="M50 38c7-13 25-15 33 1l-5 19-23 1Z" fill="#9bae67" stroke="#20281c" stroke-width="4"/><circle cx="58" cy="45" r="4" fill="#f45d63"/><circle cx="72" cy="45" r="4" fill="#f45d63"/><path d="M57 54c5 5 11 5 16 0" fill="none" stroke="#3a432f" stroke-width="4"/><path d="m31 91-9 13m85-13 9 13" stroke="#d9d3c7" stroke-width="4" stroke-linecap="round"/></svg>