<svg xmlns="http://www.w3.org/2000/svg" width="512" height="512" viewBox="0 0 512 512">
<defs>
 <radialGradient id="cyan"><stop stop-color="#e9ffff" stop-opacity="1"/><stop offset=".18" stop-color="#6ee9ff" stop-opacity=".9"/><stop offset=".48" stop-color="#2388d4" stop-opacity=".48"/><stop offset="1" stop-color="#11436f" stop-opacity="0"/></radialGradient>
 <radialGradient id="violet"><stop stop-color="#f5e7ff" stop-opacity="1"/><stop offset=".18" stop-color="#b981ff" stop-opacity=".9"/><stop offset=".5" stop-color="#6e31c7" stop-opacity=".45"/><stop offset="1" stop-color="#311258" stop-opacity="0"/></radialGradient>
 <radialGradient id="gold"><stop stop-color="#fff5c5"/><stop offset=".2" stop-color="#ffd46c"/><stop offset=".52" stop-color="#d4811e" stop-opacity=".55"/><stop offset="1" stop-color="#6b3a10" stop-opacity="0"/></radialGradient>
 <radialGradient id="red"><stop stop-color="#fff0ea"/><stop offset=".2" stop-color="#ff756d"/><stop offset=".52" stop-color="#bc253f" stop-opacity=".55"/><stop offset="1" stop-color="#56132b" stop-opacity="0"/></radialGradient>
 <radialGradient id="green"><stop stop-color="#efffd9"/><stop offset=".2" stop-color="#7bf0a0"/><stop offset=".52" stop-color="#218f64" stop-opacity=".55"/><stop offset="1" stop-color="#0b4736" stop-opacity="0"/></radialGradient>
 <linearGradient id="blade" x1="0" y1="0" x2="1" y2="1"><stop stop-color="#fff"/><stop offset=".3" stop-color="#a6efff"/><stop offset=".7" stop-color="#6d4dff"/><stop offset="1" stop-color="#30156d"/></linearGradient>
</defs>
<!-- 0 spark --> <g><circle cx="64" cy="64" r="58" fill="url(#cyan)"/><path d="M64 6 74 48 116 64 74 77 64 122 52 77 12 64 52 49Z" fill="#efffff"/><path d="m22 22 31 31M106 22 75 53M22 106l31-31M106 106 75 75" stroke="#66ddff" stroke-width="4" stroke-linecap="round"/></g>
<!-- 1 impact --> <g transform="translate(128)"><circle cx="64" cy="64" r="58" fill="url(#gold)"/><path d="M64 16 76 48 111 34 89 64 117 84 79 79 68 116 56 81 20 96 41 65 13 45 50 50Z" fill="#fff2b1"/><circle cx="64" cy="64" r="15" fill="#ffffff"/></g>
<!-- 2 nova --> <g transform="translate(256)"><circle cx="64" cy="64" r="61" fill="url(#violet)"/><circle cx="64" cy="64" r="43" fill="none" stroke="#63ecff" stroke-width="5"/><circle cx="64" cy="64" r="31" fill="none" stroke="#a46dff" stroke-width="3" stroke-dasharray="7 6"/><path d="M69 19 41 62h20l-12 47 39-57H68Z" fill="#f7fbff" stroke="#69dfff" stroke-width="3"/></g>
<!-- 3 crit slash --> <g transform="translate(384)"><circle cx="64" cy="64" r="58" fill="url(#red)"/><path d="M14 100 101 18 111 28 28 113Z" fill="url(#blade)"/><path d="M28 28 48 48M82 82l20 20" stroke="#ffefe7" stroke-width="6"/><path d="M20 83c25-11 54-36 72-60" fill="none" stroke="#ff6b78" stroke-width="5"/></g>
<!-- 4 fire --> <g transform="translate(0 128)"><circle cx="64" cy="68" r="54" fill="url(#gold)"/><path d="M65 112C31 102 24 72 43 49c7-9 10-20 11-33 16 13 26 26 22 43 11-7 17-18 17-31 21 25 19 65-10 82-6 4-12 5-18 2Z" fill="#ff8c2b"/><path d="M64 103c-18-8-19-25-8-38 6-7 8-13 8-22 13 12 20 23 9 37 9-3 13-9 16-16 5 18-4 34-25 39Z" fill="#fff0a7"/></g>
<!-- 5 arcane orb --> <g transform="translate(128 128)"><circle cx="64" cy="64" r="58" fill="url(#cyan)"/><circle cx="64" cy="64" r="30" fill="#60ddff" fill-opacity=".5" stroke="#e5ffff" stroke-width="3"/><path d="M64 17v94M17 64h94M31 31l66 66M97 31 31 97" stroke="#b9f7ff" stroke-opacity=".55" stroke-width="2"/><circle cx="64" cy="64" r="11" fill="#ffffff"/></g>
<!-- 6 poison --> <g transform="translate(256 128)"><circle cx="64" cy="64" r="58" fill="url(#green)"/><path d="M38 92c-15-12-11-32 4-39-4-17 12-31 28-21 11-13 31-3 28 14 18 5 22 29 5 38 3 18-19 30-31 17-11 12-25 7-34-9Z" fill="#47c878" fill-opacity=".68"/><circle cx="48" cy="61" r="7" fill="#c6ffad"/><circle cx="77" cy="48" r="9" fill="#d9ffc1"/><circle cx="82" cy="78" r="5" fill="#a7ff98"/></g>
<!-- 7 coin --> <g transform="translate(384 128)"><circle cx="64" cy="64" r="58" fill="url(#gold)"/><circle cx="64" cy="64" r="34" fill="#d79528" stroke="#ffe28b" stroke-width="5"/><circle cx="64" cy="64" r="25" fill="#8f5817" stroke="#f5bd49" stroke-width="3"/><path d="M64 39 72 55 91 58 77 71 81 90 64 81 47 90 51 71 37 58 56 55Z" fill="#ffe995"/></g>
<!-- 8 heal --> <g transform="translate(0 256)"><circle cx="64" cy="64" r="58" fill="url(#green)"/><circle cx="64" cy="64" r="37" fill="#166542" stroke="#78f1a0" stroke-width="4"/><path d="M55 33h18v22h22v18H73v22H55V73H33V55h22Z" fill="#eaffde"/></g>
<!-- 9 elite halo --> <g transform="translate(128 256)"><circle cx="64" cy="64" r="59" fill="url(#gold)"/><circle cx="64" cy="64" r="43" fill="none" stroke="#ffcf5d" stroke-width="5"/><circle cx="64" cy="64" r="32" fill="none" stroke="#9a5cff" stroke-width="3" stroke-dasharray="6 8"/><path d="M64 23 72 53 103 64 72 74 64 105 54 74 24 64 54 53Z" fill="#fff0a3" fill-opacity=".7"/></g>
<!-- 10 loot --> <g transform="translate(256 256)"><circle cx="64" cy="64" r="58" fill="url(#violet)"/><path d="M64 17 90 47 78 98 64 114 48 98 37 47Z" fill="#9a5cff" stroke="#ead8ff" stroke-width="4"/><path d="M64 20v91M39 48l25 18 25-18" stroke="#f8ebff" stroke-opacity=".65" stroke-width="3"/></g>
<!-- 11 death wisp --> <g transform="translate(384 256)"><circle cx="64" cy="64" r="58" fill="url(#violet)"/><path d="M40 99c20-7 14-23 5-31-10-10-5-28 10-35 7-4 11-12 9-22 21 16 30 34 18 50-6 8-3 18 4 24 11 10 3 27-16 30-10 2-21-3-30-16Z" fill="#c392ff" fill-opacity=".65"/><circle cx="57" cy="54" r="5" fill="#fff"/><circle cx="75" cy="54" r="5" fill="#fff"/></g>
<!-- 12 boss sigil --> <g transform="translate(0 384)"><circle cx="64" cy="64" r="59" fill="url(#red)"/><circle cx="64" cy="64" r="43" fill="#180d19" stroke="#c54361" stroke-width="4"/><path d="M29 82 42 38l22 13 22-13 13 44-35 26Z" fill="#6c2445" stroke="#e26a85" stroke-width="3"/><path d="M45 64 57 54 64 66 72 54 84 64 76 85H53Z" fill="#de9a4d"/></g>
<!-- 13 shield --> <g transform="translate(128 384)"><circle cx="64" cy="64" r="58" fill="url(#cyan)"/><path d="M64 17 99 31 94 73c-4 24-18 37-30 43-12-6-26-19-30-43l-5-42Z" fill="#315174" stroke="#a9e5ff" stroke-width="4"/><path d="M64 30v70M42 53h44" stroke="#dff8ff" stroke-opacity=".65" stroke-width="3"/></g>
<!-- 14 speed --> <g transform="translate(256 384)"><circle cx="64" cy="64" r="58" fill="url(#cyan)"/><path d="M17 71h51L53 94l58-37H61l15-23Z" fill="#d7fbff" stroke="#62deff" stroke-width="3"/><path d="M23 47h28M11 58h38M20 84h27" stroke="#7ce7ff" stroke-width="4" stroke-linecap="round"/></g>
<!-- 15 dust --> <g transform="translate(384 384)"><circle cx="40" cy="74" r="15" fill="#c5b69b" fill-opacity=".25"/><circle cx="66" cy="58" r="22" fill="#d7cab0" fill-opacity=".2"/><circle cx="89" cy="78" r="18" fill="#baa88e" fill-opacity=".23"/><circle cx="54" cy="89" r="20" fill="#d6c7aa" fill-opacity=".12"/><circle cx="86" cy="48" r="9" fill="#f1e5cc" fill-opacity=".16"/></g>
</svg>