# ONE MORE FLOOR v1.69 — Bat authored thorax and wing-root kit
o BatThorax
v 0.0000 1.0600 -0.1450
v 0.1500 0.8600 -0.1450
v 0.0000 0.6600 -0.1450
v -0.1500 0.8600 -0.1450
v 0.0000 1.0600 -0.0350
v 0.1500 0.8600 -0.0350
v 0.0000 0.6600 -0.0350
v -0.1500 0.8600 -0.0350
f 1 2 3 4
f 5 8 7 6
f 1 5 6 2
f 2 6 7 3
f 3 7 8 4
f 4 8 5 1
o BatWingRootL
v -0.1300 1.0300 -0.0800
v -0.4800 1.1500 -0.0800
v -0.2400 0.9000 -0.0800
v -0.1300 1.0300 0.0600
v -0.4800 1.1500 0.0600
v -0.2400 0.9000 0.0600
f 9 10 11
f 12 14 13
f 9 12 13 10
f 10 13 14 11
f 11 14 12 9
o BatWingRootR
v 0.1300 1.0300 -0.0800
v 0.4800 1.1500 -0.0800
v 0.2400 0.9000 -0.0800
v 0.1300 1.0300 0.0600
v 0.4800 1.1500 0.0600
v 0.2400 0.9000 0.0600
f 15 16 17
f 18 20 19
f 15 18 19 16
f 16 19 20 17
f 17 20 18 15
