# ONE MORE FLOOR v1.69 — Ghoul authored exposed-bone silhouette kit
o GhoulSternum
v 0.0000 1.0700 -0.2825
v 0.1100 0.8800 -0.2825
v 0.0000 0.6900 -0.2825
v -0.1100 0.8800 -0.2825
v 0.0000 1.0700 -0.2275
v 0.1100 0.8800 -0.2275
v 0.0000 0.6900 -0.2275
v -0.1100 0.8800 -0.2275
f 1 2 3 4
f 5 8 7 6
f 1 5 6 2
f 2 6 7 3
f 3 7 8 4
f 4 8 5 1
o GhoulShoulderL
v -0.1200 1.0000 -0.1300
v -0.4300 1.1000 -0.1300
v -0.2800 0.8800 -0.1300
v -0.1200 1.0000 0.0800
v -0.4300 1.1000 0.0800
v -0.2800 0.8800 0.0800
f 9 10 11
f 12 14 13
f 9 12 13 10
f 10 13 14 11
f 11 14 12 9
o GhoulShoulderR
v 0.1200 0.9800 -0.1200
v 0.4000 1.0400 -0.1200
v 0.2900 0.8600 -0.1200
v 0.1200 0.9800 0.0700
v 0.4000 1.0400 0.0700
v 0.2900 0.8600 0.0700
f 15 16 17
f 18 20 19
f 15 18 19 16
f 16 19 20 17
f 17 20 18 15
o GhoulPelvis
v -0.1748 0.4450 -0.1112
v 0.1748 0.4450 -0.1112
v 0.1748 0.4450 0.0912
v -0.1748 0.4450 0.0912
v -0.1330 0.5950 -0.0870
v 0.1330 0.5950 -0.0870
v 0.1330 0.5950 0.0670
v -0.1330 0.5950 0.0670
f 21 22 23 24
f 25 28 27 26
f 21 25 26 22
f 22 26 27 23
f 23 27 28 24
f 25 21 24 28
