# ONE MORE FLOOR v1.69 — Goblin authored secondary armour kit
o GoblinShoulder
v -0.4430 0.8300 -0.1670
v -0.1370 0.8300 -0.1670
v -0.1370 0.8300 0.0670
v -0.4430 0.8300 0.0670
v -0.3954 0.9900 -0.1306
v -0.1846 0.9900 -0.1306
v -0.1846 0.9900 0.0306
v -0.3954 0.9900 0.0306
f 1 2 3 4
f 5 8 7 6
f 1 5 6 2
f 2 6 7 3
f 3 7 8 4
f 5 1 4 8
o GoblinHarness
v 0.0200 0.8600 -0.2625
v 0.1500 0.7100 -0.2625
v 0.0200 0.5600 -0.2625
v -0.1100 0.7100 -0.2625
v 0.0200 0.8600 -0.2075
v 0.1500 0.7100 -0.2075
v 0.0200 0.5600 -0.2075
v -0.1100 0.7100 -0.2075
f 9 10 11 12
f 13 16 15 14
f 9 13 14 10
f 10 14 15 11
f 11 15 16 12
f 12 16 13 9
o GoblinBelt
v -0.1364 0.5100 -0.1174
v 0.1764 0.5100 -0.1174
v 0.1764 0.5100 0.0574
v -0.1364 0.5100 0.0574
v -0.1296 0.5900 -0.1136
v 0.1696 0.5900 -0.1136
v 0.1696 0.5900 0.0536
v -0.1296 0.5900 0.0536
f 17 18 19 20
f 21 24 23 22
f 17 21 22 18
f 18 22 23 19
f 19 23 24 20
f 21 17 20 24
