# ONE MORE FLOOR v1.69 — Necromancer authored mantle and ritual collar kit
o NecroMantleL
v -0.0300 1.2200 -0.1500
v -0.3900 1.3000 -0.1500
v -0.2200 1.0800 -0.1500
v -0.0300 1.2200 0.0600
v -0.3900 1.3000 0.0600
v -0.2200 1.0800 0.0600
f 1 2 3
f 4 6 5
f 1 4 5 2
f 2 5 6 3
f 3 6 4 1
o NecroMantleR
v 0.0300 1.2200 -0.1500
v 0.3900 1.3000 -0.1500
v 0.2200 1.0800 -0.1500
v 0.0300 1.2200 0.0600
v 0.3900 1.3000 0.0600
v 0.2200 1.0800 0.0600
f 7 8 9
f 10 12 11
f 7 10 11 8
f 8 11 12 9
f 9 12 10 7
o NecroCollar
v 0.0000 1.2900 -0.2625
v 0.1500 1.1800 -0.2625
v 0.0000 1.0700 -0.2625
v -0.1500 1.1800 -0.2625
v 0.0000 1.2900 -0.2075
v 0.1500 1.1800 -0.2075
v 0.0000 1.0700 -0.2075
v -0.1500 1.1800 -0.2075
f 13 14 15 16
f 17 20 19 18
f 13 17 18 14
f 14 18 19 15
f 15 19 20 16
f 16 20 17 13
o NecroWaist
v -0.1900 0.7100 -0.1150
v 0.1900 0.7100 -0.1150
v 0.1900 0.7100 0.0750
v -0.1900 0.7100 0.0750
v -0.1400 0.8100 -0.0900
v 0.1400 0.8100 -0.0900
v 0.1400 0.8100 0.0500
v -0.1400 0.8100 0.0500
f 21 22 23 24
f 25 28 27 26
f 21 25 26 22
f 22 26 27 23
f 23 27 28 24
f 25 21 24 28
o NecroCrest
v 0.0000 1.5300 -0.1200
v -0.1200 1.3500 -0.1200
v 0.1200 1.3500 -0.1200
v 0.0000 1.5300 0.0200
v -0.1200 1.3500 0.0200
v 0.1200 1.3500 0.0200
f 29 30 31
f 32 34 33
f 29 32 33 30
f 30 33 34 31
f 31 34 32 29
