# ONE MORE FLOOR v1.69 — Warden authored boss armour silhouette kit
o WardenBreastplate
v 0.0000 1.4600 -0.2925
v 0.2700 1.2000 -0.2925
v 0.0000 0.9400 -0.2925
v -0.2700 1.2000 -0.2925
v 0.0000 1.4600 -0.2175
v 0.2700 1.2000 -0.2175
v 0.0000 0.9400 -0.2175
v -0.2700 1.2000 -0.2175
f 1 2 3 4
f 5 8 7 6
f 1 5 6 2
f 2 6 7 3
f 3 7 8 4
f 4 8 5 1
o WardenPauldronL
v -0.1000 1.3700 -0.1500
v -0.5800 1.4300 -0.1500
v -0.3300 1.1700 -0.1500
v -0.1000 1.3700 0.1000
v -0.5800 1.4300 0.1000
v -0.3300 1.1700 0.1000
f 9 10 11
f 12 14 13
f 9 12 13 10
f 10 13 14 11
f 11 14 12 9
o WardenPauldronR
v 0.1000 1.3700 -0.1500
v 0.5800 1.4300 -0.1500
v 0.3300 1.1700 -0.1500
v 0.1000 1.3700 0.1000
v 0.5800 1.4300 0.1000
v 0.3300 1.1700 0.1000
f 15 16 17
f 18 20 19
f 15 18 19 16
f 16 19 20 17
f 17 20 18 15
o WardenFauld
v -0.2304 0.7100 -0.1452
v 0.2304 0.7100 -0.1452
v 0.2304 0.7100 0.0852
v -0.2304 0.7100 0.0852
v -0.1728 0.8900 -0.1164
v 0.1728 0.8900 -0.1164
v 0.1728 0.8900 0.0564
v -0.1728 0.8900 0.0564
f 21 22 23 24
f 25 28 27 26
f 21 25 26 22
f 22 26 27 23
f 23 27 28 24
f 25 21 24 28
o WardenChestBoss
v 0.0000 1.3000 -0.3325
v 0.0950 1.2000 -0.3325
v 0.0000 1.1000 -0.3325
v -0.0950 1.2000 -0.3325
v 0.0000 1.3000 -0.2875
v 0.0950 1.2000 -0.2875
v 0.0000 1.1000 -0.2875
v -0.0950 1.2000 -0.2875
f 29 30 31 32
f 33 36 35 34
f 29 33 34 30
f 30 34 35 31
f 31 35 36 32
f 32 36 33 29
o WardenHelmCrest
v 0.0000 1.9600 -0.0900
v -0.1400 1.7200 -0.0900
v 0.1400 1.7200 -0.0900
v 0.0000 1.9600 0.0900
v -0.1400 1.7200 0.0900
v 0.1400 1.7200 0.0900
f 37 38 39
f 40 42 41
f 37 40 41 38
f 38 41 42 39
f 39 42 40 37
