# ONE MORE FLOOR v1.70 — Iron Bastion authored boss-stage framing
o IronBossDaisRear
v -2.8500 0.0000 -4.9000
v 2.8500 0.0000 -4.9000
v 2.8500 0.0000 -2.8000
v -2.8500 0.0000 -2.8000
v -2.6790 0.2000 -4.8370
v 2.6790 0.2000 -4.8370
v 2.6790 0.2000 -2.8630
v -2.6790 0.2000 -2.8630
f 1 2 3 4
f 5 8 7 6
f 1 5 6 2
f 2 6 7 3
f 3 7 8 4
f 4 8 5 1
o IronBossDaisMid
v -2.4750 0.0000 -2.9100
v 2.4750 0.0000 -2.9100
v 2.4750 0.0000 -2.3900
v -2.4750 0.0000 -2.3900
v -2.3760 0.1400 -2.8996
v 2.3760 0.1400 -2.8996
v 2.3760 0.1400 -2.4004
v -2.3760 0.1400 -2.4004
f 9 10 11 12
f 13 16 15 14
f 9 13 14 10
f 10 14 15 11
f 11 15 16 12
f 12 16 13 9
o IronBossDaisFront
v -2.0750 0.0000 -2.3900
v 2.0750 0.0000 -2.3900
v 2.0750 0.0000 -2.0100
v -2.0750 0.0000 -2.0100
v -2.0335 0.0900 -2.3862
v 2.0335 0.0900 -2.3862
v 2.0335 0.0900 -2.0138
v -2.0335 0.0900 -2.0138
f 17 18 19 20
f 21 24 23 22
f 17 21 22 18
f 18 22 23 19
f 19 23 24 20
f 20 24 21 17
o IronGuardTowerL
v -3.7900 0.0000 -3.1100
v -3.1100 0.0000 -3.1100
v -3.1100 0.0000 -2.3900
v -3.7900 0.0000 -2.3900
v -3.6948 1.5600 -3.0092
v -3.2052 1.5600 -3.0092
v -3.2052 1.5600 -2.4908
v -3.6948 1.5600 -2.4908
f 25 26 27 28
f 29 32 31 30
f 25 29 30 26
f 26 30 31 27
f 27 31 32 28
f 28 32 29 25
o IronGuardTowerR
v 3.1100 0.0000 -3.1100
v 3.7900 0.0000 -3.1100
v 3.7900 0.0000 -2.3900
v 3.1100 0.0000 -2.3900
v 3.2052 1.5600 -3.0092
v 3.6948 1.5600 -3.0092
v 3.6948 1.5600 -2.4908
v 3.2052 1.5600 -2.4908
f 33 34 35 36
f 37 40 39 38
f 33 37 38 34
f 34 38 39 35
f 35 39 40 36
f 36 40 37 33
o IronGuardBraceL
v -3.5250 0.0000 -2.0000
v -2.5750 0.0000 -2.0000
v -3.5250 1.1000 -2.0000
v -3.5250 0.0000 -1.5000
v -2.5750 0.0000 -1.5000
v -3.5250 1.1000 -1.5000
f 41 42 43
f 44 46 45
f 41 44 45 42
f 42 45 46 43
f 43 46 44 41
o IronGuardBraceR
v 2.5750 0.0000 -2.0000
v 3.5250 0.0000 -2.0000
v 3.5250 1.1000 -2.0000
v 2.5750 0.0000 -1.5000
v 3.5250 0.0000 -1.5000
v 3.5250 1.1000 -1.5000
f 47 48 49
f 50 52 51
f 47 50 51 48
f 48 51 52 49
f 49 52 50 47
o IronForeFrameL
v -4.0250 0.0000 3.6100
v -2.4750 0.0000 3.6100
v -4.0250 0.6000 3.6100
v -4.0250 0.0000 4.0900
v -2.4750 0.0000 4.0900
v -4.0250 0.6000 4.0900
f 53 54 55
f 56 58 57
f 53 56 57 54
f 54 57 58 55
f 55 58 56 53
o IronForeFrameR
v 2.4750 0.0000 3.6100
v 4.0250 0.0000 3.6100
v 4.0250 0.6000 3.6100
v 2.4750 0.0000 4.0900
v 4.0250 0.0000 4.0900
v 4.0250 0.6000 4.0900
f 59 60 61
f 62 64 63
f 59 62 63 60
f 60 63 64 61
f 61 64 62 59
