# ONE MORE FLOOR v1.70 — Lower Halls authored depth framing
o LowerButtressL
v -3.9250 -0.0050 -3.0750
v -3.1750 -0.0050 -3.0750
v -3.9250 1.4450 -3.0750
v -3.9250 -0.0050 -2.3250
v -3.1750 -0.0050 -2.3250
v -3.9250 1.4450 -2.3250
f 1 2 3
f 4 6 5
f 1 4 5 2
f 2 5 6 3
f 3 6 4 1
o LowerButtressR
v 3.1750 -0.0050 -3.0750
v 3.9250 -0.0050 -3.0750
v 3.9250 1.4450 -3.0750
v 3.1750 -0.0050 -2.3250
v 3.9250 -0.0050 -2.3250
v 3.9250 1.4450 -2.3250
f 7 8 9
f 10 12 11
f 7 10 11 8
f 8 11 12 9
f 9 12 10 7
o LowerMidPierL
v -3.9250 0.0000 -0.1100
v -3.3750 0.0000 -0.1100
v -3.3750 0.0000 0.5100
v -3.9250 0.0000 0.5100
v -3.8645 1.1000 -0.0418
v -3.4355 1.1000 -0.0418
v -3.4355 1.1000 0.4418
v -3.8645 1.1000 0.4418
f 13 14 15 16
f 17 20 19 18
f 13 17 18 14
f 14 18 19 15
f 15 19 20 16
f 16 20 17 13
o LowerMidPierR
v 3.3750 0.0000 -0.1100
v 3.9250 0.0000 -0.1100
v 3.9250 0.0000 0.5100
v 3.3750 0.0000 0.5100
v 3.4355 1.1000 -0.0418
v 3.8645 1.1000 -0.0418
v 3.8645 1.1000 0.4418
v 3.4355 1.1000 0.4418
f 21 22 23 24
f 25 28 27 26
f 21 25 26 22
f 22 26 27 23
f 23 27 28 24
f 24 28 25 21
o LowerForeParapetL
v -3.7750 0.0000 3.7400
v -1.9250 0.0000 3.7400
v -3.7750 0.4400 3.7400
v -3.7750 0.0000 4.1600
v -1.9250 0.0000 4.1600
v -3.7750 0.4400 4.1600
f 29 30 31
f 32 34 33
f 29 32 33 30
f 30 33 34 31
f 31 34 32 29
o LowerForeParapetR
v 1.9250 0.0000 3.7400
v 3.7750 0.0000 3.7400
v 3.7750 0.4400 3.7400
v 1.9250 0.0000 4.1600
v 3.7750 0.0000 4.1600
v 3.7750 0.4400 4.1600
f 35 36 37
f 38 40 39
f 35 38 39 36
f 36 39 40 37
f 37 40 38 35
o LowerForeChipL
v -3.9250 0.0000 2.9250
v -3.3750 0.0000 2.9250
v -3.3750 0.0000 3.6750
v -3.9250 0.0000 3.6750
v -3.8480 0.2600 3.0300
v -3.4520 0.2600 3.0300
v -3.4520 0.2600 3.5700
v -3.8480 0.2600 3.5700
f 41 42 43 44
f 45 48 47 46
f 41 45 46 42
f 42 46 47 43
f 43 47 48 44
f 44 48 45 41
o LowerForeChipR
v 3.3500 0.0000 2.8400
v 3.8500 0.0000 2.8400
v 3.8500 0.0000 3.5200
v 3.3500 0.0000 3.5200
v 3.4250 0.2200 2.9420
v 3.7750 0.2200 2.9420
v 3.7750 0.2200 3.4180
v 3.4250 0.2200 3.4180
f 49 50 51 52
f 53 56 55 54
f 49 53 54 50
f 50 54 55 51
f 51 55 56 52
f 52 56 53 49
