# ONE MORE FLOOR v1.70 — Ossuary authored crypt framing
o OssuaryRibPierLA
v -3.7900 0.0000 -2.1600
v -3.3100 0.0000 -2.1600
v -3.3100 0.0000 -1.6400
v -3.7900 0.0000 -1.6400
v -3.7084 1.4400 -2.0716
v -3.3916 1.4400 -2.0716
v -3.3916 1.4400 -1.7284
v -3.7084 1.4400 -1.7284
f 1 2 3 4
f 5 8 7 6
f 1 5 6 2
f 2 6 7 3
f 3 7 8 4
f 4 8 5 1
o OssuaryRibBraceL
v -3.5400 0.0000 -0.9100
v -2.8200 0.0000 -0.9100
v -3.5400 0.9600 -0.9100
v -3.5400 0.0000 -0.4900
v -2.8200 0.0000 -0.4900
v -3.5400 0.9600 -0.4900
f 9 10 11
f 12 14 13
f 9 12 13 10
f 10 13 14 11
f 11 14 12 9
o OssuaryRibPierLB
v -3.8400 0.0000 1.0600
v -3.4000 0.0000 1.0600
v -3.4000 0.0000 1.5400
v -3.8400 0.0000 1.5400
v -3.7740 1.1600 1.1320
v -3.4660 1.1600 1.1320
v -3.4660 1.1600 1.4680
v -3.7740 1.1600 1.4680
f 15 16 17 18
f 19 22 21 20
f 15 19 20 16
f 16 20 21 17
f 17 21 22 18
f 18 22 19 15
o OssuaryForeTombL
v -3.7750 0.0000 3.5000
v -2.1250 0.0000 3.5000
v -3.7750 0.4800 3.5000
v -3.7750 0.0000 4.2000
v -2.1250 0.0000 4.2000
v -3.7750 0.4800 4.2000
f 23 24 25
f 26 28 27
f 23 26 27 24
f 24 27 28 25
f 25 28 26 23
o OssuaryRibPierRA
v 3.3100 0.0000 -2.1600
v 3.7900 0.0000 -2.1600
v 3.7900 0.0000 -1.6400
v 3.3100 0.0000 -1.6400
v 3.3916 1.4400 -2.0716
v 3.7084 1.4400 -2.0716
v 3.7084 1.4400 -1.7284
v 3.3916 1.4400 -1.7284
f 29 30 31 32
f 33 36 35 34
f 29 33 34 30
f 30 34 35 31
f 31 35 36 32
f 32 36 33 29
o OssuaryRibBraceR
v 2.8200 0.0000 -0.9100
v 3.5400 0.0000 -0.9100
v 3.5400 0.9600 -0.9100
v 2.8200 0.0000 -0.4900
v 3.5400 0.0000 -0.4900
v 3.5400 0.9600 -0.4900
f 37 38 39
f 40 42 41
f 37 40 41 38
f 38 41 42 39
f 39 42 40 37
o OssuaryRibPierRB
v 3.4000 0.0000 1.0600
v 3.8400 0.0000 1.0600
v 3.8400 0.0000 1.5400
v 3.4000 0.0000 1.5400
v 3.4660 1.1600 1.1320
v 3.7740 1.1600 1.1320
v 3.7740 1.1600 1.4680
v 3.4660 1.1600 1.4680
f 43 44 45 46
f 47 50 49 48
f 43 47 48 44
f 44 48 49 45
f 45 49 50 46
f 46 50 47 43
o OssuaryForeTombR
v 2.1250 0.0000 3.5000
v 3.7750 0.0000 3.5000
v 3.7750 0.4800 3.5000
v 2.1250 0.0000 4.2000
v 3.7750 0.0000 4.2000
v 3.7750 0.4800 4.2000
f 51 52 53
f 54 56 55
f 51 54 55 52
f 52 55 56 53
f 53 56 54 51
o OssuaryForeFragmentL
v -4.0000 0.0000 2.8250
v -3.4000 0.0000 2.8250
v -3.4000 0.0000 3.3750
v -4.0000 0.0000 3.3750
v -3.8920 0.2400 2.9240
v -3.5080 0.2400 2.9240
v -3.5080 0.2400 3.2760
v -3.8920 0.2400 3.2760
f 57 58 59 60
f 61 64 63 62
f 57 61 62 58
f 58 62 63 59
f 59 63 64 60
f 60 64 61 57
o OssuaryForeFragmentR
v 3.4800 0.0000 2.9300
v 3.9600 0.0000 2.9300
v 3.9600 0.0000 3.5700
v 3.4800 0.0000 3.5700
v 3.5664 0.2000 3.0452
v 3.8736 0.2000 3.0452
v 3.8736 0.2000 3.4548
v 3.5664 0.2000 3.4548
f 65 66 67 68
f 69 72 71 70
f 65 69 70 66
f 66 70 71 67
f 67 71 72 68
f 68 72 69 65
