# ONE MORE FLOOR v1.70 — Rift Descent authored broken-monolith framing
o RiftMonolithLA
v -3.9000 0.0000 -2.1100
v -3.2000 0.0000 -2.1100
v -3.9000 1.7600 -2.1100
v -3.9000 0.0000 -1.4900
v -3.2000 0.0000 -1.4900
v -3.9000 1.7600 -1.4900
f 1 2 3
f 4 6 5
f 1 4 5 2
f 2 5 6 3
f 3 6 4 1
o RiftMonolithLB
v -3.9300 0.0000 0.2600
v -3.3700 0.0000 0.2600
v -3.3700 0.0000 0.8400
v -3.9300 0.0000 0.8400
v -3.8124 1.3000 0.3818
v -3.4876 1.3000 0.3818
v -3.4876 1.3000 0.7182
v -3.8124 1.3000 0.7182
f 7 8 9 10
f 11 14 13 12
f 7 11 12 8
f 8 12 13 9
f 9 13 14 10
f 10 14 11 7
o RiftBrokenRailL
v -3.8250 0.0000 2.3400
v -2.2750 0.0000 2.3400
v -3.8250 0.4800 2.3400
v -3.8250 0.0000 2.7600
v -2.2750 0.0000 2.7600
v -3.8250 0.4800 2.7600
f 15 16 17
f 18 20 19
f 15 18 19 16
f 16 19 20 17
f 17 20 18 15
o RiftForeShardL
v -3.9700 0.0000 3.4100
v -3.2700 0.0000 3.4100
v -3.9700 0.8400 3.4100
v -3.9700 0.0000 4.0900
v -3.2700 0.0000 4.0900
v -3.9700 0.8400 4.0900
f 21 22 23
f 24 26 25
f 21 24 25 22
f 22 25 26 23
f 23 26 24 21
o RiftMonolithRA
v 3.2000 0.0000 -2.1100
v 3.9000 0.0000 -2.1100
v 3.9000 1.7600 -2.1100
v 3.2000 0.0000 -1.4900
v 3.9000 0.0000 -1.4900
v 3.9000 1.7600 -1.4900
f 27 28 29
f 30 32 31
f 27 30 31 28
f 28 31 32 29
f 29 32 30 27
o RiftMonolithRB
v 3.3700 0.0000 0.2600
v 3.9300 0.0000 0.2600
v 3.9300 0.0000 0.8400
v 3.3700 0.0000 0.8400
v 3.4876 1.3000 0.3818
v 3.8124 1.3000 0.3818
v 3.8124 1.3000 0.7182
v 3.4876 1.3000 0.7182
f 33 34 35 36
f 37 40 39 38
f 33 37 38 34
f 34 38 39 35
f 35 39 40 36
f 36 40 37 33
o RiftBrokenRailR
v 2.2750 0.0000 2.3400
v 3.8250 0.0000 2.3400
v 3.8250 0.4800 2.3400
v 2.2750 0.0000 2.7600
v 3.8250 0.0000 2.7600
v 3.8250 0.4800 2.7600
f 41 42 43
f 44 46 45
f 41 44 45 42
f 42 45 46 43
f 43 46 44 41
o RiftForeShardR
v 3.2700 0.0000 3.4100
v 3.9700 0.0000 3.4100
v 3.9700 0.8400 3.4100
v 3.2700 0.0000 4.0900
v 3.9700 0.0000 4.0900
v 3.9700 0.8400 4.0900
f 47 48 49
f 50 52 51
f 47 50 51 48
f 48 51 52 49
f 49 52 50 47
