# ONE MORE FLOOR v1.70 — Starless Spire authored void-causeway framing
o SpireSentinelLA
v -3.7300 0.0000 -2.3600
v -3.2300 0.0000 -2.3600
v -3.2300 0.0000 -1.8400
v -3.7300 0.0000 -1.8400
v -3.6250 1.9000 -2.2508
v -3.3350 1.9000 -2.2508
v -3.3350 1.9000 -1.9492
v -3.6250 1.9000 -1.9492
f 1 2 3 4
f 5 8 7 6
f 1 5 6 2
f 2 6 7 3
f 3 7 8 4
f 4 8 5 1
o SpireSentinelCrownL
v -3.8700 1.6900 -2.4300
v -3.0900 1.6900 -2.4300
v -3.8700 2.1500 -2.4300
v -3.8700 1.6900 -1.7700
v -3.0900 1.6900 -1.7700
v -3.8700 2.1500 -1.7700
f 9 10 11
f 12 14 13
f 9 12 13 10
f 10 13 14 11
f 11 14 12 9
o SpireEdgePierL
v -3.8100 0.0000 0.3100
v -3.3900 0.0000 0.3100
v -3.3900 0.0000 0.7900
v -3.8100 0.0000 0.7900
v -3.7302 1.2400 0.4012
v -3.4698 1.2400 0.4012
v -3.4698 1.2400 0.6988
v -3.7302 1.2400 0.6988
f 15 16 17 18
f 19 22 21 20
f 15 19 20 16
f 16 20 21 17
f 17 21 22 18
f 18 22 19 15
o SpireBrokenCausewayL
v -3.8250 0.0000 3.3600
v -2.0750 0.0000 3.3600
v -3.8250 0.4000 3.3600
v -3.8250 0.0000 3.7400
v -2.0750 0.0000 3.7400
v -3.8250 0.4000 3.7400
f 23 24 25
f 26 28 27
f 23 26 27 24
f 24 27 28 25
f 25 28 26 23
o SpireForePlinthL
v -3.9600 0.0000 3.5900
v -3.3400 0.0000 3.5900
v -3.3400 0.0000 4.3100
v -3.9600 0.0000 4.3100
v -3.8608 0.4400 3.7052
v -3.4392 0.4400 3.7052
v -3.4392 0.4400 4.1948
v -3.8608 0.4400 4.1948
f 29 30 31 32
f 33 36 35 34
f 29 33 34 30
f 30 34 35 31
f 31 35 36 32
f 32 36 33 29
o SpireSentinelRA
v 3.2300 0.0000 -2.3600
v 3.7300 0.0000 -2.3600
v 3.7300 0.0000 -1.8400
v 3.2300 0.0000 -1.8400
v 3.3350 1.9000 -2.2508
v 3.6250 1.9000 -2.2508
v 3.6250 1.9000 -1.9492
v 3.3350 1.9000 -1.9492
f 37 38 39 40
f 41 44 43 42
f 37 41 42 38
f 38 42 43 39
f 39 43 44 40
f 40 44 41 37
o SpireSentinelCrownR
v 3.0900 1.6900 -2.4300
v 3.8700 1.6900 -2.4300
v 3.8700 2.1500 -2.4300
v 3.0900 1.6900 -1.7700
v 3.8700 1.6900 -1.7700
v 3.8700 2.1500 -1.7700
f 45 46 47
f 48 50 49
f 45 48 49 46
f 46 49 50 47
f 47 50 48 45
o SpireEdgePierR
v 3.3900 0.0000 0.3100
v 3.8100 0.0000 0.3100
v 3.8100 0.0000 0.7900
v 3.3900 0.0000 0.7900
v 3.4698 1.2400 0.4012
v 3.7302 1.2400 0.4012
v 3.7302 1.2400 0.6988
v 3.4698 1.2400 0.6988
f 51 52 53 54
f 55 58 57 56
f 51 55 56 52
f 52 56 57 53
f 53 57 58 54
f 54 58 55 51
o SpireBrokenCausewayR
v 2.0750 0.0000 3.3600
v 3.8250 0.0000 3.3600
v 3.8250 0.4000 3.3600
v 2.0750 0.0000 3.7400
v 3.8250 0.0000 3.7400
v 3.8250 0.4000 3.7400
f 59 60 61
f 62 64 63
f 59 62 63 60
f 60 63 64 61
f 61 64 62 59
o SpireForePlinthR
v 3.3400 0.0000 3.5900
v 3.9600 0.0000 3.5900
v 3.9600 0.0000 4.3100
v 3.3400 0.0000 4.3100
v 3.4392 0.4400 3.7052
v 3.8608 0.4400 3.7052
v 3.8608 0.4400 4.1948
v 3.4392 0.4400 4.1948
f 65 66 67 68
f 69 72 71 70
f 65 69 70 66
f 66 70 71 67
f 67 71 72 68
f 68 72 69 65
