o wanderer_boot_v168
v 0.078000 0.170000 -0.010000
v 0.055154 0.170000 0.035962
v 0.000000 0.170000 0.055000
v -0.055154 0.170000 0.035962
v -0.078000 0.170000 -0.010000
v -0.055154 0.170000 -0.055962
v 0.000000 0.170000 -0.075000
v 0.055154 0.170000 -0.055962
v 0.090000 0.020000 -0.025000
v 0.063640 0.020000 0.030154
v 0.000000 0.020000 0.053000
v -0.063640 0.020000 0.030154
v -0.090000 0.020000 -0.025000
v -0.063640 0.020000 -0.080154
v 0.000000 0.020000 -0.103000
v 0.063640 0.020000 -0.080154
v 0.105000 -0.130000 -0.080000
v 0.074246 -0.130000 -0.012825
v 0.000000 -0.130000 0.015000
v -0.074246 -0.130000 -0.012825
v -0.105000 -0.130000 -0.080000
v -0.074246 -0.130000 -0.147175
v 0.000000 -0.130000 -0.175000
v 0.074246 -0.130000 -0.147175
v 0.115000 -0.200000 -0.190000
v 0.081317 -0.200000 -0.083934
v 0.000000 -0.200000 -0.040000
v -0.081317 -0.200000 -0.083934
v -0.115000 -0.200000 -0.190000
v -0.081317 -0.200000 -0.296066
v 0.000000 -0.200000 -0.340000
v 0.081317 -0.200000 -0.296066
f 1 2 10
f 1 10 9
f 2 3 11
f 2 11 10
f 3 4 12
f 3 12 11
f 4 5 13
f 4 13 12
f 5 6 14
f 5 14 13
f 6 7 15
f 6 15 14
f 7 8 16
f 7 16 15
f 8 1 9
f 8 9 16
f 9 10 18
f 9 18 17
f 10 11 19
f 10 19 18
f 11 12 20
f 11 20 19
f 12 13 21
f 12 21 20
f 13 14 22
f 13 22 21
f 14 15 23
f 14 23 22
f 15 16 24
f 15 24 23
f 16 9 17
f 16 17 24
f 17 18 26
f 17 26 25
f 18 19 27
f 18 27 26
f 19 20 28
f 19 28 27
f 20 21 29
f 20 29 28
f 21 22 30
f 21 30 29
f 22 23 31
f 22 31 30
f 23 24 32
f 23 32 31
f 24 17 25
f 24 25 32
f 1 2 3
f 1 3 4
f 1 4 5
f 1 5 6
f 1 6 7
f 1 7 8
f 25 27 26
f 25 28 27
f 25 29 28
f 25 30 29
f 25 31 30
f 25 32 31
