o wanderer_trim_v168
v -0.250000 0.270000 -0.305000
v -0.080000 0.100000 -0.305000
v 0.000000 0.160000 -0.305000
v 0.080000 0.100000 -0.305000
v 0.250000 0.270000 -0.305000
v 0.200000 0.340000 -0.305000
v 0.000000 0.220000 -0.305000
v -0.200000 0.340000 -0.305000
v -0.250000 0.270000 -0.288000
v -0.080000 0.100000 -0.288000
v 0.000000 0.160000 -0.288000
v 0.080000 0.100000 -0.288000
v 0.250000 0.270000 -0.288000
v 0.200000 0.340000 -0.288000
v 0.000000 0.220000 -0.288000
v -0.200000 0.340000 -0.288000
f 1 2 3
f 1 3 4
f 1 4 5
f 1 5 6
f 1 6 7
f 1 7 8
f 9 11 10
f 9 12 11
f 9 13 12
f 9 14 13
f 9 15 14
f 9 16 15
f 1 2 10
f 1 10 9
f 2 3 11
f 2 11 10
f 3 4 12
f 3 12 11
f 4 5 13
f 4 13 12
f 5 6 14
f 5 14 13
f 6 7 15
f 6 15 14
f 7 8 16
f 7 16 15
f 8 1 9
f 8 9 16
