o wanderer_chestplate_v168
v -0.180000 -0.250000 -0.280000
v 0.180000 -0.250000 -0.280000
v 0.270000 -0.080000 -0.280000
v 0.340000 0.160000 -0.280000
v 0.280000 0.380000 -0.280000
v 0.140000 0.490000 -0.280000
v -0.140000 0.490000 -0.280000
v -0.280000 0.380000 -0.280000
v -0.340000 0.160000 -0.280000
v -0.270000 -0.080000 -0.280000
v -0.180000 -0.250000 -0.080000
v 0.180000 -0.250000 -0.080000
v 0.270000 -0.080000 -0.080000
v 0.340000 0.160000 -0.080000
v 0.280000 0.380000 -0.080000
v 0.140000 0.490000 -0.080000
v -0.140000 0.490000 -0.080000
v -0.280000 0.380000 -0.080000
v -0.340000 0.160000 -0.080000
v -0.270000 -0.080000 -0.080000
f 1 2 3
f 1 3 4
f 1 4 5
f 1 5 6
f 1 6 7
f 1 7 8
f 1 8 9
f 1 9 10
f 11 13 12
f 11 14 13
f 11 15 14
f 11 16 15
f 11 17 16
f 11 18 17
f 11 19 18
f 11 20 19
f 1 2 12
f 1 12 11
f 2 3 13
f 2 13 12
f 3 4 14
f 3 14 13
f 4 5 15
f 4 15 14
f 5 6 16
f 5 16 15
f 6 7 17
f 6 17 16
f 7 8 18
f 7 18 17
f 8 9 19
f 8 19 18
f 9 10 20
f 9 20 19
f 10 1 11
f 10 11 20
