o wanderer_tabard_v168
v -0.150000 -0.160000 -0.205000
v 0.150000 -0.160000 -0.205000
v 0.130000 -0.360000 -0.205000
v 0.110000 -0.600000 -0.205000
v 0.000000 -0.760000 -0.205000
v -0.110000 -0.600000 -0.205000
v -0.130000 -0.360000 -0.205000
v -0.150000 -0.160000 -0.155000
v 0.150000 -0.160000 -0.155000
v 0.130000 -0.360000 -0.155000
v 0.110000 -0.600000 -0.155000
v 0.000000 -0.760000 -0.155000
v -0.110000 -0.600000 -0.155000
v -0.130000 -0.360000 -0.155000
f 1 2 3
f 1 3 4
f 1 4 5
f 1 5 6
f 1 6 7
f 8 10 9
f 8 11 10
f 8 12 11
f 8 13 12
f 8 14 13
f 1 2 9
f 1 9 8
f 2 3 10
f 2 10 9
f 3 4 11
f 3 11 10
f 4 5 12
f 4 12 11
f 5 6 13
f 5 13 12
f 6 7 14
f 6 14 13
f 7 1 8
f 7 8 14
