o wanderer_pauldron_v168_r11
v -0.080000 0.125000 -0.020000
v -0.080000 0.090000 0.055000
v -0.080000 0.010000 0.085000
v -0.080000 -0.075000 0.045000
v -0.080000 -0.105000 -0.025000
v -0.080000 -0.070000 -0.095000
v -0.080000 0.015000 -0.120000
v -0.080000 0.095000 -0.090000
v 0.120000 0.145000 -0.020000
v 0.120000 0.102000 0.065000
v 0.120000 0.005000 0.100000
v 0.120000 -0.095000 0.055000
v 0.120000 -0.130000 -0.025000
v 0.120000 -0.088000 -0.110000
v 0.120000 0.010000 -0.140000
v 0.120000 0.108000 -0.105000
v 0.285000 0.090000 -0.030000
v 0.285000 0.064000 0.025000
v 0.285000 0.005000 0.050000
v 0.285000 -0.055000 0.020000
v 0.285000 -0.080000 -0.035000
v 0.285000 -0.052000 -0.090000
v 0.285000 0.008000 -0.110000
v 0.285000 0.067000 -0.085000
f 1 2 10
f 1 10 9
f 2 3 11
f 2 11 10
f 3 4 12
f 3 12 11
f 4 5 13
f 4 13 12
f 5 6 14
f 5 14 13
f 6 7 15
f 6 15 14
f 7 8 16
f 7 16 15
f 8 1 9
f 8 9 16
f 9 10 18
f 9 18 17
f 10 11 19
f 10 19 18
f 11 12 20
f 11 20 19
f 12 13 21
f 12 21 20
f 13 14 22
f 13 22 21
f 14 15 23
f 14 23 22
f 15 16 24
f 15 24 23
f 16 9 17
f 16 17 24
f 1 2 3
f 1 3 4
f 1 4 5
f 1 5 6
f 1 6 7
f 1 7 8
f 17 19 18
f 17 20 19
f 17 21 20
f 17 22 21
f 17 23 22
f 17 24 23
