# https://github.com/mikedh/trimesh
v -0.05500000 0.05000000 0.00000000
v 0.00000000 0.05000000 -0.02500000
v 0.05500000 0.05000000 0.00000000
v 0.00000000 0.05000000 0.02500000
v -0.04500000 -0.78000000 0.00000000
v 0.00000000 -0.78000000 -0.01800000
v 0.04500000 -0.78000000 0.00000000
v 0.00000000 -0.78000000 0.01800000
v 0.00000000 -1.00000000 0.00000000
vn -0.83957423 0.54324452 -0.00070950
vn -0.00066833 0.62211040 -0.78292924
vn 0.83957423 0.54324452 0.00070950
vn 0.00066833 0.62211040 0.78292924
vn -0.99464601 -0.10333918 -0.00057522
vn -0.00054030 -0.04377300 -0.99904136
vn 0.99464601 -0.10333918 0.00057522
vn 0.00054030 -0.04377300 0.99904136
vn 0.00000000 -1.00000000 0.00000000
f 1//1 2//2 6//6
f 1//1 6//6 5//5
f 2//2 3//3 7//7
f 2//2 7//7 6//6
f 3//3 4//4 8//8
f 3//3 8//8 7//7
f 4//4 1//1 5//5
f 4//4 5//5 8//8
f 5//5 6//6 9//9
f 6//6 7//7 9//9
f 7//7 8//8 9//9
f 8//8 5//5 9//9
f 1//1 3//3 2//2
f 1//1 4//4 3//3
