# https://github.com/mikedh/trimesh
v -0.27000000 0.39000000 -0.03000000
v 0.00000000 0.41000000 -0.07500000
v 0.27000000 0.39000000 -0.03000000
v -0.38000000 -0.05000000 0.02000000
v 0.00000000 -0.03000000 -0.05500000
v 0.38000000 -0.05000000 0.02000000
v -0.48000000 -0.49000000 0.10000000
v 0.00000000 -0.46000000 0.02000000
v 0.48000000 -0.49000000 0.10000000
v -0.27000000 0.39000000 0.05000000
v 0.00000000 0.41000000 0.01500000
v 0.27000000 0.39000000 0.05000000
v -0.38000000 -0.05000000 0.10000000
v 0.00000000 -0.03000000 0.02500000
v 0.38000000 -0.05000000 0.10000000
v -0.48000000 -0.49000000 0.18000000
v 0.00000000 -0.46000000 0.10000000
v 0.48000000 -0.49000000 0.18000000
vn -0.56678514 0.59942772 -0.56519112
vn 0.00487566 0.67008381 -0.74226944
vn 0.56440826 0.59500902 -0.57219541
vn -0.75523177 0.07368747 -0.65130265
vn -0.00058216 -0.10538146 -0.99443170
vn 0.75612606 0.08397684 -0.64901562
vn -0.67363254 -0.57439391 -0.46507079
vn -0.00549066 -0.71913737 -0.69484624
vn 0.67542976 -0.57609424 -0.46033691
vn -0.47323801 0.63057560 0.61515868
vn -0.00921184 0.76423866 0.64486775
vn 0.48067607 0.63927648 0.60023003
vn -0.61960752 0.26846779 0.73757140
vn -0.00291860 0.09744642 0.99523649
vn 0.62068118 0.25397096 0.74179082
vn -0.57447818 -0.48673825 0.65807347
vn 0.00585846 -0.67104596 0.74139261
vn 0.57174248 -0.48413159 0.66236481
f 5//5 4//4 1//1
f 2//2 5//5 1//1
f 6//6 5//5 2//2
f 3//3 6//6 2//2
f 8//8 7//7 4//4
f 5//5 8//8 4//4
f 9//9 8//8 5//5
f 6//6 9//9 5//5
f 14//14 11//11 10//10
f 13//13 14//14 10//10
f 15//15 12//12 11//11
f 14//14 15//15 11//11
f 17//17 14//14 13//13
f 16//16 17//17 13//13
f 18//18 15//15 14//14
f 17//17 18//18 14//14
f 11//11 2//2 1//1
f 10//10 11//11 1//1
f 12//12 3//3 2//2
f 11//11 12//12 2//2
f 15//15 6//6 3//3
f 12//12 15//15 3//3
f 18//18 9//9 6//6
f 15//15 18//18 6//6
f 17//17 8//8 9//9
f 18//18 17//17 9//9
f 16//16 7//7 8//8
f 17//17 16//16 8//8
f 13//13 4//4 7//7
f 16//16 13//13 7//7
f 10//10 1//1 4//4
f 13//13 10//10 4//4
