# https://github.com/mikedh/trimesh
v -0.18000000 -0.11000000 -0.18000000
v 0.24000000 -0.11000000 -0.18000000
v 0.24000000 -0.11000000 0.18000000
v -0.18000000 -0.11000000 0.18000000
v -0.10500000 0.10000000 -0.15525000
v 0.20500000 0.10000000 -0.15525000
v 0.20500000 0.10000000 0.15525000
v -0.10500000 0.10000000 0.15525000
v 0.15000000 -0.09000000 -0.13000000
v 0.37000000 -0.05500000 -0.08000000
v 0.42000000 -0.01500000 0.00000000
v 0.37000000 -0.05500000 0.08000000
v 0.15000000 -0.09000000 0.13000000
v 0.12000000 0.06000000 -0.10000000
v 0.30000000 0.08500000 -0.06000000
v 0.34000000 0.10000000 0.00000000
v 0.30000000 0.08500000 0.06000000
v 0.12000000 0.06000000 0.10000000
v -0.08000000 0.08500000 -0.11000000
v 0.20000000 0.08500000 -0.11000000
v 0.20000000 0.08500000 0.11000000
v -0.08000000 0.08500000 0.11000000
v -0.03000000 0.17000000 -0.09650000
v 0.19000000 0.17000000 -0.09650000
v 0.19000000 0.17000000 0.09650000
v -0.03000000 0.17000000 0.09650000
f 1 2 3
f 1 3 4
f 5 7 6
f 5 8 7
f 1 5 6
f 1 6 2
f 2 6 7
f 2 7 3
f 3 7 8
f 3 8 4
f 4 8 5
f 4 5 1
f 9 10 15
f 9 15 14
f 10 11 16
f 10 16 15
f 11 12 17
f 11 17 16
f 12 13 18
f 12 18 17
f 14 15 16
f 14 16 17
f 14 17 18
f 9 14 18
f 9 18 13
f 9 13 12
f 9 12 11
f 9 11 10
f 19 20 21
f 19 21 22
f 23 25 24
f 23 26 25
f 19 23 24
f 19 24 20
f 20 24 25
f 20 25 21
f 21 25 26
f 21 26 22
f 22 26 23
f 22 23 19
