# https://github.com/mikedh/trimesh
v -0.13000000 -0.13000000 -0.30000000
v 0.13000000 -0.13000000 -0.30000000
v -0.14000000 -0.13000000 0.12000000
v 0.14000000 -0.13000000 0.12000000
v -0.11000000 0.14000000 -0.25000000
v 0.11000000 0.14000000 -0.25000000
v -0.12000000 0.14000000 0.10000000
v 0.12000000 0.14000000 0.10000000
vn -0.58144311 -0.51034041 -0.63362179
vn 0.58144311 -0.51034041 -0.63362179
vn -0.60307560 -0.53738037 0.58951010
vn 0.60307560 -0.53738037 0.58951010
vn -0.55265347 0.64515628 -0.52758650
vn 0.55265347 0.64515628 -0.52758650
vn -0.56500908 0.61495690 0.55008431
vn 0.56500908 0.61495690 0.55008431
f 7//7 1//1 3//3
f 5//5 1//1 7//7
f 4//4 2//2 8//8
f 2//2 6//6 8//8
f 3//3 1//1 2//2
f 2//2 4//4 3//3
f 6//6 2//2 1//1
f 6//6 1//1 5//5
f 3//3 4//4 8//8
f 8//8 7//7 3//3
f 8//8 6//6 5//5
f 5//5 7//7 8//8
