# https://github.com/mikedh/trimesh
v 0.10624615 -0.13000000 0.04018176
v 0.04400859 -0.13000000 0.09700735
v -0.04400859 -0.13000000 0.09700735
v -0.10624615 -0.13000000 0.04018176
v -0.10624615 -0.13000000 -0.04018176
v -0.04400859 -0.13000000 -0.09700735
v 0.04400859 -0.13000000 -0.09700735
v 0.10624615 -0.13000000 -0.04018176
v 0.08776856 0.13000000 0.03444151
v 0.03635493 0.13000000 0.08314916
v -0.03635493 0.13000000 0.08314916
v -0.08776856 0.13000000 0.03444151
v -0.08776856 0.13000000 -0.03444151
v -0.03635493 0.13000000 -0.08314916
v 0.03635493 0.13000000 -0.08314916
v 0.08776856 0.13000000 -0.03444151
v 0.00000000 -0.13000000 0.00000000
v 0.00000000 0.13000000 0.00000000
vn 0.73350007 -0.59945526 0.32036079
vn 0.28752927 -0.61130307 0.73731640
vn -0.28888207 -0.61048650 0.73746415
vn -0.73356852 -0.59864782 0.32171107
vn -0.73350007 -0.59945526 -0.32036079
vn -0.28752927 -0.61130307 -0.73731640
vn 0.28888207 -0.61048650 -0.73746415
vn 0.73356852 -0.59864782 -0.32171107
vn 0.69307213 0.65558484 0.29976581
vn 0.27682373 0.65589673 0.70225929
vn -0.27842366 0.65500156 0.70246226
vn -0.69324042 0.65466065 0.30139202
vn -0.69307213 0.65558484 -0.29976581
vn -0.27682373 0.65589673 -0.70225929
vn 0.27842366 0.65500156 -0.70246226
vn 0.69324042 0.65466065 -0.30139202
vn 0.00000000 -1.00000000 0.00000000
vn 0.00000000 1.00000000 0.00000000
f 10//10 2//2 1//1
f 9//9 10//10 1//1
f 11//11 3//3 2//2
f 10//10 11//11 2//2
f 12//12 4//4 3//3
f 11//11 12//12 3//3
f 13//13 5//5 4//4
f 12//12 13//13 4//4
f 14//14 6//6 5//5
f 13//13 14//14 5//5
f 15//15 7//7 6//6
f 14//14 15//15 6//6
f 16//16 8//8 7//7
f 15//15 16//16 7//7
f 9//9 1//1 8//8
f 16//16 9//9 8//8
f 1//1 2//2 17//17
f 10//10 9//9 18//18
f 2//2 3//3 17//17
f 11//11 10//10 18//18
f 3//3 4//4 17//17
f 12//12 11//11 18//18
f 4//4 5//5 17//17
f 13//13 12//12 18//18
f 5//5 6//6 17//17
f 14//14 13//13 18//18
f 6//6 7//7 17//17
f 15//15 14//14 18//18
f 7//7 8//8 17//17
f 16//16 15//15 18//18
f 8//8 1//1 17//17
f 9//9 16//16 18//18
