# https://github.com/mikedh/trimesh
v 0.25393713 -0.27000000 -0.11839411
v 0.30754046 -0.27000000 -0.00642950
v 0.29026298 -0.27000000 0.11277886
v 0.20608672 -0.27000000 0.21175627
v 0.07441234 -0.27000000 0.26769076
v -0.07441234 -0.27000000 0.26769076
v -0.20608672 -0.27000000 0.21175627
v -0.29026298 -0.27000000 0.11277886
v -0.30754046 -0.27000000 -0.00642950
v -0.25393713 -0.27000000 -0.11839411
v 0.26212865 0.04000000 -0.13560140
v 0.31746113 0.04000000 -0.01020104
v 0.29962630 0.04000000 0.12331232
v 0.21273468 0.04000000 0.23416702
v 0.07681273 0.04000000 0.29681365
v -0.07681273 0.04000000 0.29681365
v -0.21273468 0.04000000 0.23416702
v -0.29962630 0.04000000 0.12331232
v -0.31746113 0.04000000 -0.01020104
v -0.26212865 0.04000000 -0.13560140
v 0.16792617 0.26000000 -0.08111164
v 0.20337353 0.26000000 0.00174217
v 0.19194810 0.26000000 0.08995636
v 0.13628315 0.26000000 0.16319964
v 0.04920816 0.26000000 0.20459116
v -0.04920816 0.26000000 0.20459116
v -0.13628315 0.26000000 0.16319964
v -0.19194810 0.26000000 0.08995636
v -0.20337353 0.26000000 0.00174217
v -0.16792617 0.26000000 -0.08111164
v 0.00000000 0.43000000 0.06000000
v 0.21000000 0.08000000 -0.19000000
v 0.32000000 0.08000000 -0.02000000
v 0.29000000 -0.35000000 0.00000000
v 0.19000000 -0.35000000 -0.17000000
v 0.21000000 0.08000000 -0.12500000
v 0.32000000 0.08000000 0.04500000
v 0.29000000 -0.35000000 0.06500000
v 0.19000000 -0.35000000 -0.10500000
v -0.21000000 0.08000000 -0.19000000
v -0.32000000 0.08000000 -0.02000000
v -0.29000000 -0.35000000 0.00000000
v -0.19000000 -0.35000000 -0.17000000
v -0.21000000 0.08000000 -0.12500000
v -0.32000000 0.08000000 0.04500000
v -0.29000000 -0.35000000 0.06500000
v -0.19000000 -0.35000000 -0.10500000
vn -0.90480209 0.03736197 0.42419013
vn -0.98794216 0.03532874 0.15073874
vn -0.91381514 0.04808436 -0.40327383
vn -0.59706994 0.07577434 -0.79860237
vn -0.20003275 0.09317783 -0.97534855
vn 0.20442659 0.08782055 -0.97493452
vn 0.59854308 0.06363344 -0.79855930
vn 0.91254996 0.03950678 -0.40705256
vn 0.98865028 0.03862990 0.14518390
vn 0.90093279 0.04774814 0.43132380
vn -0.89604143 -0.20447256 0.39408213
vn -0.96768148 -0.21012797 0.13942304
vn -0.90238598 -0.20530729 -0.37887789
vn -0.61004282 -0.17914136 -0.77185240
vn -0.21043241 -0.15585906 -0.96510422
vn 0.21316550 -0.15424194 -0.96476416
vn 0.61091914 -0.17529108 -0.77204329
vn 0.90198237 -0.20240105 -0.38139431
vn 0.96791024 -0.21126790 0.13607217
vn 0.89338273 -0.20756129 0.39847911
vn -0.73073694 -0.60686503 0.31263136
vn -0.77954038 -0.61568601 0.11509795
vn -0.74400616 -0.59627593 -0.30151262
vn -0.52321699 -0.56016087 -0.64223343
vn -0.18627793 -0.53116951 -0.82653463
vn 0.18750839 -0.53021913 -0.82686654
vn 0.52422860 -0.55802851 -0.64326399
vn 0.74462185 -0.59479174 -0.30292092
vn 0.77930250 -0.61625485 0.11365550
vn 0.72878623 -0.60861720 0.31377658
vn 0.00000000 -0.90803333 -0.41889793
vn -0.20926748 0.52256225 -0.82652031
vn 0.75270692 0.61839787 -0.22586803
vn 0.70789566 -0.67918032 -0.19390161
vn -0.24785641 -0.55239881 -0.79587860
vn -0.71233522 0.67231706 0.20141576
vn 0.27621154 0.54953865 0.78848871
vn 0.18664479 -0.53841333 0.82175106
vn -0.74742506 -0.63099367 0.20785277
vn -0.20926748 -0.52256225 0.82652031
vn 0.75270692 -0.61839787 0.22586803
vn 0.70789566 0.67918032 0.19390161
vn -0.24785641 0.55239881 0.79587860
vn -0.71233522 -0.67231706 -0.20141576
vn 0.27621154 -0.54953865 -0.78848871
vn 0.18664479 0.53841333 -0.82175106
vn -0.74742506 0.63099367 -0.20785277
f 1//1 2//2 12//12
f 1//1 12//12 11//11
f 2//2 3//3 13//13
f 2//2 13//13 12//12
f 3//3 4//4 14//14
f 3//3 14//14 13//13
f 4//4 5//5 15//15
f 4//4 15//15 14//14
f 5//5 6//6 16//16
f 5//5 16//16 15//15
f 6//6 7//7 17//17
f 6//6 17//17 16//16
f 7//7 8//8 18//18
f 7//7 18//18 17//17
f 8//8 9//9 19//19
f 8//8 19//19 18//18
f 9//9 10//10 20//20
f 9//9 20//20 19//19
f 11//11 12//12 22//22
f 11//11 22//22 21//21
f 12//12 13//13 23//23
f 12//12 23//23 22//22
f 13//13 14//14 24//24
f 13//13 24//24 23//23
f 14//14 15//15 25//25
f 14//14 25//25 24//24
f 15//15 16//16 26//26
f 15//15 26//26 25//25
f 16//16 17//17 27//27
f 16//16 27//27 26//26
f 17//17 18//18 28//28
f 17//17 28//28 27//27
f 18//18 19//19 29//29
f 18//18 29//29 28//28
f 19//19 20//20 30//30
f 19//19 30//30 29//29
f 21//21 22//22 31//31
f 22//22 23//23 31//31
f 23//23 24//24 31//31
f 24//24 25//25 31//31
f 25//25 26//26 31//31
f 26//26 27//27 31//31
f 27//27 28//28 31//31
f 28//28 29//29 31//31
f 29//29 30//30 31//31
f 32//32 33//33 34//34
f 32//32 34//34 35//35
f 36//36 38//38 37//37
f 36//36 39//39 38//38
f 32//32 36//36 37//37
f 32//32 37//37 33//33
f 35//35 34//34 38//38
f 35//35 38//38 39//39
f 32//32 35//35 39//39
f 32//32 39//39 36//36
f 33//33 37//37 38//38
f 33//33 38//38 34//34
f 40//40 41//41 42//42
f 40//40 42//42 43//43
f 44//44 46//46 45//45
f 44//44 47//47 46//46
f 40//40 44//44 45//45
f 40//40 45//45 41//41
f 43//43 42//42 46//46
f 43//43 46//46 47//47
f 40//40 43//43 47//47
f 40//40 47//47 44//44
f 41//41 45//45 46//46
f 41//41 46//46 42//42
