# https://github.com/mikedh/trimesh
v -0.31000000 0.10000000 -0.20000000
v 0.31000000 0.10000000 -0.20000000
v -0.34000000 0.34000000 -0.18000000
v 0.34000000 0.34000000 -0.18000000
v -0.24000000 0.48000000 -0.13000000
v 0.24000000 0.48000000 -0.13000000
v -0.24000000 0.10000000 -0.30000000
v 0.24000000 0.10000000 -0.30000000
v -0.28000000 0.34000000 -0.31000000
v 0.28000000 0.34000000 -0.31000000
v -0.18000000 0.48000000 -0.24000000
v 0.18000000 0.48000000 -0.24000000
vn -0.67861559 -0.64946944 0.34303110
vn 0.67861559 -0.64946944 0.34303110
vn -0.92759126 0.17545829 0.32983153
vn 0.92759126 0.17545829 0.32983153
vn -0.46320397 0.65356740 0.59857475
vn 0.46320397 0.65356740 0.59857475
vn -0.32177742 -0.65668310 -0.68207521
vn 0.32177742 -0.65668310 -0.68207521
vn -0.54465086 0.25922832 -0.79759396
vn 0.54465086 0.25922832 -0.79759396
vn -0.22116865 0.83208321 -0.50864718
vn 0.22116865 0.83208321 -0.50864718
f 9//9 1//1 3//3
f 3//3 1//1 5//5
f 5//5 9//9 3//3
f 4//4 2//2 10//10
f 10//10 2//2 8//8
f 1//1 9//9 7//7
f 6//6 2//2 4//4
f 4//4 10//10 6//6
f 9//9 5//5 11//11
f 12//12 6//6 10//10
f 8//8 2//2 7//7
f 7//7 2//2 1//1
f 9//9 10//10 7//7
f 7//7 10//10 8//8
f 1//1 2//2 6//6
f 6//6 5//5 1//1
f 12//12 10//10 9//9
f 9//9 11//11 12//12
f 5//5 6//6 12//12
f 12//12 11//11 5//5
