# ONE MORE FLOOR v1.60 — character quality pass r5 — anatomical leg
# Authored geometry; glTF animation pivots remain external.

o wanderer_leg
v 0.07021484 -0.31000000 0.03661467
v 0.02908394 -0.31000000 0.07991036
v -0.02908394 -0.31000000 0.07991036
v -0.07021484 -0.31000000 0.03661467
v -0.07021484 -0.31000000 -0.02461467
v -0.02908394 -0.31000000 -0.06791036
v 0.02908394 -0.31000000 -0.06791036
v 0.07021484 -0.31000000 -0.02461467
v 0.09700735 -0.16500000 0.05441639
v 0.04018176 -0.16500000 0.11015959
v -0.04018176 -0.16500000 0.11015959
v -0.09700735 -0.16500000 0.05441639
v -0.09700735 -0.16500000 -0.02441639
v -0.04018176 -0.16500000 -0.08015959
v 0.04018176 -0.16500000 -0.08015959
v 0.09700735 -0.16500000 -0.02441639
v 0.07945364 -0.01500000 0.02329346
v 0.03291078 -0.01500000 0.07037752
v -0.03291078 -0.01500000 0.07037752
v -0.07945364 -0.01500000 0.02329346
v -0.07945364 -0.01500000 -0.04329346
v -0.03291078 -0.01500000 -0.09037752
v 0.03291078 -0.01500000 -0.09037752
v 0.07945364 -0.01500000 -0.04329346
v 0.10901778 0.14500000 0.04609518
v 0.04515665 0.14500000 0.10562675
v -0.04515665 0.14500000 0.10562675
v -0.10901778 0.14500000 0.04609518
v -0.10901778 0.14500000 -0.03809518
v -0.04515665 0.14500000 -0.09762675
v 0.04515665 0.14500000 -0.09762675
v 0.10901778 0.14500000 -0.03809518
v 0.13119089 0.31500000 0.05945275
v 0.05434105 0.31500000 0.12656106
v -0.05434105 0.31500000 0.12656106
v -0.13119089 0.31500000 0.05945275
v -0.13119089 0.31500000 -0.03545275
v -0.05434105 0.31500000 -0.10256106
v 0.05434105 0.31500000 -0.10256106
v 0.13119089 0.31500000 -0.03545275
v 0.00000000 -0.31000000 0.00600000
v 0.00000000 0.31500000 0.01200000
v -0.07000000 -0.07500000 -0.09500000
v 0.07000000 -0.07500000 -0.09500000
v 0.07500000 0.05000000 -0.09600000
v -0.07500000 0.05000000 -0.09600000
v -0.05800000 -0.06000000 -0.12500000
v 0.05800000 -0.06000000 -0.12500000
v 0.06000000 0.03500000 -0.13000000
v -0.06000000 0.03500000 -0.13000000
f 10 2 1
f 9 10 1
f 11 3 2
f 10 11 2
f 12 4 3
f 11 12 3
f 13 5 4
f 12 13 4
f 14 6 5
f 13 14 5
f 15 7 6
f 14 15 6
f 16 8 7
f 15 16 7
f 9 1 8
f 16 9 8
f 18 10 9
f 17 18 9
f 19 11 10
f 18 19 10
f 20 12 11
f 19 20 11
f 21 13 12
f 20 21 12
f 22 14 13
f 21 22 13
f 23 15 14
f 22 23 14
f 24 16 15
f 23 24 15
f 17 9 16
f 24 17 16
f 26 18 17
f 25 26 17
f 27 19 18
f 26 27 18
f 28 20 19
f 27 28 19
f 29 21 20
f 28 29 20
f 30 22 21
f 29 30 21
f 31 23 22
f 30 31 22
f 32 24 23
f 31 32 23
f 25 17 24
f 32 25 24
f 34 26 25
f 33 34 25
f 35 27 26
f 34 35 26
f 36 28 27
f 35 36 27
f 37 29 28
f 36 37 28
f 38 30 29
f 37 38 29
f 39 31 30
f 38 39 30
f 40 32 31
f 39 40 31
f 33 25 32
f 40 33 32
f 2 41 1
f 3 41 2
f 4 41 3
f 5 41 4
f 6 41 5
f 7 41 6
f 8 41 7
f 1 41 8
f 33 42 34
f 34 42 35
f 35 42 36
f 36 42 37
f 37 42 38
f 38 42 39
f 39 42 40
f 40 42 33
f 43 46 45
f 43 45 44
f 47 48 49
f 47 49 50
f 43 44 48
f 43 48 47
f 44 45 49
f 44 49 48
f 45 46 50
f 45 50 49
f 46 43 47
f 46 47 50
