# ONE MORE FLOOR v1.60 — character quality pass r3
# https://github.com/mikedh/trimesh

o wanderer_mask.obj
v -0.16500000 0.14500000 -0.25500000
v 0.16500000 0.14500000 -0.25500000
v 0.15500000 -0.06000000 -0.27000000
v 0.07200000 -0.19500000 -0.26000000
v -0.07200000 -0.19500000 -0.26000000
v -0.15500000 -0.06000000 -0.27000000
v 0.00000000 -0.02500000 -0.31500000
v -0.16500000 0.14500000 -0.20500000
v 0.16500000 0.14500000 -0.20500000
v 0.15500000 -0.06000000 -0.20500000
v 0.07200000 -0.19500000 -0.20500000
v -0.07200000 -0.19500000 -0.20500000
v -0.15500000 -0.06000000 -0.20500000
v 0.00000000 -0.02500000 -0.20500000
v -0.05500000 0.03500000 -0.31600000
v -0.15500000 0.01500000 -0.27500000
v -0.14200000 -0.09000000 -0.27800000
v -0.05000000 -0.11500000 -0.30500000
v -0.06200000 0.03000000 -0.28500000
v -0.13500000 -0.01000000 -0.24500000
v 0.05500000 0.03500000 -0.31600000
v 0.15500000 0.01500000 -0.27500000
v 0.14200000 -0.09000000 -0.27800000
v 0.05000000 -0.11500000 -0.30500000
v 0.06200000 0.03000000 -0.28500000
v 0.13500000 -0.01000000 -0.24500000
v -0.15000000 0.07500000 -0.28600000
v -0.01800000 0.05500000 -0.32000000
v 0.00000000 0.04500000 -0.32600000
v -0.14500000 0.11500000 -0.27000000
v -0.02000000 0.09500000 -0.30000000
v 0.15000000 0.07500000 -0.28600000
v 0.01800000 0.05500000 -0.32000000
v 0.00000000 0.04500000 -0.32600000
v 0.14500000 0.11500000 -0.27000000
v 0.02000000 0.09500000 -0.30000000
f 7 1 2
f 14 9 8
f 1 8 9
f 1 9 2
f 7 2 3
f 14 10 9
f 2 9 10
f 2 10 3
f 7 3 4
f 14 11 10
f 3 10 11
f 3 11 4
f 7 4 5
f 14 12 11
f 4 11 12
f 4 12 5
f 7 5 6
f 14 13 12
f 5 12 13
f 5 13 6
f 7 6 1
f 14 8 13
f 6 13 8
f 6 8 1
f 19 15 16
f 16 20 19
f 18 15 19
f 19 20 18
f 16 15 17
f 17 15 18
f 17 20 16
f 18 20 17
f 25 21 24
f 24 26 25
f 22 21 25
f 25 26 22
f 24 21 23
f 23 21 22
f 23 26 24
f 22 26 23
f 28 29 27
f 27 30 28
f 27 29 31
f 31 30 27
f 29 28 31
f 31 28 30
f 33 32 34
f 33 35 32
f 34 32 36
f 32 35 36
f 36 33 34
f 35 33 36
