# https://github.com/mikedh/trimesh
v 0.22173109 -0.34000000 0.07505618
v 0.09184402 -0.34000000 0.16705952
v -0.09184402 -0.34000000 0.16705952
v -0.22173109 -0.34000000 0.07505618
v -0.22173109 -0.34000000 -0.05505618
v -0.09184402 -0.34000000 -0.14705952
v 0.09184402 -0.34000000 -0.14705952
v 0.22173109 -0.34000000 -0.05505618
v 0.26792506 -0.08000000 0.07653669
v 0.11097820 -0.08000000 0.18477591
v -0.11097820 -0.08000000 0.18477591
v -0.26792506 -0.08000000 0.07653669
v -0.26792506 -0.08000000 -0.07653669
v -0.11097820 -0.08000000 -0.18477591
v 0.11097820 -0.08000000 -0.18477591
v 0.26792506 -0.08000000 -0.07653669
v 0.32335784 0.22000000 0.07801719
v 0.13393920 0.22000000 0.20249229
v -0.13393920 0.22000000 0.20249229
v -0.32335784 0.22000000 0.07801719
v -0.32335784 0.22000000 -0.09801719
v -0.13393920 0.22000000 -0.22249229
v 0.13393920 0.22000000 -0.22249229
v 0.32335784 0.22000000 -0.09801719
v 0.29564145 0.42000000 0.08036352
v 0.12245870 0.42000000 0.19401470
v -0.12245870 0.42000000 0.19401470
v -0.29564145 0.42000000 0.08036352
v -0.29564145 0.42000000 -0.08036352
v -0.12245870 0.42000000 -0.19401470
v 0.12245870 0.42000000 -0.19401470
v 0.29564145 0.42000000 -0.08036352
v 0.00000000 -0.34000000 0.01000000
v 0.00000000 0.42000000 0.00000000
vn 0.64696670 -0.67402476 0.35654554
vn 0.21643638 -0.67677161 0.70365864
vn -0.21442514 -0.67765518 0.70342400
vn -0.64704641 -0.67515732 0.35425066
vn -0.64340093 -0.68733123 -0.33706235
vn -0.21216877 -0.70298136 -0.67882370
vn 0.21014604 -0.70387684 -0.67852490
vn 0.64348762 -0.68832508 -0.33486157
vn 0.87157989 -0.15739788 0.46429990
vn 0.29640677 -0.08398496 0.95136195
vn -0.29315660 -0.08501346 0.95227723
vn -0.87295186 -0.15946909 0.46100396
vn -0.86689771 -0.18962513 -0.46101049
vn -0.29370631 -0.15083391 -0.94392041
vn 0.29042021 -0.15201677 -0.94474706
vn 0.86825645 -0.19133726 -0.45773442
vn 0.89025724 -0.02288926 0.45488253
vn 0.29697041 -0.01317145 0.95479584
vn -0.29499368 -0.01074726 0.95543876
vn -0.89114323 -0.02085113 0.45324273
vn -0.88077097 -0.01504052 -0.47330358
vn -0.29275899 0.00253045 -0.95618292
vn 0.29082331 0.00482029 -0.95676464
vn 0.88168637 -0.01288387 -0.47166000
vn 0.65487557 0.65661599 0.37415697
vn 0.20730351 0.66891381 0.71384843
vn -0.20717193 0.66896509 0.71383857
vn -0.65489597 0.65668011 0.37400868
vn -0.65102916 0.67444180 -0.34826612
vn -0.20182245 0.70334902 -0.68159215
vn 0.20168975 0.70340135 -0.68157742
vn 0.65104826 0.67449574 -0.34812592
vn 0.00000000 -1.00000000 0.00000000
vn 0.00000000 1.00000000 0.00000000
f 10//10 2//2 1//1
f 9//9 10//10 1//1
f 11//11 3//3 2//2
f 10//10 11//11 2//2
f 12//12 4//4 3//3
f 11//11 12//12 3//3
f 13//13 5//5 4//4
f 12//12 13//13 4//4
f 14//14 6//6 5//5
f 13//13 14//14 5//5
f 15//15 7//7 6//6
f 14//14 15//15 6//6
f 16//16 8//8 7//7
f 15//15 16//16 7//7
f 9//9 1//1 8//8
f 16//16 9//9 8//8
f 18//18 10//10 9//9
f 17//17 18//18 9//9
f 19//19 11//11 10//10
f 18//18 19//19 10//10
f 20//20 12//12 11//11
f 19//19 20//20 11//11
f 21//21 13//13 12//12
f 20//20 21//21 12//12
f 22//22 14//14 13//13
f 21//21 22//22 13//13
f 23//23 15//15 14//14
f 22//22 23//23 14//14
f 24//24 16//16 15//15
f 23//23 24//24 15//15
f 17//17 9//9 16//16
f 24//24 17//17 16//16
f 26//26 18//18 17//17
f 25//25 26//26 17//17
f 27//27 19//19 18//18
f 26//26 27//27 18//18
f 28//28 20//20 19//19
f 27//27 28//28 19//19
f 29//29 21//21 20//20
f 28//28 29//29 20//20
f 30//30 22//22 21//21
f 29//29 30//30 21//21
f 31//31 23//23 22//22
f 30//30 31//31 22//22
f 32//32 24//24 23//23
f 31//31 32//32 23//23
f 25//25 17//17 24//24
f 32//32 25//25 24//24
f 1//1 2//2 33//33
f 26//26 25//25 34//34
f 2//2 3//3 33//33
f 27//27 26//26 34//34
f 3//3 4//4 33//33
f 28//28 27//27 34//34
f 4//4 5//5 33//33
f 29//29 28//28 34//34
f 5//5 6//6 33//33
f 30//30 29//29 34//34
f 6//6 7//7 33//33
f 31//31 30//30 34//34
f 7//7 8//8 33//33
f 32//32 31//31 34//34
f 8//8 1//1 33//33
f 25//25 32//32 34//34
