# ONE MORE FLOOR v1.60 — Wanderer hood r11 — smooth cloth volume
# Closed manifold; smoother ring profile with broad continuous cowl.
o wanderer_hood_r11
s 1
v 0.000000 -0.360000 0.323000
v 0.111246 -0.360000 0.313234
v 0.211603 -0.360000 0.288603
v 0.291246 -0.360000 0.249177
v 0.342380 -0.360000 0.198534
v 0.360000 -0.360000 0.142500
v 0.342380 -0.360000 0.086046
v 0.291246 -0.360000 0.035827
v 0.211603 -0.360000 -0.003603
v 0.111246 -0.360000 -0.028234
v 0.000000 -0.360000 -0.037999
v -0.111246 -0.360000 -0.028234
v -0.211603 -0.360000 -0.003603
v -0.291246 -0.360000 0.035827
v -0.342380 -0.360000 0.086046
v -0.360000 -0.360000 0.142500
v -0.342380 -0.360000 0.198534
v -0.291246 -0.360000 0.249177
v -0.211603 -0.360000 0.288603
v -0.111246 -0.360000 0.313234
v 0.000000 -0.270000 0.310000
v 0.114336 -0.270000 0.300832
v 0.217481 -0.270000 0.275601
v 0.299336 -0.270000 0.235522
v 0.351891 -0.270000 0.184171
v 0.370000 -0.270000 0.129904
v 0.351891 -0.270000 0.074929
v 0.299336 -0.270000 0.025946
v 0.217481 -0.270000 -0.012601
v 0.114336 -0.270000 -0.037603
v 0.000000 -0.270000 -0.046772
v -0.114336 -0.270000 -0.037603
v -0.217481 -0.270000 -0.012601
v -0.299336 -0.270000 0.025946
v -0.351891 -0.270000 0.074929
v -0.370000 -0.270000 0.129904
v -0.351891 -0.270000 0.184171
v -0.299336 -0.270000 0.235522
v -0.217481 -0.270000 0.275601
v -0.114336 -0.270000 0.300832
v 0.000000 -0.140000 0.305000
v 0.105066 -0.140000 0.297058
v 0.199847 -0.140000 0.275303
v 0.275066 -0.140000 0.240058
v 0.323359 -0.140000 0.196033
v 0.340000 -0.140000 0.143300
v 0.323359 -0.140000 0.090033
v 0.275066 -0.140000 0.044058
v 0.199847 -0.140000 0.003303
v 0.105066 -0.140000 -0.026058
v 0.000000 -0.140000 -0.034000
v -0.105066 -0.140000 -0.026058
v -0.199847 -0.140000 0.003303
v -0.275066 -0.140000 0.044058
v -0.323359 -0.140000 0.090033
v -0.340000 -0.140000 0.143300
v -0.323359 -0.140000 0.196033
v -0.275066 -0.140000 0.240058
v -0.199847 -0.140000 0.275303
v -0.105066 -0.140000 0.297058
v 0.000000 0.000000 0.285000
v 0.098885 0.000000 0.277433
v 0.188091 0.000000 0.258323
v 0.258885 0.000000 0.227433
v 0.304338 0.000000 0.184110
v 0.320000 0.000000 0.134500
v 0.304338 0.000000 0.084890
v 0.258885 0.000000 0.041567
v 0.188091 0.000000 0.010677
v 0.098885 0.000000 -0.008433
v 0.000000 0.000000 -0.016000
v -0.098885 0.000000 -0.008433
v -0.188091 0.000000 0.010677
v -0.258885 0.000000 0.041567
v -0.304338 0.000000 0.084890
v -0.320000 0.000000 0.134500
v -0.304338 0.000000 0.184110
v -0.258885 0.000000 0.227433
v -0.188091 0.000000 0.258323
v -0.098885 0.000000 0.277433
v 0.000000 0.150000 0.260000
v 0.088070 0.150000 0.255960
v 0.167519 0.150000 0.241097
v 0.230570 0.150000 0.216532
v 0.271051 0.150000 0.182655
v 0.285000 0.150000 0.148734
v 0.271051 0.150000 0.098845
v 0.230570 0.150000 0.056468
v 0.167519 0.150000 0.024903
v 0.088070 0.150000 0.005040
v 0.000000 0.150000 -0.002000
v -0.088070 0.150000 0.005040
v -0.167519 0.150000 0.024903
v -0.230570 0.150000 0.056468
v -0.271051 0.150000 0.098845
v -0.285000 0.150000 0.148734
v -0.271051 0.150000 0.182655
v -0.230570 0.150000 0.216532
v -0.167519 0.150000 0.241097
v -0.088070 0.150000 0.255960
v 0.000000 0.270000 0.225000
v 0.069529 0.270000 0.223726
v 0.132252 0.270000 0.219345
v 0.182029 0.270000 0.211655
v 0.213988 0.270000 0.195092
v 0.225000 0.270000 0.176058
v 0.213988 0.270000 0.147708
v 0.182029 0.270000 0.125336
v 0.132252 0.270000 0.106655
v 0.069529 0.270000 0.094226
v 0.000000 0.270000 0.090000
v -0.069529 0.270000 0.094226
v -0.132252 0.270000 0.106655
v -0.182029 0.270000 0.125336
v -0.213988 0.270000 0.147708
v -0.225000 0.270000 0.176058
v -0.213988 0.270000 0.195092
v -0.182029 0.270000 0.211655
v -0.132252 0.270000 0.219345
v -0.069529 0.270000 0.223726
v 0.000000 0.350000 0.165000
v 0.041717 0.350000 0.160000
v 0.079351 0.350000 0.144553
v 0.109217 0.350000 0.120612
v 0.128393 0.350000 0.090705
v 0.135000 0.350000 0.057262
v 0.128393 0.350000 0.023795
v 0.109217 0.350000 -0.006112
v 0.079351 0.350000 -0.030053
v 0.041717 0.350000 -0.045000
v 0.000000 0.350000 -0.050000
v -0.041717 0.350000 -0.045000
v -0.079351 0.350000 -0.030053
v -0.109217 0.350000 -0.006112
v -0.128393 0.350000 0.023795
v -0.135000 0.350000 0.057262
v -0.128393 0.350000 0.090705
v -0.109217 0.350000 0.120612
v -0.079351 0.350000 0.144553
v -0.041717 0.350000 0.160000
v 0.000000 -0.385000 0.075000
v 0.000000 0.395000 0.055000
f 1 2 22
f 1 22 21
f 2 3 23
f 2 23 22
f 3 4 24
f 3 24 23
f 4 5 25
f 4 25 24
f 5 6 26
f 5 26 25
f 6 7 27
f 6 27 26
f 7 8 28
f 7 28 27
f 8 9 29
f 8 29 28
f 9 10 30
f 9 30 29
f 10 11 31
f 10 31 30
f 11 12 32
f 11 32 31
f 12 13 33
f 12 33 32
f 13 14 34
f 13 34 33
f 14 15 35
f 14 35 34
f 15 16 36
f 15 36 35
f 16 17 37
f 16 37 36
f 17 18 38
f 17 38 37
f 18 19 39
f 18 39 38
f 19 20 40
f 19 40 39
f 20 1 21
f 20 21 40
f 21 22 42
f 21 42 41
f 22 23 43
f 22 43 42
f 23 24 44
f 23 44 43
f 24 25 45
f 24 45 44
f 25 26 46
f 25 46 45
f 26 27 47
f 26 47 46
f 27 28 48
f 27 48 47
f 28 29 49
f 28 49 48
f 29 30 50
f 29 50 49
f 30 31 51
f 30 51 50
f 31 32 52
f 31 52 51
f 32 33 53
f 32 53 52
f 33 34 54
f 33 54 53
f 34 35 55
f 34 55 54
f 35 36 56
f 35 56 55
f 36 37 57
f 36 57 56
f 37 38 58
f 37 58 57
f 38 39 59
f 38 59 58
f 39 40 60
f 39 60 59
f 40 21 41
f 40 41 60
f 41 42 62
f 41 62 61
f 42 43 63
f 42 63 62
f 43 44 64
f 43 64 63
f 44 45 65
f 44 65 64
f 45 46 66
f 45 66 65
f 46 47 67
f 46 67 66
f 47 48 68
f 47 68 67
f 48 49 69
f 48 69 68
f 49 50 70
f 49 70 69
f 50 51 71
f 50 71 70
f 51 52 72
f 51 72 71
f 52 53 73
f 52 73 72
f 53 54 74
f 53 74 73
f 54 55 75
f 54 75 74
f 55 56 76
f 55 76 75
f 56 57 77
f 56 77 76
f 57 58 78
f 57 78 77
f 58 59 79
f 58 79 78
f 59 60 80
f 59 80 79
f 60 41 61
f 60 61 80
f 61 62 82
f 61 82 81
f 62 63 83
f 62 83 82
f 63 64 84
f 63 84 83
f 64 65 85
f 64 85 84
f 65 66 86
f 65 86 85
f 66 67 87
f 66 87 86
f 67 68 88
f 67 88 87
f 68 69 89
f 68 89 88
f 69 70 90
f 69 90 89
f 70 71 91
f 70 91 90
f 71 72 92
f 71 92 91
f 72 73 93
f 72 93 92
f 73 74 94
f 73 94 93
f 74 75 95
f 74 95 94
f 75 76 96
f 75 96 95
f 76 77 97
f 76 97 96
f 77 78 98
f 77 98 97
f 78 79 99
f 78 99 98
f 79 80 100
f 79 100 99
f 80 61 81
f 80 81 100
f 81 82 102
f 81 102 101
f 82 83 103
f 82 103 102
f 83 84 104
f 83 104 103
f 84 85 105
f 84 105 104
f 85 86 106
f 85 106 105
f 86 87 107
f 86 107 106
f 87 88 108
f 87 108 107
f 88 89 109
f 88 109 108
f 89 90 110
f 89 110 109
f 90 91 111
f 90 111 110
f 91 92 112
f 91 112 111
f 92 93 113
f 92 113 112
f 93 94 114
f 93 114 113
f 94 95 115
f 94 115 114
f 95 96 116
f 95 116 115
f 96 97 117
f 96 117 116
f 97 98 118
f 97 118 117
f 98 99 119
f 98 119 118
f 99 100 120
f 99 120 119
f 100 81 101
f 100 101 120
f 101 102 122
f 101 122 121
f 102 103 123
f 102 123 122
f 103 104 124
f 103 124 123
f 104 105 125
f 104 125 124
f 105 106 126
f 105 126 125
f 106 107 127
f 106 127 126
f 107 108 128
f 107 128 127
f 108 109 129
f 108 129 128
f 109 110 130
f 109 130 129
f 110 111 131
f 110 131 130
f 111 112 132
f 111 132 131
f 112 113 133
f 112 133 132
f 113 114 134
f 113 134 133
f 114 115 135
f 114 135 134
f 115 116 136
f 115 136 135
f 116 117 137
f 116 137 136
f 117 118 138
f 117 138 137
f 118 119 139
f 118 139 138
f 119 120 140
f 119 140 139
f 120 101 121
f 120 121 140
f 141 2 1
f 141 3 2
f 141 4 3
f 141 5 4
f 141 6 5
f 141 7 6
f 141 8 7
f 141 9 8
f 141 10 9
f 141 11 10
f 141 12 11
f 141 13 12
f 141 14 13
f 141 15 14
f 141 16 15
f 141 17 16
f 141 18 17
f 141 19 18
f 141 20 19
f 141 1 20
f 142 121 122
f 142 122 123
f 142 123 124
f 142 124 125
f 142 125 126
f 142 126 127
f 142 127 128
f 142 128 129
f 142 129 130
f 142 130 131
f 142 131 132
f 142 132 133
f 142 133 134
f 142 134 135
f 142 135 136
f 142 136 137
f 142 137 138
f 142 138 139
f 142 139 140
f 142 140 121
